<svg width="88" height="88" viewBox="0 0 88 88" fill="none" xmlns="http://www.w3.org/2000/svg">
<path d="M57.4188 65.8085C58.9416 64.3254 60.0499 62.4319 60.966 60.8046C62.8836 57.444 64.6109 54.0025 66.3447 50.5897L68.9383 45.4839C69.2049 44.9682 69.4537 44.3509 69.5784 43.6508C69.6994 42.9472 69.6708 42.0954 69.3352 41.316C69.0158 40.5296 68.4464 39.9339 67.8936 39.5189C67.3574 39.1134 66.7028 38.7764 65.9332 38.6138C65.1671 38.4541 64.3201 38.5286 63.6253 38.7891C62.9168 39.0402 62.3531 39.4316 61.8759 39.8417C61.7064 39.9925 57.3403 43.8751 57.6172 43.6289C57.3536 43.865 57.2384 43.9679 57.1142 44.0508C57.1104 43.9979 57.1069 43.5213 57.1062 43.4597C57.1028 43.222 56.9212 30.4354 56.9269 30.8382L56.8616 26.9544L56.8182 25.0126C56.8093 24.3651 56.7645 23.5311 56.5492 22.7597C56.3384 21.9801 55.9451 21.1243 55.2036 20.4658C54.4754 19.7887 53.4316 19.4916 52.5652 19.5177C51.6948 19.5093 50.7128 19.8153 49.9886 20.4404C49.2601 21.0638 48.8465 21.8887 48.6333 22.6659C48.54 22.9917 48.4979 23.3251 48.4648 23.6529C48.6726 21.5146 48.6954 21.2309 48.7101 19.2985C48.7012 19.121 48.6874 18.9412 48.658 18.7796C48.407 17.4825 47.8384 16.5435 46.9517 15.6767C46.7033 15.4543 46.5062 15.2776 46.0952 15.0497C45.5661 14.7897 45.1634 14.754 44.8009 14.7277C44.0871 14.7026 43.5054 14.8096 42.9054 14.9972C42.3394 15.1758 41.6488 15.4981 41.0628 16.1823C40.5507 16.8042 40.3271 17.3986 40.1446 17.9658C39.8418 18.911 39.8063 19.8994 39.7972 20.6778C39.7816 20.6577 39.7733 20.6368 39.7572 20.6168C39.3078 20.0681 38.6686 19.6024 37.9779 19.3509C37.2791 19.0954 36.6013 19.0331 35.9376 19.0851C35.26 19.1468 34.5146 19.386 33.8936 19.8241C33.2679 20.2572 32.8034 20.8522 32.5053 21.4399C31.9163 22.6305 31.8093 23.7792 31.8381 24.8089C31.8549 25.1582 31.8668 25.5076 31.8806 25.857C31.7571 25.6803 31.6411 25.502 31.4837 25.3334C30.5392 24.3202 29.0527 23.9429 27.9002 24.0778C26.665 24.1545 25.2916 24.9539 24.6449 26.0402C23.9831 27.1108 23.7874 28.2153 23.7832 29.2056C23.8517 30.9589 23.9017 32.4917 24.0518 34.1457C24.299 37.3963 24.6638 40.647 25.3623 43.8959C26.0643 40.6474 26.4323 37.4005 26.6829 34.1535C26.8432 32.559 26.867 30.8426 26.9757 29.3478C27.0356 28.7239 27.1995 28.1807 27.4274 27.8831C27.653 27.5878 27.8253 27.4909 28.2138 27.4468C28.667 27.4088 28.9094 27.4969 29.0996 27.6766C29.3237 27.8506 29.5303 28.323 29.6403 28.9062C29.7428 29.4305 29.7548 30.3656 29.8076 31.1537C29.8422 31.9681 29.9064 32.7821 29.9824 33.5956C30.1043 35.2229 30.2938 36.848 30.4974 38.4706L30.8717 40.9011C30.972 41.4842 31.4354 41.581 31.6421 41.6238C31.8975 41.6664 32.1276 41.6583 32.3525 41.6245C32.5762 41.5819 32.7925 41.518 32.9938 41.4162C33.1821 41.3234 33.4153 41.1439 33.3865 40.9179C33.1919 41.2884 32.6947 41.1688 32.3583 41.1131C32.1775 41.0724 32.0003 41.0134 31.8686 40.9336C31.7102 40.8577 31.7319 40.7267 31.8096 40.875L32.1588 38.4324C32.2941 37.2545 32.412 36.0784 32.5122 34.9029C32.7267 36.906 33.0009 38.9105 33.3865 40.9179C34.0978 37.3487 34.4751 33.7705 34.735 30.1905C34.8964 28.4006 34.9366 26.6095 35.0338 24.8186C35.0742 24.0694 35.1861 23.3859 35.4286 22.979C35.6845 22.578 35.8233 22.5028 36.2394 22.4543C36.7492 22.4187 37.002 22.506 37.2362 22.7575C37.4917 23.0223 37.7054 23.6112 37.7854 24.307C37.8347 24.6239 37.8494 25.0534 37.8711 25.5209C37.9573 27.2159 37.9502 27.6902 38.105 29.5508C38.3637 33.1317 38.7426 36.7104 39.4577 40.2777C39.8307 38.3474 40.1015 36.4205 40.3137 34.4953C40.3955 35.4278 40.4872 36.3604 40.5836 37.2931L40.9313 39.9976C41.3517 40.3495 39.8467 41.1163 39.4577 40.2777C39.4076 40.8135 40.0875 41.071 40.5588 41.0814C40.8203 41.0862 41.096 41.0489 41.3766 40.8823C41.5155 40.8038 41.6545 40.6656 41.7446 40.4843C41.836 40.2891 41.8478 40.0846 41.8642 40.0097L42.2364 37.3144C42.9166 31.2785 43.0897 27.2247 43.1746 21.1258C43.0868 19.2783 43.367 18.0583 43.9864 18.0143C44.2326 17.9009 44.5478 17.827 44.7346 17.8122C44.8196 17.7991 44.8738 17.8243 44.7513 17.7601C44.7387 17.7402 44.9063 17.8337 44.9966 17.9065C45.4359 18.2443 45.909 18.8773 46.0756 19.3341L46.125 19.4818L46.1706 19.8081L46.2577 20.4627L46.4216 21.781L46.7312 24.4483C46.9616 26.2374 47.147 28.0485 47.5243 29.849C47.8988 28.0496 48.1579 26.2611 48.393 24.4505C48.4084 24.3107 48.4166 24.1687 48.431 24.0286C48.4155 24.3374 48.4076 24.6444 48.4157 24.9144L48.4647 26.856C48.5967 31.8089 48.5922 32.9603 48.8059 38.509C48.8121 38.6793 48.8904 40.839 48.8842 40.6687C48.7101 40.731 48.4278 40.7525 48.2242 40.7079C48.145 40.6965 48.0846 40.6702 48.0632 40.6627C48.0144 39.5511 47.9218 37.4403 47.9294 37.6139C47.8319 35.0272 47.6699 32.4395 47.5243 29.849C47.4 32.4395 47.2594 35.033 47.1832 37.6274C47.1764 37.8206 47.0745 40.7206 47.0806 40.5469L47.0744 40.804C47.0856 41.0127 47.1738 41.2021 47.2904 41.3351C47.526 41.5905 47.7507 41.6578 47.9588 41.7261C48.3804 41.8408 48.7647 41.8545 49.2144 41.7485C49.4265 41.6801 49.7268 41.6009 49.9628 41.2009C50.0193 41.1116 50.0417 40.9841 50.0601 40.8708L50.0709 40.7125C50.0781 40.5422 50.171 38.3566 50.1637 38.5269C50.2797 35.9364 50.384 33.3451 50.4552 30.7531C50.4607 30.5794 50.6503 24.5576 50.6389 24.9207C50.6546 24.289 50.7131 23.7994 50.8663 23.3242C51.1869 22.3671 51.7289 21.9792 52.5531 22.0046C53.3676 22.0468 53.7325 22.4499 53.9858 23.4153C54.0923 23.9019 54.1092 24.3724 54.0929 25.0182L54.0568 26.9622L54.0058 30.85C54.0037 31.0513 53.8712 43.6814 53.8732 43.4864L53.8701 43.9724C53.8657 44.1351 53.8887 44.5221 53.9378 44.741C54.145 45.7355 54.4971 46.3373 54.6148 46.7682C54.8796 47.7117 55.8884 48.1632 56.7436 47.8007L56.873 47.7458L58.1804 47.1915C58.704 46.9899 59.4529 46.4253 59.7034 46.1658C59.8735 46.0171 64.3264 42.1247 64.0529 42.3639C64.5765 41.9232 64.9563 41.8315 65.2584 41.9005C65.4245 41.9397 65.6484 42.0346 65.8706 42.2102C66.0734 42.3708 66.1798 42.5039 66.2148 42.6118C66.3082 42.7808 66.2873 43.2897 65.9376 43.9568C62.6051 50.6397 60.7925 54.4013 58.172 59.2533C57.2586 60.9727 56.4329 62.4348 55.2391 63.6708C54.0741 64.8833 52.6807 65.8023 51.0877 66.2219C50.2943 66.4381 49.4643 66.549 48.6125 66.577C47.8091 66.5882 46.7809 66.5169 45.8042 66.5043C41.5204 66.4293 36.4038 66.8472 34.3952 66.7304C32.6673 66.605 30.9857 66.0425 29.6003 65.0154C28.2221 63.9836 27.1796 62.5171 26.5816 60.8414C25.9548 59.1738 25.9726 57.3044 25.8898 55.368C25.7446 51.545 25.5871 47.7212 25.3623 43.8959C25.1414 47.7212 24.9877 51.5479 24.8462 55.3756C24.7822 57.2461 24.5857 59.2742 25.1494 61.2807C25.6637 63.2678 26.8065 65.1322 28.4307 66.4874C30.0542 67.8464 32.0909 68.6582 34.1668 68.9264C35.6937 69.1002 36.8927 69.059 40.0378 69.0801C41.9465 69.0861 43.8377 69.1024 45.7022 69.2122C46.6373 69.2606 47.5157 69.3695 48.6248 69.405C49.6863 69.422 50.7665 69.2937 51.8256 69.0372C53.9602 68.5344 55.9115 67.316 57.4188 65.8085Z" fill="#FF9142"/>
<path d="M6.78428 60.2043C6.80401 60.8762 6.7882 61.4116 6.83727 62.1955C7.0242 64.4202 8.1331 66.4747 9.87937 67.8393C10.46 68.3031 11.1053 68.6342 11.6345 68.9295L13.3136 69.8595L16.6746 71.7144C18.7434 72.8415 9.18157 67.6321 36.904 82.7357L40.2915 84.5449C41.4225 85.1815 42.7261 85.5042 44.0051 85.4591C41.3537 85.4439 39.3722 83.5221 37.1581 82.2957C10.2177 65.8376 19.5095 71.514 17.4994 70.286L14.2126 68.3024C13.1689 67.6406 11.8867 66.9847 11.0959 66.3351C10.2525 65.6251 9.61588 64.6826 9.27161 63.6481C8.88727 62.6105 8.96536 61.5591 8.99201 60.2043L9.20365 44.851L9.36705 29.4978C9.37738 28.9021 9.36488 28.1202 9.39401 27.677C9.52718 25.9088 10.5262 24.2864 12.0614 23.3792L12.865 22.9185C13.245 22.703 18.055 19.9752 17.8732 20.0783L31.1963 12.448C31.5753 12.2305 41.7345 6.39938 41.183 6.71592C42.0966 6.17333 43.0042 5.9274 43.9942 5.92007C44.9812 5.92492 45.8984 6.16962 46.8011 6.70394C47.0937 6.87193 56.9562 12.5352 56.7869 12.438L70.1069 20.0733C70.2887 20.1764 75.3961 23.0739 75.1148 22.9143L75.9212 23.3764C77.4562 24.2825 78.455 25.8883 78.5949 27.666C78.6256 28.1029 78.6119 28.8891 78.6227 29.4837L78.7848 44.8368L78.9963 60.19C79.0217 61.5447 79.1039 62.5998 78.722 63.6354C78.3802 64.6698 77.7461 65.613 76.9049 66.3243C76.1168 66.9761 74.8369 67.6298 73.7923 68.2929L70.5054 70.2764C68.4954 71.5053 77.7855 65.8255 50.8508 82.2929C48.6372 83.5203 46.6566 85.4427 44.0051 85.4591C45.2842 85.5043 46.5879 85.1815 47.7189 84.5449L51.1065 82.7357C78.8282 67.6302 69.2669 72.8401 71.3353 71.7131L74.6956 69.8568L76.3745 68.9265C76.9035 68.632 77.5516 68.2971 78.1303 67.8327C79.8506 66.4828 80.9806 64.4295 81.1626 62.1794C81.2093 61.3993 81.1953 60.8611 81.2146 60.19L81.426 44.8368L81.5881 29.4837C81.5844 28.799 81.6178 28.3049 81.5835 27.4636C81.4137 24.7228 79.9178 22.1894 77.5237 20.7226L76.673 20.217C76.2963 19.9955 71.5298 17.1923 71.71 17.2982L58.4411 9.57417C57.9656 9.29788 48.1183 3.5755 48.4851 3.78867C47.1932 3.0079 45.5633 2.52099 43.9877 2.53752C42.415 2.5307 40.7795 3.02546 39.5016 3.80365C39.2099 3.97308 29.3731 9.68649 29.5444 9.58697L16.2753 17.3108C16.064 17.435 11.006 20.4079 11.3116 20.2282L10.4583 20.7357C8.09964 22.1829 6.57584 24.7159 6.41295 27.4809C6.38083 28.3161 6.41254 28.8146 6.40923 29.4978L6.57264 44.851L6.78428 60.2043Z" fill="#FF9142"/>
</svg>
