<svg width="269" height="60" viewBox="0 0 269 60" fill="none" xmlns="http://www.w3.org/2000/svg">
<path d="M252.332 26.6595C250.877 26.1616 250.504 24.271 251.7 23.303C252.285 22.8301 252.778 22.4496 253.224 22.1216C254.473 21.2012 254.38 19.3359 252.939 18.7587C208.315 0.878008 66.2068 -3.7768 21.7858 13.0255C20.919 13.3534 20.2826 15.134 19.9185 16.9262C19.5558 18.7113 18.3341 20.3144 16.5711 20.7727L10.1011 22.4544C8.80697 22.7908 7.7769 23.8042 7.60156 25.1298C7.49462 25.9382 7.39687 26.8318 7.06333 28.4944C6.68344 30.3879 6.30785 33.1419 6.14661 36.1046C6.05452 37.7968 7.22846 39.2715 8.87699 39.664L10.4307 40.0339C13.5649 40.7802 13.6006 42.2226 10.4423 42.859C6.67435 43.6181 2.56455 44.7917 2.56455 46.9944C2.56455 50.9944 2.5646 51.2511 2.5646 54.9944C2.31988 58.4122 11.0646 57.6948 14.5642 56.4832C64.0224 39.3603 202.465 33.4452 257.042 53.04C259.707 53.9971 261.059 51.0399 262.053 48.972L266.369 36.8055C267.3 34.1822 265.909 31.3041 263.275 30.4031L252.332 26.6595Z" fill="#D9CFC3"/>
<path d="M24.3663 37.4092L22.8182 26.3167L25.5755 25.9319L30.8146 32.6805L30.9255 32.665L29.9016 25.3281L32.2944 24.9942L33.8425 36.0867L31.3704 36.4317L25.755 29.1863L25.6441 29.2018L26.7433 37.0775L24.3663 37.4092Z" fill="#514F4C"/>
<path d="M42.1789 35.1479C39.5933 35.4883 37.4737 33.976 37.1604 31.5965L37.1187 31.2793C36.8054 28.8998 38.4613 26.8905 41.047 26.5501L41.1897 26.5313C43.7754 26.1908 45.895 27.7031 46.2082 30.0826L46.25 30.3998C46.5633 32.7793 44.9074 34.7886 42.3217 35.1291L42.1789 35.1479ZM41.963 33.385L42.074 33.3703C43.2479 33.2158 43.9708 32.0878 43.7808 30.6442L43.7599 30.4856C43.5698 29.0421 42.5796 28.1396 41.4057 28.2941L41.2947 28.3088C40.1208 28.4633 39.382 29.5934 39.572 31.037L39.5929 31.1956C39.783 32.6391 40.7891 33.5395 41.963 33.385Z" fill="#514F4C"/>
<path d="M60.6161 32.8445C58.0255 33.1459 55.9291 31.6018 55.6517 29.2178L55.6147 28.9C55.3374 26.5161 57.0234 24.5319 59.6139 24.2306L59.757 24.2139C62.3475 23.9126 64.444 25.4566 64.7213 27.8406L64.7583 28.1584C65.0356 30.5423 63.3496 32.5265 60.7591 32.8278L60.6161 32.8445ZM60.4267 31.0785L60.538 31.0656C61.714 30.9288 62.4539 29.8118 62.2857 28.3655L62.2672 28.2066C62.0989 26.7604 61.1224 25.8431 59.9463 25.9799L59.8351 25.9928C58.659 26.1296 57.9032 27.2485 58.0715 28.6947L58.09 28.8537C58.2582 30.2999 59.2507 31.2153 60.4267 31.0785Z" fill="#514F4C"/>
<path d="M69.7721 34.8441L68.6035 23.3835L70.4818 23.192C70.6049 23.4528 70.7458 23.8888 70.8118 24.2198C71.4342 23.3843 72.4059 22.8189 73.5678 22.7004L73.6633 22.6906C75.9395 22.4585 77.7894 24.039 78.0345 26.4426L78.067 26.7609C78.312 29.1645 76.8192 31.0858 74.543 31.3179L74.4475 31.3276C73.4129 31.4331 72.4683 31.1596 71.7364 30.6069L72.1438 34.6022L69.7721 34.8441ZM73.6784 29.6209L73.8217 29.6062C74.9996 29.4861 75.7393 28.3814 75.5916 26.9329L75.5754 26.7737C75.4277 25.3252 74.4802 24.3926 73.3023 24.5127L73.1591 24.5273C71.9812 24.6474 71.2414 25.7521 71.3891 27.2006L71.4053 27.3598C71.553 28.8083 72.5005 29.741 73.6784 29.6209Z" fill="#514F4C"/>
<path d="M86.1932 30.2259C83.6105 30.4455 81.6653 28.9087 81.4553 26.4376L81.4322 26.1666C81.2262 23.7433 82.9251 21.8165 85.3803 21.6078L85.5238 21.5956C87.8673 21.3964 89.6941 22.8629 89.8784 25.0311L89.9787 26.2109L83.8089 26.7353C84.0446 27.8072 84.9478 28.4209 86.1754 28.3166L86.271 28.3084C87.2595 28.2244 88.0984 27.7035 88.5624 27.1181L89.8523 28.5018C89.1243 29.3826 87.7077 30.0972 86.4004 30.2083L86.1932 30.2259ZM83.7494 25.2791L87.6075 24.9512C87.4556 23.9203 86.6599 23.2493 85.6077 23.3388L85.5599 23.3428C84.5714 23.4269 83.8631 24.1615 83.7494 25.2791Z" fill="#514F4C"/>
<path d="M95.1801 29.34L94.621 21.0388L96.5207 20.9109C96.6539 21.2226 96.7852 21.743 96.8408 22.092C97.4288 21.2987 98.3565 20.7872 99.5219 20.7087L99.7294 20.6947L99.8799 22.9297C99.7171 22.8925 99.4733 22.8448 99.2498 22.8599C97.8769 22.9523 97.1899 23.7042 97.263 24.7897L97.5587 29.1798L95.1801 29.34Z" fill="#514F4C"/>
<path d="M105.693 28.8676C103.999 28.9503 102.752 28.018 102.679 26.5317L102.672 26.3879C102.586 24.614 104.203 23.606 107.511 23.4445L108.134 23.4141L108.122 23.1744C108.086 22.4392 107.551 21.9688 106.528 22.0187L106.464 22.0218C105.633 22.0624 104.673 22.4136 103.818 22.9519L102.827 21.3504C103.803 20.678 105.142 20.2121 106.485 20.1466L106.629 20.1396C108.818 20.0327 110.266 21.1474 110.363 23.145L110.53 26.549C110.562 27.2202 110.72 27.8212 110.91 28.4367L108.673 28.5459C108.564 28.2949 108.468 27.9632 108.418 27.5972C107.811 28.2836 106.876 28.8098 105.693 28.8676ZM106.212 27.0321C106.995 26.9939 107.779 26.6352 108.279 26.0502L108.218 24.8036L107.642 24.8317C105.773 24.923 104.898 25.3822 104.936 26.1493L104.938 26.1972C104.964 26.7246 105.477 27.068 106.212 27.0321Z" fill="#514F4C"/>
<path d="M118.888 28.2924C117.176 28.3382 116.112 27.4385 116.064 25.6311L115.96 21.7765L114.873 21.8057L114.83 20.2222C115.115 20.1185 115.545 20.011 115.912 19.9691L115.859 18.0178L118.219 17.6665L118.278 19.8737L120.773 19.8068L120.822 21.6461L118.311 21.7134L118.403 25.1362C118.426 25.9839 118.834 26.2931 119.554 26.2738C119.97 26.2626 120.671 26.1318 120.989 26.0592L121.037 27.8666C120.484 28.1215 119.528 28.2752 118.888 28.2924Z" fill="#514F4C"/>
<path d="M125.509 18.7164C124.693 18.7245 124.144 18.25 124.137 17.53C124.13 16.8101 124.685 16.2925 125.485 16.2845C126.317 16.2761 126.898 16.7823 126.905 17.5023C126.912 18.2223 126.357 18.7079 125.509 18.7164ZM124.419 28.0718L124.335 19.7522L126.719 19.7283L126.803 28.0479L124.419 28.0718Z" fill="#514F4C"/>
<path d="M135.724 28.2434C133.116 28.2105 131.235 26.4107 131.265 24.0109L131.269 23.6909C131.3 21.2911 133.226 19.5392 135.834 19.5721L135.978 19.5739C138.585 19.6068 140.467 21.4067 140.437 23.8065L140.433 24.1264C140.402 26.5263 138.476 28.2781 135.868 28.2452L135.724 28.2434ZM135.763 26.4678L135.875 26.4692C137.059 26.4841 137.935 25.4711 137.954 24.0152L137.956 23.8552C137.974 22.3993 137.123 21.3645 135.939 21.3496L135.827 21.3482C134.643 21.3332 133.75 22.3461 133.732 23.802L133.73 23.9619C133.712 25.4178 134.579 26.4528 135.763 26.4678Z" fill="#514F4C"/>
<path d="M144.717 28.2496L145.065 19.9369L146.952 20.0158C147.065 20.3569 147.167 20.9857 147.152 21.3374C148.025 20.3811 149.213 19.9344 150.316 19.9805L150.364 19.9825C152.266 20.0622 153.272 21.2893 153.188 23.3036L152.966 28.5949L150.584 28.4952L150.784 23.7154C150.832 22.5804 150.392 21.9855 149.369 21.9426L149.305 21.94C148.154 21.8918 147.335 22.7222 147.283 23.9531L147.099 28.3493L144.717 28.2496Z" fill="#514F4C"/>
<path d="M159.345 29.1577C157.653 29.0423 156.523 27.971 156.624 26.4864L156.634 26.3427C156.755 24.5709 158.478 23.7582 161.783 23.9835L162.405 24.026L162.421 23.7865C162.472 23.0522 161.994 22.5225 160.973 22.4529L160.909 22.4485C160.079 22.3919 159.084 22.6288 158.173 23.0638L157.375 21.3576C158.423 20.8036 159.807 20.497 161.148 20.5885L161.292 20.5983C163.479 20.7474 164.787 22.0233 164.651 24.0187L164.419 27.4188C164.373 28.0893 164.46 28.7046 164.577 29.338L162.342 29.1856C162.264 28.9237 162.207 28.583 162.2 28.2137C161.517 28.8246 160.526 29.2382 159.345 29.1577ZM160.075 27.3952C160.857 27.4486 161.677 27.1837 162.241 26.6609L162.326 25.4158L161.752 25.3766C159.884 25.2493 158.962 25.6034 158.91 26.3696L158.906 26.4175C158.87 26.9443 159.34 27.3451 160.075 27.3952Z" fill="#514F4C"/>
<path d="M168.877 29.6935L169.877 18.217L172.252 18.424L171.252 29.9005L168.877 29.6935Z" fill="#514F4C"/>
<path d="M186.644 31.6613C185.484 31.5275 184.534 30.967 183.922 30.1234C183.836 30.4516 183.691 30.8698 183.565 31.129L181.689 30.9127L183.009 19.4686L185.377 19.7417L184.919 23.7154C185.656 23.1884 186.62 22.9291 187.638 23.0464L187.733 23.0574C190.006 23.3196 191.473 25.2605 191.204 27.597L191.153 28.042C190.883 30.3785 189.012 31.9345 186.74 31.6723L186.644 31.6613ZM186.275 29.831L186.403 29.8457C187.579 29.9813 188.554 29.0631 188.714 27.6802L188.747 27.3941C188.906 26.0113 188.181 24.8969 186.989 24.7594L186.862 24.7447C185.686 24.6091 184.71 25.5273 184.551 26.9102L184.518 27.1963C184.358 28.5791 185.099 29.6954 186.275 29.831Z" fill="#514F4C"/>
<path d="M197.666 33.0326C195.826 32.7855 194.951 31.4895 195.215 29.5232L195.927 24.2267L198.289 24.5441L197.648 29.3172C197.501 30.4114 197.869 31.0419 198.836 31.1719L198.868 31.1761C200.009 31.3295 200.867 30.5891 201.042 29.2888L201.619 24.9914L203.982 25.3088L202.875 33.5547L201.003 33.3034C200.919 32.9692 200.889 32.3517 200.922 31.9848C200.089 32.777 198.934 33.203 197.713 33.039L197.666 33.0326Z" fill="#514F4C"/>
<path d="M207.237 34.1796L208.451 25.9486L210.334 26.2263C210.398 26.5592 210.416 27.0956 210.397 27.4485C211.139 26.7979 212.155 26.4947 213.31 26.6651L213.516 26.6954L213.189 28.9115C213.038 28.8406 212.81 28.7423 212.588 28.7096C211.227 28.5089 210.396 29.098 210.237 30.1744L209.595 34.5273L207.237 34.1796Z" fill="#514F4C"/>
<path d="M219.982 36.2928C217.723 35.9338 216.337 33.9478 216.719 31.5459L216.769 31.2299C217.151 28.828 219.083 27.3692 221.343 27.7282L221.438 27.7433C222.465 27.9065 223.324 28.4155 223.887 29.153L224.52 25.171L226.874 25.545L225.067 36.9223L223.202 36.6261C223.134 36.3399 223.125 35.8849 223.133 35.5297C222.315 36.1935 221.231 36.4911 220.077 36.3079L219.982 36.2928ZM220.814 34.6267L220.941 34.6468C222.11 34.8325 223.124 33.9568 223.352 32.5188L223.377 32.3608C223.606 30.9228 222.929 29.7784 221.744 29.5902L221.617 29.5701C220.448 29.3843 219.434 30.2601 219.206 31.698L219.181 31.8561C218.952 33.294 219.645 34.4409 220.814 34.6267Z" fill="#514F4C"/>
<path d="M233.196 38.4587C230.64 38.0266 229.14 36.0529 229.554 33.6076L229.599 33.3394C230.004 30.9415 232.13 29.4997 234.56 29.9105L234.702 29.9345C237.021 30.3266 238.424 32.2028 238.061 34.3483L237.864 35.5157L231.758 34.4835C231.719 35.5802 232.44 36.4 233.655 36.6054L233.75 36.6214C234.728 36.7868 235.67 36.4917 236.266 36.0407L237.17 37.7026C236.245 38.3738 234.695 38.7121 233.401 38.4934L233.196 38.4587ZM232.064 33.0585L235.882 33.704C235.992 32.6679 235.389 31.8195 234.348 31.6435L234.301 31.6355C233.323 31.4701 232.453 32.0046 232.064 33.0585Z" fill="#514F4C"/>
<path d="M241.41 39.6883L242.861 31.4958L244.72 31.8251C244.788 32.1783 244.805 32.8151 244.744 33.1617C245.736 32.33 246.972 32.0453 248.06 32.2379L248.107 32.2463C249.982 32.5784 250.815 33.9284 250.463 35.9135L249.54 41.1283L247.192 40.7125L248.027 36.0018C248.225 34.8833 247.868 34.2351 246.86 34.0565L246.797 34.0454C245.663 33.8444 244.74 34.5584 244.525 35.7716L243.758 40.1041L241.41 39.6883Z" fill="#514F4C"/>
</svg>
