<svg width="291" height="86" viewBox="0 0 291 86" fill="none" xmlns="http://www.w3.org/2000/svg">
<path d="M278.602 7.35553C278.141 6.25938 277.233 5.46151 276.066 5.23502C232.077 -3.30156 42.2047 17.2133 2.24153 45.0309C0.996111 45.8978 0.528116 47.4487 0.959831 48.9034L5.39398 63.8449C5.89017 65.5168 5.08686 67.3 3.50581 68.0362C1.83917 68.8122 1.05077 70.7404 1.69622 72.4618L4.80268 80.7466C5.65667 83.0242 8.45327 83.8559 10.4882 82.5233C54.2739 53.8508 227.271 31.2332 284.979 36.92C287.797 37.1978 289.943 34.3638 288.846 31.7522L278.602 7.35553Z" fill="#FFB580"/>
<path d="M18.2526 61.6964L14.7045 51.0732L18.7262 49.73C21.0936 48.9393 23.1635 49.8336 23.8731 51.9583L23.9137 52.0797C24.6385 54.2498 23.5215 56.2086 21.154 56.9993L19.4999 57.5518L20.62 60.9056L18.2526 61.6964ZM18.8005 55.7105L20.3181 55.2036C21.4563 54.8235 21.8858 53.8872 21.5615 52.9159L21.526 52.8097C21.2066 51.8536 20.3766 51.4392 19.2536 51.8143L17.6753 52.3414L18.8005 55.7105Z" fill="#514F4C"/>
<path d="M32.9694 57.0368C31.3531 57.5505 29.909 56.9686 29.4583 55.5505L29.4146 55.4133C28.8767 53.7207 30.1814 52.3323 33.3378 51.329L33.9325 51.14L33.8598 50.9113C33.6368 50.2099 32.9986 49.8923 32.0228 50.2024L31.9618 50.2218C31.1688 50.4738 30.3308 51.0592 29.6424 51.7985L28.274 50.5041C29.0456 49.6041 30.2206 48.811 31.5014 48.4038L31.6387 48.3602C33.7277 47.6962 35.4129 48.403 36.0188 50.309L37.0511 53.5569C37.2546 54.1973 37.5608 54.738 37.9023 55.2842L35.7675 55.9627C35.5985 55.7478 35.4205 55.4519 35.2785 55.1108C34.8673 55.9299 34.0978 56.6781 32.9694 57.0368ZM33.0012 55.1295C33.7484 54.8921 34.4138 54.3448 34.7474 53.6511L34.3694 52.4618L33.8204 52.6362C32.0364 53.2033 31.3085 53.8712 31.5411 54.6031L31.5557 54.6488C31.7156 55.152 32.2998 55.3525 33.0012 55.1295Z" fill="#514F4C"/>
<path d="M45.2304 56.4423C44.7708 56.5806 44.0889 56.7023 43.5647 56.6262L42.9883 54.7111C43.4006 54.8042 43.7899 54.8207 44.2189 54.6915C44.7551 54.5301 45.1578 54.0915 45.3655 53.394L39.5016 46.0693L41.907 45.3453L45.7522 50.5707L45.8595 50.5384L45.8138 44.1693L48.112 43.4776L47.7818 52.8171C47.7186 54.106 47.36 55.8013 45.2304 56.4423Z" fill="#514F4C"/>
<path d="M63.774 47.8685C61.2584 48.5567 58.9532 47.3461 58.3199 45.0312L58.2355 44.7225C57.6021 42.4076 58.97 40.1921 61.4855 39.5039L61.6244 39.4659C64.14 38.7777 66.4452 39.9883 67.0785 42.3032L67.1629 42.6119C67.7963 44.9268 66.4284 47.1423 63.9128 47.8305L63.774 47.8685ZM63.3207 46.1512L63.4288 46.1217C64.5708 45.8092 65.1339 44.5935 64.7497 43.1891L64.7075 43.0348C64.3233 41.6304 63.2197 40.8707 62.0777 41.1831L61.9696 41.2127C60.8276 41.5251 60.249 42.7451 60.6332 44.1494L60.6755 44.3038C61.0597 45.7082 62.1787 46.4637 63.3207 46.1512Z" fill="#514F4C"/>
<path d="M71.8498 45.5126L69.8068 37.4473L71.637 36.9837C71.8436 37.278 72.1209 37.8514 72.2073 38.1927C72.7703 37.0267 73.7807 36.2591 74.8509 35.988L74.8974 35.9762C76.7432 35.5087 78.0576 36.3971 78.5526 38.3514L79.853 43.4853L77.542 44.0707L76.3673 39.4331C76.0884 38.3319 75.4971 37.8875 74.5045 38.1389L74.4424 38.1547C73.3257 38.4375 72.7779 39.4676 73.0804 40.6619L74.1608 44.9272L71.8498 45.5126Z" fill="#514F4C"/>
<path d="M84.2005 42.4368L81.5458 31.2268L83.8657 30.6774L86.5203 41.8874L84.2005 42.4368Z" fill="#514F4C"/>
<path d="M93.8429 43.5506C93.3741 43.6538 92.685 43.7236 92.1681 43.608L91.738 41.6548C92.1421 41.7788 92.529 41.8247 92.9666 41.7284C93.5135 41.608 93.9481 41.201 94.208 40.5212L88.9144 32.7742L91.3677 32.2341L94.807 37.7352L94.9164 37.7112L95.3522 31.3568L97.6961 30.8407L96.661 40.1286C96.5006 41.409 96.0149 43.0724 93.8429 43.5506Z" fill="#514F4C"/>
<path d="M113.019 36.4481C110.456 36.9299 108.256 35.5362 107.813 33.1775L107.754 32.863C107.31 30.5043 108.853 28.4071 111.417 27.9253L111.558 27.8987C114.121 27.4169 116.32 28.8106 116.764 31.1693L116.823 31.4838C117.266 33.8425 115.723 35.9396 113.16 36.4215L113.019 36.4481ZM112.706 34.6997L112.816 34.679C113.98 34.4602 114.64 33.2943 114.371 31.8633L114.341 31.7061C114.072 30.2751 113.034 29.4284 111.87 29.6471L111.76 29.6678C110.597 29.8865 109.921 31.0555 110.19 32.4864L110.22 32.6437C110.489 34.0746 111.543 34.9184 112.706 34.6997Z" fill="#514F4C"/>
<path d="M121.513 34.7174L120.154 26.5091L122.016 26.2007C122.198 26.5113 122.426 27.106 122.483 27.4533C123.142 26.3387 124.213 25.6586 125.303 25.4783L125.35 25.4705C127.228 25.1595 128.464 26.1551 128.793 28.144L129.658 33.3689L127.306 33.7583L126.525 29.0385C126.339 27.9178 125.787 27.4253 124.777 27.5926L124.714 27.603C123.577 27.7912 122.945 28.7716 123.146 29.9871L123.865 34.328L121.513 34.7174Z" fill="#514F4C"/>
<path d="M140.31 31.7734L138.787 20.3545L141.15 20.0393L141.706 24.2104C142.354 23.3815 143.31 22.802 144.452 22.6498C146.308 22.4023 147.527 23.4342 147.793 25.4325L148.493 30.6821L146.13 30.9972L145.498 26.2552C145.346 25.1133 144.796 24.6216 143.781 24.757C142.544 24.922 141.909 25.7329 142.068 26.9224L142.673 31.4582L140.31 31.7734Z" fill="#514F4C"/>
<path d="M156.441 29.9147C153.849 30.2083 151.758 28.6579 151.487 26.2731L151.451 25.9552C151.181 23.5704 152.873 21.5914 155.465 21.2978L155.608 21.2816C158.199 20.988 160.291 22.5384 160.561 24.9232L160.597 25.2411C160.867 27.6259 159.175 29.6049 156.584 29.8985L156.441 29.9147ZM156.257 28.1482L156.368 28.1356C157.545 28.0023 158.288 26.8875 158.124 25.4408L158.106 25.2818C157.942 23.8351 156.968 22.9148 155.792 23.0481L155.681 23.0607C154.504 23.194 153.745 24.3105 153.909 25.7573L153.927 25.9163C154.091 27.363 155.08 28.2815 156.257 28.1482Z" fill="#514F4C"/>
<path d="M168.67 28.6293C166.822 28.8027 165.678 27.737 165.492 25.7617L164.993 20.441L167.367 20.2183L167.817 25.0132C167.92 26.1124 168.42 26.644 169.391 26.5528L169.423 26.5498C170.57 26.4422 171.24 25.5276 171.117 24.2214L170.712 19.9043L173.086 19.6816L173.863 27.9652L171.983 28.1416C171.826 27.835 171.658 27.2401 171.607 26.8752C170.974 27.8345 169.945 28.5097 168.718 28.6248L168.67 28.6293Z" fill="#514F4C"/>
<path d="M178.687 27.5592L178.03 19.2651L179.928 19.1149C180.065 19.4251 180.202 19.9438 180.262 20.2922C180.841 19.4921 181.762 18.9697 182.927 18.8775L183.134 18.8611L183.311 21.0941C183.148 21.0589 182.903 21.0141 182.68 21.0317C181.308 21.1403 180.63 21.9002 180.716 22.9848L181.063 27.3711L178.687 27.5592Z" fill="#514F4C"/>
<path d="M191.011 26.8367C189.462 26.9407 188.047 26.6349 186.862 25.9447L187.864 24.1615C188.623 24.704 189.848 25.0386 190.837 24.9722C191.604 24.9207 192.017 24.6204 191.984 24.1415C191.937 23.439 191.016 23.5651 189.17 23.0636C188.062 22.8013 187.005 22.3431 186.913 20.9702C186.807 19.4057 188.017 18.3142 190.029 18.1791C191.242 18.0976 192.561 18.3939 193.517 19.0193L192.509 20.7227C191.884 20.2515 190.855 19.9838 190.009 20.0406C189.291 20.0888 188.99 20.3817 189.017 20.7808C189.052 21.3076 189.797 21.4179 191.047 21.6387C192.458 21.8806 194.104 22.2673 194.22 24.0073C194.325 25.5718 193.022 26.7017 191.011 26.8367Z" fill="#514F4C"/>
<path d="M206.179 25.7421L203.885 17.521L206.267 17.4087L207.578 23.1453L207.738 23.1377L209.016 17.279L211.237 17.1743L213.045 22.9035L213.205 22.8959L213.97 17.0454L216.352 16.9331L214.842 25.3335L212.157 25.4602L210.289 20.1663L210.225 20.1693L208.864 25.6154L206.179 25.7421Z" fill="#514F4C"/>
<path d="M224.108 25.1494C221.502 25.2429 219.535 23.5363 219.449 21.1379L219.438 20.8181C219.352 18.4196 221.191 16.5765 223.797 16.483L223.941 16.4778C226.547 16.3843 228.514 18.0908 228.6 20.4893L228.611 20.8091C228.698 23.2075 226.858 25.0507 224.252 25.1442L224.108 25.1494ZM224.061 23.374L224.172 23.3699C225.356 23.3275 226.182 22.2731 226.13 20.8181L226.124 20.6582C226.072 19.2031 225.172 18.2108 223.989 18.2532L223.877 18.2572C222.694 18.2997 221.851 19.3546 221.903 20.8097L221.909 20.9696C221.961 22.4246 222.877 23.4164 224.061 23.374Z" fill="#514F4C"/>
<path d="M233.594 24.6585L233.356 16.3419L235.26 16.2875C235.381 16.6042 235.492 17.1292 235.534 17.4802C236.152 16.7102 237.099 16.2349 238.266 16.2015L238.474 16.1956L238.538 18.4347C238.377 18.3913 238.135 18.3342 237.911 18.3406C236.536 18.3799 235.82 19.1046 235.851 20.1922L235.977 24.5904L233.594 24.6585Z" fill="#514F4C"/>
<path d="M242.155 24.4211L241.887 12.9042L244.271 12.8489L244.424 19.4711L244.6 19.467L247.56 15.9734L250.151 15.9132L246.641 19.8197L250.393 24.2299L247.625 24.2941L244.609 20.5071L244.449 20.5108L244.538 24.3658L242.155 24.4211Z" fill="#514F4C"/>
<path d="M257.575 24.2674C254.983 24.315 253.144 22.6524 253.099 20.1728L253.094 19.9009C253.049 17.4693 254.872 15.6595 257.336 15.6143L257.48 15.6117C259.831 15.5685 261.557 17.1532 261.597 19.3288L261.618 20.5126L255.427 20.6262C255.591 21.7114 256.452 22.3837 257.684 22.3611L257.78 22.3593C258.772 22.3411 259.643 21.8771 260.145 21.3238L261.34 22.7901C260.555 23.6206 259.094 24.2395 257.783 24.2636L257.575 24.2674ZM255.465 19.1693L259.336 19.0982C259.253 18.0596 258.504 17.3372 257.448 17.3566L257.4 17.3575C256.408 17.3757 255.652 18.0616 255.465 19.1693Z" fill="#514F4C"/>
<path d="M269.838 24.0645C267.551 24.0978 265.845 22.3784 265.81 19.9466L265.805 19.6267C265.77 17.1949 267.425 15.4267 269.712 15.3934L269.808 15.392C270.848 15.3769 271.781 15.7314 272.463 16.3616L272.404 12.33L274.788 12.2953L274.955 23.8141L273.067 23.8416C272.952 23.5712 272.865 23.1244 272.812 22.7732C272.119 23.5673 271.102 24.0462 269.934 24.0631L269.838 24.0645ZM270.373 22.2806L270.501 22.2787C271.684 22.2615 272.533 21.2251 272.512 19.7692L272.51 19.6092C272.489 18.1534 271.626 17.1418 270.426 17.1592L270.298 17.1611C269.114 17.1783 268.265 18.2148 268.286 19.6706L268.289 19.8306C268.31 21.2864 269.189 22.2978 270.373 22.2806Z" fill="#514F4C"/>
</svg>
