<svg width="195" height="65" viewBox="0 0 195 65" fill="none" xmlns="http://www.w3.org/2000/svg">
<path d="M178.778 37.6193C177.322 37.1213 176.95 35.2307 178.146 34.2627C178.73 33.7898 179.224 33.4094 179.669 33.0814C180.919 32.161 180.806 30.2741 179.388 29.6435C137.752 11.1268 57.1043 -6.75628 12.7232 10.0309C11.3039 10.5678 10.4716 11.9576 10.5354 13.4737L11.19 29.0455C11.2633 30.788 10.8758 32.1602 9.16293 32.4884C7.35732 32.8344 6.83481 32.6494 5.5016 36.4998L1.83481 46.9887C0.334807 49.9887 3.20306 54.2845 5.5016 53.4887C54.9598 36.3657 128.911 44.4049 183.487 63.9997C186.153 64.9568 187.505 61.9996 188.499 59.9318L192.815 47.7653C193.745 45.142 192.354 42.2638 189.721 41.3629L178.778 37.6193Z" fill="#514F4C"/>
<path d="M32.4873 29.5028L31.9776 18.3145L34.7587 18.1878L39.3474 25.3944L39.4593 25.3893L39.1221 17.989L41.5356 17.879L42.0454 29.0674L39.5519 29.181L34.6348 21.4448L34.5229 21.4499L34.8848 29.3936L32.4873 29.5028Z" fill="white"/>
<path d="M51.096 29.2381C48.4882 29.2078 46.6049 27.4099 46.6327 25.01L46.6364 24.6901C46.6643 22.2902 48.5887 20.5364 51.1966 20.5667L51.3406 20.5683C53.9484 20.5986 55.8317 22.3965 55.8038 24.7964L55.8001 25.1164C55.7723 27.5162 53.8478 29.27 51.24 29.2398L51.096 29.2381ZM51.1326 27.4624L51.2446 27.4637C52.4285 27.4774 53.3043 26.4635 53.3212 25.0076L53.3231 24.8476C53.34 23.3917 52.4879 22.3578 51.304 22.344L51.192 22.3427C50.0081 22.329 49.1162 23.3427 49.0994 24.7986L49.0975 24.9586C49.0806 26.4145 49.9487 27.4487 51.1326 27.4624Z" fill="white"/>
<path d="M69.3004 29.9752C67.7517 29.8743 66.3887 29.3847 65.305 28.5445L66.5339 26.9089C67.2139 27.5464 68.3843 28.0396 69.3742 28.104C70.1406 28.154 70.5894 27.9106 70.6206 27.4316C70.6663 26.7291 69.7361 26.7327 67.9725 25.9925C66.9087 25.5864 65.9212 24.993 66.0106 23.6199C66.1125 22.0552 67.4553 21.1326 69.4671 21.2636C70.6805 21.3427 71.9488 21.8101 72.8142 22.5559L71.5904 24.1117C71.033 23.5623 70.0489 23.1615 69.2027 23.1063C68.4843 23.0595 68.1473 23.3101 68.1213 23.7093C68.0869 24.2362 68.811 24.4437 70.0206 24.8271C71.3878 25.2529 72.9682 25.8529 72.8548 27.5932C72.7529 29.1579 71.3122 30.1063 69.3004 29.9752Z" fill="white"/>
<path d="M80.385 30.8436C77.8043 30.6025 76.1618 28.7457 76.3925 26.2765L76.4178 26.0056C76.644 23.5842 78.6571 21.9885 81.1104 22.2176L81.2538 22.231C83.5956 22.4498 85.1339 24.2165 84.9316 26.3831L84.8215 27.5619L78.6563 26.9861C78.6985 28.0827 79.4788 28.8466 80.7055 28.9612L80.8011 28.9701C81.7888 29.0624 82.7066 28.6982 83.267 28.2041L84.2916 29.7943C83.4191 30.5324 81.8985 30.9849 80.5921 30.8629L80.385 30.8436ZM78.8554 25.5423L82.7106 25.9024C82.7436 24.861 82.0793 24.0597 81.0279 23.9615L80.9801 23.9571C79.9924 23.8648 79.1652 24.4625 78.8554 25.5423Z" fill="white"/>
<path d="M91.4435 31.9547C89.7432 31.7551 88.8185 30.7121 89.0293 28.9165L89.479 25.0868L88.3984 24.9599L88.5831 23.3867C88.8803 23.3249 89.3206 23.28 89.6898 23.2911L89.9174 21.3524L92.3029 21.3425L92.0454 23.5355L94.5244 23.8265L94.3098 25.654L91.8149 25.361L91.4157 28.7617C91.3168 29.6039 91.6767 29.9684 92.3918 30.0523C92.805 30.1008 93.5172 30.0717 93.8425 30.0454L93.6317 31.8411C93.0475 32.0142 92.0791 32.0293 91.4435 31.9547Z" fill="white"/>
<path d="M100.248 33.152C98.41 32.8918 97.544 31.5896 97.8221 29.6252L98.5712 24.3339L100.932 24.6681L100.257 29.4366C100.102 30.5297 100.465 31.1628 101.431 31.2996L101.463 31.3041C102.603 31.4655 103.467 30.7313 103.651 29.4323L104.258 25.1391L106.619 25.4732L105.453 33.7111L103.583 33.4465C103.501 33.1117 103.476 32.494 103.512 32.1274C102.673 32.9136 101.515 33.3314 100.295 33.1587L100.248 33.152Z" fill="white"/>
<path d="M109.149 37.5162L111.079 26.159L112.941 26.4754C112.99 26.7596 113.009 27.2173 112.985 27.554C113.807 26.9148 114.895 26.6289 116.046 26.8246L116.141 26.8407C118.396 27.2241 119.758 29.2407 119.353 31.6225L119.299 31.938C118.894 34.3198 116.943 35.7735 114.688 35.3901L114.593 35.374C113.568 35.1998 112.73 34.6842 112.172 33.9564L111.499 37.9156L109.149 37.5162ZM114.307 33.5239L114.449 33.5481C115.616 33.7464 116.624 32.879 116.868 31.4436L116.895 31.2859C117.139 29.8504 116.474 28.6988 115.307 28.5004L115.165 28.4763C113.998 28.2779 112.99 29.1454 112.746 30.5808L112.719 30.7385C112.475 32.1739 113.14 33.3255 114.307 33.5239Z" fill="white"/>
<path d="M128.764 37.8538L130.093 31.5443L129.076 31.3299L129.382 29.8739C129.7 29.8426 130.111 29.8311 130.45 29.8534L130.542 29.415C130.908 27.6772 132.087 26.8137 133.747 27.1634C134.311 27.2821 135.117 27.5665 135.563 27.8566L135.187 29.6415C134.835 29.3711 134.413 29.2005 134.006 29.1147C133.286 28.963 132.891 29.2069 132.713 30.0523L132.664 30.2872L134.965 30.772L134.602 32.4942L132.426 32.0357L131.097 38.3453L128.764 37.8538Z" fill="white"/>
<path d="M140.449 40.6296C137.928 40.0265 136.564 37.9564 137.141 35.5445L137.204 35.2799C137.77 32.9147 139.989 31.6193 142.385 32.1926L142.525 32.2261C144.812 32.7733 146.086 34.7396 145.58 36.8559L145.304 38.0074L139.282 36.5667C139.169 37.6583 139.834 38.5247 141.032 38.8114L141.125 38.8337C142.09 39.0645 143.05 38.8336 143.675 38.4236L144.464 40.1426C143.496 40.75 141.927 40.9833 140.651 40.678L140.449 40.6296ZM139.683 35.1655L143.449 36.0664C143.629 35.0401 143.084 34.153 142.057 33.9073L142.01 33.8962C141.046 33.6653 140.142 34.1402 139.683 35.1655Z" fill="white"/>
<path d="M152.385 43.7158C149.889 43.0164 148.605 40.8955 149.275 38.5075L149.348 38.2456C150.004 35.9037 152.27 34.6944 154.643 35.3592L154.782 35.3981C157.046 36.0327 158.244 38.0463 157.656 40.1416L157.337 41.2817L151.375 39.611C151.22 40.6975 151.851 41.5888 153.037 41.9212L153.129 41.9471C154.085 42.2148 155.053 42.0208 155.693 41.6352L156.416 43.3831C155.425 43.953 153.848 44.1259 152.585 43.7719L152.385 43.7158ZM151.829 38.2263L155.558 39.271C155.776 38.2523 155.266 37.345 154.25 37.0601L154.203 37.0472C153.248 36.7795 152.327 37.2194 151.829 38.2263Z" fill="white"/>
<path d="M163.169 47.0169C161.695 46.5291 160.5 45.7119 159.663 44.6258L161.264 43.3525C161.761 44.1408 162.77 44.9129 163.712 45.2246C164.441 45.466 164.936 45.3436 165.087 44.8879C165.308 44.2196 164.407 43.9887 162.887 42.828C161.96 42.1671 161.154 41.3441 161.586 40.0378C162.079 38.5492 163.611 37.9946 165.525 38.6282C166.679 39.0104 167.789 39.7822 168.438 40.722L166.862 41.9193C166.461 41.2472 165.61 40.6114 164.805 40.3449C164.121 40.1186 163.732 40.2763 163.606 40.656C163.44 41.1572 164.089 41.5404 165.163 42.2162C166.378 42.9727 167.757 43.9514 167.209 45.6071C166.716 47.0956 165.083 47.6505 163.169 47.0169Z" fill="white"/>
</svg>
