<svg width="335" height="89" viewBox="0 0 335 89" fill="none" xmlns="http://www.w3.org/2000/svg">
<path d="M214.458 5.66187C214.104 4.81809 213.405 4.20393 212.506 4.02958C178.645 -2.54153 32.489 13.25 1.72701 34.6629C0.768343 35.3302 0.408099 36.524 0.740416 37.6437L4.15364 49.1451C4.53559 50.4321 3.91723 51.8047 2.70021 52.3714C1.4173 52.9687 0.810413 54.453 1.30726 55.778L3.69849 62.1554C4.35585 63.9085 6.50856 64.5487 8.07496 63.523C41.7794 41.452 174.946 24.0419 219.367 28.4194C221.536 28.6332 223.188 26.4517 222.344 24.4414L214.458 5.66187Z" fill="#FFB580"/>
<path d="M13.7529 47.3405L11.0217 39.1633L14.1174 38.1293C15.9397 37.5207 17.5331 38.2091 18.0793 39.8445L18.1105 39.938C18.6685 41.6085 17.8086 43.1163 15.9863 43.7249L14.713 44.1502L15.5752 46.7319L13.7529 47.3405ZM14.1746 42.7328L15.3428 42.3427C16.219 42.05 16.5496 41.3293 16.2999 40.5817L16.2726 40.4999C16.0268 39.764 15.3878 39.445 14.5234 39.7337L13.3085 40.1395L14.1746 42.7328Z" fill="#514F4C"/>
<path d="M25.4498 43.633C24.2056 44.0284 23.094 43.5805 22.7471 42.4889L22.7135 42.3833C22.2994 41.0804 23.3037 40.0116 25.7334 39.2394L26.1911 39.0939L26.1352 38.9178C25.9636 38.3779 25.4723 38.1334 24.7211 38.3722L24.6741 38.3871C24.0638 38.5811 23.4187 39.0317 22.8888 39.6007L21.8355 38.6044C22.4294 37.9116 23.3339 37.3011 24.3198 36.9877L24.4255 36.9541C26.0335 36.443 27.3307 36.987 27.7971 38.4542L28.5917 40.9543C28.7484 41.4473 28.9841 41.8634 29.2469 42.2839L27.6037 42.8062C27.4736 42.6408 27.3365 42.413 27.2273 42.1504C26.9107 42.7809 26.3184 43.3569 25.4498 43.633ZM25.4743 42.1648C26.0494 41.982 26.5617 41.5608 26.8184 41.0268L26.5274 40.1113L26.1049 40.2456C24.7316 40.6821 24.1713 41.1962 24.3504 41.7596L24.3616 41.7948C24.4847 42.1822 24.9343 42.3365 25.4743 42.1648Z" fill="#514F4C"/>
<path d="M34.8937 43.1765C34.5398 43.283 34.015 43.3766 33.6115 43.318L33.1678 41.8438C33.4852 41.9155 33.7848 41.9282 34.115 41.8288C34.5278 41.7046 34.8377 41.3669 34.9977 40.83L30.4838 35.1917L32.3354 34.6344L35.2953 38.6568L35.3779 38.6319L35.3428 33.7292L37.1118 33.1968L36.8576 40.3859C36.809 41.3781 36.533 42.6831 34.8937 43.1765Z" fill="#514F4C"/>
<path d="M49.2854 36.5481C47.349 37.0779 45.5746 36.146 45.0871 34.364L45.0221 34.1264C44.5346 32.3445 45.5875 30.6391 47.5239 30.1094L47.6308 30.0801C49.5672 29.5503 51.3416 30.4822 51.8291 32.2642L51.8941 32.5018C52.3816 34.2837 51.3287 35.9891 49.3923 36.5188L49.2854 36.5481ZM48.9365 35.2262L49.0197 35.2035C49.8988 34.963 50.3323 34.0272 50.0365 32.9461L50.004 32.8273C49.7083 31.7463 48.8588 31.1615 47.9797 31.402L47.8965 31.4247C47.0174 31.6652 46.5721 32.6043 46.8678 33.6853L46.9003 33.8041C47.1961 34.8852 48.0574 35.4667 48.9365 35.2262Z" fill="#514F4C"/>
<path d="M55.0203 34.8614L53.4477 28.6531L54.8565 28.2962C55.0155 28.5227 55.229 28.9641 55.2955 29.2268C55.7288 28.3293 56.5066 27.7384 57.3304 27.5298L57.3662 27.5207C58.787 27.1608 59.7988 27.8447 60.1798 29.349L61.1809 33.3008L59.4019 33.7515L58.4977 30.1817C58.2829 29.334 57.8278 28.9919 57.0637 29.1855L57.016 29.1976C56.1564 29.4153 55.7347 30.2082 55.9675 31.1275L56.7992 34.4108L55.0203 34.8614Z" fill="#514F4C"/>
<path d="M64.8333 32.4179L62.7899 23.7889L64.5756 23.3661L66.6191 31.995L64.8333 32.4179Z" fill="#514F4C"/>
<path d="M72.3328 33.2596C71.972 33.339 71.4415 33.3928 71.0436 33.3038L70.7126 31.8003C71.0236 31.8958 71.3215 31.9311 71.6582 31.8569C72.0792 31.7643 72.4138 31.451 72.6139 30.9277L68.5391 24.9644L70.4275 24.5486L73.0749 28.7832L73.1591 28.7646L73.4946 23.8733L75.2988 23.4761L74.5021 30.6255C74.3786 31.6111 74.0047 32.8915 72.3328 33.2596Z" fill="#514F4C"/>
<path d="M87.2137 27.7738C85.2407 28.1446 83.5478 27.0718 83.2065 25.2562L83.161 25.0141C82.8197 23.1985 84.0075 21.5842 85.9805 21.2133L86.0894 21.1928C88.0624 20.8219 89.7554 21.8947 90.0967 23.7104L90.1422 23.9524C90.4835 25.7681 89.2956 27.3824 87.3227 27.7533L87.2137 27.7738ZM86.9733 26.4279L87.058 26.412C87.9537 26.2436 88.4617 25.3461 88.2547 24.2446L88.2319 24.1236C88.0248 23.0221 87.2256 22.3703 86.3299 22.5387L86.2452 22.5546C85.3495 22.723 84.8293 23.6228 85.0364 24.7242L85.0592 24.8453C85.2662 25.9468 86.0776 26.5963 86.9733 26.4279Z" fill="#514F4C"/>
<path d="M93.264 26.5284L92.2179 20.21L93.6517 19.9726C93.7912 20.2117 93.9668 20.6695 94.0111 20.9368C94.5182 20.0788 95.3428 19.5553 96.1812 19.4165L96.2177 19.4105C97.6636 19.1711 98.6144 19.9375 98.8679 21.4685L99.5337 25.4904L97.7233 25.7901L97.1218 22.157C96.979 21.2943 96.5542 20.9152 95.7766 21.044L95.7279 21.052C94.8531 21.1969 94.3663 21.9516 94.5212 22.8872L95.0744 26.2286L93.264 26.5284Z" fill="#514F4C"/>
<path d="M107.742 24.2535L106.569 15.4637L108.388 15.2212L108.817 18.4319C109.315 17.7938 110.051 17.3478 110.93 17.2306C112.359 17.0401 113.297 17.8344 113.502 19.3726L114.041 23.4135L112.222 23.6561L111.735 20.0059C111.618 19.1269 111.195 18.7484 110.413 18.8526C109.461 18.9796 108.973 19.6039 109.095 20.5195L109.561 24.011L107.742 24.2535Z" fill="#514F4C"/>
<path d="M120.661 22.7614C118.666 22.9874 117.056 21.794 116.848 19.9583L116.821 19.7136C116.613 17.8779 117.915 16.3545 119.91 16.1285L120.02 16.116C122.015 15.8901 123.625 17.0835 123.833 18.9192L123.861 19.1639C124.069 20.9996 122.766 22.523 120.771 22.749L120.661 22.7614ZM120.52 21.4017L120.605 21.3919C121.511 21.2894 122.083 20.4313 121.957 19.3176L121.943 19.1952C121.817 18.0816 121.067 17.3732 120.162 17.4758L120.076 17.4855C119.17 17.5881 118.586 18.4476 118.712 19.5612L118.726 19.6836C118.852 20.7973 119.614 21.5042 120.52 21.4017Z" fill="#514F4C"/>
<path d="M129.579 21.8233C128.157 21.9568 127.276 21.1365 127.133 19.616L126.749 15.5204L128.576 15.3489L128.922 19.0398C129.001 19.8859 129.386 20.2952 130.134 20.225L130.159 20.2227C131.042 20.1398 131.557 19.4358 131.463 18.4303L131.151 15.1072L132.978 14.9358L133.576 21.3122L132.129 21.4479C132.008 21.2119 131.879 20.754 131.84 20.4731C131.353 21.2116 130.56 21.7313 129.616 21.8199L129.579 21.8233Z" fill="#514F4C"/>
<path d="M137.332 20.9929L136.827 14.6085L138.288 14.4928C138.393 14.7316 138.499 15.1309 138.545 15.3991C138.99 14.7832 139.7 14.3811 140.596 14.3101L140.756 14.2975L140.892 16.0164C140.766 15.9893 140.578 15.9548 140.406 15.9684C139.35 16.0519 138.828 16.6369 138.894 17.4717L139.161 20.8481L137.332 20.9929Z" fill="#514F4C"/>
<path d="M147.053 20.4188C145.861 20.4989 144.771 20.2635 143.859 19.7322L144.631 18.3596C145.215 18.7771 146.158 19.0347 146.92 18.9836C147.509 18.944 147.827 18.7128 147.802 18.3441C147.766 17.8034 147.057 17.9004 145.636 17.5144C144.783 17.3125 143.969 16.9598 143.898 15.903C143.817 14.6987 144.749 13.8585 146.297 13.7545C147.231 13.6918 148.246 13.9199 148.982 14.4013L148.206 15.7125C147.725 15.3498 146.933 15.1437 146.282 15.1874C145.729 15.2246 145.497 15.45 145.518 15.7572C145.545 16.1627 146.119 16.2476 147.081 16.4176C148.167 16.6038 149.434 16.9014 149.524 18.2409C149.605 19.4451 148.601 20.3149 147.053 20.4188Z" fill="#514F4C"/>
<path d="M158.806 19.5732L157.041 13.245L158.874 13.1585L159.883 17.5743L160.006 17.5685L160.99 13.0587L162.7 12.9781L164.091 17.3882L164.214 17.3824L164.804 12.8789L166.637 12.7924L165.474 19.2588L163.407 19.3562L161.97 15.2812L161.921 15.2835L160.873 19.4757L158.806 19.5732Z" fill="#514F4C"/>
<path d="M172.767 19.1129C170.761 19.1849 169.247 17.8712 169.181 16.025L169.172 15.7788C169.106 13.9326 170.521 12.5138 172.528 12.4418L172.638 12.4378C174.645 12.3658 176.158 13.6795 176.225 15.5257L176.234 15.7719C176.3 17.6181 174.884 19.0369 172.878 19.1089L172.767 19.1129ZM172.73 17.7462L172.817 17.7431C173.727 17.7104 174.364 16.8988 174.324 15.7788L174.319 15.6557C174.279 14.5357 173.586 13.7718 172.675 13.8045L172.589 13.8076C171.678 13.8403 171.03 14.6523 171.07 15.7723L171.074 15.8954C171.114 17.0155 171.82 17.7789 172.73 17.7462Z" fill="#514F4C"/>
<path d="M179.608 18.7498L179.425 12.348L180.89 12.3061C180.983 12.5499 181.069 12.954 181.101 13.2242C181.577 12.6315 182.306 12.2656 183.204 12.2399L183.365 12.2354L183.414 13.9589C183.29 13.9255 183.104 13.8815 182.931 13.8865C181.872 13.9167 181.322 14.4746 181.346 15.3118L181.442 18.6973L179.608 18.7498Z" fill="#514F4C"/>
<path d="M186.546 18.558L186.34 9.69276L188.175 9.65018L188.293 14.7477L188.429 14.7446L190.707 12.0553L192.702 12.009L190 15.0161L192.887 18.4108L190.757 18.4603L188.435 15.5452L188.312 15.548L188.381 18.5154L186.546 18.558Z" fill="#514F4C"/>
<path d="M198.416 18.4406C196.421 18.4772 195.006 17.1975 194.971 15.2888L194.967 15.0794C194.932 13.2077 196.336 11.8146 198.232 11.7798L198.343 11.7778C200.153 11.7446 201.481 12.9644 201.512 14.6391L201.529 15.5503L196.763 15.6378C196.889 16.4731 197.552 16.9906 198.5 16.9732L198.574 16.9719C199.337 16.9578 200.008 16.6006 200.395 16.1747L201.314 17.3034C200.71 17.9427 199.586 18.4192 198.576 18.4377L198.416 18.4406ZM196.792 14.5163L199.772 14.4616C199.708 13.6621 199.131 13.106 198.318 13.1209L198.281 13.1216C197.518 13.1356 196.936 13.6637 196.792 14.5163Z" fill="#514F4C"/>
<path d="M207.972 18.2832C206.211 18.3088 204.899 16.9853 204.871 15.1134L204.868 14.8671C204.841 12.9953 206.114 11.6342 207.875 11.6086L207.949 11.6075C208.75 11.5959 209.468 11.8687 209.992 12.3538L209.947 9.25046L211.782 9.22379L211.911 18.0905L210.458 18.1116C210.369 17.9035 210.302 17.5596 210.261 17.2892C209.728 17.9005 208.945 18.2691 208.046 18.2821L207.972 18.2832ZM208.383 16.91L208.482 16.9086C209.393 16.8953 210.047 16.0975 210.03 14.9769L210.029 14.8537C210.012 13.7331 209.348 12.9544 208.425 12.9678L208.326 12.9693C207.415 12.9825 206.761 13.7803 206.778 14.901L206.779 15.0241C206.796 16.1448 207.472 16.9233 208.383 16.91Z" fill="#514F4C"/>
<path d="M322.521 44.9381C321.402 44.555 321.115 43.1008 322.035 42.3561C322.485 41.9924 322.865 41.6997 323.207 41.4474C324.168 40.7394 324.081 39.288 322.991 38.8029C290.963 24.5593 228.926 10.8031 194.787 23.7163C193.695 24.1293 193.055 25.1984 193.104 26.3646L193.608 38.3429C193.664 39.6833 193.366 40.7388 192.048 40.9913C190.659 41.2574 190.258 41.1151 189.232 44.077L186.411 52.1453C185.258 54.453 187.464 57.7575 189.232 57.1453C227.277 43.9738 284.162 50.1578 326.144 65.2307C328.195 65.967 329.235 63.6922 329.999 62.1015L333.319 52.7427C334.035 50.7248 332.965 48.5108 330.939 47.8178L322.521 44.9381Z" fill="#514F4C"/>
<path d="M209.985 38.4645L209.592 29.858L211.732 29.7606L215.262 35.3041L215.348 35.3002L215.088 29.6077L216.945 29.5231L217.337 38.1295L215.419 38.2169L211.636 32.266L211.55 32.2699L211.829 38.3805L209.985 38.4645Z" fill="white"/>
<path d="M224.582 38.2634C222.576 38.2402 221.128 36.8571 221.149 35.0111L221.152 34.765C221.173 32.9189 222.654 31.5698 224.66 31.5931L224.77 31.5944C226.776 31.6177 228.225 33.0007 228.204 34.8467L228.201 35.0929C228.179 36.9389 226.699 38.288 224.693 38.2647L224.582 38.2634ZM224.61 36.8975L224.697 36.8985C225.607 36.9091 226.281 36.1291 226.294 35.0092L226.295 34.8861C226.308 33.7662 225.653 32.9709 224.742 32.9603L224.656 32.9593C223.745 32.9488 223.059 33.7285 223.046 34.8485L223.045 34.9715C223.032 36.0915 223.7 36.8869 224.61 36.8975Z" fill="white"/>
<path d="M238.365 38.8303C237.174 38.7527 236.125 38.376 235.292 37.7297L236.237 36.4715C236.76 36.962 237.661 37.3413 238.422 37.3909C239.012 37.4293 239.357 37.2421 239.381 36.8737C239.416 36.3333 238.7 36.336 237.344 35.7666C236.525 35.4543 235.766 34.9978 235.835 33.9416C235.913 32.738 236.946 32.0282 238.494 32.129C239.427 32.1898 240.403 32.5494 241.068 33.1231L240.127 34.3198C239.698 33.8972 238.941 33.5889 238.29 33.5465C237.737 33.5105 237.478 33.7033 237.458 34.0103C237.432 34.4156 237.989 34.5752 238.919 34.8702C239.971 35.1977 241.187 35.6593 241.099 36.998C241.021 38.2016 239.913 38.9311 238.365 38.8303Z" fill="white"/>
<path d="M247.014 39.5105C245.029 39.325 243.766 37.8967 243.943 35.9973L243.963 35.789C244.137 33.9263 245.685 32.6989 247.572 32.8751L247.683 32.8854C249.484 33.0537 250.667 34.4127 250.512 36.0793L250.427 36.9861L245.685 36.5432C245.717 37.3868 246.317 37.9744 247.261 38.0625L247.334 38.0694C248.094 38.1403 248.8 37.8602 249.231 37.4801L250.019 38.7034C249.348 39.2711 248.179 39.6192 247.174 39.5253L247.014 39.5105ZM245.838 35.4326L248.803 35.7096C248.829 34.9085 248.318 34.2921 247.509 34.2166L247.472 34.2132C246.712 34.1422 246.076 34.6019 245.838 35.4326Z" fill="white"/>
<path d="M255.681 40.3874C254.373 40.2339 253.661 39.4316 253.824 38.0503L254.169 35.1044L253.338 35.0068L253.48 33.7967C253.709 33.7491 254.048 33.7146 254.332 33.7231L254.507 32.2318L256.342 32.2242L256.144 33.9111L258.05 34.135L257.885 35.5407L255.966 35.3154L255.659 37.9312C255.583 38.5791 255.86 38.8595 256.41 38.924C256.728 38.9614 257.276 38.9389 257.526 38.9188L257.364 40.3C256.914 40.4332 256.17 40.4448 255.681 40.3874Z" fill="white"/>
<path d="M261.921 41.2407C260.507 41.0406 259.841 40.0389 260.055 38.5278L260.631 34.4576L262.447 34.7146L261.928 38.3827C261.809 39.2235 262.088 39.7105 262.831 39.8158L262.856 39.8192C263.733 39.9434 264.397 39.3786 264.539 38.3794L265.006 35.0769L266.822 35.3339L265.925 41.6708L264.487 41.4672C264.424 41.2097 264.404 40.7345 264.432 40.4525C263.787 41.0573 262.896 41.3787 261.958 41.2459L261.921 41.2407Z" fill="white"/>
<path d="M269.271 44.6767L270.755 35.9404L272.187 36.1838C272.225 36.4024 272.24 36.7545 272.221 37.0135C272.854 36.5218 273.69 36.3019 274.576 36.4524L274.649 36.4648C276.384 36.7597 277.431 38.311 277.12 40.1431L277.078 40.3858C276.767 42.218 275.266 43.3362 273.531 43.0413L273.458 43.0289C272.67 42.8949 272.025 42.4982 271.596 41.9384L271.079 44.984L269.271 44.6767ZM273.238 41.6058L273.347 41.6243C274.245 41.7769 275.02 41.1097 275.208 40.0055L275.229 39.8842C275.416 38.78 274.905 37.8941 274.007 37.7415L273.898 37.723C273 37.5704 272.225 38.2376 272.038 39.3418L272.017 39.4631C271.829 40.5673 272.34 41.4532 273.238 41.6058Z" fill="white"/>
<path d="M283.915 44.8532L284.937 39.9997L284.155 39.8348L284.391 38.7148C284.635 38.6907 284.951 38.6819 285.212 38.699L285.283 38.3618C285.564 37.025 286.471 36.3608 287.748 36.6298C288.181 36.7211 288.802 36.9399 289.145 37.1631L288.856 38.536C288.585 38.3281 288.261 38.1968 287.947 38.1308C287.393 38.0141 287.09 38.2017 286.953 38.852L286.915 39.0327L288.685 39.4057L288.406 40.7304L286.732 40.3778L285.709 45.2312L283.915 44.8532Z" fill="white"/>
<path d="M293.245 47.0654C291.306 46.6015 290.257 45.009 290.701 43.1537L290.75 42.9502C291.185 41.1308 292.891 40.1343 294.735 40.5753L294.842 40.6011C296.602 41.0221 297.582 42.5346 297.192 44.1625L296.98 45.0483L292.348 43.94C292.261 44.7797 292.772 45.4462 293.694 45.6667L293.766 45.6839C294.508 45.8615 295.246 45.6838 295.727 45.3685L296.334 46.6907C295.59 47.158 294.382 47.3374 293.401 47.1026L293.245 47.0654ZM292.656 42.8622L295.553 43.5552C295.691 42.7657 295.272 42.0834 294.482 41.8944L294.447 41.8858C293.704 41.7082 293.01 42.0735 292.656 42.8622Z" fill="white"/>
<path d="M302.437 49.4473C300.517 48.9093 299.53 47.2779 300.044 45.4409L300.101 45.2394C300.606 43.4381 302.349 42.5078 304.174 43.0192L304.281 43.0491C306.023 43.5372 306.944 45.0862 306.492 46.698L306.246 47.575L301.66 46.2898C301.541 47.1256 302.026 47.8112 302.939 48.0669L303.01 48.0868C303.745 48.2927 304.489 48.1435 304.981 47.8468L305.538 49.1914C304.776 49.6298 303.563 49.7628 302.591 49.4905L302.437 49.4473ZM302.01 45.2246L304.878 46.0283C305.046 45.2447 304.654 44.5467 303.871 44.3276L303.836 44.3176C303.101 44.1117 302.393 44.4501 302.01 45.2246Z" fill="white"/>
<path d="M310.63 51.9598C309.497 51.5846 308.577 50.956 307.933 50.1205L309.165 49.1411C309.548 49.7475 310.324 50.3414 311.048 50.5812C311.609 50.7669 311.99 50.6727 312.106 50.3222C312.276 49.8081 311.583 49.6304 310.414 48.7377C309.7 48.2293 309.08 47.5961 309.413 46.5913C309.792 45.4463 310.97 45.0196 312.443 45.507C313.331 45.801 314.184 46.3947 314.684 47.1176L313.471 48.0386C313.163 47.5216 312.508 47.0326 311.889 46.8275C311.363 46.6535 311.064 46.7747 310.967 47.0668C310.839 47.4524 311.338 47.7472 312.164 48.267C313.099 48.8489 314.16 49.6018 313.738 50.8754C313.359 52.0204 312.103 52.4472 310.63 51.9598Z" fill="white"/>
<path d="M255.605 64.8212C254.523 64.4509 254.246 63.0453 255.135 62.3256C255.57 61.9739 255.937 61.6911 256.268 61.4472C257.197 60.7629 257.127 59.376 256.056 58.9469C222.878 45.6527 117.222 42.1919 84.1953 54.6843C83.5509 54.9281 83.0777 56.2519 82.807 57.5844C82.5374 58.9117 81.6291 60.1036 80.3183 60.4443L75.5078 61.6946C74.5456 61.9447 73.7798 62.6982 73.6494 63.6838C73.5699 64.2848 73.4972 64.9492 73.2493 66.1853C72.9668 67.5931 72.6876 69.6407 72.5677 71.8435C72.4992 73.1016 73.372 74.1981 74.5977 74.4899L75.7529 74.7649C78.0831 75.3198 78.1097 76.3922 75.7615 76.8653C72.9601 77.4298 69.9044 78.3023 69.9044 79.94C69.9044 82.914 69.9045 83.1049 69.9045 85.888C69.7225 88.4291 76.2242 87.8957 78.8261 86.9949C115.598 74.2641 218.53 69.8662 259.107 84.4348C261.089 85.1465 262.094 82.9478 262.833 81.4103L266.042 72.3646C266.733 70.4142 265.699 68.2743 263.741 67.6045L255.605 64.8212Z" fill="#D9CFC3"/>
<path d="M85.7974 71.9367L84.6464 63.6895L86.6964 63.4034L90.5916 68.421L90.6741 68.4094L89.9128 62.9545L91.6919 62.7062L92.8428 70.9534L91.0049 71.2099L86.8299 65.823L86.7474 65.8345L87.5646 71.6901L85.7974 71.9367Z" fill="#514F4C"/>
<path d="M99.2782 70.221C97.3557 70.4741 95.7799 69.3497 95.547 67.5806L95.5159 67.3447C95.283 65.5756 96.5141 64.0817 98.4366 63.8286L98.5427 63.8146C100.465 63.5615 102.041 64.6858 102.274 66.455L102.305 66.6908C102.538 68.46 101.307 69.9539 99.3843 70.207L99.2782 70.221ZM99.1176 68.9103L99.2002 68.8994C100.073 68.7845 100.61 67.9458 100.469 66.8726L100.454 66.7546C100.312 65.6814 99.5761 65.0104 98.7033 65.1253L98.6207 65.1362C97.748 65.2511 97.1987 66.0913 97.34 67.1646L97.3555 67.2825C97.4968 68.3558 98.2449 69.0252 99.1176 68.9103Z" fill="#514F4C"/>
<path d="M112.989 68.5075C111.063 68.7315 109.504 67.5835 109.298 65.8111L109.27 65.5747C109.064 63.8023 110.318 62.3271 112.244 62.1031L112.35 62.0907C114.276 61.8666 115.835 63.0146 116.041 64.7871L116.068 65.0234C116.275 66.7958 115.021 68.271 113.095 68.4951L112.989 68.5075ZM112.848 67.1945L112.931 67.1849C113.805 67.0831 114.355 66.2527 114.23 65.1774L114.216 65.0592C114.091 63.9839 113.365 63.3019 112.491 63.4037L112.408 63.4133C111.534 63.515 110.972 64.3469 111.097 65.4221L111.11 65.5403C111.236 66.6156 111.973 67.2962 112.848 67.1945Z" fill="#514F4C"/>
<path d="M120.29 69.9418L119.421 61.4209L120.818 61.2786C120.909 61.4725 121.014 61.7966 121.063 62.0427C121.526 61.4216 122.249 61.0012 123.112 60.9131L123.183 60.9058C124.876 60.7333 126.251 61.9083 126.433 63.6954L126.458 63.9321C126.64 65.7191 125.53 67.1476 123.837 67.3201L123.766 67.3274C122.997 67.4058 122.295 67.2024 121.751 66.7915L122.054 69.762L120.29 69.9418ZM123.195 66.0584L123.301 66.0475C124.177 65.9582 124.727 65.1369 124.617 64.0599L124.605 63.9416C124.495 62.8646 123.791 62.1712 122.915 62.2605L122.809 62.2713C121.933 62.3606 121.383 63.182 121.493 64.259L121.505 64.3773C121.614 65.4542 122.319 66.1477 123.195 66.0584Z" fill="#514F4C"/>
<path d="M132.372 66.5267C130.451 66.69 129.005 65.5474 128.849 63.7101L128.832 63.5086C128.679 61.707 129.942 60.2744 131.767 60.1192L131.874 60.1101C133.616 59.962 134.974 61.0524 135.112 62.6644L135.186 63.5415L130.599 63.9315C130.774 64.7284 131.446 65.1847 132.358 65.1071L132.429 65.1011C133.164 65.0386 133.788 64.6513 134.133 64.216L135.092 65.2448C134.551 65.8997 133.498 66.431 132.526 66.5136L132.372 66.5267ZM130.555 62.8488L133.423 62.605C133.31 61.8385 132.719 61.3397 131.936 61.4062L131.901 61.4092C131.166 61.4716 130.639 62.0178 130.555 62.8488Z" fill="#514F4C"/>
<path d="M138.667 65.8982L138.251 59.7263L139.664 59.6312C139.763 59.863 139.86 60.2498 139.902 60.5094C140.339 59.9195 141.029 59.5392 141.895 59.4809L142.049 59.4705L142.161 61.1322C142.04 61.1045 141.859 61.0691 141.693 61.0803C140.672 61.149 140.161 61.708 140.216 62.5151L140.435 65.7791L138.667 65.8982Z" fill="#514F4C"/>
<path d="M146.87 65.5266C145.61 65.5881 144.683 64.8949 144.629 63.7899L144.624 63.683C144.559 62.3641 145.762 61.6146 148.221 61.4946L148.684 61.4719L148.676 61.2937C148.649 60.7471 148.251 60.3974 147.49 60.4345L147.443 60.4368C146.825 60.467 146.111 60.7281 145.476 61.1283L144.739 59.9376C145.465 59.4377 146.46 59.0913 147.458 59.0426L147.565 59.0374C149.193 58.9579 150.27 59.7867 150.342 61.2719L150.466 63.8027C150.49 64.3018 150.607 64.7486 150.749 65.2062L149.085 65.2874C149.005 65.1008 148.933 64.8542 148.896 64.5821C148.444 65.0924 147.749 65.4837 146.87 65.5266ZM147.256 64.1619C147.838 64.1335 148.42 63.8669 148.792 63.4318L148.747 62.5051L148.319 62.526C146.929 62.5938 146.279 62.9352 146.306 63.5055L146.308 63.5412C146.327 63.9333 146.709 64.1886 147.256 64.1619Z" fill="#514F4C"/>
<path d="M156.292 65.1157C155.019 65.1498 154.228 64.4808 154.192 63.1371L154.115 60.2712L153.306 60.2929L153.275 59.1156C153.487 59.0385 153.806 58.9586 154.079 58.9274L154.04 57.4767L155.794 57.2154L155.838 58.8565L157.693 58.8067L157.73 60.1743L155.863 60.2243L155.931 62.7691C155.948 63.3994 156.252 63.6292 156.787 63.6149C157.096 63.6066 157.617 63.5093 157.854 63.4554L157.89 64.7991C157.478 64.9887 156.767 65.1029 156.292 65.1157Z" fill="#514F4C"/>
<path d="M161.459 57.9917C160.852 57.9978 160.444 57.645 160.439 57.1097C160.433 56.5744 160.846 56.1896 161.441 56.1836C162.059 56.1774 162.491 56.5538 162.496 57.0891C162.502 57.6243 162.089 57.9854 161.459 57.9917ZM160.648 64.9474L160.586 58.7618L162.358 58.7441L162.42 64.9296L160.648 64.9474Z" fill="#514F4C"/>
<path d="M168.821 65.0754C166.882 65.0509 165.483 63.7127 165.506 61.9285L165.509 61.6906C165.531 59.9063 166.963 58.6038 168.902 58.6283L169.009 58.6296C170.948 58.6541 172.347 59.9923 172.325 61.7765L172.322 62.0144C172.299 63.7987 170.867 65.1012 168.928 65.0767L168.821 65.0754ZM168.85 63.7552L168.933 63.7562C169.813 63.7673 170.465 63.0141 170.479 61.9317L170.48 61.8127C170.494 60.7303 169.861 59.9609 168.981 59.9498L168.898 59.9488C168.017 59.9377 167.354 60.6907 167.34 61.7732L167.338 61.8921C167.325 62.9745 167.969 63.7441 168.85 63.7552Z" fill="#514F4C"/>
<path d="M175.504 65.0778L175.763 58.8974L177.165 58.9561C177.25 59.2097 177.325 59.6772 177.315 59.9387C177.963 59.2276 178.846 58.8955 179.667 58.9299L179.702 58.9313C181.117 58.9906 181.864 59.9029 181.802 61.4005L181.637 65.3346L179.866 65.2605L180.015 61.7067C180.05 60.8628 179.723 60.4205 178.963 60.3887L178.915 60.3867C178.059 60.3508 177.45 60.9683 177.412 61.8835L177.275 65.152L175.504 65.0778Z" fill="#514F4C"/>
<path d="M186.749 65.7753C185.491 65.6895 184.651 64.893 184.726 63.7892L184.734 63.6824C184.823 62.365 186.105 61.7608 188.561 61.9284L189.024 61.9599L189.036 61.7819C189.074 61.2359 188.719 60.8421 187.959 60.7903L187.912 60.7871C187.295 60.745 186.555 60.9212 185.878 61.2446L185.284 59.976C186.064 59.5641 187.093 59.3362 188.09 59.4042L188.196 59.4115C189.822 59.5223 190.795 60.471 190.694 61.9545L190.522 64.4825C190.488 64.981 190.552 65.4384 190.639 65.9094L188.977 65.7961C188.919 65.6013 188.877 65.3481 188.872 65.0735C188.364 65.5277 187.627 65.8352 186.749 65.7753ZM187.291 64.4649C187.873 64.5046 188.483 64.3077 188.903 63.919L188.966 62.9933L188.538 62.9641C187.15 62.8695 186.464 63.1327 186.425 63.7024L186.423 63.738C186.396 64.1297 186.746 64.4277 187.291 64.4649Z" fill="#514F4C"/>
<path d="M193.694 66.1667L194.438 57.634L196.204 57.7878L195.46 66.3206L193.694 66.1667Z" fill="#514F4C"/>
<path d="M207.17 67.6642C206.307 67.5648 205.601 67.148 205.146 66.5208C205.082 66.7649 204.974 67.0758 204.88 67.2685L203.486 67.1077L204.467 58.599L206.228 58.8021L205.887 61.7565C206.435 61.3646 207.152 61.1719 207.908 61.2591L207.979 61.2673C209.669 61.4622 210.76 62.9052 210.56 64.6424L210.522 64.9733C210.321 66.7105 208.93 67.8673 207.241 67.6724L207.17 67.6642ZM206.895 66.3034L206.99 66.3143C207.865 66.4152 208.59 65.7325 208.708 64.7043L208.733 64.4916C208.852 63.4635 208.312 62.6349 207.426 62.5327L207.332 62.5218C206.457 62.421 205.732 63.1037 205.613 64.1318L205.589 64.3445C205.47 65.3727 206.021 66.2026 206.895 66.3034Z" fill="#514F4C"/>
<path d="M214.86 68.6247C213.492 68.441 212.842 67.4774 213.038 66.0154L213.567 62.0776L215.324 62.3135L214.847 65.8623C214.738 66.6758 215.011 67.1446 215.73 67.2412L215.754 67.2444C216.602 67.3584 217.24 66.808 217.37 65.8412L217.8 62.6461L219.556 62.8821L218.733 69.0129L217.342 68.826C217.279 68.5775 217.257 68.1184 217.281 67.8457C216.662 68.4346 215.803 68.7514 214.895 68.6295L214.86 68.6247Z" fill="#514F4C"/>
<path d="M221.964 69.4743L222.867 63.3546L224.267 63.5611C224.315 63.8086 224.328 64.2074 224.314 64.4698C224.866 63.9861 225.621 63.7607 226.48 63.8874L226.633 63.9099L226.39 65.5575C226.277 65.5049 226.108 65.4318 225.943 65.4075C224.931 65.2582 224.313 65.6962 224.195 66.4965L223.718 69.7329L221.964 69.4743Z" fill="#514F4C"/>
<path d="M231.947 71.1248C230.266 70.8579 229.236 69.3813 229.52 67.5956L229.557 67.3606C229.841 65.5748 231.278 64.4902 232.958 64.7571L233.029 64.7683C233.792 64.8896 234.431 65.2681 234.85 65.8164L235.32 62.8558L237.07 63.1339L235.727 71.5929L234.34 71.3726C234.29 71.1598 234.283 70.8215 234.289 70.5575C233.681 71.051 232.875 71.2723 232.017 71.136L231.947 71.1248ZM232.565 69.8861L232.659 69.901C233.528 70.0391 234.282 69.388 234.452 68.3189L234.471 68.2014C234.641 67.1323 234.137 66.2814 233.256 66.1414L233.162 66.1265C232.293 65.9884 231.539 66.6395 231.369 67.7086L231.35 67.8261C231.181 68.8952 231.696 69.7479 232.565 69.8861Z" fill="#514F4C"/>
<path d="M241.647 72.7177C239.747 72.3964 238.631 70.929 238.939 69.111L238.972 68.9116C239.274 67.1287 240.855 66.0568 242.661 66.3622L242.766 66.38C244.491 66.6715 245.534 68.0664 245.264 69.6616L245.117 70.5296L240.578 69.7621C240.549 70.5776 241.085 71.1871 241.988 71.3398L242.059 71.3517C242.786 71.4746 243.486 71.2553 243.929 70.9199L244.601 72.1555C243.913 72.6546 242.761 72.9061 241.799 72.7435L241.647 72.7177ZM240.805 68.7027L243.644 69.1826C243.726 68.4123 243.278 67.7815 242.503 67.6506L242.468 67.6446C241.741 67.5217 241.095 67.9191 240.805 68.7027Z" fill="#514F4C"/>
<path d="M247.39 73.5687L248.469 67.4777L249.851 67.7225C249.902 67.9851 249.914 68.4585 249.869 68.7162C250.606 68.0979 251.526 67.8862 252.334 68.0294L252.369 68.0356C253.763 68.2826 254.383 69.2863 254.121 70.7622L253.434 74.6394L251.689 74.3302L252.31 70.8279C252.457 69.9962 252.192 69.5144 251.442 69.3816L251.395 69.3733C250.552 69.2239 249.866 69.7547 249.706 70.6567L249.136 73.8779L247.39 73.5687Z" fill="#514F4C"/>
</svg>
