<svg width="291" height="462" viewBox="0 0 291 462" fill="none" xmlns="http://www.w3.org/2000/svg">
<path d="M47.8493 310.883C47.8421 311.313 47.9477 311.743 48.1882 312.129C49.2375 313.798 50.8735 315.026 52.4949 316.097C53.3293 316.625 54.2001 317.07 55.0928 317.46C56.3534 318.017 57.6651 318.462 58.9877 318.881C59.946 319.183 60.9079 319.467 61.8625 319.77C69.5613 322.492 77.6318 323.632 85.6768 324.809C88.7301 325.304 91.798 325.716 94.8695 326.069C95.9189 326.193 96.9719 326.306 98.0249 326.412C100.583 326.678 103.144 326.908 105.709 327.119C114.774 327.833 123.843 328.882 132.937 329.035C133.892 329.057 134.843 329.061 135.798 329.057C136.304 329.054 136.807 329.043 137.313 329.024C140.112 328.937 142.903 328.697 145.694 328.507C150.408 328.161 155.134 328.059 159.834 327.56C161.179 327.399 162.52 327.214 163.86 327.002C164.972 326.831 166.079 326.638 167.18 326.423C167.89 326.285 168.601 326.135 169.308 325.978C172.339 325.337 176.052 324.025 177.298 321.315C177.753 320.324 177.877 319.139 177.517 317.737C177.079 315.97 176.194 314.221 174.66 313.175C174.164 312.832 173.337 312.377 172.765 312.811C172.532 312.989 172.463 313.266 172.463 313.539C172.365 314.024 173.042 314.359 173.363 313.984C174.664 315.015 175.225 316.727 175.385 318.327C175.465 319.759 174.696 320.688 173.589 321.326C172.029 322.222 169.796 322.543 168.32 322.885C161.7 324.018 154.988 324.208 148.288 324.346C145.001 324.455 141.718 324.645 138.432 324.765C127.421 325.006 116.472 323.442 105.527 322.47C94.8659 321.559 84.285 319.919 73.7842 317.908C69.6123 317.041 65.5534 315.733 61.4945 314.454C58.9294 313.67 56.266 313.029 54.0361 311.477C54.0215 311.47 54.007 311.459 53.9924 311.448C53.5952 311.149 53.1726 310.876 52.852 310.49C52.7354 309.859 52.4366 309.298 51.9192 308.897C51.3034 308.416 50.4836 308.245 49.7294 308.446C48.6181 308.708 47.8676 309.786 47.8493 310.883Z" fill="#FF9142"/>
<path d="M159.737 428.749C159.671 431.442 163.085 432.94 164.994 430.994C166.306 429.73 165.843 427.791 165.942 426.159C165.956 425.244 165.974 424.333 166.004 423.423C166.055 419.717 166.39 416.026 166.565 412.328C166.689 408.498 166.707 404.662 166.893 400.832C167.643 387.366 167.195 373.87 167.705 360.4C168.306 352.708 167.709 344.998 167.793 337.296C167.804 335.383 167.814 333.467 167.807 331.55C167.705 330.074 167.953 327.808 167.184 326.424C167.035 326.15 166.842 325.91 166.598 325.717C165.705 325.083 164.553 325.378 164.073 326.358C163.971 326.562 163.909 326.781 163.865 327.003C163.792 327.385 163.777 327.79 163.741 328.169C163.603 329.754 163.479 331.346 163.355 332.935C162.87 338.735 162.611 344.55 162.531 350.369C162.4 356.377 161.548 362.338 161.453 368.35C161.121 379.838 160.91 391.326 160.487 402.807C160.407 408.426 160.411 414.04 160.057 419.648C159.941 422.683 159.879 425.718 159.737 428.749Z" fill="#FF9142"/>
<path d="M128.653 452.122C129.072 455.54 133.944 455.988 134.949 452.618C135.332 451.04 135.168 449.375 135.306 447.768C135.434 444.486 135.816 441.225 135.988 437.949C136.144 434.123 136.188 430.298 136.377 426.475C136.53 422.617 136.341 418.755 136.348 414.896C136.345 405.044 137.19 395.217 137.044 385.365C137.368 367.825 137.671 350.292 137.427 332.748C137.401 331.506 137.39 330.263 137.314 329.025C137.292 328.664 137.266 328.307 137.23 327.95C137.135 327.258 137.026 326.536 136.563 325.986C135.784 324.824 133.805 325.093 133.317 326.383C132.978 327.217 132.982 328.136 132.938 329.036C132.927 329.251 132.916 329.462 132.894 329.673C132.734 332.756 132.592 335.834 132.45 338.921C131.991 350.653 131.779 362.396 131.185 374.125C130.799 382.028 130.883 389.938 130.544 397.841C130.027 405.554 129.783 413.282 129.943 421.014C129.892 427.262 129.622 433.584 129.356 439.807C129.094 442.802 128.839 445.801 128.715 448.81C128.668 449.907 128.555 451.026 128.653 452.122Z" fill="#FF9142"/>
<path d="M93.4349 413.938C93.424 414.885 93.4131 415.851 93.7629 416.751C94.7649 419.32 98.5505 419.352 99.6217 416.802C100.245 415.199 99.8257 413.446 99.9897 411.774C100.278 407.11 99.9533 401.98 99.6545 397.604C99.527 393.902 99.6691 390.197 99.5525 386.491C99.4177 382.72 99.363 378.953 99.3193 375.178C99.1408 360.05 98.7837 344.922 98.2226 329.801C98.1242 328.715 98.1388 327.549 98.0295 326.412C97.9129 325.152 97.6505 323.928 96.9291 322.9C96.5648 322.412 95.7267 322.35 95.3697 322.842C95.366 322.838 95.3624 322.834 95.3624 322.827C95.0891 323.199 95.0563 323.636 95.0308 324.084C94.9725 324.744 94.9215 325.407 94.8741 326.07C94.783 327.309 94.7029 328.548 94.6155 329.786C94.2365 335.605 94.2329 341.435 94.1017 347.261C93.6244 362.214 93.4094 377.175 93.3766 392.135C93.056 397.695 93.8357 403.237 93.6025 408.797C93.5406 410.51 93.4386 412.222 93.4349 413.938Z" fill="#FF9142"/>
<path d="M51.8472 443.36C53.669 445.244 56.9409 444.162 57.3271 441.571C57.4984 438.554 57.4401 435.504 57.564 432.477C57.6113 429.485 57.5166 426.498 57.7279 423.514C57.9028 421.608 58.085 419.699 58.0595 417.782C57.9648 413.971 57.819 410.16 58.2271 406.356C58.5841 402.643 58.4129 398.919 58.4676 395.199C58.7008 389.195 59.2327 383.197 58.9995 377.182C58.7554 369.385 59.0396 361.584 59.455 353.798C59.8776 343.443 59.444 333.069 59.2145 322.711C59.1635 321.435 59.1052 320.153 58.9922 318.881C58.9376 318.229 58.8647 317.581 58.77 316.936C58.6315 316.039 58.5368 315.066 57.9611 314.327C57.3453 313.46 55.8296 313.835 55.7276 314.91C55.7276 314.91 55.724 314.906 55.724 314.903C55.7021 315.537 55.3341 315.974 55.0062 316.484C54.8094 316.79 54.8677 317.194 55.0973 317.46C55.1884 317.581 55.3231 317.672 55.4762 317.719C55.2102 325.083 54.8604 332.443 54.7402 339.81C54.5799 350.671 53.1844 361.289 53.0423 372.11C52.9876 376.133 53.0459 380.159 52.8892 384.181C52.5577 389.909 52.0294 395.626 52.1095 401.372C52.0221 405.139 51.4646 408.87 51.4682 412.641C51.4573 415.206 51.6723 417.771 51.4865 420.336C51.1294 423.812 50.9982 427.296 51.0565 430.79C51.0274 433.406 50.9217 436.022 50.8671 438.638C50.8707 440.248 50.612 442.107 51.8472 443.36Z" fill="#FF9142"/>
<path d="M78.1151 308.77C82.5056 306.329 83.8064 301.163 85.1509 296.688C85.6865 295.001 86.4115 293.362 86.8196 291.638C88.0293 291.744 89.2899 291.573 90.4959 291.671C91.3012 291.675 92.1028 291.693 92.9044 291.722C95.8666 291.926 98.8325 292.174 101.784 292.367C102.902 292.363 104.025 292.385 105.143 292.422C106.841 292.6 108.532 292.837 110.226 293.074C111.257 293.165 112.51 293.628 113.374 292.844C114.099 291.875 114.7 290.84 115.221 289.758C115.349 289.769 115.473 289.798 115.596 289.846C115.753 289.649 115.961 289.485 116.223 289.383C116.544 289.245 116.952 289.201 117.291 289.314C118.267 289.66 119.164 290.188 120.082 290.662C123.915 292.578 126.647 295.562 128.422 299.447C129.347 301.323 129.981 303.323 130.506 305.345C131.1 307.827 131.176 310.665 133.115 312.56C133.363 307.776 132.211 303.09 130.943 298.514C130.794 297.96 130.539 297.242 131.114 296.827C131.402 296.619 131.759 296.568 132.087 296.71C133.013 297.209 133.373 298.306 133.913 299.155C135.465 301.855 136.306 304.861 137.407 307.757C137.753 308.603 138.048 309.499 138.46 310.326C138.587 310.253 138.74 310.199 138.923 310.173C139.152 310.14 139.378 310.177 139.578 310.264C139.575 309.499 139.414 308.73 139.291 307.98C138.547 303.779 136.347 300.051 135.177 295.985C134.94 295.235 135.479 294.367 136.317 294.488C136.933 294.564 137.243 295.173 137.556 295.639C138.059 296.43 138.514 297.249 138.966 298.073C140.008 299.949 140.992 301.848 141.812 303.841C142.708 305.877 143.481 308.129 145.142 309.681C144.902 305.925 143.455 302.299 142.151 298.787C140.551 294.757 138.259 291.059 134.532 288.687C131.792 286.873 128.608 285.222 125.598 283.79C123.835 283.043 121.98 282.559 120.206 281.852C119.768 281.644 119 281.371 118.344 281.01C118.686 279.491 118.621 278.059 116.628 277.45C108.014 274.831 99.1057 273.173 90.1316 272.437C90.168 271.817 90.0769 271.143 89.9494 270.509C89.7927 269.121 89.5486 267.747 89.4102 266.356C89.115 263.904 89.2571 261.44 89.2754 258.977C89.3154 256.099 89.2499 253.217 89.2936 250.623C89.6142 250.564 89.9421 250.521 90.2518 250.473C92.9444 250.134 95.6553 249.938 98.3624 249.777C102.174 249.617 105.985 249.53 109.792 249.307C112.831 249.293 115.848 248.958 118.847 248.469C124.381 247.897 129.927 247.267 135.487 247.027C138.995 246.976 142.49 246.433 146.1 246.564C146.778 246.538 147.521 246.56 148.082 246.939V246.943C148.265 247.139 148.443 247.336 148.625 247.533C148.676 247.613 148.716 247.697 148.749 247.781C148.815 247.814 148.88 247.843 148.946 247.875H148.95C149.259 248.211 149.576 248.542 149.901 248.867C151.333 250.382 152.648 252.004 153.949 253.636C154.338 254.121 154.929 254.365 155.523 254.365C155.26 254.922 154.998 255.476 154.743 256.03C151.515 262.136 147.977 268.083 144.781 274.197C144.279 275.326 143.83 276.474 143.331 277.603C143.094 278.172 142.803 278.722 142.511 279.265C142.264 279.341 142.031 279.458 141.83 279.626C141.273 280.077 141.021 280.802 141.12 281.484C140.657 281.659 140.231 281.578 139.903 281.363C139.524 282.271 138.864 283.043 138.329 283.863C137.666 284.807 137.013 285.765 136.234 286.618C138.252 287.937 140.081 289.503 141.531 291.496C142.442 292.797 143.237 294.174 143.932 295.599C144.676 294.058 145.696 292.637 146.709 291.267C147.51 290.356 148.144 289.266 149.205 288.618C149.693 288.884 150.174 289.15 150.651 289.427C151.497 289.875 152.345 290.319 153.183 290.789C153.69 291.125 154.386 291.358 154.98 291.234C155.228 291.318 155.497 291.343 155.767 291.296C155.81 291.336 155.851 291.38 155.891 291.423C155.978 291.343 156.058 291.263 156.142 291.183C156.35 291.092 156.554 290.953 156.751 290.76C161.618 285.805 166.413 280.777 170.92 275.49C172.782 273.198 174.702 270.961 176.721 268.808C180.751 264.414 184.566 259.826 188.442 255.294C190.53 252.882 192.691 250.499 194.461 247.839C194.578 247.657 194.691 247.475 194.8 247.293C196.36 246.589 198.025 246.09 199.635 245.525C201.832 244.753 204.059 244.093 206.347 243.66C208.697 243.201 211.637 242.705 214.122 242.268C218.279 241.547 222.51 241.565 226.714 241.572C233.364 241.667 240.097 243.682 245.395 247.763C247.887 249.956 249.785 252.9 250.652 256.114C251.713 259.954 252.383 263.94 252.15 267.937C251.534 273.559 249.683 278.966 248.025 284.348C247.905 284.763 247.789 285.178 247.668 285.594C247.73 285.674 247.785 285.754 247.829 285.838C252.831 291.627 252.452 299.523 253.374 306.675C254.165 315.241 254.467 323.833 255.211 332.41C257.178 355.361 259.678 378.279 260.359 401.324C260.497 404.837 260.625 408.356 260.665 411.872C261.004 414.423 259.863 415.571 257.338 415.567C256.65 415.592 255.965 415.636 255.28 415.694C256.038 419.662 257.025 423.594 257.728 427.576C258.821 433.402 259.415 439.283 260.723 445.072C263.321 445.732 265.999 445.994 268.648 446.373C271.516 446.821 274.226 447.576 277.229 448.151C280.442 448.636 283.652 449.157 286.866 449.634C287.944 449.82 289.234 449.634 290.12 450.381C290.976 451.241 290.327 452.36 289.504 452.954C288.403 453.948 287.267 454.896 286.064 455.763C283.27 457.905 279.921 459.377 276.383 459.588C272.995 459.829 269.788 458.499 266.564 457.654C262.057 456.466 257.612 455.052 253.218 453.5C253.283 454.112 253.341 454.728 253.385 455.34C253.454 456.335 253.527 457.395 253.538 458.415C253.717 460.15 252.901 461.37 251.061 461.264C249.246 461.279 247.468 460.871 245.683 460.616C244.411 460.474 242.684 460.365 242.283 458.885C241.846 456.899 240.877 454.954 240.487 452.888C239.354 447.721 238.669 442.464 238.028 437.217C237.772 434.499 237.372 431.792 237.109 429.074C236.934 426.388 237.058 423.696 236.847 421.01C236.789 420.238 236.723 419.462 236.654 418.689C234.184 418.861 233.95 415.323 233.517 413.421C233.065 411.118 232.606 408.815 232.15 406.516C232.07 404.793 230.963 403 230.558 401.27C230.066 401.317 229.571 401.346 229.072 401.357C221.879 401.725 213.787 400.169 207.782 396.052C205.126 394.11 202.401 392.008 200.725 389.122C200.481 390.394 200.364 391.691 200.069 392.955C199.938 393.742 199.479 394.689 198.549 394.66C197.752 394.554 197.041 394.106 196.28 393.855C194.873 393.297 193.467 392.725 192.002 392.339C190.228 391.964 189.003 391.377 189.408 389.315C189.874 386.801 190.767 384.389 191.259 381.879C191.663 379.915 191.969 377.933 192.257 375.947C192.785 372.784 193.682 369.647 194.093 366.437C194.192 365.683 194.6 365.107 195.146 364.743C195.358 362.218 195.737 359.707 196.05 357.197C196.837 349.403 198.56 341.734 199.173 333.918C199.395 330.799 199.898 327.717 200.495 324.653C200.761 323.148 200.951 321.632 201.125 320.116C200.721 320.259 200.28 320.342 199.919 320.404C197.205 320.911 194.341 321.1 191.565 321.235C186.81 321.319 182.055 321.304 177.3 321.315C176.061 321.315 174.826 321.319 173.591 321.326C171.237 321.341 168.884 321.37 166.53 321.428C158.656 321.92 151.205 322.16 143.331 322.08C142.861 322.117 142.391 322.179 141.921 322.106C141.437 322.048 141.047 321.785 140.792 321.428C140.628 322.652 140.227 323.935 138.864 323.99C137.746 323.949 136.704 323.29 136.121 322.343C135.858 323.166 135.403 323.924 134.576 324.288C132.233 324.886 130.459 323.141 129.165 320.699C128.243 320.954 127.212 320.907 126.276 321.002C122.847 321.162 119.419 320.838 115.997 320.597C111.931 320.379 107.854 320.153 103.81 319.632C99.0292 318.728 94.1832 318.236 89.3992 317.358C85.8759 316.524 82.4218 315.329 79.1062 313.879C77.9657 313.277 77.0949 312.29 76.1731 311.408C75.7432 310.989 75.5391 310.425 75.5501 309.863C76.4391 309.583 77.299 309.226 78.1151 308.77ZM239.215 418.846C239.631 421.043 239.94 423.255 240.316 425.456C240.782 428.134 241.449 430.779 241.842 433.471C242.174 436.16 242.571 438.842 242.986 441.52C243.056 441.516 243.125 441.513 243.19 441.505C244.014 441.476 244.819 441.334 245.632 441.225C247.577 440.952 249.548 441.094 251.465 441.491C252.431 441.527 253.396 441.586 254.358 441.644C255.222 441.75 256.227 441.422 257.08 441.564C257.072 441.538 257.065 441.509 257.058 441.48C256.296 438.219 255.728 434.907 255.211 431.595C254.697 428.283 254.413 424.942 253.899 421.63C253.666 419.957 253.422 418.274 253.36 416.583C253.356 416.361 253.341 416.128 253.345 415.891C248.561 416.46 243.868 417.582 239.113 418.325C239.146 418.5 239.179 418.675 239.215 418.846ZM217.518 386.287C221.559 388.164 225.632 389.964 229.691 391.785C229.596 391.53 229.531 391.272 229.483 391.046C229.05 389.366 228.704 387.664 228.361 385.963C226.995 378.53 225.818 371.053 225.02 363.537C224.743 360.87 224.455 358.199 224.131 355.539C224 354.501 223.858 353.462 223.708 352.424C223.227 353.637 222.757 354.851 222.298 356.071C221.136 359.5 219.693 363.143 218.367 366.561C217.594 368.794 217.296 369.563 214.738 369.702C213.969 369.778 213.204 369.807 212.442 369.807C212.37 370.205 212.231 370.605 212.125 370.962C211.936 371.589 211.746 372.212 211.553 372.839C210.799 375.284 210.038 377.721 209.422 380.206C209.17 381.121 208.97 382.057 208.588 382.924C211.681 383.693 214.574 385.099 217.518 386.287ZM198.772 368.35C198.579 369.046 198.335 369.738 198.254 370.412C197.788 372.402 197.362 374.406 196.895 376.399C199.985 377.215 203.038 378.231 206.037 379.332C206.088 379.142 206.143 378.953 206.197 378.767C206.161 378.73 206.132 378.687 206.103 378.643C205.633 378.443 205.155 378.293 204.642 378.279C204.43 378.253 204.474 377.925 204.685 377.954C205.144 378.038 205.603 378.016 206.026 377.801C206.146 377.506 206.38 377.342 206.638 377.295C206.78 376.832 206.922 376.373 207.05 375.921C207.811 373.823 208.533 371.695 209.411 369.647C206.806 369.396 204.223 368.907 201.617 368.572C200.666 368.532 199.719 368.452 198.772 368.35ZM142.898 317.952C143.448 316.309 143.342 314.516 143.302 312.811C143.277 312.443 143.24 312.075 143.196 311.711C143.16 311.394 143.226 311.08 143.375 310.822C142.81 310.213 142.351 309.448 141.936 308.81C142.318 310.235 141.936 312.563 140.781 313.514C141.222 315.107 141.859 316.651 142.898 317.952ZM135.917 315.562C136.132 317.081 136.758 318.473 137.432 319.84C137.789 320.459 138.037 321.199 138.617 321.643C138.941 320.149 138.963 318.601 138.93 317.078C138.598 315.792 138.161 314.516 137.964 313.19C136.74 311.999 136.237 310.18 135.589 308.636C135.647 309.86 135.946 312.017 135.447 313.478C135.662 314.152 135.727 314.884 135.917 315.562ZM130.145 315.839C130.677 317.449 131.592 319.184 132.539 320.63C132.871 321.111 133.253 321.581 133.781 321.858C134.346 320.503 134.197 318.965 134.022 317.54C133.803 316.732 133.516 315.875 133.37 315.015C132.313 315.015 131.428 314.258 130.808 313.441C128.772 310.957 128.535 307.659 127.504 304.722C127.496 304.701 127.489 304.679 127.482 304.653C128.025 308.457 128.793 312.239 130.145 315.839Z" fill="#373B50"/>
<path d="M-0.00138092 167.359C0.0824203 171.069 0.48687 174.763 0.694557 178.469C0.902237 182.163 1.41234 185.832 2.02081 189.479C2.74953 195.276 3.23412 201.102 4.0685 206.888C4.51302 212.769 5.69719 218.544 6.58986 224.367C7.1874 231.668 8.44807 238.908 9.76704 246.111C10.9658 252.324 12.0333 258.558 13.0863 264.796C12.9843 265.852 13.1592 267.058 13.1446 267.878C13.2831 270.487 14.1757 272.957 14.7951 275.475C15.2579 277.493 15.7352 279.527 16.6461 281.399C17.5096 283.403 18.497 285.411 20.0419 286.985C21.645 288.694 23.7729 289.772 26.0064 290.406C26.276 290.501 26.5457 290.588 26.8153 290.669C25.9919 295.216 25.0263 299.741 24.1882 304.281C23.7547 307.651 26.0028 308.533 28.8447 309.087C32.481 309.775 36.1829 310.041 39.8629 310.373C41.896 310.57 43.9364 310.65 45.9768 310.745C46.5998 310.781 47.2265 310.828 47.8496 310.883C49.9118 311.062 51.9705 311.317 54.0363 311.477C55.3553 311.579 56.6743 311.645 57.9969 311.626C62.1797 311.382 66.3334 311.244 70.4943 310.788C72.1922 310.646 73.9156 310.384 75.548 309.863C76.437 309.582 77.2968 309.225 78.113 308.77C82.5035 306.329 83.8043 301.162 85.1488 296.688C85.6844 295.001 86.4094 293.361 86.8175 291.638C88.0271 291.743 89.2878 291.572 90.4938 291.671C91.2991 291.674 92.1007 291.692 92.9023 291.722C96.1633 291.834 99.4169 292.1 102.678 292.202C103.501 292.261 104.321 292.334 105.141 292.421C106.839 292.6 108.529 292.836 110.224 293.073C111.255 293.164 112.508 293.627 113.372 292.844C114.097 291.875 114.698 290.84 115.219 289.758C116.247 287.626 116.968 285.331 117.751 283.105C117.937 282.434 118.181 281.713 118.342 281.009C118.684 279.49 118.619 278.058 116.626 277.45C108.012 274.83 99.1036 273.172 90.1295 272.436C90.1659 271.817 90.0748 271.143 89.9473 270.509C89.7906 269.12 89.5465 267.747 89.4081 266.355C89.1129 263.903 89.255 261.44 89.2732 258.977C89.3133 256.098 89.2478 253.216 89.2915 250.622V250.513C89.5101 244.665 88.7887 238.988 88.5118 233.173C88.2822 228.921 87.2219 224.771 86.7811 220.541C86.271 214.329 85.167 208.193 83.9172 202.093C83.1666 198.618 82.5618 195.105 81.5926 191.68C80.0988 186.113 79.0093 180.443 77.4863 174.887C75.9852 169.648 74.6407 164.372 73.1869 159.125C72.4618 156.112 71.868 153.069 71.0336 150.085C70.2101 147.141 69.1644 144.263 68.3592 141.312C67.2916 137.209 66.3261 133.07 64.7776 129.109C64.5735 128.654 64.3221 127.911 64.0234 127.156C63.506 126.708 62.9776 126.271 62.4493 125.834C62.1105 125.593 61.8627 125.335 61.6915 125.076C61.655 125.083 61.6149 125.09 61.5749 125.098C60.5364 125.145 59.9608 124.741 59.6219 124.128C59.0972 124.099 58.6272 124.081 58.3066 124.037C54.7468 123.797 51.1689 123.986 47.6528 124.562C45.9112 124.85 43.8526 125.287 42.2166 125.437C38.4892 125.692 34.8275 126.377 31.1693 127.105C29.333 127.462 27.5695 128.042 25.8534 128.785C21.7325 130.519 17.5898 132.279 13.8733 134.797C11.3957 136.324 9.60674 138.641 7.95985 140.998C5.64983 143.957 4.09037 147.371 2.85156 150.898C1.49615 154.341 0.803841 157.988 0.403053 161.657C0.140717 163.548 -0.0232391 165.447 -0.00138092 167.359Z" fill="#FF9142"/>
<path d="M108.711 141.683C108.762 142.139 108.817 142.591 108.875 143.046C109.59 147.327 110.176 151.623 110.599 155.941C111.794 167.571 113.572 179.154 116.818 190.401C118.735 197.324 120.109 204.447 123.031 211.046C124.914 215.006 126.725 219.014 128.824 222.869C130.551 225.751 132.839 228.229 134.803 230.943C137.248 234.547 140.247 237.713 143.012 241.065C144.692 243.029 146.342 245.026 148.08 246.939V246.942C148.262 247.139 148.441 247.336 148.623 247.532C148.732 247.649 148.838 247.762 148.944 247.875H148.947C149.257 248.21 149.574 248.542 149.898 248.866C151.33 250.382 152.646 252.003 153.946 253.635C154.336 254.12 154.926 254.364 155.52 254.364C155.258 254.922 154.996 255.475 154.741 256.029C151.512 262.136 147.974 268.082 144.779 274.196C144.276 275.326 143.828 276.473 143.329 277.603C143.092 278.171 142.801 278.721 142.509 279.264C142.261 279.341 142.028 279.457 141.828 279.625C141.27 280.077 141.019 280.802 141.117 281.483C141.165 281.829 141.303 282.165 141.544 282.445C142.345 283.4 143.15 284.369 144.047 285.236C145.548 286.661 147.392 287.63 149.202 288.617C149.691 288.883 150.172 289.149 150.649 289.426C151.494 289.874 152.343 290.319 153.181 290.789C153.688 291.124 154.384 291.357 154.977 291.233C155.225 291.317 155.495 291.343 155.764 291.295C155.888 291.273 156.016 291.233 156.14 291.182C156.347 291.091 156.551 290.953 156.748 290.76C161.616 285.804 166.411 280.776 170.918 275.49C172.78 273.198 174.7 270.961 176.719 268.807C180.748 264.413 184.563 259.826 188.44 255.293C190.528 252.881 192.688 250.498 194.459 247.839C194.576 247.656 194.689 247.474 194.798 247.292C195.567 246.02 196.219 244.636 196.376 243.16C196.871 242.88 197.243 242.373 197.301 241.623C198.135 231.031 197.312 220.439 196.132 209.909C194.295 189.115 190.2 168.518 183.131 148.868C177.633 134.906 169.045 122.099 152.882 120.441C145.417 119.487 137.893 120.135 130.423 119.326C124.619 118.958 118.779 119.221 112.967 119.345C111.816 119.505 110.413 119.414 109.298 119.855C109.63 122.161 109.783 124.497 109.936 126.814C109.961 130.177 109.579 133.522 109.273 136.866C109.076 138.44 109.003 140.095 108.711 141.683Z" fill="#FF9142"/>
<path d="M89.0681 132.258C88.9005 132.932 88.7584 133.613 88.6236 134.294C88.8058 134.899 89.2357 135.428 89.8551 135.624C90.4854 135.781 91.0392 136.164 91.6076 136.47C92.1833 136.739 92.7809 137.257 93.4003 137.585C93.4513 137.614 93.5059 137.639 93.5569 137.661C94.1071 137.92 94.6755 138.004 95.2622 137.61C95.4516 137.453 95.6228 137.286 95.7868 137.104C96.6576 136.127 97.175 134.826 97.7835 133.686C97.9001 133.456 97.9802 133.216 98.0312 132.975C97.707 132.578 97.3791 132.185 97.0439 131.799C95.08 129.244 93.2035 126.73 90.9554 124.413C90.7988 124.504 90.6603 124.621 90.5474 124.763C90.5437 124.767 90.5437 124.77 90.5401 124.77C90.1138 126.942 89.9535 129.164 89.3304 131.296C89.2284 131.616 89.1446 131.937 89.0681 132.258Z" fill="#FF9142"/>
<path d="M106.708 232.142C106.766 232.044 106.81 231.942 106.839 231.829C106.847 231.843 106.854 231.861 106.865 231.876C107.04 232.215 107.214 232.55 107.393 232.885C107.36 232.849 107.327 232.812 107.298 232.776C107.105 232.561 106.908 232.35 106.708 232.142ZM103.09 193.305C103.261 194.078 103.432 194.85 103.607 195.623C103.954 197.149 104.303 198.676 104.642 200.206C104.668 200.315 104.693 200.428 104.719 200.538C104.187 199.572 104.114 198.446 103.855 197.386C103.582 196.031 103.341 194.664 103.09 193.305ZM93.2851 137.187C93.2924 136.928 93.3034 136.666 93.3107 136.407C93.358 136.451 93.42 136.488 93.4855 136.502C93.4928 136.648 93.5001 136.794 93.5074 136.943C93.522 137.183 93.5365 137.424 93.5511 137.664C93.5657 137.883 93.5802 138.102 93.5985 138.317C93.5329 138.072 93.4637 137.828 93.3945 137.584C93.3617 137.453 93.3216 137.318 93.2851 137.187ZM88.625 134.294C88.4939 134.95 88.37 135.606 88.2424 136.258C88.3627 139.348 88.8728 142.394 89.2517 145.465C89.9003 151.535 90.0132 157.657 90.8184 163.716C91.988 171.499 93.1248 179.063 94.6114 186.765C95.4822 191.392 96.1089 196.06 96.936 200.694C97.6611 204.549 98.204 208.419 98.6375 212.27C99.2278 217.014 99.7853 221.769 100.448 226.502C100.693 227.941 100.722 229.486 101.374 230.808C101.68 231.286 102.117 231.654 102.514 232.051C102.5 232.036 102.485 232.022 102.471 232.007C104.635 234.022 106.438 236.354 108.297 238.649C108.756 239.207 109.244 239.739 109.743 240.26C110.308 240.846 111.044 241.746 111.951 241.63C113.602 241.36 113.521 239.258 113.93 237.994C114.349 236.154 114.673 234.292 115.041 232.444C115.267 231.187 115.646 229.836 115.249 228.575C114.647 226.975 114.48 225.248 114.086 223.594C113.43 220.734 112.52 217.932 111.973 215.046C111.711 213.549 111.423 212.059 111.029 210.59C108.861 201.522 106.981 192.376 105.207 183.22C104.526 178.494 103.33 173.874 102.369 169.207C101.858 166.091 101.239 162.994 100.539 159.916C99.8691 156.819 99.461 153.671 98.6958 150.592C97.927 147.538 97.1109 144.496 96.568 141.392C96.3056 139.967 96.0615 138.535 95.7883 137.111C95.7627 136.987 95.7409 136.859 95.7154 136.735C95.4348 135.799 95.515 134.148 94.4256 133.901C93.1467 133.806 93.6131 135.139 93.3398 135.912C93.3981 134.983 93.613 134.006 93.1394 133.154C92.3852 131.569 90.3229 131.31 89.0768 132.265C88.9019 132.931 88.7598 133.613 88.625 134.294Z" fill="#FF9142"/>
<path d="M110.579 64.1997C109.679 64.4293 110.554 65.7592 110.619 66.3494C110.929 67.1219 110.845 68.7651 112.059 68.5392C113.367 68.051 112.164 66.5826 111.862 65.7555C111.567 65.2527 111.29 64.1524 110.579 64.1997Z" fill="#373B50"/>
<path d="M106.438 64.6001C106.365 65.3215 106.814 66.0393 106.967 66.7425C107.109 67.3109 107.397 68.2145 108.158 67.923C108.912 67.5914 108.468 66.7243 108.114 66.247C107.794 65.9045 106.981 63.8203 106.438 64.6001C106.442 64.6037 106.442 64.6001 106.438 64.6001Z" fill="#373B50"/>
<path d="M102.53 64.9935C102.446 65.4817 102.599 65.9918 102.665 66.4764C102.84 67.3144 102.85 69.0415 104.133 68.637C105.084 68.2071 104.443 67.1796 104.126 66.5238C103.867 65.9918 103.703 65.4271 103.521 64.8696C103.288 64.4724 102.654 64.5307 102.53 64.9935Z" fill="#373B50"/>
<path d="M82.2044 71.8255C83.6072 71.1004 82.2227 69.6576 81.6397 68.8414C81.2389 68.3568 80.9255 67.7447 80.3972 67.3913C80.0802 67.2091 79.6612 67.4678 79.7159 67.8394C79.7159 67.8394 79.7159 67.8394 79.7122 67.8394C79.858 68.7285 80.3134 69.541 80.5721 70.4045C80.7725 71.1952 81.2024 72.2008 82.2044 71.8255Z" fill="#373B50"/>
<path d="M77.8408 72.0696C79.2654 71.3044 77.9975 70.062 77.3926 69.2094C77.0174 68.7722 76.8024 68.0908 76.2376 67.8758C74.813 67.7629 75.9061 69.694 76.0846 70.3753C76.3287 71.2498 76.6603 72.485 77.8408 72.0696Z" fill="#373B50"/>
<path d="M72.6215 72.8672C73.751 72.0583 72.9057 71.162 72.1879 70.4551C71.747 69.9341 71.328 69.3948 70.8762 68.8848C70.6722 68.6115 70.2094 68.4512 70.0017 68.801C69.8086 69.2928 70.2787 69.7738 70.4098 70.2402C70.6904 70.8741 70.8945 71.53 71.0402 72.2041C71.2042 72.8927 72.0312 73.206 72.6215 72.8672Z" fill="#373B50"/>
<path d="M96.3733 78.6897C102.287 78.2925 103.15 76.5436 101.831 70.9617C100.979 67.0776 99.678 63.3029 98.483 59.5099C97.8089 57.6954 97.1385 55.8809 96.6065 54.0191C96.4207 53.039 95.7284 52.0953 95.9398 51.0897C96.3223 49.4865 97.215 48.0436 97.4773 46.404C97.5356 45.9486 97.6377 45.4676 97.4446 45.0304C97.2587 44.564 96.6029 44.3636 96.2385 44.7426C95.7175 45.4749 95.488 46.5607 95.0325 47.2858C95.0325 47.2821 95.0362 47.2785 95.0362 47.2785C95.0434 47.2639 95.0507 47.2493 95.058 47.2348C94.2601 48.7796 93.2326 50.3719 93.1707 52.1536C93.6115 54.4345 94.3329 56.668 95.0289 58.8869C96.2312 62.607 97.2551 66.3817 98.2571 70.1601C98.6396 71.8944 99.2554 73.6178 99.3793 75.3959C98.0785 76.0116 96.6284 76.3724 95.2038 76.5217C94.588 75.0825 94.1471 73.5741 93.7026 72.0766C93.5532 71.5483 93.0103 71.2204 92.4747 71.3625C91.9136 71.5119 91.5493 72.1713 91.8007 72.7179C92.584 74.4085 93.0103 76.2631 93.8556 77.9209C94.4496 78.6496 95.4989 78.7006 96.3733 78.6897Z" fill="#373B50"/>
<path d="M85.81 89.0956C84.7023 88.8664 84.8189 87.1399 85.3904 86.4105C88.1377 83.2609 102.004 84.9022 102.723 89.5626C98.2163 92.0987 96.4329 86.2896 91.1242 87.5947C89.3248 87.9705 87.6993 89.1545 85.81 89.0956ZM83.9218 85.0601C82.3864 86.7982 82.7593 90.3816 85.2544 90.9803C87.8071 91.4464 89.9959 89.6506 92.4598 89.454C95.2528 89.3447 97.103 92.0844 99.8021 92.4137C103.609 92.8909 106.942 90.1998 103.886 86.6563C101.93 84.6224 98.6386 83.3015 95.8621 83.4519C91.9843 82.9492 86.9289 81.8882 83.9218 85.0601Z" fill="#373B50"/>
<path d="M84.9531 58.7837C85.8462 56.291 83.7366 54.9802 81.6606 54.0913C76.6637 52.2412 69.9146 52.8502 65.8779 56.512C61.9138 61.2865 66.7671 64.075 71.4751 63.5544C76.1788 63.7318 82.3456 63.3083 84.9531 58.7837ZM82.9475 58.2918C79.4117 61.7906 71.3444 62.6384 66.9122 60.8069C66.0353 59.9778 66.8896 58.7727 67.5163 58.0685C69.7791 55.8825 73.2671 55.6925 76.1737 55.1766C78.5623 54.9021 81.0611 55.397 83.1646 56.5643C82.8613 57.0967 83.4023 57.785 82.9475 58.2918Z" fill="#373B50"/>
<path d="M114.203 62.3264C115.851 60.6131 115.425 56.3938 112.74 56.0619C110.229 53.9306 106.485 52.7036 103.307 53.9419C101.371 54.6113 98.9121 56.1604 99.3664 58.5309C99.8603 62.7244 111.487 64.8348 114.203 62.3264ZM112.672 60.7873C110.525 62.4997 96.3109 59.8 103.014 56.1685C105.811 54.7181 109.254 55.4645 111.79 57.1268C111.789 57.1661 111.789 57.208 111.79 57.2498C111.456 57.7301 111.923 58.2271 112.431 58.2289C113.135 58.7936 113.024 60.051 112.672 60.7873Z" fill="#373B50"/>
<path d="M111.216 60.9953C112.815 58.7266 110.755 56.5727 108.32 56.7373C106.217 56.6769 104.224 59.5732 106.524 60.8332C107.257 62.9248 110.059 62.4252 111.216 60.9953Z" fill="#373B50"/>
<path d="M80.7962 59.2697C81.4941 55.5402 74.9969 54.5506 74.8176 58.4547C73.428 62.8024 80.4214 63.1716 80.7962 59.2697Z" fill="#373B50"/>
<path d="M64.1102 45.7463C63.6575 46.3035 63.7311 47.1859 64.1926 47.7175C64.5803 48.6995 65.61 49.2655 66.6535 49.1595C68.2897 49.0811 69.8943 48.664 71.4823 48.2968C74.0831 47.6694 76.6939 47.0507 79.263 46.2922C80.9665 45.6972 84.2815 44.8494 84.9239 43.0173C85.1952 42.0979 84.642 41.0626 83.7505 40.7272C83.3684 40.5856 82.9719 40.5159 82.5587 40.5375C81.3647 40.5901 80.1714 40.6311 78.9798 40.6642C75.5223 40.7654 72.0409 41.2091 68.8016 42.4744C67.4275 43.1007 64.2304 44.0486 64.1102 45.7463Z" fill="#373B50"/>
<path fill-rule="evenodd" clip-rule="evenodd" d="M46.4438 65.8864C46.5823 65.8172 46.7207 65.7552 46.8628 65.7042C46.8227 65.3836 46.7754 65.063 46.7171 64.7423C46.4761 63.6715 46.3092 62.5904 46.1421 61.5083C46.0869 61.1508 46.0317 60.7931 45.9738 60.4356C44.9062 54.6096 44.2905 48.707 43.7038 42.8154C43.6768 42.1227 43.6302 41.4265 43.5836 40.7288C43.4356 38.5162 43.2867 36.2891 43.7549 34.1145C45.7114 25.1077 52.7654 20.4694 61.0472 17.7841C61.4293 17.6517 61.8111 17.5182 62.193 17.3848C64.9213 16.4316 67.6522 15.4774 70.484 14.8765C72.4516 14.2972 74.4191 13.7434 76.4631 13.481C76.9588 13.3636 77.45 13.2295 77.9409 13.0956C79.1096 12.7767 80.2761 12.4585 81.4949 12.3661C81.6679 12.3497 81.841 12.3334 82.0141 12.3172C83.299 12.1967 84.5851 12.0761 85.8599 11.8706C85.8234 11.5864 85.8453 11.2913 85.9291 11.0071C86.3408 9.74274 86.676 8.45656 86.9857 7.1631C87.7436 4.55066 89.3504 -0.27342 92.9029 1.06741C94.4806 1.51557 95.9343 2.33537 96.8233 3.75636C97.3006 1.60302 99.4722 -0.907403 101.822 0.40428C102.992 1.25323 103.888 2.45561 104.664 3.66527C106.723 -1.91667 111.893 -0.608631 114.054 4.13893C115.114 5.89513 115.927 11.3168 115.686 15.649C115.741 15.9166 115.718 16.2068 115.697 16.4771L115.693 16.5271C115.58 17.6092 115.355 18.6804 115.03 19.7152C114.608 21.0596 113.977 22.4916 112.669 23.1729C111.66 23.6976 110.643 24.2077 109.601 24.6558C109.741 25.1082 109.874 25.5628 110.008 26.0178C110.048 26.1565 110.089 26.2952 110.13 26.4339C110.982 29.5346 111.653 32.6863 112.247 35.8489L113.07 40.5381C113.288 41.9624 113.556 43.3798 113.826 44.8025C114.147 46.499 114.47 48.2029 114.71 49.9349C115.835 56.7957 116.353 63.7331 116.59 70.6777C117.001 74.9152 116.903 79.1672 116.754 83.4156C116.738 84.0067 116.732 84.5984 116.727 85.1903C116.711 86.8969 116.695 88.6038 116.429 90.2947L116.412 90.4156C116.141 92.2868 115.863 94.2075 114.921 95.8802C112.793 98.817 109.259 100.358 105.827 101.2C105.916 102.444 106.074 103.681 106.233 104.918C106.422 106.398 106.611 107.878 106.683 109.369C106.697 109.742 106.701 110.116 106.705 110.491C106.715 111.397 106.725 112.305 106.872 113.202C106.956 113.569 107.08 113.926 107.203 114.282C107.326 114.635 107.448 114.988 107.532 115.351C107.688 115.428 107.831 115.537 107.951 115.694C107.951 115.694 107.954 115.698 107.954 115.701C107.991 115.719 108.024 115.741 108.056 115.767C108.508 116.084 108.705 116.74 108.829 117.253C109.018 118.113 109.171 118.984 109.299 119.855C109.628 122.146 109.781 124.466 109.934 126.768L109.937 126.814C109.958 129.648 109.69 132.469 109.422 135.288C109.372 135.814 109.322 136.34 109.273 136.867C109.201 137.447 109.145 138.039 109.089 138.634C108.993 139.652 108.896 140.681 108.712 141.684C108.501 142.831 108.177 143.943 107.612 144.966C106.825 145.954 105.648 145.367 105.251 144.354C104.987 143.857 104.731 143.356 104.474 142.855C103.721 141.384 102.969 139.915 102.034 138.55L102.03 138.544C100.752 136.659 99.4598 134.752 98.0221 132.975C97.7014 132.575 97.3735 132.181 97.0347 131.799C96.8358 131.54 96.6379 131.282 96.4403 131.024C94.687 128.737 92.9667 126.492 90.9463 124.413C90.8552 124.318 90.7605 124.224 90.6657 124.129C90.6184 124.34 90.5747 124.555 90.5309 124.77C90.376 125.559 90.2557 126.355 90.1354 127.151C89.9248 128.545 89.7142 129.939 89.3176 131.296C89.2265 131.616 89.1427 131.933 89.0662 132.258C88.8986 132.932 88.7565 133.613 88.6217 134.294C88.5561 134.622 88.4924 134.95 88.4286 135.278C88.3648 135.606 88.3011 135.934 88.2355 136.262C87.995 137.475 87.729 138.688 87.3501 139.873C87.15 140.391 86.9482 141.105 86.7248 141.895C86.0779 144.185 85.2499 147.115 83.7575 147.776C83.058 147.994 82.4823 147.459 82.0961 146.934C81.7545 146.515 81.4184 146.089 81.0826 145.664C80.942 145.486 80.8014 145.308 80.6605 145.13C80.4351 144.845 80.2106 144.559 79.9862 144.273C78.9622 142.968 77.9395 141.665 76.8457 140.416C75.5346 138.875 74.0413 137.516 72.548 136.157C71.8876 135.556 71.2271 134.955 70.5824 134.338C69.6013 133.391 68.7533 132.323 67.906 131.255C67.4914 130.733 67.0771 130.211 66.6474 129.703C65.8348 128.785 64.9458 127.955 64.024 127.157C63.507 126.709 62.979 126.272 62.4511 125.835L62.45 125.834C62.1111 125.594 61.8634 125.335 61.6921 125.076C61.6755 125.079 61.658 125.083 61.6402 125.086L61.5755 125.098C60.5371 125.145 59.9614 124.741 59.6226 124.129C59.2839 123.513 59.1833 122.684 59.0866 121.887C59.0512 121.595 59.0163 121.307 58.9704 121.035C58.2172 118.271 57.8356 115.439 57.4539 112.605C57.3038 111.491 57.1537 110.377 56.981 109.267C56.081 103 54.8604 96.7802 53.4212 90.6189C53.0268 89.0215 52.807 87.3932 52.5874 85.7661C52.3608 84.0866 52.1343 82.4083 51.716 80.7667C51.6467 80.3808 51.3203 80.2194 51.0012 80.0616C50.9347 80.0288 50.8686 79.9961 50.8051 79.9615C50.2531 79.6919 49.6948 79.4359 49.1364 79.18C48.578 78.924 48.0196 78.6681 47.4676 78.3984C45.4272 77.3637 43.1172 75.9281 42.7346 73.476C42.097 70.3206 43.7038 67.4386 46.4438 65.8864ZM68.7715 127.98C68.1813 127.27 67.5583 126.599 66.8915 125.962C66.6706 125.724 66.4183 125.505 66.1648 125.285C65.6322 124.822 65.0945 124.355 64.8329 123.706C64.7782 123.568 64.7163 123.444 64.6507 123.331C65.67 123.129 66.7145 123.051 67.7589 122.973C68.6186 122.909 69.4782 122.845 70.3237 122.711C71.7457 122.531 73.1683 122.372 74.5903 122.213C76.6515 121.982 78.7114 121.751 80.7662 121.458C81.6069 121.326 82.4402 121.152 83.2728 120.979C84.9697 120.625 86.664 120.271 88.414 120.274C92.9211 119.869 97.4391 119.206 101.892 118.412C102.338 118.327 102.751 118.246 103.149 118.168C103.722 118.056 104.263 117.951 104.825 117.847C105.156 117.989 105.521 118.051 105.878 118.011C106.034 117.989 106.191 117.949 106.34 117.891C106.348 118.033 106.357 118.174 106.367 118.315C106.385 118.59 106.404 118.865 106.406 119.137C106.482 121.017 106.555 122.897 106.577 124.777C106.535 127.342 106.305 129.846 106.076 132.34C105.831 135.009 105.586 137.665 105.575 140.368C104.158 137.725 102.461 135.259 100.764 132.793C99.6718 131.207 98.58 129.621 97.563 127.987C96.193 125.83 94.5789 123.852 92.943 121.895C92.6041 121.156 92.145 120.321 91.2414 120.234C90.0828 120.074 89.3103 120.926 89.2265 121.855V121.859C89.1862 121.957 89.1477 122.055 89.1094 122.154C89.0266 122.366 88.9448 122.575 88.8476 122.77C88.2209 124.256 87.74 125.801 87.3792 127.375C87.1624 128.423 86.7779 129.408 86.3933 130.394C86.2026 130.883 86.0119 131.371 85.8417 131.868C84.7195 136.018 83.7211 140.208 82.9487 144.438C82.514 143.889 82.0827 143.337 81.6513 142.784C79.8582 140.488 78.0627 138.188 76.0186 136.109C75.4439 135.524 74.8556 134.952 74.267 134.381C73.3965 133.536 72.5255 132.69 71.6973 131.799C71.1613 131.168 70.6738 130.501 70.1858 129.832C69.7284 129.205 69.2704 128.578 68.7715 127.98ZM62.3479 115.479C61.6593 109.879 60.9306 104.279 59.8484 98.7441C59.462 96.5817 58.9048 94.3068 58.358 92.0743C57.9871 90.5601 57.621 89.0654 57.3162 87.6385C57.1119 86.8762 56.9704 85.8633 56.8178 84.7699C56.4341 82.022 55.9795 78.7659 54.2775 77.7025C53.9867 77.5197 53.6602 77.438 53.3347 77.3565C53.2319 77.3308 53.1292 77.3051 53.0277 77.2762C52.7341 77.1479 52.4414 77.0172 52.1488 76.8866C51.6354 76.6573 51.1223 76.4281 50.6047 76.2123C50.255 76.0434 49.8622 75.8809 49.454 75.7121C47.9953 75.1088 46.3392 74.4238 45.7442 73.0715C45.4892 71.687 45.8827 70.2514 46.8701 69.2385C47.0255 69.0909 47.1749 68.9273 47.3255 68.7626C47.5279 68.541 47.7323 68.3174 47.9558 68.1272C48.3093 68.3713 48.7283 68.5244 49.1582 68.5608C49.3623 68.692 49.6173 68.7685 49.9124 68.7685C50.0009 68.7668 50.0932 68.7654 50.1889 68.7638L50.1951 68.7637C51.1549 68.7485 52.4504 68.7279 53.5779 68.4733C54.1026 69.0417 54.9843 69.3697 56.1903 69.1C58.719 68.9215 60.3185 68.63 60.0853 65.6532C59.9873 63.2224 59.6083 60.8193 59.2295 58.4177C59.0593 57.3383 58.8891 56.2592 58.7445 55.178C58.4327 52.9418 58.0768 50.7126 57.7208 48.4835C57.4985 47.0914 57.2763 45.6993 57.0648 44.3056C57.0174 43.9086 56.9523 43.5075 56.8868 43.1046C56.6651 41.7399 56.4398 40.3529 56.8899 39.0224C57.3198 38.0241 57.9028 37.084 58.5295 36.195C59.3217 35.3522 60.3698 34.812 61.3907 34.2857C61.4732 34.2432 61.5555 34.2007 61.6375 34.1583C63.6633 33.1854 65.7109 32.249 67.959 31.943C70.6326 31.2413 73.3822 30.9513 76.129 30.6616C76.9908 30.5707 77.8524 30.4798 78.7112 30.3762C79.5741 30.2857 80.4382 30.2001 81.3025 30.1145C86.2112 29.6284 91.1261 29.1417 95.8724 27.7383C96.9458 27.5598 98.0299 27.4422 99.1141 27.3246C100.996 27.1205 102.878 26.9163 104.704 26.3938C105.929 26.0477 107.116 25.6141 108.304 25.1696C108.35 25.4365 108.41 25.7049 108.464 25.9508C108.534 26.2686 108.596 26.5489 108.61 26.74C108.98 28.5327 109.199 30.3487 109.418 32.1638C109.486 32.7281 109.554 33.2924 109.627 33.8558C109.747 34.6647 109.864 35.4772 109.977 36.2898L110.698 41.9263C110.702 41.9227 110.705 41.9227 110.705 41.9227C111.197 45.969 111.62 50.0227 112.042 54.0763L112.043 54.0813L112.345 57.2147C112.796 62.5732 112.918 67.9407 113.041 73.3101C113.074 74.7535 113.107 76.197 113.147 77.6406C113.153 78.3658 113.16 79.091 113.166 79.8163C113.189 82.5342 113.213 85.2521 113.27 87.9701C113.245 88.5106 113.239 89.0566 113.234 89.604C113.219 91.0934 113.204 92.5929 112.786 94.0184C111.321 94.7781 109.819 95.4527 108.315 96.128L108.314 96.1284C107.597 96.4505 106.88 96.7727 106.165 97.1045C105.675 97.3404 105.111 97.657 104.582 97.9547C104.277 98.126 103.983 98.291 103.721 98.4307C103.364 98.6093 103.057 98.8315 102.846 99.185C102.453 99.9651 102.514 100.864 102.573 101.733C102.59 101.984 102.607 102.232 102.613 102.475C102.755 104.734 103.065 106.979 103.375 109.219C103.414 109.849 103.478 110.477 103.543 111.106C103.644 112.097 103.745 113.088 103.75 114.08C103.737 114.25 103.72 114.421 103.703 114.591C103.679 114.847 103.654 115.103 103.64 115.359C103.21 115.407 102.779 115.459 102.348 115.511C102.061 115.546 101.774 115.58 101.487 115.614C99.4495 115.878 97.4038 116.058 95.358 116.239C93.537 116.399 91.716 116.56 89.9006 116.78C89.2397 116.845 88.5767 116.878 87.914 116.911C86.8486 116.964 85.7839 117.017 84.7304 117.206C81.626 117.96 78.478 118.445 75.3081 118.82C74.1671 118.977 73.0285 119.151 71.8895 119.325L71.888 119.325C71.0672 119.45 70.2461 119.576 69.4237 119.695C68.7281 119.802 68.0265 119.882 67.3248 119.961C65.8837 120.125 64.4417 120.289 63.0475 120.693C62.7925 118.959 62.5556 117.217 62.3479 115.479Z" fill="#373B50"/>
<path d="M24.2208 21.0083C25.2394 20.8402 26.3237 20.6986 27.373 20.4876C25.5565 18.433 23.6652 16.4444 21.9908 14.2548C21.2221 13.2632 21.7989 11.729 23.0377 11.4956C28.109 10.3844 33.1859 9.6744 36.5218 14.5647C39.233 19.6579 44.634 27.5141 34.7658 27.8226C36.2231 30.3142 37.9993 32.7186 38.6914 35.5727C38.9114 39.825 33.5858 35.7803 32.1517 34.5189C28.7918 31.792 25.6525 28.8543 22.6481 25.7597C21.225 24.1534 22.0444 21.3871 24.2208 21.0083ZM37.3474 35.1583C37.3416 35.1558 37.326 35.1556 37.3068 35.1565C37.329 35.1647 37.4321 35.1719 37.3474 35.1583ZM24.0661 24.2564C27.5173 28.0057 31.425 31.4843 35.6444 34.3202C34.4919 32.1267 33.0977 30.0789 31.6992 28.0233C31.0106 27.0624 31.5717 25.6159 32.7399 25.3858C34.4704 24.9788 35.9258 25.0365 37.4077 24.3265C37.104 21.9408 35.3974 19.99 34.3514 17.8516C32.8351 14.5564 29.8429 13.9505 26.3813 14.5502C27.2739 15.851 28.2029 17.167 29.065 18.3897C29.6939 19.4734 31.9675 21.4316 29.9469 22.2811C28.1606 22.7262 26.3463 22.8318 24.5317 23.0662C24.0452 23.1725 23.8616 23.8367 24.0661 24.2564Z" fill="#FF9142"/>
<path d="M113.817 43.2072C115.993 42.6467 115.936 40.3966 114.477 39.3876C113.894 39.0824 112.757 38.8199 112.261 38.7268C108.789 38.0628 105.186 37.6719 101.685 38.2591C100.882 38.4271 100.087 38.6573 99.3786 39.0845C98.3006 39.6681 98.2183 41.3436 99.3936 41.8716C102.815 43.3479 106.574 43.9681 110.29 44.0562C111.663 44.1199 112.692 43.9952 113.035 43.9248C113.352 43.7904 113.626 43.5721 113.817 43.2072Z" fill="#373B50"/>
<path d="M225.699 345.829C226.325 344.16 226.843 342.459 227.375 340.761C229.353 335.343 231.51 329.983 233.161 324.452C234.283 321.122 235.445 317.806 236.731 314.538C237.708 311.998 238.305 309.524 239.081 306.967C239.071 306.996 239.063 307.025 239.052 307.054C239.049 307.061 239.049 307.069 239.045 307.08C241.1 301.541 243.242 296.087 244.652 290.374C244.795 289.558 245.268 288.701 245.082 287.874C244.926 287.503 244.379 287.433 244.15 287.765C244.15 287.765 244.15 287.765 244.15 287.761C244.102 287.831 244.062 287.9 244.026 287.976C243.88 288.086 243.807 288.271 243.844 288.446C242.896 291.081 242.124 293.66 241.14 296.258C239.854 299.501 238.415 302.678 237.194 305.946C236.586 307.495 236.207 309.12 235.678 310.694C234.549 314.042 233.084 317.267 231.977 320.623C230.672 324.07 229.645 327.597 228.315 331.014C227.134 334.683 225.64 338.254 224.828 342.029C224.551 343.107 224.223 344.167 223.891 345.228C223.596 346.335 225.247 346.926 225.699 345.829Z" fill="white"/>
<path d="M202.48 317.132C202.979 316.363 203.077 315.365 203.318 314.487C203.821 312.199 204.178 309.881 204.575 307.571C205.231 304.041 205.927 300.663 206.167 297.096C206.808 291.139 208.127 285.171 208.641 279.214C208.681 278.496 208.743 277.774 208.823 277.06C208.98 276.011 207.664 275.249 206.845 275.945C206.222 276.375 206.4 277.45 206.331 278.011C206.043 282.555 205.187 287.04 204.71 291.565C204.108 295.606 204.119 299.705 203.511 303.731C203.066 306.693 202.749 309.674 202.367 312.643C202.221 313.722 202.05 314.797 201.864 315.868C201.817 316.214 201.722 316.567 201.806 316.917C201.889 317.205 202.25 317.314 202.48 317.132Z" fill="white"/>
<path d="M180.226 278.882C187.105 278.507 193.984 279.035 200.827 278.117C203.603 277.887 206.398 277.946 209.09 277.268C209.09 277.268 209.09 277.268 209.087 277.268C209.644 277.046 209.794 276.251 209.349 275.843C208.996 275.497 208.475 275.501 208.012 275.526C206.886 275.606 205.757 275.657 204.627 275.694C200.36 275.719 196.24 276.299 191.998 276.331C187.885 276.335 183.771 276.372 179.661 276.481C177.723 276.532 175.777 276.321 173.85 276.59C172.484 276.802 172.615 278.838 174.017 278.846C176.142 278.769 178.262 279.057 180.386 278.871C180.39 278.871 180.226 278.882 180.226 278.882Z" fill="white"/>
<path d="M209.599 276.018C210.309 274.768 211.136 273.569 212.306 272.706C213.719 271.493 211.865 269.452 210.528 270.738C209.212 272.185 208.068 273.992 207.952 275.989C207.832 275.952 207.671 276.058 207.74 276.207C207.81 276.32 207.923 276.375 208.01 276.455C208.436 277.512 209.285 276.674 209.599 276.018Z" fill="white"/>
<path d="M206.049 272.644C206.665 272.578 206.472 269.35 206.567 268.705C206.519 264.173 205.969 263.083 209.627 259.782C210.261 259.166 209.769 258.004 208.884 258.037C208.122 258.044 207.809 258.857 207.39 259.359C206.213 260.864 205.062 262.617 205.197 264.61C205.517 267.182 205.809 269.74 205.827 272.316C205.772 272.454 205.878 272.644 206.049 272.644Z" fill="white"/>
<path d="M129.298 277.25C131.306 277.232 133.212 277.002 135.186 276.951C135.853 276.915 136.527 276.907 137.183 276.784C137.416 276.74 137.646 276.66 137.773 276.445C137.773 276.445 137.773 276.445 137.77 276.445C138.087 275.778 137.314 275.559 136.793 275.629C134.567 275.567 132.348 275.548 130.122 275.578C130.647 274.16 131.23 272.761 131.929 271.42C132.243 270.71 132.804 269.966 132.592 269.154C132.297 267.977 130.559 267.762 129.998 268.844C129.473 269.821 129.127 270.896 128.774 271.945C128.395 273.366 126.467 277.578 129.298 277.25Z" fill="white"/>
<path d="M85.9035 272.265C86.5411 272.269 87.1642 271.66 86.6395 271.074C86.3298 270.79 85.8671 270.881 85.4881 270.764C82.6498 270.061 79.7422 269.733 76.842 269.398C74.7506 269.179 72.8741 269.219 70.8483 268.833C68.7824 268.377 66.7894 267.631 64.7125 267.197C60.6536 266.271 56.5728 265.772 52.5868 264.574C50.9071 264.096 49.1545 263.823 47.5513 263.113C46.9465 262.843 46.5275 262.231 45.8389 262.151C44.9316 261.998 44.2138 263.098 44.7166 263.87C45.1429 264.577 46.1413 264.388 46.7935 264.836C49.9743 266.089 53.5159 266.975 56.8206 267.692C59.4549 268.257 61.9908 268.592 64.5814 269.216C67.3031 269.798 69.9046 270.921 72.7065 271.092C77.148 271.292 81.4912 271.955 85.9035 272.265Z" fill="white"/>
<path d="M46.3058 264.454C47.0892 263.863 47.0928 262.537 46.273 261.976C46.1163 261.852 45.8904 261.776 45.7775 261.612C44.8884 259.914 44.4184 258.081 44.2435 256.175C43.5002 250.972 42.5092 245.802 42.0501 240.563C41.9554 238.617 41.7149 236.682 41.4416 234.751C40.7894 229.406 39.8749 224.094 39.2737 218.741C39.1826 217.251 39.117 215.757 38.9021 214.278C38.698 212.813 38.4903 211.345 38.3738 209.866C38.2317 207.935 38.3519 205.993 38.0713 204.072C37.3645 199.379 37.073 194.57 36.5811 189.899C36.3953 187.392 36.2532 184.973 36.1293 182.473C36.0528 181.756 36.1475 180.976 35.8414 180.313C35.6556 180.007 35.1273 180.087 35.0982 180.473L35.0945 180.469C34.814 186.394 35.2111 192.315 35.3277 198.239C35.3678 200.724 35.7905 203.176 35.8633 205.657C35.6812 208.966 36.0018 212.249 36.388 215.531C36.4754 217.069 36.4499 218.588 36.5811 220.071C37.1276 225.795 37.9766 231.494 38.8474 237.178C39.4959 242.796 40.3158 248.389 41.2412 253.967C41.6821 256.857 42.061 259.779 43.3108 262.453C43.5403 262.963 43.7261 263.601 44.003 264.035C44.4548 264.822 45.5989 265.044 46.3058 264.454Z" fill="white"/>
<path d="M45.2969 264.191C45.2969 263.991 45.1293 263.823 44.9252 263.823C44.7248 263.823 44.5572 263.994 44.5572 264.195C44.5572 264.395 44.7248 264.563 44.9289 264.563C45.1293 264.563 45.2969 264.392 45.2969 264.191Z" fill="white"/>
<path d="M44.6328 264.289C44.6328 264.198 44.5563 264.125 44.4689 264.125C44.3814 264.125 44.3049 264.202 44.3049 264.289C44.3049 264.381 44.3814 264.453 44.4689 264.453C44.5563 264.453 44.6328 264.377 44.6328 264.289Z" fill="white"/>
<path d="M45.8057 264.442C46.2175 264.296 46.4688 263.797 46.181 263.44C46.0243 263.251 45.813 263.207 45.5834 263.156C44.7709 262.945 43.9876 262.635 43.2224 262.292C42.2933 261.833 41.4735 261.152 40.4533 260.886C39.5096 260.605 38.5113 260.54 37.5421 260.376C36.5656 260.245 35.4872 259.607 34.5544 260.176C33.3921 260.831 33.5415 262.679 34.7839 263.149C36.6094 263.892 38.5878 263.335 40.4752 263.517C42.2205 263.845 44.0131 264.774 45.8057 264.442Z" fill="white"/>
<path d="M38.0923 258.416C41.918 258.263 32.8674 252.156 32.0914 251.526C30.7943 250.528 29.6465 249.3 28.9141 247.824C28.2474 246.669 26.4074 247.46 26.7936 248.746C27.4859 250.589 28.9506 252.076 30.5028 253.238C32.8419 254.834 35.4544 255.997 37.6369 257.837C37.5603 258.117 37.7972 258.438 38.0923 258.416Z" fill="white"/>
<path d="M30.8452 258.165C30.4371 257.771 29.61 257.738 29.1472 257.52C28.2108 257.232 27.3583 256.725 26.4146 256.47C25.1138 256.168 24.6147 258.074 25.8936 258.438C26.6769 258.62 27.4785 258.635 28.2801 258.693C29.027 258.755 29.7922 258.704 30.5318 258.817C30.8415 258.817 31.0565 258.431 30.8452 258.165Z" fill="white"/>
<path d="M61.384 295.015C64.5065 294.921 67.6291 294.749 70.7516 294.724C72.3256 294.717 73.896 294.924 75.47 294.84C77.0586 294.706 78.6509 294.873 80.2358 294.687C81.1868 294.491 83.7773 294.323 83.9049 293.23C83.9632 292.884 83.7373 292.552 83.4312 292.421C83.147 292.29 82.7972 292.359 82.4984 292.399C81.4054 292.538 80.3159 292.738 79.2083 292.731C74.3624 292.538 69.5164 292.301 64.6632 292.275C59.9922 292.454 55.3284 292.082 50.6573 292.049C45.5454 292.053 40.3971 292.334 35.3034 291.875C33.682 291.754 32.0424 291.809 30.4538 291.426C29.0765 291.12 28.6356 293.186 30.0639 293.427C32.7346 293.616 35.3981 293.776 38.0579 294.083C40.4007 294.221 42.7508 294.181 45.0936 294.367C47.1923 294.367 49.557 294.334 51.55 294.491C54.8547 294.585 58.0829 295.052 61.384 295.015Z" fill="white"/>
<path d="M157.809 251.275C158.636 249.733 159.58 248.185 160.465 246.695C161.977 244.552 163.49 242.417 164.626 240.045C165.847 237.509 167.111 234.988 167.822 232.252C169.035 228.91 169.345 225.281 168.499 221.813C167.093 212.882 163.326 204.582 160.99 195.889C158.684 188.212 156.363 180.455 153.237 173.087C152.246 170.603 151.207 168.136 150.242 165.64C149.899 164.959 149.779 164.037 149.097 163.614C148.799 163.498 148.514 163.716 148.474 163.982C148.474 163.982 148.474 163.982 148.474 163.979C148.773 165.964 149.684 168.03 150.307 169.961C151.072 172.122 151.819 174.366 152.577 176.418C154.88 183.424 156.709 190.577 158.808 197.649C160.779 204.859 164.003 211.669 165.778 218.938C166.197 221.274 166.998 223.485 166.936 225.846C166.86 228.255 166.004 230.506 165.184 232.744C164.714 234.212 164.029 235.553 163.373 236.89C162.127 239.63 160.702 242.293 158.986 244.767C157.86 246.571 156.866 248.462 155.915 250.356C155.426 251.522 157.157 252.43 157.809 251.275Z" fill="white"/>
<path d="M171.912 228.146C172.714 228.036 173.176 227.187 173.57 226.564C174.707 224.575 174.958 222.254 175.086 220.006C175.005 219.161 175.723 217.729 174.623 217.372C174.193 217.259 173.697 217.525 173.599 217.969C173.26 219.707 173.355 221.503 173.023 223.245C172.746 224.571 172.338 225.916 171.533 227.023C170.855 227.359 171.231 228.164 171.912 228.146Z" fill="white"/>
<path d="M176.7 227.989C177.979 227.84 178.904 226.797 179.724 225.887C181.083 224.28 181.834 222.239 182.118 220.173C182.326 218.818 182.46 217.444 182.435 216.074C182.406 214.439 182.154 212.704 182.821 211.163C183.003 210.733 182.814 210.216 182.413 209.986C181.407 209.491 180.908 210.54 180.788 211.378C180.478 212.945 180.668 214.544 180.741 216.125C180.901 220.235 180.11 224.852 176.543 227.377C175.978 227.399 176.193 228.24 176.7 227.989Z" fill="white"/>
<path d="M146.62 169.149C147.017 169.105 147.166 168.595 146.89 168.322C146.664 168.114 146.368 167.968 146.15 167.75C145.195 166.904 144.488 165.818 143.916 164.685C143.45 163.723 143.031 162.732 142.805 161.683C142.769 161.443 142.667 161.22 142.466 161.071C141.912 160.619 140.991 161.151 141.133 161.862C141.737 164.226 143.989 168.752 146.62 169.149Z" fill="white"/>
<path d="M141.53 175.292C143.129 175.08 144.846 174.628 146.42 174.519C146.758 174.534 147.203 174.443 147.239 174.038C147.301 173.288 146.325 173.229 145.782 173.175C144.23 173.12 142.63 172.938 141.096 173.251C139.865 173.616 140.262 175.452 141.53 175.292Z" fill="white"/>
<path d="M130.611 147.994C131.77 147.535 131.639 145.702 130.415 145.426C128.702 145.014 127.121 144.183 125.39 143.811C123.477 143.385 121.542 142.981 119.757 142.143C122.475 141.567 125.197 140.893 127.682 139.607C129.117 138.834 130.965 138.022 131.457 136.328C131.57 134.56 129.442 132.436 128.374 131.125C124.927 127.561 121.681 123.67 117.629 120.78C117.382 120.627 117.134 120.467 116.831 120.478C116.507 120.489 116.259 120.799 116.35 121.116C116.853 122.081 117.888 122.69 118.617 123.491C121.083 125.896 123.193 128.618 125.496 131.172C126.796 132.702 128.32 134.105 129.285 135.887C126.607 137.96 123.244 138.707 120.052 139.527C118.631 139.851 114.74 141.432 117.312 142.977C119.834 144.511 122.683 145.36 125.492 146.194C126.381 146.5 127.241 146.854 128.086 147.258C128.884 147.586 129.704 148.402 130.611 147.994Z" fill="white"/>
<path d="M128.656 215.116C129.079 214.996 129.341 214.537 129.214 214.114C129.035 213.517 128.882 212.923 128.758 212.329C127.935 208.565 127.527 204.732 127.18 200.903C126.605 194.501 127.206 188.106 127.683 181.73C127.844 177.584 128.474 173.496 129.108 169.404C129.483 165.921 130.081 162.343 130.748 158.932C130.74 158.965 130.733 158.998 130.729 159.034C130.726 159.053 130.722 159.067 130.718 159.085C131.436 155.526 132.945 151.882 132.165 148.209C131.975 147.561 131.724 146.854 131.185 146.409C130.511 145.874 129.327 145.976 128.842 146.719C128.485 147.502 129.385 147.561 129.913 147.663C131.123 151.332 128.791 155.588 128.153 159.224C127.1 163.501 126.736 167.804 126.219 172.148C125.472 178.422 125.483 184.762 125.147 191.069C124.962 197.204 125.934 203.282 126.893 209.323C127.082 210.591 127.301 211.855 127.454 213.127C127.559 213.921 127.487 215.357 128.656 215.116Z" fill="white"/>
<path d="M83.7329 225.245C84.1482 225.063 84.3086 224.593 84.1519 224.181C83.8058 223.27 83.4013 222.389 83.026 221.492C82.1224 219.346 81.4228 217.16 80.6723 214.963C79.5974 212.205 78.6209 209.418 77.7392 206.59C76.5732 203.748 75.5603 200.848 74.3871 198.01C73.8442 196.767 73.0645 195.284 72.6382 194.075C71.9496 192.067 71.2791 190.034 70.2699 188.157C68.9145 185.374 67.6101 182.557 65.9705 179.927C63.8609 176.669 61.7731 173.39 59.8384 170.023C58.5595 167.753 57.0401 165.629 55.8414 163.316C54.7592 161.071 53.6042 158.801 52.9411 156.396C54.6499 155.063 56.4061 153.78 58.2789 152.691C59.5797 151.94 60.9569 151.303 62.1375 150.355C62.7824 149.911 63.4491 149.004 62.8225 148.275C62.0865 147.626 61.0298 147.481 60.1481 147.087C57.2041 145.888 53.9686 145.418 51.1703 143.87C51.2942 142.649 51.5274 141.775 51.7424 140.656C52.012 139.166 51.9829 137.639 52.1796 136.138C52.5148 133.172 52.8974 130.203 53.422 127.27C53.4403 126.53 52.4237 126.14 51.9391 126.69C51.5456 127.146 51.4254 127.762 51.2651 128.326C50.3906 131.974 49.5453 135.519 49.2538 139.21C49.0899 140.97 48.7583 142.773 49.1117 144.533C49.9206 146.745 58.0603 148.169 60.4687 149.259C58.0239 150.712 55.4333 151.948 53.2217 153.769C52.4711 154.491 51.2141 155.041 51.112 156.189C51.2505 158.437 52.4857 160.517 53.2144 162.623C54.7775 166.485 57.2077 169.907 58.9639 173.678C61.1282 177.806 63.7006 181.705 65.8393 185.851C66.9579 188.238 68.3388 190.497 69.3117 192.949C70.3064 195.787 71.8512 198.367 73.039 201.121C73.9463 203.475 75.0831 205.727 75.9976 208.077C76.6279 209.979 77.3129 211.859 78.1254 213.691C79.3242 216.402 80.1877 219.244 81.3937 221.951C81.8236 222.91 82.2609 223.861 82.6726 224.826C82.8402 225.234 83.3357 225.42 83.7329 225.245Z" fill="white"/>
<path d="M41.7505 176.049C42.3553 175.601 44.822 170.916 42.9128 171.371C42.563 171.356 42.4391 171.863 42.767 171.99C42.3954 172.774 41.8889 173.488 41.3424 174.155C41.0363 174.577 40.4533 174.832 40.3586 175.375C40.2384 176.126 41.2404 176.61 41.7505 176.049Z" fill="white"/>
<path d="M42.5041 181.672C44.304 181.617 45.9983 180.79 47.3719 179.66C47.7035 179.34 48.2427 179.059 48.3047 178.564C48.301 178.309 48.0314 178.145 47.7982 178.25C47.6197 178.265 47.4156 178.32 47.3792 178.516C45.3898 179.802 43.0142 180.152 40.7406 179.58C40.4382 179.507 40.1285 179.496 39.8552 179.664C39.633 179.795 39.4727 180.014 39.4071 180.262C39.1593 181.905 41.4402 181.661 42.5041 181.672Z" fill="white"/>
<path d="M45.7849 190.427C46.0108 189.87 45.6392 189.17 45.0198 189.112C44.5607 189.072 44.1089 188.995 43.6571 188.912C42.5167 188.708 41.3798 188.369 40.2176 188.343C39.8605 188.07 39.4706 188.609 39.8896 188.821C40.1155 189.035 40.3487 189.21 40.6657 189.305C41.6786 189.659 42.6879 190.008 43.6607 190.464C44.0725 190.631 44.4222 191.014 44.8777 191.029C45.2566 191.029 45.6355 190.788 45.7849 190.427Z" fill="white"/>
<path d="M67.0916 254.762C68.4033 254.693 69.8935 255.021 71.1323 254.561C71.4566 254.306 71.4129 253.793 71.0558 253.589C70.6076 253.356 70.0793 253.374 69.5911 253.308C68.0899 253.137 66.5888 252.969 65.0731 252.955C63.193 252.831 61.3348 252.354 59.4401 252.481C58.4017 252.579 57.3706 252.561 56.3394 252.412C55.4249 252.368 53.9821 251.945 53.778 253.228C53.7088 253.778 54.1169 254.368 54.6925 254.412C56.2338 254.492 57.786 254.58 59.3235 254.405C61.9287 254.314 64.4865 255.05 67.0916 254.762Z" fill="white"/>
<path d="M51.772 38.2607C52.2639 38.0931 52.9853 37.9401 53.1128 37.3571C53.1821 36.847 52.406 36.3952 52.14 36.9527C51.4077 37.0328 50.6717 36.9636 49.943 36.8834C49.5312 36.8361 49.145 37.1275 49.0904 37.5429C49.0649 38.8509 50.9522 38.4247 51.772 38.2607Z" fill="white"/>
<path d="M51.1312 41.216C51.6449 41.2196 53.7764 40.4435 52.8035 39.8095C52.0165 39.7767 51.2186 39.9516 50.4352 39.7695C50.1401 39.7075 49.8194 39.5982 49.5462 39.7767C49.211 39.9699 49.0944 40.4399 49.2984 40.7678C49.6956 41.3034 50.5263 41.2597 51.1312 41.216Z" fill="white"/>
<path d="M50.8533 44.4914C51.5018 44.3784 52.89 44.0068 53.0358 43.2781C53.0685 43.0012 52.8536 42.7498 52.573 42.7388C52.4382 42.666 52.2706 42.666 52.1431 42.7461C51.6694 42.7498 51.1958 42.7534 50.7257 42.7534C49.5052 42.8008 49.6327 44.6226 50.8533 44.4914Z" fill="white"/>
<path d="M107.244 13.9439C107.878 13.7325 107.947 12.9419 108.173 12.4026C108.414 11.6047 108.651 10.7922 108.691 9.95781C108.705 9.70276 108.698 9.36755 108.487 9.18173C108.275 8.97769 107.889 9.07242 107.823 9.36391C107.612 10.1291 107.299 10.8323 106.964 11.5464C106.756 11.9581 106.541 12.3662 106.326 12.7743C105.98 13.3755 106.574 14.1552 107.244 13.9439Z" fill="white"/>
<path d="M103.686 12.5922C103.908 11.8453 105.169 9.29114 104.203 8.90492C104.028 8.83934 103.82 8.88305 103.697 9.02151C103.372 9.05065 103.186 9.45145 103.401 9.7065C103.066 10.519 102.669 11.153 102.246 11.8963C101.733 12.88 103.219 13.6124 103.686 12.5922Z" fill="white"/>
<path d="M99.5537 12.053C99.7541 11.0183 100.29 9.6665 99.6448 8.71553C99.5646 8.58436 99.3861 8.54429 99.2659 8.64266C99.08 8.78112 99.2294 8.956 99.2549 9.1236C99.2768 9.4078 99.1893 9.65921 99.1092 9.92155C98.8905 10.4899 98.5553 11 98.2456 11.5211C97.7574 12.4502 99.2404 13.0696 99.5537 12.053Z" fill="white"/>
<path d="M85 158.5C69.8333 160.833 39.3 165.5 38.5 165.5L42 188.5L88 182L85 158.5Z" fill="#FEFBF5"/>
<path d="M86.6529 181.645C87.3409 178.122 86.2817 174.784 85.4517 171.42C84.9021 167.511 84.6437 163.573 84.4398 159.631C81.3531 160.064 78.2482 160.344 75.1542 160.723C72.315 161.087 69.4284 160.883 66.6002 161.367C63.2987 162.219 59.9535 162.779 56.5647 163.121C51.1338 164.268 45.6665 165.243 40.2247 166.324C40.7089 169 40.3267 171.755 40.6979 174.394C41.2403 178.868 42.194 183.294 42.8674 187.64C47.0643 186.978 51.243 186.457 55.3817 185.584C57.38 185.249 59.4148 185.234 61.435 185.092C64.3506 184.808 67.208 184.073 70.1492 183.978C72.3259 183.818 74.6555 183.232 76.7121 182.894C80.0209 182.421 83.4679 182.865 86.6529 181.645ZM88.6658 175.217C88.9206 177.652 89.3101 180.368 88.3382 182.679C88.0143 183.24 87.3554 183.411 86.7912 183.629C82.9438 185.322 78.6231 184.404 74.6409 185.518C71.849 186.195 68.8934 186.181 66.0833 186.65C62.7199 187.444 59.2656 187.356 55.8622 187.804C52.0183 188.594 48.1599 189.271 44.2578 189.708C43.4134 189.784 42.5361 190.232 41.7062 189.919C40.8435 189.479 40.8581 188.343 40.6215 187.517C40.3485 185.988 40.1556 184.699 39.8644 183.225C38.9944 178.493 38.3538 173.706 38.6814 168.891C38.6231 168.854 38.5794 168.792 38.5685 168.716C38.5467 168.61 38.5431 168.508 38.5431 168.403C37.4984 168.326 37.3965 167.111 37.1708 166.314C37.0252 165.702 36.8541 164.985 37.2145 164.417C37.8333 163.445 39.0636 163.846 40.0173 163.813C41.7535 163.631 43.4534 163.154 45.1678 162.83C48.5166 162.193 51.8873 161.662 55.2106 160.894C58.9234 160.406 62.6144 159.911 66.2435 158.957C69.6432 158.415 73.1158 158.648 76.5155 158.058C79.0781 157.77 81.6406 157.483 84.1923 157.097C85.2515 156.875 86.7257 156.944 86.9223 158.276C87.5083 163.926 87.1698 169.706 88.6658 175.217Z" fill="#373B50"/>
<path d="M80.4391 170.935L80.4392 170.935L80.4381 170.926L80.4144 170.738C80.39 170.544 80.3533 170.351 80.3046 170.16L80.3047 170.16L80.3033 170.155C80.2379 169.916 80.1666 169.677 80.0896 169.44C80.0134 169.204 79.9314 168.97 79.8438 168.736C79.774 168.52 79.718 168.289 79.6764 168.045L79.6592 167.943L79.5837 167.874C79.4574 167.758 79.3449 167.63 79.2457 167.491C79.1412 167.326 79.0258 167.162 78.8995 167.001C78.7828 166.837 78.6555 166.679 78.5178 166.529C78.3715 166.346 78.191 166.19 77.98 166.06C77.8242 165.963 77.6317 165.869 77.4074 165.779C77.1888 165.674 76.9558 165.584 76.7089 165.507C76.4743 165.42 76.2356 165.344 75.9927 165.28C75.7602 165.204 75.5568 165.149 75.3857 165.12L75.3857 165.12L75.382 165.119C74.9633 165.051 74.5376 165.02 74.1052 165.027L74.1052 165.026L74.0959 165.027C73.8007 165.04 73.507 165.065 73.2146 165.102L72.8563 165.147L72.8478 165.148L72.8394 165.15C72.431 165.225 72.037 165.329 71.6578 165.46C71.2863 165.579 70.9495 165.726 70.6493 165.9L70.6493 165.9L70.6481 165.9C70.2666 166.124 69.9283 166.337 69.6339 166.54L69.6339 166.54L69.6301 166.543C69.3471 166.745 69.0668 166.963 68.7892 167.199L68.7567 167.227L68.7331 167.263C68.4278 167.725 68.1782 168.234 67.9834 168.787C67.7958 169.304 67.6019 169.817 67.4017 170.324L67.3803 170.378L67.3807 170.437C67.384 170.923 67.3937 171.414 67.4098 171.911C67.4147 172.325 67.442 172.73 67.4921 173.128L67.5221 173.366L67.522 173.366L67.5231 173.374C67.5958 173.856 67.7072 174.311 67.8579 174.74C68.0123 175.179 68.2302 175.576 68.512 175.928C68.7111 176.185 68.9447 176.401 69.2122 176.574L69.2122 176.574L69.2203 176.579C69.4629 176.726 69.7104 176.866 69.963 176.999L69.963 176.999L69.9722 177.003C70.2204 177.124 70.4742 177.243 70.7336 177.362C70.979 177.474 71.2085 177.599 71.4223 177.736L71.5875 177.841L71.7507 177.732C71.751 177.732 71.752 177.732 71.7545 177.731C71.7571 177.73 71.7622 177.728 71.7708 177.727L71.7708 177.727C71.7713 177.727 71.7737 177.727 71.7793 177.728C71.7853 177.729 71.7963 177.732 71.8127 177.74C71.9566 177.812 72.1084 177.855 72.2664 177.867L72.2691 177.867C72.5331 177.884 72.7994 177.875 73.0678 177.841C73.1543 177.83 73.24 177.814 73.3248 177.792L73.5775 177.76C73.7969 177.732 74.0123 177.721 74.2238 177.725C74.2901 177.734 74.3595 177.751 74.4324 177.776C74.5629 177.822 74.6984 177.844 74.8371 177.842L74.8537 177.842L74.8702 177.84L75.0067 177.822C75.1499 177.804 75.2955 177.773 75.4433 177.729L75.4433 177.729L75.4525 177.726C75.6253 177.668 75.7919 177.605 75.9525 177.536C76.1195 177.469 76.2758 177.402 76.4211 177.336C76.5582 177.274 76.6761 177.22 76.7743 177.173C76.8929 177.131 77.0123 177.102 77.1327 177.087C77.301 177.066 77.4619 177.021 77.5965 176.935C77.8255 176.815 78.0244 176.664 78.1894 176.482C78.3366 176.32 78.4772 176.153 78.6112 175.98L78.8014 175.735L78.9841 175.5C79.0941 175.358 79.2204 175.24 79.3634 175.145L79.4417 175.092L79.4761 175.005C79.5801 174.74 79.6934 174.456 79.8158 174.154C79.9549 173.838 80.0748 173.513 80.1757 173.179L80.1757 173.179L80.1768 173.175C80.2769 172.827 80.3518 172.47 80.4018 172.105C80.4651 171.725 80.4771 171.335 80.4391 170.935ZM78.7833 170.282L78.7831 170.282L78.786 170.292C78.8248 170.434 78.8543 170.584 78.8741 170.741C78.9049 170.985 78.9128 171.219 78.8987 171.444C78.8718 171.845 78.8102 172.234 78.7143 172.609C78.6176 172.988 78.4965 173.347 78.3515 173.685C78.2077 174.007 78.0559 174.295 77.8967 174.552C77.5103 174.971 77.0396 175.324 76.4811 175.611C75.9211 175.891 75.3222 176.088 74.6833 176.201L74.6833 176.201L74.6757 176.203C74.5361 176.232 74.4022 176.254 74.274 176.27C73.7727 176.333 73.2702 176.341 72.766 176.294C72.1319 176.231 71.5507 176.074 71.0201 175.827C70.5062 175.57 70.0651 175.213 69.6952 174.754C69.3379 174.31 69.1048 173.749 69.0064 173.056L68.9874 172.905C68.9371 172.505 68.9292 172.094 68.9641 171.67L68.9642 171.67L68.9645 171.664C68.9946 171.187 69.0391 170.691 69.098 170.175C69.3347 169.283 69.7897 168.521 70.467 167.884L70.4675 167.884C71.1476 167.241 71.9805 166.831 72.9763 166.657C72.9771 166.657 72.978 166.658 72.979 166.658L73.0061 166.675L73.0361 166.685C73.1602 166.729 73.2901 166.737 73.4185 166.721C73.5515 166.704 73.6755 166.651 73.7758 166.555C73.9193 166.558 74.097 166.58 74.312 166.626L74.3205 166.628L74.3292 166.63C74.5751 166.668 74.8036 166.702 75.0148 166.733C76.0492 166.926 76.8634 167.294 77.4748 167.826C78.0744 168.347 78.5184 169.154 78.7833 170.282Z" fill="#373B50" stroke="#373B50" stroke-width="0.6"/>
<path d="M67.3707 178.78L67.5484 178.681L67.523 178.48C67.4877 178.199 67.426 177.952 67.3289 177.75C67.2564 177.599 67.1358 177.488 66.9797 177.428C66.8325 177.371 66.6703 177.366 66.5109 177.386C66.343 177.407 66.1947 177.482 66.0674 177.59C65.9577 177.671 65.854 177.769 65.7558 177.88C65.6561 177.981 65.5593 178.092 65.4652 178.213C65.4005 178.296 65.3408 178.351 65.2884 178.386L65.2883 178.386L65.2837 178.39C64.875 178.674 64.4415 178.842 63.9803 178.901C63.9016 178.91 63.8299 178.914 63.7647 178.913L63.7547 178.913L63.7447 178.914C63.1746 178.942 62.632 178.865 62.1145 178.683C61.5934 178.489 61.1343 178.214 60.7347 177.857C60.3475 177.489 60.0851 177.088 59.9376 176.653L59.9377 176.653L59.936 176.648C59.871 176.466 59.8297 176.297 59.8099 176.14C59.7942 176.015 59.7937 175.896 59.8076 175.78L59.8076 175.78L59.8082 175.775C59.8362 175.5 59.9025 175.243 60.0061 175.004L60.0062 175.004L60.0084 174.999C60.1161 174.736 60.2471 174.487 60.4014 174.251C60.5186 174.071 60.6304 173.893 60.7365 173.714C60.9912 173.802 61.2943 173.856 61.6369 173.883C62.0575 173.927 62.4831 173.922 62.9134 173.868L63.0499 173.851L63.0499 173.851L63.0573 173.849C63.536 173.777 63.9718 173.649 64.3619 173.462L64.3619 173.462L64.3691 173.458C64.7843 173.245 65.0711 172.932 65.1457 172.507L65.147 172.499L65.148 172.491C65.1617 172.377 65.1633 172.265 65.1497 172.157L65.1304 172.004L65.1249 171.96L65.107 171.92C65.0489 171.788 64.9722 171.663 64.8792 171.543C64.7954 171.419 64.6947 171.306 64.5788 171.204L64.4467 171.072L64.308 170.933L64.2598 170.885L64.1956 170.863C63.7976 170.723 63.4097 170.67 63.0367 170.717C62.6803 170.762 62.3359 170.855 62.0044 170.996C61.6964 171.119 61.3867 171.265 61.0753 171.435L61.0753 171.435L61.072 171.437C60.8431 171.566 60.6132 171.683 60.3822 171.79C60.1399 171.583 59.9947 171.377 59.924 171.176C59.8928 171.083 59.8729 170.996 59.8629 170.916C59.8438 170.765 59.8553 170.606 59.9011 170.437L59.9011 170.437L59.9019 170.434C59.9672 170.184 60.0986 169.931 60.3066 169.675L60.3066 169.675L60.3107 169.67C60.519 169.401 60.7692 169.169 61.063 168.973L61.0631 168.973L61.0662 168.971C61.3736 168.76 61.7018 168.589 62.0514 168.458C62.2766 168.388 62.504 168.338 62.7336 168.309C62.8486 168.295 62.9644 168.285 63.0809 168.281C63.3348 168.278 63.5728 168.342 63.8003 168.476L63.8002 168.476L63.8079 168.48C64.078 168.629 64.3299 168.774 64.5638 168.915L64.5637 168.915L64.5702 168.919C64.8296 169.067 65.0807 169.169 65.3205 169.212C65.388 169.233 65.4686 169.247 65.5543 169.237C65.8336 169.201 66.0359 169.001 66.1807 168.769L66.2678 168.629L66.1966 168.48C66.053 168.181 65.8587 167.935 65.609 167.753C65.3882 167.593 65.1464 167.455 64.8847 167.34C64.6398 167.225 64.3799 167.125 64.1054 167.04C63.8695 166.962 63.6488 166.866 63.4428 166.754L63.3461 166.701L63.2382 166.723C62.6592 166.843 62.0767 166.98 61.4909 167.135C60.8752 167.286 60.3214 167.534 59.833 167.88L59.833 167.88L59.8315 167.881C59.4264 168.172 59.0938 168.536 58.8346 168.97L58.8345 168.97L58.8316 168.975C58.5855 169.407 58.4337 169.861 58.3794 170.337C58.3483 170.596 58.3494 170.857 58.3825 171.12C58.4109 171.346 58.4643 171.568 58.5422 171.786C58.6868 172.217 58.9318 172.602 59.2702 172.94C59.198 173.093 59.1206 173.25 59.0379 173.411C58.9139 173.638 58.7916 173.876 58.671 174.125L58.6709 174.125L58.6665 174.135C58.553 174.393 58.4543 174.665 58.3701 174.953L58.37 174.953L58.3683 174.959C58.2893 175.253 58.2537 175.568 58.2585 175.903L58.2585 175.903L58.2587 175.909C58.2633 176.044 58.2733 176.173 58.2889 176.297C58.3281 176.608 58.4107 176.913 58.5356 177.211C58.6908 177.603 58.8631 177.992 59.0527 178.379L59.0766 178.428L59.1161 178.465C59.3039 178.642 59.4907 178.808 59.6765 178.963C59.8362 179.096 59.9868 179.258 60.1276 179.452L60.1756 179.518L60.2504 179.551C60.7034 179.749 61.1741 179.95 61.6624 180.154C62.1908 180.387 62.7642 180.506 63.3789 180.514L63.3789 180.514L63.3833 180.514C63.5797 180.514 63.7699 180.502 63.9538 180.479C64.1895 180.45 64.4172 180.396 64.6362 180.318C64.9978 180.199 65.3383 180.047 65.6571 179.86C65.9768 179.678 66.2784 179.486 66.5618 179.284C66.8412 179.091 67.1108 178.923 67.3707 178.78ZM62.9738 172.283C63.0654 172.271 63.1529 172.269 63.2368 172.276C63.1333 172.296 63.0244 172.313 62.9101 172.327L62.7605 172.346C62.7263 172.35 62.6927 172.353 62.6595 172.355C62.7284 172.332 62.7982 172.312 62.869 172.296L62.9738 172.283Z" fill="#373B50" stroke="#373B50" stroke-width="0.6"/>
<path d="M56.4808 170.282L56.4808 170.282L56.4784 170.278C56.3625 170.094 56.2226 169.932 56.0589 169.792C55.9179 169.661 55.7664 169.543 55.6046 169.439C55.4523 169.331 55.2947 169.224 55.1318 169.118C55.0028 169.026 54.8782 168.912 54.7586 168.773L54.6743 168.676L54.5458 168.67C54.2988 168.658 54.0545 168.625 53.8126 168.571C53.5567 168.498 53.2968 168.437 53.0327 168.387C52.7673 168.323 52.4986 168.284 52.2269 168.269C52.0813 168.261 51.9367 168.266 51.7934 168.284C51.6403 168.303 51.489 168.335 51.3398 168.38L51.3398 168.38L51.3378 168.381C50.5649 168.617 49.8766 168.856 49.2737 169.096C48.664 169.329 48.0796 169.65 47.5203 170.055L47.5202 170.055C46.7342 170.625 46.1212 171.316 45.6867 172.127C45.2656 172.913 44.9212 173.741 44.6533 174.613L44.6445 174.642L44.6415 174.671C44.5734 175.357 44.5756 175.998 44.6505 176.592C44.6788 176.817 44.7176 177.031 44.7673 177.233C44.9384 178.015 45.2188 178.709 45.6126 179.308L45.6126 179.308L45.6151 179.312C46.0181 179.906 46.5076 180.405 47.0831 180.809L47.0831 180.809L47.0892 180.813C47.6745 181.202 48.3184 181.48 49.0189 181.647L49.0298 181.649L49.0408 181.651C49.8298 181.778 50.6254 181.814 51.427 181.761L51.427 181.761L51.4321 181.76C51.7105 181.737 51.9827 181.709 52.2487 181.675C52.749 181.612 53.2456 181.52 53.7383 181.399C54.4737 181.224 55.1625 180.989 55.8041 180.694C56.444 180.399 57.0072 180.065 57.4912 179.691L57.5652 179.633L57.5935 179.544C57.6549 179.35 57.6763 179.155 57.6517 178.959C57.6431 178.891 57.6259 178.822 57.6032 178.753C57.5609 178.618 57.4899 178.494 57.3817 178.397C57.2722 178.298 57.1402 178.241 56.9992 178.216L56.9907 178.214L56.982 178.213C56.9191 178.205 56.8527 178.203 56.7871 178.211C56.6877 178.224 56.5839 178.253 56.4916 178.315C56.381 178.389 56.2844 178.478 56.2039 178.581C56.1365 178.668 56.0763 178.76 56.0231 178.857C55.9906 178.906 55.9556 178.946 55.9186 178.978C55.8472 179.04 55.7524 179.104 55.6301 179.171C55.4908 179.234 55.3418 179.303 55.1834 179.379C55.0271 179.442 54.8702 179.5 54.7128 179.553C54.5454 179.609 54.3935 179.663 54.2575 179.716C53.8992 179.837 53.4963 179.938 53.0478 180.017L53.0474 180.017C52.8265 180.056 52.599 180.09 52.3648 180.12C52.1307 180.149 51.9018 180.173 51.678 180.189L51.6773 180.189C51.2058 180.226 50.7615 180.243 50.3443 180.239C49.9282 180.224 49.5858 180.184 49.3131 180.123L49.3131 180.123L49.3093 180.123C48.7051 179.995 48.1792 179.738 47.7265 179.349C47.2546 178.933 46.8897 178.493 46.6267 178.031L46.6268 178.031L46.6232 178.025C46.4831 177.791 46.3717 177.499 46.2942 177.142C46.2629 176.981 46.2363 176.813 46.2143 176.638C46.1899 176.444 46.1747 176.237 46.169 176.015L46.1691 176.015L46.1689 176.011C46.1536 175.626 46.1716 175.242 46.223 174.86C46.2737 174.482 46.3608 174.143 46.482 173.84C46.8027 173.062 47.2518 172.41 47.8282 171.88C48.4086 171.346 49.0455 170.874 49.7392 170.464C49.9738 170.431 50.1975 170.378 50.4099 170.305C50.6321 170.23 50.8487 170.157 51.0596 170.084L51.0667 170.082L51.0737 170.079C51.2723 169.999 51.4781 169.929 51.6911 169.869L51.7012 169.866L51.7111 169.863C51.7883 169.835 51.8734 169.815 51.9673 169.803C52.0611 169.791 52.1564 169.789 52.2537 169.796L52.2697 169.797L52.2857 169.796C52.3566 169.794 52.4401 169.81 52.5397 169.857L52.5396 169.857L52.5503 169.862C52.7117 169.93 52.8778 169.986 53.0484 170.028L53.0631 170.032L53.0781 170.034C53.2373 170.056 53.403 170.055 53.5737 170.034C53.6807 170.02 53.7554 170.024 53.8049 170.034C53.9234 170.073 54.0301 170.13 54.1267 170.205C54.247 170.298 54.3696 170.403 54.4946 170.52L54.4944 170.52L54.5042 170.528C54.6334 170.639 54.7561 170.745 54.8724 170.845L54.8783 170.85L54.8846 170.855C54.9804 170.929 55.0802 170.992 55.1841 171.042C55.2105 171.214 55.2674 171.374 55.3569 171.52C55.3953 171.584 55.4153 171.643 55.4224 171.7C55.4288 171.751 55.4268 171.794 55.4196 171.83L55.7138 171.889L55.4196 171.83C55.415 171.853 55.381 171.934 55.2474 172.081C55.1291 172.21 54.9875 172.339 54.8212 172.467C54.6598 172.587 54.5033 172.694 54.3518 172.79C54.283 172.83 54.2301 172.858 54.1914 172.875C54.1717 172.884 54.1585 172.89 54.1507 172.892C54.1503 172.892 54.1499 172.893 54.1496 172.893L54.1076 172.898C53.9831 172.914 53.8488 172.891 53.6977 172.813C53.5452 172.732 53.4029 172.653 53.2705 172.576C53.2646 172.493 53.257 172.413 53.2475 172.338C53.2333 172.225 53.2137 172.12 53.1877 172.025C53.1279 171.807 53.0004 171.612 52.8273 171.441L52.7446 171.36L52.6284 171.355C52.5456 171.352 52.4654 171.354 52.3891 171.364C52.1758 171.391 51.9708 171.467 51.825 171.631L51.825 171.631L51.8222 171.634C51.6674 171.813 51.6022 172.031 51.6128 172.266C51.6103 172.347 51.614 172.428 51.6241 172.508C51.6417 172.647 51.6717 172.785 51.7138 172.921C51.7619 173.121 51.808 173.305 51.8522 173.472L51.865 173.521L51.8928 173.562C51.9758 173.687 52.0838 173.787 52.2154 173.858L52.2361 173.869L52.2583 173.877C52.3504 173.909 52.4362 173.942 52.5159 173.975L52.5236 173.978L52.5314 173.981C52.614 174.01 52.6913 174.044 52.7638 174.084C52.8128 174.11 52.8605 174.149 52.9064 174.205L53.0005 174.321L53.1493 174.315C53.3787 174.307 53.5591 174.331 53.6977 174.375L53.7057 174.378L53.7139 174.38C53.9294 174.436 54.1762 174.456 54.4485 174.447L54.5098 174.444L54.5654 174.418C54.9558 174.235 55.323 174.013 55.6668 173.751L55.6668 173.751L55.6724 173.746C56.0213 173.467 56.3043 173.155 56.5164 172.809L56.5165 172.809L56.5193 172.804C56.7333 172.439 56.8538 172.045 56.8791 171.624L56.8796 171.615L56.8796 171.606C56.8795 171.501 56.873 171.397 56.86 171.294C56.8176 170.958 56.6864 170.62 56.4808 170.282Z" fill="#373B50" stroke="#373B50" stroke-width="0.6"/>
</svg>
