<svg width="312" height="481" viewBox="0 0 312 481" fill="none" xmlns="http://www.w3.org/2000/svg">
<path d="M283.197 146.329C283.307 146.843 283.394 147.36 283.485 147.878C283.587 148.472 283.675 149.073 283.762 149.67C283.809 149.692 283.86 149.718 283.908 149.739C283.955 149.761 283.999 149.783 284.046 149.805C285.183 150.333 286.313 150.869 287.438 151.423C289.297 152.337 291.133 153.292 292.933 154.316C296.759 156.469 300.442 158.972 303.295 162.35C304.443 163.807 305.795 165.246 306.265 167.086C306.735 169.692 305.598 172.33 303.893 174.268C301.193 177.099 297.367 178.465 293.782 179.813C292.139 180.364 290.463 180.79 288.768 181.132C287.595 181.38 286.411 181.581 285.223 181.755C285.063 181.781 284.906 181.806 284.746 181.828C284.786 182.138 284.822 182.448 284.862 182.757C284.997 183.883 285.132 185.006 285.252 186.135C285.256 186.182 285.263 186.233 285.267 186.281C285.325 186.816 285.383 187.356 285.416 187.895C285.424 187.971 285.427 188.052 285.434 188.128C286.568 187.931 287.701 187.727 288.827 187.498C291.268 187.009 293.684 186.408 296.008 185.519C301.874 183.308 308.229 180.134 310.655 173.955C311.992 170.726 312.153 166.839 310.407 163.734C307.172 158.684 302.188 154.953 296.89 152.261C293.735 150.628 290.506 149.113 287.202 147.797C286.076 147.349 284.939 146.923 283.795 146.529C283.616 146.464 283.434 146.402 283.256 146.34C283.237 146.336 283.219 146.333 283.197 146.329Z" fill="#FF9142"/>
<path d="M122.514 332.187C122.97 332.628 123.469 332.996 123.997 333.317C124.497 333.63 125.021 333.904 125.557 334.169C127.535 335.164 129.608 335.948 131.7 336.665C132.29 336.873 132.884 337.07 133.478 337.267C134.105 337.471 134.731 337.675 135.362 337.868C143.917 340.524 152.785 342.236 161.737 342.641C163.883 342.754 166.033 342.768 168.176 342.947C168.212 342.947 168.252 342.95 168.289 342.954C169.56 343.067 170.832 343.206 172.103 343.34C175.74 343.719 179.383 344.08 183.041 343.818C192.241 343.246 201.467 343.144 210.627 342.01C212.933 341.777 215.25 341.613 217.568 341.446C218.894 341.347 220.22 341.249 221.543 341.136C221.605 341.129 221.67 341.125 221.732 341.118C227.325 340.608 232.86 339.617 238.394 338.68C244.126 337.773 249.762 336.377 255.235 334.454C255.668 334.304 256.117 334.151 256.572 333.995C258.088 333.466 259.706 332.876 261.261 332.162C265.47 330.234 269.248 327.414 269.438 322.543C269.121 318.265 266.293 314.534 263.09 311.769C262.701 311.43 262.307 311.109 261.91 310.803C261.01 310.14 258.427 308.501 257.796 310.144C257.753 310.534 257.906 310.847 257.96 311.19C258.004 311.539 258.543 311.474 258.503 311.124C258.485 310.967 258.507 310.807 258.58 310.668C259.924 311.12 260.952 312.166 261.924 313.194C262.154 313.438 262.38 313.678 262.606 313.911C264.03 315.547 265.233 317.402 265.889 319.486C268.556 327.086 256.547 329.247 251.427 330.85C245.507 332.585 239.382 333.39 233.279 334.21C227.69 334.986 222.089 335.7 216.445 335.933C208.983 336.348 201.562 337.361 194.078 337.463C189.731 337.452 185.388 337.74 181.041 337.82C176.636 337.824 172.285 336.997 167.906 336.633C162.994 336.279 158.065 336.206 153.201 335.394C147.458 334.501 141.8 333.149 136.254 331.415C135.212 331.087 134.17 330.748 133.135 330.395C130.796 329.542 128.501 328.569 126.398 327.225C123.239 325.41 119.931 329.469 122.514 332.187Z" fill="#FF9142"/>
<path d="M247.985 445.564C247.989 449.55 253.749 450.112 254.464 446.089C255.101 438.518 256.362 431.005 256.336 423.386C257.12 407.653 257.637 391.902 258.435 376.169C259.783 363.03 260.902 349.852 261.434 336.651C261.386 335.179 261.55 333.616 261.255 332.162C261.157 331.67 261.004 331.189 260.771 330.73C260.18 329.663 258.716 329.389 257.754 330.118C256.635 331.051 256.73 332.654 256.566 333.995C256.562 334.046 256.555 334.097 256.548 334.148C256.3 337.063 256.045 339.974 255.761 342.889C254.937 350.813 254.362 358.764 253.447 366.681C252.977 370.638 252.438 374.588 252.157 378.563C251.392 394.252 250.47 409.93 249.793 425.623C249.749 432.349 248.368 438.882 247.985 445.564Z" fill="#FF9142"/>
<path d="M212.768 413.992C213.409 416.725 217.435 417.046 218.492 414.422C218.991 413.267 219.035 412.025 219.1 410.79C219.279 408.002 219.414 405.211 219.567 402.424C220.088 395.815 220.27 389.191 220.514 382.563C221.188 369.636 222.959 356.807 222.066 343.865C221.957 343.143 221.902 342.109 221.727 341.117C221.429 339.431 220.791 337.867 218.969 338.177C217.519 338.611 217.519 340.101 217.563 341.445C217.577 341.843 217.592 342.225 217.577 342.568C217.596 345.136 217.515 347.705 217.439 350.274C217.075 361.463 215.358 372.547 214.593 383.711C214.251 390.459 213.737 397.188 213.143 403.918C212.976 406.213 212.826 408.509 212.651 410.808C212.538 411.876 212.502 412.943 212.768 413.992Z" fill="#FF9142"/>
<path d="M165.231 468.3C166.171 469.276 167.767 469.499 168.933 468.806C170.736 467.75 170.707 465.447 170.678 463.603C170.667 460.849 170.656 458.094 170.612 455.34C170.5 451.671 170.714 448.009 170.904 444.344C170.919 438.787 170.744 433.231 170.813 427.671C170.842 423.961 171.05 420.252 171.159 416.543C171.323 410.885 171.185 405.219 171.41 399.56C171.738 391.796 172.059 384.032 172.092 376.26C172.132 368.619 171.811 360.982 171.906 353.346C171.928 350.376 172.026 347.406 172.088 344.441C172.088 344.076 172.099 343.705 172.099 343.34C172.11 342.604 172.092 341.872 171.913 341.154C171.91 341.158 171.906 341.158 171.906 341.161C171.607 339.802 169.61 339.496 168.925 340.739C168.55 341.431 168.324 342.178 168.171 342.947C167.916 344.211 167.862 345.541 167.672 346.798C167.457 348.806 167.333 350.821 167.206 352.832C166.626 364.225 167.045 375.644 166.251 387.03C165.621 396.463 165.173 405.904 164.983 415.359C164.59 422.941 164.4 430.534 164.458 438.128C164.55 441.644 164.524 445.156 164.28 448.665C164.127 452.509 164.287 456.353 164.269 460.193C164.265 461.155 164.265 462.113 164.254 463.071C164.305 464.831 163.923 466.908 165.231 468.3Z" fill="#FF9142"/>
<path d="M128.429 418.62C129.106 421.196 132.739 421.498 133.814 419.024C134.342 417.975 134.204 416.769 134.331 415.636C134.805 412.025 134.834 408.389 134.688 404.756C134.488 397.294 134.954 389.839 135.034 382.381C135.155 374.981 134.892 367.584 134.848 360.184C134.845 354.42 135.038 348.66 135.366 342.907C135.431 341.54 135.526 340.167 135.464 338.8C135.45 338.483 135.421 338.17 135.359 337.868C135.289 337.525 135.18 337.197 134.998 336.887C134.364 335.663 132.48 335.579 131.697 336.665C131.649 336.727 131.606 336.796 131.569 336.869C131.566 336.866 131.566 336.866 131.566 336.862C130.658 338.567 130.698 340.626 130.411 342.506C130.196 344.535 129.984 346.568 129.839 348.605C128.92 359.765 129.358 370.966 129.019 382.144C128.822 389.599 128.195 397.05 128.381 404.512C128.436 407.387 128.516 410.258 128.509 413.133C128.596 414.951 127.995 416.849 128.429 418.62Z" fill="#FF9142"/>
<path d="M165.652 107.474C165.47 108.119 165.689 108.768 165.966 109.347C166.538 110.498 167.201 111.599 167.827 112.721C168.192 113.351 168.563 114.036 169.012 114.568C169.012 114.601 169.015 114.637 169.015 114.67C169.099 118.459 168.877 122.322 168.563 126.074C168.039 131.806 168.166 137.559 167.969 143.305C167.638 149.095 167.605 154.891 167.317 160.677C167.088 169.294 167.274 177.922 166.851 186.536C166.887 197.94 165.962 209.315 165.936 220.72C165.864 223.54 165.663 226.356 165.634 229.176C165.605 230.652 165.59 232.12 165.663 233.596C165.692 234.234 165.878 234.813 166.337 235.276C166.574 235.524 166.844 235.698 167.124 235.808C168.319 238.58 169.627 241.339 171.209 243.918C171.999 245.088 172.947 246.917 174.623 246.567C176.984 245.904 180.7 240.06 181.571 237.724C182.194 235.064 181.564 232.299 181.709 229.595C181.487 222.039 180.915 214.515 180.897 206.954C180.839 199.186 181.057 191.425 180.835 183.657C180.78 181.253 180.489 178.866 180.35 176.465C180.256 173.503 180.19 170.541 180.019 167.578C179.818 164.423 179.84 161.257 179.724 158.098C179.582 154.819 179.192 151.561 178.813 148.304C178.059 138.838 177.191 129.379 176.08 119.95C175.891 117.672 175.472 115.373 175.49 113.092C176.262 111.515 178.886 108.902 177.61 107.252C177.29 106.931 176.794 106.807 176.372 106.986C176.065 107.113 175.861 107.347 175.683 107.609C174.885 106.133 174.065 104.665 173.573 103.047C173.009 101.32 172.586 99.4291 171.314 98.0591C170.017 96.7401 168.724 97.8806 168.341 99.349C167.653 101.255 167.08 103.193 166.523 105.139C166.323 105.958 166.027 106.724 165.652 107.474Z" fill="#FF9142"/>
<path d="M109.4 51.2869C108.463 58.2389 108.751 59.3028 116.115 58.8801C119.055 58.7198 121.62 57.2624 124.273 56.1511C124.819 55.896 125.431 55.7685 125.923 55.4078C126.637 54.8722 126.903 53.7937 126.444 53.014C125.814 51.9318 124.276 51.9136 123.413 52.7225C120.946 54.3402 118.636 56.1402 115.714 56.694C114.198 56.909 112.471 57.3061 111.043 56.5956C111.127 54.3512 111.881 52.3581 112.282 50.1902C113.189 44.816 114.001 39.4089 115.298 34.1148C115.371 33.8233 115.459 33.5246 115.39 33.2258C115.313 32.8869 114.876 32.763 114.614 32.9671C114.424 33.1165 114.311 33.3497 114.209 33.5646C113.083 36.29 112.303 39.1648 111.447 41.9886C111.189 43.0306 110.897 44.0617 110.587 45.0929C110.015 47.1223 109.771 49.2174 109.4 51.2869Z" fill="#373B50"/>
<path d="M127.182 39.0298C127.032 38.5088 126.54 38.1116 125.99 38.1153C126.792 36.3336 127.969 34.5155 129.659 33.477C131.532 32.5917 133.678 32.1508 135.744 32.3876C136.495 32.5443 137.201 32.8431 137.89 33.1746C138.823 33.6701 139.869 34.1584 140.4 35.1239C140.929 36.0348 140.032 36.9749 139.504 37.6744C137.635 39.6674 134.931 41.0156 132.162 40.8225C130.464 40.6039 128.307 40.4472 127.182 39.0298ZM126.183 34.0928C125.52 35.1421 123.848 38.4796 124.748 39.5326C125.622 42.0503 130.082 43.2345 132.508 43.1835C137.835 43.424 146.536 36.4101 140.258 31.7099C139.081 30.8828 137.81 30.1432 136.418 29.746C132.465 28.8825 128.034 30.2998 126.183 34.0928Z" fill="#373B50"/>
<path d="M122.869 33.4917C122.651 34.1912 123.368 34.9054 124.068 34.6904C124.753 34.4754 124.921 33.6702 125.234 33.1091C125.864 31.7938 126.764 30.6242 127.999 29.8299C130.043 28.4308 132.601 28.347 134.995 28.4781C137.578 28.6457 140.176 29.7607 141.921 31.6881C141.779 31.914 142.1 32.078 142.242 31.8812C143.015 31.2618 140.701 29.2615 140.183 28.868C137.986 27.2466 135.246 26.6855 132.565 26.6491C129.839 26.4596 127.019 27.4944 125.136 29.4874C124.068 30.6096 123.379 32.0452 122.869 33.4917Z" fill="#373B50"/>
<path d="M128.921 34.3768C127.806 35.7941 128.028 38.341 129.314 39.5871C129.548 39.7875 129.835 39.9259 130.134 39.9879C130.921 40.6182 132.182 40.6911 132.907 39.9296C135.246 37.7143 131.796 31.9429 128.921 34.3768Z" fill="#373B50"/>
<path d="M102.62 38.5049C99.2347 38.8219 101.898 45.0487 104.463 44.2909C105.236 44.0504 106.041 43.3945 105.917 42.5092C105.662 40.7675 104.671 38.5158 102.62 38.5049Z" fill="#373B50"/>
<path d="M116.481 26.0985C115.861 27.4394 117.399 28.7073 118.641 27.8912C121.706 25.3516 124.238 24.6557 128.093 24.08C130.596 23.6428 133.19 23.3586 135.701 23.865C136.998 24.1419 138.226 24.6447 139.41 25.235C140.084 25.5484 140.798 26.1605 141.567 25.807C144.54 23.814 138.634 21.0959 137.005 20.5567C135.081 19.93 133.289 18.9244 131.259 18.6292C126.235 17.5435 121.538 19.3252 118.219 23.2019C117.41 24.0253 117.042 25.1294 116.481 26.0985Z" fill="#373B50"/>
<path d="M140.089 46.3279C139.691 45.8652 138.861 46.0983 138.883 46.7433C138.941 47.0457 138.864 47.4246 139.159 47.6141C139.684 48.4739 140.03 50.7475 141.404 50.2192C141.925 50.0006 142.187 49.3156 141.87 48.8201C141.284 47.9894 140.759 47.0967 140.089 46.3279Z" fill="#373B50"/>
<path d="M136.462 51.3598C137.807 50.6566 136.327 49.1956 135.941 48.3065C135.548 47.7746 135.027 46.2479 134.189 46.6013C133.54 47.0167 134.396 48.3867 134.528 48.9842C134.957 49.8478 135.092 51.8007 136.462 51.3598Z" fill="#373B50"/>
<path d="M129.276 47.8435C129.003 48.1605 129.244 48.5941 129.295 48.9548C129.521 49.8548 129.324 51.6401 130.745 51.3487C131.984 50.9151 131.215 49.6653 130.843 48.8674C130.599 48.2735 129.994 47.1112 129.276 47.8435Z" fill="#373B50"/>
<path d="M105.695 50.977C104.511 51.4361 105.666 52.8353 105.844 53.6332C106.285 54.5259 106.405 56.5335 107.83 56.078C109.149 55.353 107.812 53.8154 107.422 52.8863C106.977 52.2523 106.675 50.7766 105.695 50.977Z" fill="#373B50"/>
<path d="M102.206 52.8352C101.641 53.2542 102.322 54.1141 102.417 54.6497C102.789 55.3784 102.69 57.0617 103.864 56.8358C105.131 56.3367 103.853 54.9849 103.557 54.2052C103.233 53.7352 102.967 52.5182 102.206 52.8352Z" fill="#373B50"/>
<path d="M78.1519 263.878C76.1953 265.518 78.4981 268.432 80.5494 266.884C82.4368 265.23 80.1777 262.41 78.1519 263.878Z" fill="#373B50"/>
<path d="M84.5572 268.105C84.5535 269.19 85.4608 270.105 86.5466 270.105C87.6323 270.105 88.5432 269.205 88.5469 268.116C88.5505 267.033 87.6433 266.115 86.5575 266.115C85.4717 266.115 84.5608 267.015 84.5572 268.105Z" fill="#373B50"/>
<path d="M2.39026 345.173C5.4545 345.541 8.24545 346.966 11.0874 348.077C13.3355 348.839 15.5472 349.731 17.8244 350.405C20.1708 351.101 22.357 352.216 24.6962 352.919C25.3192 353.101 25.9386 353.291 26.558 353.48C26.5617 353.477 26.5617 353.477 26.5617 353.473C26.9588 352.806 27.3305 352.118 27.6584 351.414C28.4782 349.476 29.6004 347.694 30.6388 345.873C32.3732 342.459 34.2459 339.107 35.8382 335.62C37.9988 330.621 40.3781 325.72 42.4403 320.677C44.3241 316.112 45.7997 311.386 47.8619 306.89C50.6311 299.454 53.6989 292.177 56.8105 284.876C57.8344 282.482 58.993 280.15 60.046 277.771C60.527 276.714 60.9351 275.628 61.365 274.55C60.8294 274.597 60.2901 274.645 59.7545 274.696C56.5264 274.907 53.2909 274.914 50.059 275.027C46.4738 275.034 42.8448 274.725 39.3652 273.847C38.5126 273.595 37.4523 273.158 36.8037 272.455C35.0366 273.767 33.1529 271.143 32.2165 269.697C30.9995 267.809 30.5769 265.503 30.7481 263.288C30.9777 261.127 32.0161 259.145 33.3606 257.465C34.1731 256.401 35.1386 255.428 35.7143 254.201C36.8766 251.209 37.3466 247.289 40.7679 245.999C43.7775 244.469 47.1988 244.341 50.5072 244.625C52.6678 244.888 54.8977 245.015 56.9526 245.791C58.1878 246.312 59.4376 246.917 60.578 247.668H60.5816C61.9844 247.183 63.4346 246.855 64.8701 246.469C66.2729 246.068 67.6902 245.729 69.1003 245.343C70.044 245.052 71.4613 244.028 72.2228 245.026C75.1486 241.758 78.9306 239.725 83.977 239.685C85.2449 239.612 86.502 239.71 87.7481 239.896C88.0104 239.189 88.9031 238.996 89.7265 238.788C93.2243 237.713 96.7294 236.438 99.7755 234.358C100.515 233.844 101.251 233.323 101.849 232.642C102.392 232.008 102.778 231.257 103.23 230.557C103.649 229.949 104.02 229.118 104.275 228.39C104.315 228.284 104.355 228.175 104.396 228.062C104.366 227.464 104.366 226.874 104.319 226.389C104.228 223.926 104.038 221.467 103.711 219.022C102.286 206.863 101.71 194.628 101.262 182.404C100.741 174.946 100.89 167.458 100.905 159.985C100.985 153.831 101.659 147.706 102.064 141.571C102.461 135.475 103.496 129.452 105.11 123.561C105.809 120.624 107.026 117.858 108.352 115.158C110.214 110.936 112.969 107.11 116.605 104.235C118.463 102.821 120.453 101.539 122.54 100.49C125.827 99.0685 129.223 98.1613 132.593 96.9006C136.401 95.516 140.321 94.4849 144.147 93.1587C142.416 89.1544 140.995 84.9752 138.262 81.5175C134.145 83.1352 129.9 84.6874 125.474 85.172C121.345 85.2667 117.25 84.9388 113.224 83.6089C111.785 83.0623 110.207 82.5996 109.012 81.6013C107.587 79.5536 107.055 77.0213 106.217 74.7003C105.361 72.1499 104.589 69.7888 103.492 67.231C102.88 65.8028 102.133 64.4328 101.554 62.9899C100.311 59.8091 99.4621 56.4971 98.3363 53.2725C97.5857 51.0791 96.8315 48.8784 96.4525 46.5866C96.1283 44.3567 95.8477 42.1232 95.4506 39.9043C95.0097 36.8036 94.3065 33.7358 94.066 30.6096C94.0332 30.5476 94.004 30.4857 93.9822 30.4128C93.7454 29.6513 93.7417 28.8097 93.9458 28.0154C93.9348 27.2539 93.953 26.4924 93.9858 25.7345C93.8692 25.7527 93.749 25.76 93.6215 25.7636C92.5284 25.7855 91.5337 25.1734 90.6483 24.5868C89.395 23.8945 87.9667 22.4917 87.5076 20.9833C86.4546 17.3142 88.1015 13.0221 90.9325 10.5736C91.8434 9.73196 92.8199 8.87936 93.9567 8.36197C95.1263 7.85552 96.376 7.54947 97.6039 7.21062C99.269 6.73331 101.083 6.78431 102.661 6.03009C104.315 5.12649 105.631 3.74923 107.205 2.73267C109.333 1.34083 111.981 0.666769 114.517 0.805225C117.749 1.01655 120.959 1.7817 124.202 1.64689C126.155 1.42827 128.104 1.23516 130.064 1.20237C132.695 1.09306 135.512 0.142099 138.186 0C141.21 0.105663 144.282 1.01291 146.869 2.59057C148.009 3.33021 149.091 4.14638 150.119 5.03176C151.325 6.07382 152.487 7.23976 153.114 8.72269C154.181 8.5478 155.296 8.77006 156.371 8.84657C158.783 9.12713 161.18 10.0526 162.999 11.6958C164.445 12.9893 165.422 14.7054 166.802 16.0645C168.107 17.6931 170.053 18.5421 171.583 19.9157C172.891 21.1946 174.101 22.612 174.997 24.2115C175.897 25.7782 176.247 27.5636 176.968 29.2032C178.072 31.1233 179.369 32.9196 180.623 34.7414C182.28 37.7619 183.723 41.1176 183.588 44.63C183.552 46.2842 183.308 48.2007 181.894 49.2683C181.628 49.465 181.34 49.6071 181.042 49.6982C181.125 49.9095 181.213 50.1172 181.318 50.3103C182.051 51.9135 182.863 53.4839 183.727 55.0215C186.197 59.3937 188.103 64.0429 190.267 68.5719C192.497 72.9915 194.26 77.6225 196.454 82.0567C196.869 82.9822 197.314 83.8967 197.762 84.8112C198.429 84.6983 199.139 84.8076 199.813 84.8513C200.768 84.9497 201.719 85.0627 202.67 85.2011C206.623 85.8715 210.598 86.3962 214.602 86.6585C222.36 87.2962 230.149 87.952 237.746 89.7191C241.091 90.4697 244.232 91.8652 247.46 92.9838C251.009 94.0586 254.474 95.3557 257.753 97.0937C259.834 98.1248 261.932 99.1414 263.882 100.413C267.696 103.029 271.092 106.305 274.062 109.85C276.252 112.586 278.07 115.599 279.6 118.755C281.196 121.943 282.595 125.237 283.499 128.691C285.324 134.932 286.596 141.323 287.204 147.798C287.248 148.238 287.284 148.679 287.321 149.124C287.375 149.889 287.415 150.658 287.441 151.423C287.536 154.119 287.496 156.823 287.576 159.519C287.845 165.921 288.614 172.301 288.749 178.71C288.756 179.518 288.767 180.324 288.771 181.133C288.796 183.253 288.815 185.374 288.829 187.498C288.986 207.953 288.829 228.441 286.945 248.819C286.461 258.03 285.2 267.146 284.06 276.288C283.612 280.941 283.003 285.572 282.384 290.203C281.877 294.564 280.915 298.852 280.106 303.163C280.095 303.505 280.227 303.822 280.165 304.168C280.044 305.101 279.17 305.67 278.292 305.742C274.896 306.274 271.573 307.127 268.159 307.561C267.471 307.648 266.782 307.728 266.097 307.797C266.09 307.834 266.082 307.874 266.075 307.91C265.937 308.468 265.488 308.923 265.131 309.353C264.468 310.173 263.772 310.964 263.091 311.769C262.738 312.184 262.388 312.603 262.045 313.03C262.005 313.084 261.961 313.139 261.925 313.194C260.693 314.826 259.604 316.582 258.03 317.919C256.671 319.147 255.119 320.138 253.541 321.056C248.925 323.581 244.068 325.691 239.062 327.312C234.729 328.664 230.277 329.673 225.806 330.446C221.317 330.949 216.785 331.058 212.249 331.04C202.353 331.204 192.391 329.881 182.914 327.01C179.704 326.205 176.527 325.286 173.383 324.27C173.004 324.689 172.37 324.897 171.842 325.053C170.326 325.52 168.752 325.782 167.192 326.088C163.545 326.733 159.902 327.407 156.273 328.169C149.623 329.407 142.944 330.442 136.255 331.415C134.794 331.626 133.329 331.838 131.864 332.045C129.248 332.519 126.629 332.942 123.998 333.317C120.187 333.874 116.365 334.337 112.535 334.742C111.253 334.946 109.857 334.771 108.593 335.008C108.575 335.492 108.56 335.973 108.56 336.458C108.658 340.498 108.917 344.528 108.841 348.573C108.95 353.327 109.012 358.079 108.812 362.833C108.757 366.186 108.855 369.545 108.739 372.897C108.582 375.998 108.305 379.084 108.25 382.188C108.564 389.114 107.493 395.972 107.288 402.883C107.252 405.995 107.008 409.099 106.771 412.204C106.407 421.451 105.693 430.691 104.326 439.851C103.685 444.723 103.536 449.645 103.193 454.542C102.807 459.964 102.388 465.403 101.688 470.796C101.247 473.248 100.992 475.737 100.832 478.221C101.036 479.73 100.045 480.459 98.6387 480.502C96.7185 480.593 94.7874 480.597 92.8782 480.375C91.8726 480.204 90.8633 480.16 89.854 480.149C87.9557 479.617 88.5096 476.611 88.3966 475.084C88.4258 473.831 88.4258 472.578 88.3529 471.331C88.1962 471.503 88.0614 471.652 87.9703 471.765C87.1541 472.654 86.4692 473.663 85.6056 474.512C83.6636 476.228 81.0257 476.95 78.4788 477.081C76.0049 477.154 73.5709 476.531 71.1589 476.05C67.4534 475.35 63.9009 474.061 60.4796 472.494C58.687 471.71 56.7632 471.266 54.9851 470.439C53.1633 469.67 51.4691 468.653 49.8186 467.575C48.6708 467.156 48.0879 465.903 49.017 464.948C51.5456 462.489 55.3568 463.148 58.574 462.886C62.101 462.882 65.5988 462.379 69.1185 462.274C70.78 462.252 72.4378 462.503 74.092 462.325C76.2526 461.891 78.4497 461.763 80.6103 461.363C81.0585 459.33 81.0767 457.231 81.3135 455.165C81.6888 451.602 82.0604 448.042 82.2973 444.467C82.5013 441.789 82.3774 439.101 82.5378 436.419C82.822 432.87 82.9932 429.31 83.2847 425.761C83.3685 424.985 83.4195 424.209 83.4632 423.433C83.0734 423.4 82.6871 423.375 82.2973 423.36C79.918 423.328 77.5534 423.014 75.1923 422.741C74.1102 422.504 73.0754 422.562 72.0771 421.943C71.2573 421.284 71.0532 420.267 71.0314 419.228C70.3063 418.842 69.7743 418.106 69.7452 417.246C69.7634 415.833 69.6687 414.423 69.6432 413.009C69.4719 406.563 69.5995 400.122 69.7088 393.676C69.7051 391.257 69.8509 388.838 69.931 386.418C69.8982 379.302 69.7889 372.19 69.7051 365.078C69.563 360.961 69.1003 356.862 68.9509 352.744C68.991 348.78 68.8999 344.823 68.7323 340.87C68.3789 340.852 68.0145 340.691 67.6793 340.575C66.9688 340.338 66.2619 340.09 65.5587 339.835C63.041 339.008 60.7784 337.682 58.5412 336.301C58.4283 336.658 58.3008 337.008 58.1878 337.358C57.4664 339.424 56.6393 341.446 55.8304 343.479C54.4167 347.133 53.32 350.901 51.6513 354.453C51.644 354.468 51.6367 354.486 51.6294 354.501C50.9043 356.129 50.3396 357.838 49.4979 359.412C48.9368 360.443 48.3356 361.456 47.8 362.502C46.7907 364.499 45.8871 366.546 44.7321 368.466C43.3439 370.864 42.1379 373.382 40.5493 375.655C40.0939 376.245 39.8242 377.072 39.1393 377.437C38.7166 377.608 38.3122 377.601 37.8859 377.44C36.8256 377.011 35.8018 376.497 34.6941 376.191C33.5755 375.888 32.4315 375.699 31.3384 375.316C30.8684 375.145 30.3692 374.988 30.0814 374.547C29.4401 373.498 30.3546 372.372 30.7226 371.385C31.4149 369.935 32.0598 368.463 32.5699 366.943C32.4679 367.016 32.3659 367.089 32.2602 367.166C30.8137 368.328 29.1996 369.465 27.2685 369.505C26.0115 369.556 24.8638 368.951 23.7998 368.339C21.9999 367.26 20.2328 366.127 18.4511 365.016C16.4508 363.69 14.527 362.232 12.7817 360.582C10.1802 358.017 8.07788 355.007 5.72778 352.231C4.62378 350.904 3.53433 349.574 2.35019 348.321C2.01132 347.942 1.65063 347.574 1.31906 347.184C0.557556 346.321 1.27533 345.046 2.39026 345.173ZM62.1484 251.515C61.3759 250.856 60.5415 250.284 59.6343 249.828C58.2534 249.183 56.8251 248.615 55.3349 248.28C53.8228 248.032 52.2889 247.93 50.7622 247.806C47.432 247.577 43.3694 247.671 40.389 249.544C38.7458 251.362 38.7421 254.022 37.5835 256.11C36.6288 258.004 35.0002 259.52 34.3553 261.579C33.5828 263.78 33.878 266.425 35.441 268.217C35.871 268.724 36.4722 269.03 36.9531 269.474C37.4086 269.121 38.0134 268.917 38.5745 268.819C43.0743 267.868 47.8875 268.746 52.2743 267.241C49.9898 266.283 47.6543 265.445 45.275 264.76C43.6391 264.282 41.9047 263.918 40.4765 262.945C38.1045 261.364 38.0462 258.416 41.2307 258.004C44.2075 257.738 47.166 258.5 50.0845 258.981C52.6205 259.52 55.1746 260.322 57.7979 260.096C56.6065 259.287 55.6519 258.595 54.2928 257.877C51.3161 256.543 48.0988 255.603 45.5119 253.541C44.55 252.772 43.5443 251.759 43.5698 250.444C43.5953 249.555 44.0216 248.549 44.9034 248.214C46.3717 247.77 47.9494 248.156 49.3959 248.509C53.7208 249.588 58.0894 250.513 62.3816 251.719C62.2941 251.639 62.2176 251.57 62.1484 251.515ZM62.7386 249.457C63.2451 249.996 63.6932 250.597 64.0576 251.264C64.0503 251.053 64.3782 251.053 64.3819 251.264C64.3855 251.464 64.3491 251.654 64.2798 251.836C64.3017 251.942 64.3126 252.047 64.3054 252.16C64.3054 252.156 64.3054 252.156 64.3017 252.156C64.2799 252.211 64.258 252.259 64.2325 252.302C65.1361 252.623 66.0433 252.933 66.9469 253.246C66.9615 253.22 66.9725 253.191 66.987 253.166C67.5154 252.324 68.0327 251.479 68.5064 250.604C69.1112 249.42 69.7634 248.298 70.4776 247.263C67.938 248.13 65.3984 249.1 62.7386 249.457ZM141.188 96.8897C140.93 97.305 140.478 97.5965 140.157 98.0483C138.528 99.9466 136.892 102.06 135.399 104.264C133.333 107.587 131.362 110.972 129.277 114.28C130.808 116.193 132.812 117.643 134.648 119.243C136.342 120.642 137.712 122.008 139.487 123.411C140.449 123.688 140.951 124.843 140.416 125.714C139.417 127.044 137.756 127.729 136.426 128.687C134.706 129.784 133.023 130.946 131.183 131.839C131.212 134.342 131.97 136.768 132.506 139.199C133.296 142.678 134.142 146.147 134.907 149.634C135.643 154.021 136.98 158.262 137.789 162.634C139.042 168.533 140.102 174.359 141.341 180.309C142.223 183.712 142.923 187.152 143.728 190.569C144.562 193.47 144.916 196.476 145.648 199.394C145.95 200.691 146.256 201.985 146.621 203.267C146.814 204.317 147.871 206.044 146.384 206.565C145.819 206.725 145.2 206.379 145.036 205.799C144.766 204.841 144.529 203.872 144.26 202.914C143.513 200.236 142.882 197.532 142.307 194.814C141.469 191.411 140.474 188.044 139.643 184.638C137.894 178.99 136.528 173.226 135.198 167.465C134.134 162.809 133.012 158.171 131.915 153.522C131.176 149.342 130.283 145.192 129.452 141.028C129.084 138.685 127.004 131.872 128.826 129.995C131.365 128.064 134.12 126.432 136.841 124.777C133.675 122.289 130.502 119.742 127.696 116.849C126.523 115.712 126.013 114.266 126.734 112.728C127.598 110.63 128.782 108.677 129.886 106.694C131.38 103.936 133.282 101.466 135.439 99.1997C134.495 99.5895 133.551 99.9867 132.615 100.395C129.97 101.575 127.241 102.544 124.599 103.725C121.495 105.459 118.529 107.529 116.175 110.218C114.142 112.477 112.914 115.261 111.737 118.026C110.396 120.799 109.544 123.746 109.001 126.774C107.944 131.482 107.299 136.495 107.015 141.341C106.72 146.726 106.301 152.093 106.068 157.489C106.046 164.817 105.831 172.155 106.104 179.482C106.283 182.481 106.41 185.479 106.403 188.485C106.472 194.483 106.822 200.48 106.935 206.481C107.001 209.753 107.157 213.021 107.369 216.286C107.584 219.106 107.922 222.527 107.802 225.544C107.788 226.404 107.737 227.275 107.773 228.138C107.799 228.43 107.839 228.717 107.89 229.005C108.046 229.905 107.336 230.776 106.458 230.893C106.447 230.893 106.44 230.896 106.432 230.896C105.631 234.329 103.332 236.238 100.224 237.852C97.797 239.091 95.2319 240.027 92.6195 240.807C96.0044 241.448 99.3564 242.242 102.596 243.445C104.414 244.039 106.261 244.523 108.101 245.044C111.089 245.875 113.978 247.012 116.886 248.083C119.159 248.845 121.345 249.814 123.568 250.706C123.48 250.295 123.448 249.865 123.415 249.486C123.164 247.941 122.759 246.414 122.577 244.855C122.151 241.514 121.626 238.187 121.068 234.864C120.715 232.164 120.369 229.628 119.899 226.877C118.799 217.882 117.046 208.977 116.128 199.959C115.344 192.096 115.129 184.182 114.233 176.33C113.628 170.843 112.998 165.363 112.619 159.858C112.072 155.81 111.522 151.693 111.165 147.579C111.052 146.38 110.968 145.171 111.027 143.968C111.056 143.564 111.081 143.126 111.362 142.809C111.653 142.482 112.123 142.5 112.448 142.758C112.841 143.119 112.816 143.695 112.921 144.187C113.865 149.769 115.272 155.27 116.008 160.889C116.368 165.032 116.889 169.152 117.312 173.295C118.365 181.796 118.54 190.369 119.272 198.895C120.015 206.871 121.028 214.712 122.052 222.669C122.376 226.327 123.047 229.953 123.437 233.662C124.023 237.659 124.712 241.641 125.186 245.656C125.335 246.662 125.59 247.649 125.834 248.637C126.129 249.639 126.771 250.91 126.148 251.679C126.239 251.712 126.326 251.741 126.417 251.77C127.751 252.208 129.077 252.648 130.392 253.129C136.546 252.772 142.693 252.28 148.796 251.391C149.423 251.329 150.046 251.264 150.669 251.191C150.002 250.488 150.658 248.87 150.621 247.985C150.683 247.741 150.705 247.416 150.731 247.066C150.239 246.243 150.359 244.895 150.399 243.889C150.421 241.587 150.494 239.287 150.468 236.981C150.075 224.334 150.024 211.684 149.619 199.037C149.095 189.382 148.829 179.719 148.337 170.06C147.983 163.764 147.535 157.475 147.608 151.164C147.51 146.078 146.927 141.432 146.858 136.255C146.741 131.821 146.209 127.415 146.125 122.981C146.111 117.042 146.016 111.103 145.998 105.161C146.009 103.546 146.027 101.932 146.063 100.318C145.947 99.8956 145.954 99.4511 146.092 99.0758C146.1 98.726 146.111 98.3762 146.122 98.0301C146.136 97.9026 146.143 97.7678 146.151 97.6293C145.826 96.8022 145.422 96.0043 145.065 95.1917C143.801 95.8184 142.489 96.3468 141.188 96.8897ZM154.046 232.583C154.039 235.604 153.984 238.624 153.861 241.638C153.81 243.131 153.82 244.622 153.839 246.112C153.842 246.356 153.791 246.585 153.697 246.8C153.697 247.154 153.7 247.504 153.711 247.857C153.653 248.666 153.817 249.832 153.642 250.787C158.021 250.12 162.346 249.143 166.642 248.043C168.73 247.529 170.738 246.753 172.723 245.937C172.891 245.871 173.055 245.802 173.222 245.733C174.833 245.088 176.447 244.439 177.992 243.652C178.71 243.288 179.413 242.891 180.094 242.45C181.621 241.51 183.202 240.636 184.55 239.437C185.556 238.511 186.452 237.484 187.301 236.416C187.589 231.909 188.325 227.446 188.551 222.931C188.901 218.239 189.498 213.429 189.983 208.733C190.358 205.727 190.861 202.739 191.127 199.718C191.732 192.402 192.46 185.534 192.756 178.094C193.419 164.449 195.124 151.015 195.929 137.362C196.559 128.654 196.596 119.542 196.935 110.63C196.651 111.227 196.359 111.821 196.071 112.411C195.175 114.135 194.06 115.731 193.065 117.396C192.089 119.028 191.149 120.686 190.249 122.362C188.937 124.595 187.986 127.12 186.266 129.073C184.681 130.37 183.599 128.931 183.388 127.346C182.546 123.469 181.297 119.695 179.744 116.044C179.001 114.142 178.105 112.317 177.132 110.524C174.99 106.56 172.486 102.77 170.475 98.7297C168.781 102.432 167.48 106.29 166.42 110.218C166.096 111.42 165.793 112.63 165.509 113.843C164.179 118.292 162.944 122.799 161.166 127.095C160.791 127.944 160.233 129.044 159.129 128.862C158.451 128.76 158.003 128.177 157.632 127.656C157.074 126.865 156.586 126.031 156.079 125.211C154.094 122.3 152.695 119.221 151.121 116.095C150.505 114.841 149.849 113.581 149.241 112.291C149.499 116.335 149.714 120.38 149.922 124.428C150.425 130.035 151.051 135.632 151.295 141.257C151.733 146.121 151.959 150.993 151.962 155.875C152.465 167.174 153.059 178.469 153.31 189.775C153.711 197.663 154.028 205.552 154.09 213.451C154.192 219.831 153.963 226.207 154.046 232.583ZM148.778 98.737C148.96 98.9884 149.069 99.298 149.073 99.6333C149.077 100.213 149.087 100.788 149.124 101.368C149.222 102.585 149.397 103.805 149.63 105.004C149.94 106.436 150.359 107.842 150.829 109.23C151.525 111.162 152.56 112.947 153.383 114.823C154.192 116.335 154.924 117.891 155.653 119.443C156.619 121.334 157.872 123.058 158.94 124.89C160.138 121.032 161.119 117.119 162.368 113.278C163.119 110.473 163.866 107.664 164.955 104.967C165.99 102.249 167.283 99.6442 168.519 97.0172C168.544 96.9698 168.57 96.9261 168.591 96.8751C164.543 97.1994 160.477 97.316 156.418 97.5491C153.992 97.8115 151.408 97.8443 148.927 98.0155C148.945 98.2669 148.891 98.5147 148.778 98.737ZM196.946 90.2984C196.14 88.4585 195.208 86.797 194.304 84.9679C192.482 81.3061 190.959 77.5205 189.352 73.764C186.769 68.346 184.499 62.7895 182.255 57.2185C181.246 54.8794 180.138 52.573 179.376 50.1391C179.351 50.0334 179.318 49.9241 179.289 49.8148C178.968 49.7747 178.648 49.7128 178.342 49.6326C176.05 49.1699 174.439 47.2862 173.033 45.5555C172.457 44.8377 171.9 44.1017 171.35 43.3584C170.756 42.5896 169.517 41.2342 170.934 40.6002C172.14 39.0408 172.286 36.953 171.729 35.1057C171.412 34.2568 170.705 33.6483 170.063 33.0398C169.083 32.1982 167.739 31.1088 166.431 31.9176C162.325 33.9179 164.143 38.8368 163.013 42.3309C162.791 42.7754 162.314 42.9722 161.847 43.0013C160.973 43.1434 160.08 43.1544 159.198 43.1762C157.384 43.2272 156.794 42.7827 156.641 40.9646C156.174 38.4469 155.999 36.0531 155.169 33.5791C150.906 31.8229 146.828 28.3542 145.936 23.6431C145.721 21.6209 145.786 19.4821 146.482 17.5547C146.348 17.5729 146.245 17.398 146.333 17.2887C142.354 18.2178 139.21 15.0261 136.291 12.8581C134.451 11.6995 132.407 10.8068 130.279 10.3331C128.439 10.0344 126.534 9.80483 124.679 10.0708C120.748 11.0145 117.235 13.7107 113.067 13.5541C109.016 13.452 104.505 11.0764 100.781 13.6488C98.1031 15.3722 96.5363 17.6312 95.7894 20.7355C95.6473 21.2493 95.6983 21.8614 95.5963 22.4079C95.9752 23.133 95.9279 24.0439 95.5052 24.7362C95.5161 25.0094 95.5307 25.2863 95.5489 25.5596C100.096 22.4444 106.01 23.1366 109.533 27.4433C110.043 28.0627 110.396 29.0137 109.865 29.7278C109.529 30.1651 108.899 30.3472 108.389 30.1177C107.019 29.5056 105.62 28.9226 104.14 28.6275C102.279 28.2595 100.231 28.132 98.4492 28.8825C97.5675 29.3708 96.8825 30.1213 96.1355 30.7808C96.2667 31.5933 96.4161 32.4022 96.58 33.2111C96.6821 33.6447 96.7768 34.0819 96.8679 34.5191C97.5674 33.4078 98.5731 32.4824 99.8738 32.169C104.115 30.708 107.106 32.7702 109.832 35.8709C110.141 36.1441 110.637 36.9093 109.945 37.0113C109.409 36.9348 109.001 36.4903 108.553 36.2134C107.288 35.3171 105.995 34.3406 104.465 33.9653C102.767 33.692 100.697 33.8924 99.4038 35.1167C98.7589 35.7434 98.6022 36.8911 97.6877 37.2044C97.5966 37.2299 97.5055 37.2482 97.4181 37.2518C97.5419 37.9004 97.6622 38.5489 97.7788 39.2011C98.4456 37.9732 99.4293 36.8984 100.533 36.115C103.583 33.7576 107.449 35.5211 109.234 38.5453C110.451 39.2048 111.209 40.7423 111.169 42.1123C111.067 44.6592 108.484 46.0692 106.232 46.4263C104.009 46.9838 101.47 46.889 99.473 45.6794C99.2581 45.5227 99.0468 45.3514 98.8354 45.1729C99.0176 46.1676 99.2071 47.1623 99.4075 48.1533C100.748 52.4345 102.078 56.7194 103.394 61.0115C104.286 63.4964 105.609 65.7955 106.476 68.2877C107.281 70.4192 107.977 72.5944 108.68 74.7659C109.212 76.2634 109.518 77.8775 110.316 79.2621C110.378 79.3495 110.437 79.437 110.506 79.5172C111.53 80.0017 112.583 80.4025 113.647 80.7815C115.563 81.4519 117.582 81.7907 119.6 81.9802C121.957 82.0494 124.344 82.2352 126.672 81.7506C130.25 80.8106 133.741 79.539 137.133 78.0706C139.509 76.7298 140.999 79.7722 142.066 81.4118C143.935 84.21 144.945 87.42 146.129 90.5426C146.344 91.1 146.562 91.6575 146.781 92.215C147.131 92.2805 147.448 92.5611 147.484 92.9364C147.51 93.2024 147.448 93.4319 147.328 93.6396C147.503 94.1023 147.677 94.5651 147.849 95.0278C147.896 95.0169 147.943 95.0059 147.991 95.0023C148.927 94.9768 149.86 94.995 150.796 94.944C152.877 94.9076 154.935 94.6707 157.005 94.4849C161.006 94.2335 165.064 93.9821 169.116 93.5376C171.149 93.2534 173.193 93.1295 175.241 93.1332C178.309 93.1259 181.369 92.9072 184.426 92.7287C187.421 92.6449 190.42 92.8854 193.411 92.7105C194.862 92.6121 196.312 92.4445 197.765 92.3716C197.51 91.6721 197.244 90.9762 196.946 90.2984ZM98.7043 42.2034C99.5131 43.9596 101.313 44.9944 103.222 45.0199C105.288 45.0709 109.497 44.1673 109.161 41.4419C109.085 40.6185 108.159 40.1193 108.152 39.3068C106.48 37.2919 103.474 36.1587 101.393 38.2538C100.249 39.2849 99.1597 40.6913 98.7043 42.2034ZM186.143 95.9933C183.337 96.0225 180.55 96.3759 177.744 96.4379C175.992 96.4852 174.239 96.4451 172.486 96.5144C173.142 97.6147 173.747 98.7479 174.41 99.8446C176.265 102.854 177.755 106.057 179.5 109.128C181.949 114.04 184.007 119.185 185.483 124.471C187.804 119.611 190.879 115.202 194.122 110.925C195.233 109.263 196.188 107.507 197.175 105.773C197.281 104.326 197.423 102.88 197.558 101.433C197.172 100.285 197.773 98.154 197.744 97.2176C197.787 96.4488 197.813 95.68 197.831 94.9112C193.983 95.6691 190.063 95.9824 186.143 95.9933ZM174.009 292.418C176.494 292.717 178.957 293.198 181.439 293.518C183.88 293.824 186.343 293.792 188.799 293.868C194.639 294.098 200.571 293.136 205.818 290.48C209.221 288.913 212.42 286.945 215.182 284.402C216.344 283.371 217.696 282.19 218.986 280.948C221.07 278.9 222.647 276.853 224.659 274.619C227.825 271.282 230.456 267.492 233.236 263.838C239.011 256.059 243.991 247.748 248.622 239.251C251.741 232.886 255.443 226.805 258.019 220.181C259.692 216.304 261.116 212.329 262.479 208.335C265.416 201.034 268.156 193.652 270.396 186.102C271.551 182.298 272.367 178.403 273.559 174.611C275.133 169.269 275.865 163.53 278.853 158.728C278.62 158.415 278.795 157.945 279.137 157.803C279.56 157.621 279.961 157.963 280.052 158.371C280.555 158.765 280.595 159.493 280.387 160.051C279.72 162.365 279.053 164.678 278.572 167.039C278.04 169.91 277.804 172.843 276.973 175.653C275.829 179.478 275.202 183.428 274.215 187.294C272.561 193.083 270.823 198.866 268.72 204.51C267.179 208.263 265.911 212.114 264.534 215.925C263 219.838 261.357 223.708 259.582 227.515C252.237 241.885 244.152 255.975 234.077 268.625C231.742 271.722 229.392 274.805 226.674 277.578C223.114 281.943 218.949 286.067 214.519 289.678C212.369 291.405 209.92 292.677 207.472 293.919C207.14 294.098 206.809 294.269 206.474 294.433C207.906 295.234 209.239 296.276 210.605 297.195C210.944 297.074 211.345 297.074 211.779 297.246C217.018 299.763 222.695 301.181 228.248 302.82C230.609 303.389 232.959 303.902 235.363 304.311C239.007 304.832 242.661 304.937 246.334 305.167C252.707 305.21 259.094 305.458 265.441 304.759C269.624 304.496 273.694 303.414 277.826 302.78C280.07 292.669 280.893 282.274 281.932 271.978C283.393 261.546 283.783 251.027 284.562 240.534C285.506 222.418 285.437 204.269 285.255 186.135C285.244 185.1 285.233 184.066 285.222 183.031C285.226 182.605 285.229 182.178 285.226 181.756C285.207 172.916 284.082 164.117 284.173 155.278C284.194 153.452 284.154 151.627 284.049 149.805C283.99 148.712 283.907 147.619 283.797 146.53C283.353 141.982 282.508 137.472 281.254 133.074C279.276 125.444 275.945 118.03 270.834 111.978C267.42 108.363 263.645 104.909 259.16 102.679C256.168 101.266 253.217 99.7389 250.105 98.6021C246.739 97.5564 243.397 96.4379 240.096 95.1881C232.532 92.8526 224.564 92.2186 216.767 91.0199C215.018 90.7867 213.272 90.528 211.531 90.2329C213.746 93.4283 214.865 97.2577 216.147 100.901C217.124 103.579 218.169 106.235 218.997 108.968C219.696 111.417 220.622 113.818 221.026 116.343C221.427 118.616 220.957 119.804 218.749 120.678C216.198 121.731 213.458 122.38 210.711 122.577C213.666 124.592 216.646 126.628 219.08 129.281C220.731 130.837 219.685 135.53 219.39 137.676C218.964 140.237 218.33 142.758 217.696 145.276C216.366 151.445 214.978 157.675 213.458 163.822C212.864 166.358 212.296 168.901 211.6 171.415C210.904 173.929 209.964 176.37 209.337 178.903C208.467 182.579 207.337 186.186 206.251 189.804C205.06 193.262 203.69 196.658 202.418 200.086C201.365 203.708 200.072 207.246 198.563 210.707C197.911 212.128 195.885 211.152 196.443 209.811C196.876 208.875 197.295 207.938 197.656 206.969C198.658 204.517 199.376 201.974 200.203 199.463C201.453 196.057 202.965 192.748 204.164 189.323C205.916 184.302 206.965 179.078 208.631 174.031C210.256 169.087 211.116 163.935 212.358 158.889C213.458 154.473 214.256 150.162 215.207 145.67C216.257 141.126 217.586 136.543 217.514 131.842C217.601 130.95 216.814 130.483 216.238 129.937C214.435 128.363 212.515 126.931 210.525 125.597C209.56 124.938 208.594 124.275 207.64 123.601C206.627 122.934 204.932 121.877 206.073 120.547C207.304 119.687 209.064 119.487 210.58 119.279C213.098 119.013 215.641 118.664 218.027 117.785C216.57 112.921 214.963 108.097 213.338 103.288C211.906 98.839 210.948 94.1242 208.284 90.2001C208.135 89.9887 207.967 89.7774 207.836 89.5479C206.321 89.2418 204.816 88.8993 203.315 88.5131C202.24 88.2143 201.132 87.9994 200.035 87.7516C200.345 88.1451 200.374 88.7026 200.425 89.1945C200.465 89.7993 200.502 90.4041 200.527 91.0126C200.95 92.2587 201.934 94.0222 200.611 94.8201C200.615 95.2501 200.615 95.68 200.618 96.1063C200.498 97.5309 200.702 100.293 199.682 101.597C199.656 103.707 199.598 105.816 199.624 107.93C199.773 117.053 200.159 126.18 199.908 135.311C199.759 139.862 199.573 144.413 199.274 148.956C198.895 153.594 198.33 158.214 198.01 162.856C197.419 170.147 196.825 177.438 196.618 184.751C196.432 189.374 195.882 193.98 195.59 198.6C195.408 201.609 194.931 204.586 194.479 207.567C193.849 211.902 193.422 216.275 192.45 220.556C191.961 223.248 191.816 225.992 191.349 228.688C191.16 229.676 190.992 230.667 190.832 231.658C192.315 229.596 193.725 227.49 195.069 225.336C196.924 222.611 198.76 219.864 200.221 216.901C203.326 209.603 205.034 201.824 207.669 194.311C209.137 189.728 209.88 184.951 211.25 180.338C212.15 177.281 213.043 174.21 214.114 171.204C215.2 168.249 216.457 165.356 217.433 162.357C218.293 159.716 218.953 157.016 219.802 154.371C220.811 151.073 222.403 147.706 223.864 144.547C224.393 143.542 224.677 142.31 225.508 141.512C225.806 141.268 226.28 141.552 226.222 141.92C225.755 144.912 224.549 147.696 223.635 150.563C222.717 153.427 222.13 156.374 221.522 159.315C220.651 164.073 219.051 168.635 217.423 173.175C216.523 176.068 215.692 178.986 214.89 181.909C213.608 186.492 212.908 191.225 211.407 195.747C209.844 200.046 208.631 204.451 207.213 208.798C206.262 211.483 205.249 214.15 204.277 216.832C203.078 219.725 201.311 222.319 199.704 224.994C198.006 227.595 196.596 230.372 194.785 232.904C191.939 236.799 189.447 241.244 185.264 243.86C182.517 245.485 179.784 247.168 176.779 248.272C173.784 249.449 170.84 250.808 167.691 251.537C161.53 253.053 155.333 254.386 149.018 255.075C137.986 256.802 126.8 257.068 115.691 258.048C112.863 258.154 110.036 257.968 107.212 258.216C104.88 258.387 102.577 258.613 100.227 258.573C97.2723 258.434 94.321 258.445 91.3734 258.664C89.8832 258.693 88.3966 258.573 86.91 258.485C84.7785 258.434 82.6507 258.507 80.5192 258.416C79.4772 258.405 78.4387 258.416 77.4003 258.402C77.0177 258.362 76.6097 258.376 76.198 258.38V258.668C76.2526 261.79 75.4255 264.836 75.3745 267.944C78.3914 268.902 81.6888 268.604 84.6109 269.864C85.1976 270.134 85.868 270.422 86.3817 270.852C88.28 271.201 90.1564 271.748 92.022 272.254C94.3939 272.903 96.8642 273.162 99.167 274.043C106.993 277.246 115.279 279.028 123.422 281.207C125.397 281.775 127.419 282.136 129.412 282.613C133.183 283.713 136.969 284.741 140.82 285.539C146.719 286.778 152.556 288.268 158.382 289.795C163.509 291.124 168.748 291.879 174.009 292.418ZM92.7762 454.48C94.4668 454.961 96.2157 455.504 97.9391 455.934C98.4492 456.098 99.0358 456.16 99.5568 456.338V456.28C99.7062 451.547 99.8192 446.814 100.038 442.085C100.573 436.142 101.266 430.21 101.699 424.26C100.843 424.402 99.9394 424.257 99.0759 424.224C97.899 424.14 96.7185 424.042 95.538 424.056C93.3409 424.093 91.1511 423.889 88.9541 423.903C88.4695 423.9 87.9885 423.878 87.5039 423.838C87.4566 424.428 87.3837 425.011 87.3691 425.506C87.3108 426.545 87.2853 427.587 87.2452 428.629C87.1724 431.824 86.91 435.009 86.6368 438.193C86.5348 440.642 86.4837 443.094 86.2214 445.535C86.0174 447.9 85.7514 450.257 85.4635 452.611C87.963 452.961 90.3423 453.846 92.7762 454.48ZM71.7018 269.806C71.2682 268.257 71.6544 266.253 71.7419 264.811C72.099 262.479 72.1937 260.129 72.1973 257.779C70.9913 257.418 69.7671 257.101 68.5465 256.769C66.9069 256.347 65.2818 255.873 63.686 255.305C60.2282 254.259 56.7304 253.344 53.2326 252.444C50.7039 251.847 48.2591 250.889 45.6831 250.513C46.9656 252.47 50.7477 253.465 52.8828 254.35C55.5608 255.162 58.0202 256.543 60.0424 258.485C61.4051 259.702 61.1318 261.349 59.3392 261.87C57.6413 262.358 55.8341 262.103 54.118 261.852C50.7039 261.196 47.2863 260.548 43.8067 260.376C42.9031 260.34 41.9812 260.267 41.0959 260.471C42.4986 261.921 44.7613 261.958 46.594 262.526C47.7563 262.818 48.904 263.16 50.0445 263.528C51.6768 264.075 53.433 264.497 54.8467 265.521C57.1348 267.339 54.4058 269.176 52.5804 269.711C48.0441 271.019 43.2237 270.203 38.6328 271.11C39.9081 271.748 41.3764 271.814 42.7682 271.956C47.1259 272.313 51.4399 271.456 55.7503 270.939C58.0967 270.648 60.4359 270.287 62.7933 270.054C65.7555 269.915 68.7287 269.784 71.7018 269.806ZM33.4298 348.755C36.811 351.236 40.6951 352.97 44.1309 355.379C44.7066 355.794 45.756 356.479 46.2952 357.219C46.4082 357.022 46.5211 356.825 46.6341 356.628C48.638 352.475 50.744 348.372 52.595 344.146C54.0706 341.213 55.6082 338.312 56.9526 335.317C52.5767 332.504 48.0077 330.005 43.5953 327.258C42.7063 329.101 41.81 330.941 40.9173 332.781C38.5672 338.188 35.8637 343.428 32.825 348.47C33.0217 348.529 33.2258 348.62 33.4298 348.755Z" fill="#373B50"/>
<path d="M167.011 319.388C167.339 319.122 167.35 318.594 166.985 318.335C166.65 318.12 166.249 318.032 165.885 317.872C164.752 317.435 163.63 316.976 162.511 316.506C156.765 313.842 150.735 311.886 144.982 309.244C137.771 306.129 130.557 303.021 123.419 299.742C117.655 297.326 111.891 294.921 106.193 292.356C102.196 290.702 98.1804 289.055 94.2708 287.215C92.9118 286.457 91.7604 288.541 93.236 289.245C96.089 290.356 98.8653 291.639 101.7 292.786C106.076 294.488 110.368 296.397 114.704 298.201C118.996 299.888 123.288 301.575 127.482 303.495C131.854 305.357 136.175 307.335 140.566 309.153C144.993 311.033 149.354 313.088 153.909 314.651C157.45 315.948 160.919 317.672 164.45 318.965C164.992 319.158 165.324 319.293 165.834 319.435C166.209 319.545 166.679 319.668 167.011 319.388Z" fill="white"/>
<path d="M71.4179 335.529C71.8259 331.987 72.8935 328.566 73.2906 325.028C73.8262 321.643 73.8554 318.211 74.2416 314.811C74.6497 310.934 75.1343 307.061 75.7573 303.21C76.1836 300.904 76.2966 298.036 78.501 296.663C79.656 295.905 81.1535 295.242 82.4761 295.005C84.7096 294.531 86.9978 294.436 89.275 294.458C92.157 294.418 95.0391 294.444 97.9212 294.542C99.5753 294.615 101.226 294.546 102.88 294.458C103.492 294.411 104.133 294.517 104.724 294.327C105.168 294.156 105.336 293.551 105.037 293.172C104.228 292.298 102.753 292.542 101.667 292.476C99.7247 292.513 97.79 292.352 95.8553 292.214C90.1531 292.083 84.1266 291.387 78.7305 293.638C76.7921 294.393 74.9412 295.646 74.0922 297.61C73.2615 299.395 72.9992 301.363 72.653 303.283C72.2923 305.207 72.0956 307.156 71.9134 309.105C71.3122 313.878 71.2175 318.692 70.9988 323.49C70.8932 324.9 70.8713 326.31 70.7875 327.72C70.5871 329.757 70.2009 331.768 69.8475 333.783C69.7455 334.231 69.6289 334.676 69.4977 335.113C69.1661 336.414 71.141 336.909 71.4179 335.529Z" fill="white"/>
<path d="M106.09 332.803C106.593 332.789 106.932 332.249 106.626 331.82C106.411 331.492 105.817 331.368 105.522 331.244C104.695 330.945 103.886 330.61 103.11 330.198C101.889 329.561 100.738 328.795 99.6921 327.895C99.0435 327.302 98.282 326.165 97.3165 326.883C95.9429 328.194 98.1727 329.455 99.1601 330.118C101.248 331.419 103.569 332.771 106.09 332.803Z" fill="white"/>
<path d="M90.077 337.372C91.5563 336.899 92.449 335.408 93.9611 334.946C95.9249 334.279 98.0346 334.221 100.046 333.732C100.56 333.579 101.204 333.539 101.562 333.102H101.558C101.959 331.929 99.9074 332.329 99.2697 332.326C97.0654 332.559 94.7517 332.475 92.6639 333.31C91.3596 333.82 90.2701 334.705 89.2099 335.594C88.8491 335.864 88.718 336.367 88.8892 336.778C89.0823 337.252 89.6034 337.485 90.077 337.372Z" fill="white"/>
<path d="M94.2942 344.313C96.1415 342.827 97.5735 340.917 98.9835 339.026C99.3114 338.578 99.6357 338.13 99.9527 337.675C100.109 337.441 100.339 337.197 100.335 336.902C100.353 336.607 99.9891 336.399 99.745 336.56V336.556C99.5519 336.662 99.2459 336.636 99.2459 336.942C97.1982 338.873 95.329 341.005 92.9498 342.55C91.8093 343.446 93.1247 345.177 94.2942 344.313Z" fill="white"/>
<path d="M87.5779 286.974C87.9386 286.552 87.3192 286.242 87.0132 286.052C84.6813 284.478 82.1927 282.835 81.2672 280.077C81.0413 278.401 78.7495 278.784 79.2123 280.405C79.358 280.758 79.5293 281.101 79.726 281.425C80.8737 283.444 82.6445 284.872 84.6303 285.954C85.297 286.257 86.9439 287.452 87.5779 286.974Z" fill="white"/>
<path d="M74.3239 287.769C76.9181 287.302 79.5852 287.27 82.1977 287.554C82.5511 287.568 82.9045 287.638 83.2543 287.59C83.4693 287.579 83.5421 287.317 83.4365 287.16C83.3454 287.029 83.1887 286.989 83.0466 286.938C81.3305 286.494 79.6435 286.184 77.891 285.987C76.5574 285.911 75.1547 285.55 73.843 285.922C72.8228 286.322 73.2418 287.929 74.3239 287.769Z" fill="white"/>
<path d="M162.412 25.7453C163.585 25.6578 165.721 25.0858 166.125 23.8579C166.125 23.8579 166.125 23.8579 166.121 23.8579C166.143 23.5591 165.819 23.3624 165.546 23.4462C165.265 23.5518 165.021 23.7449 164.748 23.8688C164.07 24.1967 163.33 24.3935 162.583 24.47C161.727 24.5174 160.882 24.368 160.037 24.255C159.738 24.215 159.446 24.3971 159.359 24.6923C159.271 24.9983 159.454 25.3773 159.778 25.4465C160.641 25.6432 161.527 25.7999 162.412 25.7453Z" fill="white"/>
<path d="M160.507 22.0578C161.21 21.923 163.425 21.5878 163.578 20.8263C163.582 20.6805 163.451 20.5603 163.305 20.5785C162.452 20.9028 161.519 21.085 160.59 21.1506C158.889 21.2854 157.391 20.1377 155.712 20.185C155.085 20.2652 153.762 20.2142 153.901 21.1396C154.156 21.9194 155.078 21.3728 155.65 21.3983C157.289 21.3655 158.845 22.2837 160.507 22.0578Z" fill="white"/>
<path d="M153.632 17.4528C154.809 17.307 156.033 17.1176 157.21 17.318C157.378 17.3398 157.531 17.4637 157.706 17.4163C157.855 17.3763 157.957 17.2415 157.961 17.0884C157.801 16.1229 154.332 16.4216 153.505 16.4362C152.845 16.5127 152.969 17.5293 153.632 17.4528Z" fill="white"/>
<path d="M143.779 10.3658C143.972 10.282 144.075 10.0233 143.936 9.84839C143.801 9.68807 143.597 9.67714 143.426 9.6407C142.275 9.38201 141.284 9.02859 140.252 8.52942C138.667 7.65496 137.341 6.37971 135.691 5.62185C134.94 5.29393 134.124 5.10811 133.308 5.02431C133.14 5.00609 132.98 5.03888 132.845 5.1409C132.579 5.33765 132.521 5.74573 132.728 6.00442C133.031 6.35056 133.566 6.28498 133.978 6.40886C134.558 6.52181 135.159 6.71856 135.654 6.98819C137.359 7.93551 138.828 9.31278 140.715 9.91032C141.684 10.1909 142.774 10.6317 143.779 10.3658Z" fill="white"/>
<path d="M141.231 6.11385C141.534 5.62926 139.745 4.67465 139.38 4.39409C138.116 3.6508 136.812 2.85287 135.325 2.68891C134.655 2.68162 133.011 2.26624 132.939 3.25001C132.935 3.57064 133.208 3.88399 133.54 3.86942C136.178 3.48684 138.586 4.76573 140.794 6.05191C140.852 6.21587 141.129 6.24502 141.231 6.11385Z" fill="white"/>
<path d="M112.773 8.27456C113.192 8.20898 116.158 7.92114 115.309 7.17421C114.69 7.07219 113.968 7.27259 113.349 7.27623C112.587 7.33817 111.833 7.207 111.108 6.97745C110.39 6.81714 107.778 5.7933 107.698 7.00296C107.708 7.74625 108.598 7.57136 109.104 7.67702C110.332 7.84463 111.516 8.37658 112.773 8.27456Z" fill="white"/>
<path d="M113.387 5.03904C114.316 4.19737 110.716 3.76379 110.231 3.63626C109.674 3.60347 108.974 3.41036 108.493 3.76379C108.1 4.12086 108.384 4.86051 108.927 4.83865C109.983 4.76213 111.047 4.79857 112.097 4.9516C112.519 4.96617 112.986 5.19207 113.387 5.03904Z" fill="white"/>
<path d="M124.471 73.4737C127.738 72.5814 130.068 68.5352 129.726 65.2373C130.68 63.3914 128.243 64.2718 127.369 64.5535C124.026 65.4995 120.599 66.1962 117.153 66.5782C114.397 68.5339 119.201 75.5352 124.471 73.4737ZM123.039 71.4256C120.904 71.8709 119.091 70.2717 118.394 68.3514C121.734 67.9204 125.075 67.2586 128.21 66.01C128.035 68.5224 125.749 71.5773 123.039 71.4256Z" fill="#373B50"/>
<path d="M185.961 140.5C201.128 142.833 231.661 147.5 232.461 147.5L228.961 170.5L182.961 164L185.961 140.5Z" fill="#FEFBF5"/>
<path d="M184.308 163.645C183.62 160.122 184.679 156.784 185.509 153.42C186.059 149.511 186.317 145.573 186.521 141.631C189.608 142.064 192.713 142.344 195.807 142.723C198.646 143.087 201.532 142.883 204.361 143.367C207.662 144.219 211.007 144.779 214.396 145.121C219.827 146.268 225.294 147.243 230.736 148.324C230.252 151 230.634 153.755 230.263 156.394C229.721 160.868 228.767 165.294 228.094 169.64C223.897 168.978 219.718 168.457 215.579 167.584C213.581 167.249 211.546 167.234 209.526 167.092C206.61 166.808 203.753 166.073 200.812 165.978C198.635 165.818 196.305 165.232 194.249 164.894C190.94 164.421 187.493 164.865 184.308 163.645ZM182.295 157.217C182.04 159.652 181.651 162.368 182.623 164.679C182.947 165.24 183.606 165.411 184.17 165.629C188.017 167.322 192.338 166.404 196.32 167.518C199.112 168.195 202.068 168.181 204.878 168.65C208.241 169.444 211.695 169.356 215.099 169.804C218.943 170.594 222.801 171.271 226.703 171.708C227.548 171.784 228.425 172.232 229.255 171.919C230.117 171.479 230.103 170.343 230.339 169.517C230.612 167.988 230.805 166.699 231.097 165.225C231.967 160.493 232.607 155.706 232.28 150.891C232.338 150.854 232.381 150.792 232.392 150.716C232.414 150.61 232.418 150.508 232.418 150.403C233.463 150.326 233.564 149.111 233.79 148.314C233.936 147.702 234.107 146.985 233.746 146.417C233.128 145.445 231.897 145.846 230.944 145.813C229.207 145.631 227.508 145.154 225.793 144.83C222.444 144.193 219.074 143.662 215.75 142.894C212.038 142.406 208.347 141.911 204.717 140.957C201.318 140.415 197.845 140.648 194.445 140.058C191.883 139.77 189.32 139.483 186.769 139.097C185.709 138.875 184.235 138.944 184.039 140.276C183.453 145.926 183.791 151.706 182.295 157.217Z" fill="#373B50"/>
<path d="M225.607 157.45L225.607 157.45L225.608 157.441L225.637 157.254C225.666 157.06 225.683 156.865 225.689 156.668L225.689 156.668L225.689 156.663C225.691 156.415 225.687 156.166 225.678 155.916C225.669 155.669 225.654 155.421 225.633 155.172C225.625 154.945 225.634 154.708 225.661 154.461L225.672 154.36L225.618 154.272C225.528 154.126 225.455 153.973 225.398 153.812C225.342 153.624 225.276 153.435 225.198 153.246C225.131 153.056 225.051 152.87 224.959 152.688C224.869 152.471 224.738 152.272 224.57 152.09C224.447 151.953 224.287 151.811 224.096 151.663C223.914 151.502 223.715 151.352 223.498 151.211C223.296 151.063 223.087 150.925 222.871 150.797C222.668 150.661 222.487 150.553 222.33 150.477L222.33 150.477L222.327 150.476C221.943 150.296 221.541 150.151 221.124 150.039L221.124 150.039L221.115 150.037C220.827 149.969 220.538 149.913 220.246 149.869L219.889 149.814L219.881 149.813L219.872 149.812C219.459 149.773 219.052 149.765 218.651 149.789C218.261 149.802 217.897 149.851 217.561 149.937L217.561 149.937L217.559 149.937C217.131 150.048 216.748 150.161 216.409 150.276L216.409 150.276L216.405 150.278C216.077 150.394 215.748 150.528 215.417 150.68L215.378 150.697L215.346 150.725C214.926 151.087 214.547 151.508 214.209 151.987C213.887 152.434 213.561 152.874 213.23 153.308L213.194 153.354L213.179 153.41C213.049 153.879 212.925 154.355 212.805 154.837C212.697 155.236 212.613 155.634 212.552 156.03L212.516 156.268L212.516 156.268L212.515 156.275C212.454 156.759 212.437 157.227 212.465 157.681C212.494 158.145 212.595 158.587 212.77 159.002C212.892 159.304 213.057 159.575 213.268 159.815L213.267 159.815L213.274 159.822C213.467 160.029 213.667 160.231 213.874 160.428L213.874 160.428L213.882 160.435C214.088 160.618 214.299 160.802 214.517 160.987C214.722 161.162 214.909 161.345 215.077 161.535L215.207 161.682L215.394 161.621C215.394 161.621 215.396 161.621 215.398 161.621C215.401 161.62 215.406 161.62 215.415 161.622L215.415 161.622C215.415 161.622 215.418 161.622 215.423 161.625C215.428 161.628 215.438 161.634 215.452 161.646C215.57 161.754 215.705 161.837 215.854 161.891L215.856 161.892C216.106 161.98 216.364 162.044 216.632 162.085C216.718 162.098 216.805 162.106 216.892 162.107L217.144 162.146C217.363 162.179 217.573 162.226 217.775 162.288C217.837 162.315 217.899 162.35 217.962 162.395C218.075 162.474 218.2 162.532 218.334 162.568L218.35 162.572L218.366 162.575L218.502 162.596C218.645 162.617 218.793 162.627 218.948 162.625L218.948 162.625L218.957 162.624C219.139 162.616 219.317 162.601 219.49 162.578C219.669 162.559 219.838 162.537 219.995 162.514C220.144 162.492 220.273 162.471 220.38 162.453C220.506 162.444 220.628 162.449 220.748 162.468C220.916 162.493 221.083 162.494 221.236 162.448C221.489 162.395 221.721 162.304 221.93 162.174C222.116 162.058 222.296 161.935 222.472 161.806L222.722 161.622L222.962 161.446C223.107 161.339 223.26 161.26 223.424 161.207L223.513 161.178L223.57 161.104C223.743 160.877 223.929 160.635 224.129 160.378C224.349 160.112 224.553 159.832 224.741 159.537L224.741 159.537L224.744 159.534C224.935 159.226 225.104 158.903 225.252 158.566C225.416 158.217 225.534 157.845 225.607 157.45ZM224.192 156.371L224.191 156.371L224.191 156.381C224.19 156.529 224.178 156.68 224.154 156.837C224.117 157.081 224.061 157.308 223.986 157.52C223.85 157.899 223.685 158.256 223.491 158.591C223.294 158.929 223.08 159.241 222.848 159.527C222.622 159.798 222.397 160.034 222.174 160.237C221.688 160.535 221.139 160.747 220.524 160.87C219.909 160.987 219.279 161.013 218.633 160.948L218.633 160.948L218.625 160.947C218.483 160.937 218.348 160.922 218.22 160.902C217.721 160.826 217.235 160.697 216.763 160.514C216.17 160.28 215.654 159.972 215.211 159.589C214.786 159.201 214.459 158.738 214.228 158.195C214.006 157.671 213.935 157.067 214.029 156.374L214.052 156.223C214.112 155.825 214.217 155.427 214.366 155.029L214.366 155.029L214.368 155.023C214.527 154.572 214.705 154.107 214.902 153.627C215.373 152.833 216.019 152.224 216.844 151.796L216.845 151.796C217.675 151.363 218.588 151.195 219.593 151.299C219.594 151.3 219.595 151.301 219.595 151.302L219.617 151.325L219.643 151.343C219.75 151.419 219.873 151.463 220.001 151.482C220.134 151.502 220.267 151.484 220.39 151.42C220.527 151.461 220.692 151.531 220.886 151.634L220.894 151.639L220.902 151.642C221.128 151.746 221.339 151.841 221.534 151.929C222.476 152.396 223.159 152.973 223.602 153.651C224.037 154.316 224.244 155.213 224.192 156.371Z" fill="#373B50" stroke="#373B50" stroke-width="0.6"/>
<path d="M213.624 151.005L213.679 150.982L213.72 150.939C213.879 150.776 214.004 150.588 214.037 150.376C214.046 150.312 214.041 150.25 214.033 150.2C214.004 149.972 213.871 149.793 213.695 149.659C213.533 149.53 213.326 149.433 213.088 149.358C212.856 149.275 212.615 149.208 212.367 149.158L212.36 149.156L212.353 149.155L212.115 149.119C211.951 149.094 211.791 149.076 211.635 149.064C211.407 149.041 211.216 149.024 211.064 149.012L211.062 149.012C210.087 148.946 209.127 148.935 208.18 148.979C207.239 149.023 206.422 149.098 205.731 149.206L205.707 149.21L205.685 149.217C205.579 149.251 205.438 149.302 205.264 149.37C205.091 149.436 204.9 149.512 204.69 149.596C204.496 149.669 204.297 149.741 204.092 149.813C203.89 149.884 203.709 149.939 203.55 149.981L203.55 149.981L203.546 149.982C203.459 150.005 203.368 150.02 203.273 150.024L203.273 150.024L203.266 150.025C203.148 150.033 203.033 150.048 202.923 150.071C202.81 150.095 202.702 150.131 202.606 150.184C202.464 150.255 202.366 150.371 202.306 150.508C202.275 150.572 202.257 150.64 202.247 150.705C202.223 150.858 202.243 151.009 202.309 151.149C202.367 151.317 202.469 151.465 202.602 151.596L202.711 151.704L202.863 151.678C203.343 151.595 203.816 151.476 204.283 151.319C204.732 151.169 205.181 151.024 205.629 150.884C206.079 150.749 206.53 150.643 206.981 150.565C207.327 150.505 207.677 150.487 208.032 150.511C207.998 151.24 207.939 152.012 207.856 152.825C207.762 153.748 207.653 154.697 207.527 155.673C207.402 156.651 207.275 157.64 207.146 158.641L207.145 158.645C207.029 159.638 206.928 160.606 206.843 161.546L206.831 161.681L206.924 161.78C207.043 161.905 207.184 162.001 207.35 162.046L207.366 162.05L207.382 162.053L207.467 162.065C207.568 162.081 207.672 162.079 207.777 162.066L207.777 162.066L207.79 162.064C207.934 162.039 208.069 161.988 208.193 161.911C208.315 161.835 208.419 161.738 208.502 161.62L208.558 161.541L208.557 161.444C208.551 160.884 208.571 160.304 208.616 159.705C208.662 159.102 208.719 158.495 208.789 157.884C208.871 157.273 208.958 156.663 209.05 156.054C209.144 155.441 209.23 154.832 209.31 154.229C209.364 153.878 209.394 153.524 209.4 153.167C209.418 152.826 209.44 152.492 209.467 152.165C209.494 151.84 209.532 151.516 209.581 151.194L209.591 151.124L209.58 151.088C209.612 150.892 209.66 150.694 209.726 150.495C210.073 150.501 210.454 150.511 210.87 150.527C211.125 150.543 211.372 150.57 211.611 150.606C211.827 150.639 212.036 150.682 212.238 150.735L212.239 150.735C212.438 150.786 212.629 150.856 212.812 150.945C212.919 151.008 213.035 151.049 213.158 151.068C213.319 151.092 213.476 151.069 213.624 151.005Z" fill="#373B50" stroke="#373B50" stroke-width="0.6"/>
<path d="M202.513 150.256L202.513 150.256L202.511 150.252C202.45 150.043 202.36 149.848 202.24 149.669C202.14 149.505 202.027 149.35 201.899 149.206C201.782 149.061 201.66 148.915 201.532 148.768C201.433 148.645 201.344 148.501 201.267 148.335L201.212 148.218L201.09 148.177C200.856 148.099 200.63 148.001 200.412 147.882C200.186 147.742 199.952 147.612 199.712 147.493C199.474 147.359 199.226 147.248 198.969 147.159C198.831 147.112 198.69 147.077 198.548 147.056C198.395 147.032 198.241 147.022 198.085 147.024L198.085 147.024L198.083 147.024C197.275 147.041 196.547 147.083 195.902 147.15C195.252 147.208 194.602 147.357 193.953 147.595L193.953 147.595C193.042 147.929 192.264 148.426 191.624 149.088C191.005 149.729 190.448 150.432 189.952 151.198L189.936 151.223L189.925 151.251C189.673 151.892 189.5 152.509 189.41 153.101C189.376 153.326 189.355 153.542 189.348 153.749C189.299 154.549 189.38 155.293 189.595 155.977L189.595 155.977L189.596 155.981C189.822 156.662 190.157 157.276 190.601 157.821L190.601 157.821L190.605 157.827C191.062 158.361 191.606 158.804 192.235 159.155L192.244 159.161L192.255 159.166C192.979 159.503 193.735 159.755 194.52 159.922L194.52 159.922L194.525 159.923C194.8 159.976 195.069 160.023 195.334 160.064C195.833 160.139 196.336 160.186 196.843 160.204C197.598 160.236 198.325 160.198 199.023 160.089C199.719 159.98 200.351 159.812 200.919 159.584L201.006 159.549L201.058 159.471C201.169 159.301 201.243 159.118 201.273 158.924C201.283 158.856 201.286 158.784 201.283 158.712C201.279 158.571 201.244 158.432 201.167 158.309C201.088 158.184 200.977 158.093 200.848 158.03L200.84 158.027L200.832 158.023C200.774 157.999 200.711 157.978 200.645 157.968C200.546 157.953 200.438 157.953 200.333 157.988C200.206 158.028 200.089 158.087 199.983 158.165C199.895 158.23 199.812 158.302 199.734 158.381C199.689 158.42 199.645 158.449 199.601 158.469C199.515 158.509 199.406 158.546 199.27 158.576C199.119 158.599 198.957 158.625 198.784 158.655C198.616 158.673 198.449 158.686 198.284 158.694C198.107 158.702 197.946 158.713 197.801 158.726C197.423 158.745 197.008 158.732 196.555 158.686L196.555 158.686C196.332 158.663 196.103 158.634 195.87 158.599C195.637 158.563 195.41 158.523 195.19 158.478L195.19 158.478C194.726 158.385 194.294 158.28 193.894 158.162C193.497 158.035 193.179 157.903 192.933 157.77L192.933 157.77L192.93 157.768C192.383 157.481 191.947 157.09 191.618 156.592C191.277 156.064 191.046 155.541 190.919 155.024L190.919 155.024L190.917 155.018C190.846 154.754 190.819 154.443 190.841 154.078C190.855 153.915 190.876 153.746 190.902 153.572C190.931 153.379 190.973 153.175 191.028 152.96L191.028 152.96L191.029 152.956C191.12 152.581 191.242 152.217 191.395 151.863C191.547 151.514 191.723 151.211 191.922 150.953C192.443 150.292 193.053 149.787 193.752 149.434C194.456 149.078 195.198 148.798 195.977 148.593C196.211 148.625 196.441 148.635 196.666 148.623C196.9 148.612 197.128 148.6 197.351 148.587L197.358 148.587L197.366 148.586C197.579 148.563 197.796 148.552 198.017 148.553L198.027 148.553L198.038 148.552C198.12 148.546 198.207 148.55 198.301 148.564C198.394 148.579 198.487 148.602 198.578 148.635L198.593 148.641L198.609 148.645C198.678 148.662 198.754 148.7 198.837 148.772L198.837 148.773L198.846 148.78C198.982 148.89 199.127 148.989 199.279 149.076L199.293 149.083L199.306 149.089C199.454 149.154 199.613 149.199 199.783 149.225C199.89 149.241 199.961 149.265 200.006 149.288C200.109 149.358 200.196 149.442 200.269 149.54C200.359 149.663 200.448 149.797 200.537 149.943L200.536 149.943L200.544 149.954C200.638 150.096 200.727 150.231 200.812 150.359L200.816 150.366L200.821 150.372C200.892 150.47 200.971 150.558 201.058 150.634C201.036 150.806 201.047 150.976 201.094 151.141C201.113 151.213 201.116 151.275 201.108 151.332C201.1 151.383 201.086 151.423 201.069 151.456L201.337 151.593L201.069 151.456C201.059 151.477 201.004 151.545 200.835 151.651C200.686 151.742 200.515 151.828 200.32 151.906C200.132 151.977 199.952 152.037 199.78 152.088C199.703 152.108 199.645 152.12 199.603 152.127C199.581 152.13 199.567 152.132 199.559 152.132C199.559 152.132 199.558 152.132 199.558 152.132L199.516 152.126C199.392 152.107 199.269 152.048 199.145 151.932C199.02 151.813 198.905 151.698 198.798 151.588C198.815 151.506 198.83 151.428 198.841 151.352C198.858 151.24 198.868 151.134 198.869 151.035C198.871 150.809 198.801 150.587 198.681 150.375L198.624 150.274L198.514 150.238C198.435 150.212 198.357 150.193 198.281 150.181C198.068 150.149 197.85 150.166 197.665 150.284L197.665 150.284L197.662 150.287C197.464 150.417 197.342 150.609 197.288 150.837C197.264 150.915 197.245 150.993 197.233 151.073C197.212 151.212 197.203 151.353 197.207 151.495C197.198 151.701 197.193 151.89 197.189 152.063L197.189 152.113L197.204 152.161C197.25 152.303 197.326 152.429 197.434 152.533L197.451 152.55L197.47 152.563C197.55 152.62 197.623 152.675 197.691 152.728L197.697 152.733L197.704 152.738C197.776 152.789 197.841 152.843 197.9 152.9C197.94 152.939 197.975 152.989 198.004 153.056L198.063 153.193L198.208 153.228C198.43 153.283 198.598 153.355 198.719 153.435L198.726 153.44L198.733 153.444C198.925 153.557 199.157 153.643 199.422 153.709L199.481 153.723L199.542 153.713C199.967 153.644 200.381 153.53 200.784 153.371L200.784 153.372L200.79 153.369C201.202 153.195 201.559 152.972 201.858 152.697L201.858 152.697L201.862 152.693C202.167 152.4 202.391 152.054 202.53 151.656L202.533 151.648L202.535 151.639C202.564 151.538 202.586 151.436 202.601 151.333C202.652 150.998 202.618 150.637 202.513 150.256Z" fill="#373B50" stroke="#373B50" stroke-width="0.6"/>
</svg>
