<svg width="184" height="186" viewBox="0 0 184 186" fill="none" xmlns="http://www.w3.org/2000/svg">
<path fill-rule="evenodd" clip-rule="evenodd" d="M97.2622 83.3458C95.8123 79.6523 94.0453 76.9216 92.5544 74.9097C78.2217 55.7272 55.9042 59.9154 37.6792 69.9573C32.7946 72.6452 26.2009 78.4445 23.2439 84.8732C21.1642 89.3897 20.8423 94.2032 23.8532 98.5487C27.1182 103.298 33.2048 105.542 40.0778 106.16C50.0179 107.062 61.5969 104.607 67.9832 102.16C75.3485 99.3355 86.2457 93.7333 96.1574 86.8668C97.4126 90.9758 98.2326 96.1029 97.9836 102.509C97.883 105.357 97.0405 108.561 95.6987 111.812C90.6687 110.175 85.0957 109.476 79.1584 109.896C74.1679 110.257 63.8317 113.012 56.8853 117.693C51.9295 121.039 48.7294 125.381 49.7252 130.423C50.9708 136.684 55.2837 139.315 60.5699 139.81C68.0129 140.511 77.4399 136.803 82.0177 133.599C87.3418 129.868 93.2418 122.312 96.8447 114.612C113.555 121.052 123.329 138.669 118.628 158.601C118.494 159.195 118.861 159.801 119.444 159.956C120.042 160.096 120.645 159.716 120.779 159.122C125.749 138.032 115.432 119.368 97.7585 112.533C99.1784 109.069 100.084 105.638 100.194 102.595C100.464 95.5376 99.5023 89.9454 98.0574 85.5268C99.8925 84.2084 101.685 82.8459 103.409 81.4441C111.157 75.1534 117.373 68.1811 119.427 61.5356C124.176 46.1795 116.673 32.9458 104.774 24.6781C92.986 16.4938 76.9201 13.2206 64.517 17.5257C63.939 17.7268 63.6252 18.3717 63.8258 18.9553C64.0265 19.539 64.6534 19.8549 65.2313 19.6537C77.0343 15.5563 92.3181 18.7359 103.525 26.5338C114.621 34.2484 121.744 46.5408 117.322 60.8565C115.355 67.1817 109.391 73.7089 102.027 79.6893C100.494 80.9347 98.903 82.151 97.2622 83.3458ZM94.7835 113.89C90.0646 112.394 84.8591 111.748 79.3045 112.148C74.5544 112.49 64.7337 115.097 58.1019 119.572C53.9912 122.346 51.0624 125.795 51.8979 129.974C52.9032 135.085 56.4725 137.165 60.7786 137.569C67.7024 138.239 76.4961 134.734 80.767 131.744C85.7706 128.242 91.3638 121.134 94.7835 113.89ZM95.4029 84.6689C94.0016 80.9664 92.2541 78.2555 90.7907 76.2715C77.2042 58.0811 56.0087 62.4166 38.7329 71.9337C34.1823 74.4352 28.0141 79.82 25.2456 85.827C23.5179 89.5913 23.1483 93.6262 25.6618 97.2616C28.586 101.519 34.1128 103.368 40.2666 103.928C49.8595 104.798 61.0463 102.411 67.2051 100.055C74.5707 97.2306 85.5165 91.5904 95.4029 84.6689Z" fill="#FF9142"/>
<path fill-rule="evenodd" clip-rule="evenodd" d="M119.835 157.834C119.378 156.786 118.052 153.773 117.839 153.323C117.235 152.067 116.758 151.524 116.212 151.027C115.768 150.634 115.256 150.288 114.517 149.45C114.115 148.983 113.403 148.961 112.951 149.377C112.498 149.793 112.472 150.497 112.875 150.964C113.554 151.714 114.047 152.127 114.484 152.483C114.981 152.901 115.349 153.245 115.85 154.31C116.099 154.826 117.175 157.847 117.937 159.118C118.332 159.782 118.797 160.109 119.07 160.182C119.461 160.288 119.953 160.261 120.514 160.014C121.234 159.695 122.214 158.938 123.331 158.116C124.378 157.34 125.579 156.488 126.852 155.971C127.926 155.543 129.044 155.365 130.144 155.841C130.703 156.087 131.347 155.836 131.591 155.267C131.835 154.697 131.581 154.03 131.022 153.783C129.375 153.044 127.664 153.232 126.036 153.885C124.595 154.465 123.226 155.41 122.03 156.298C121.313 156.825 120.662 157.332 120.115 157.681C120.027 157.738 119.931 157.786 119.835 157.834Z" fill="#FF9142"/>
</svg>
