<svg width="102" height="65" viewBox="0 0 102 65" fill="none" xmlns="http://www.w3.org/2000/svg">
<path d="M85.775 47.1267L85.2968 46.2484L85.775 47.1267ZM45.6874 8.32345L45.5344 9.31168L45.6874 8.32345ZM45.2929 43.5278L45.7203 44.4319L45.2929 43.5278ZM84.4855 2.01794C83.9653 1.83223 83.6942 1.26004 83.8799 0.739918C84.0656 0.219792 84.6378 -0.0513108 85.158 0.134392L84.4855 2.01794ZM45.5344 9.31168C40.8475 8.58594 37.4386 9.0072 35.0855 10.1271C32.7698 11.2293 31.3902 13.047 30.7932 15.3536C29.5704 20.0783 31.633 26.9504 36.3444 33.5128C45.7266 46.5809 64.8359 57.3884 85.2968 46.2484L86.2531 48.0049C64.5876 59.8008 44.4509 48.2333 34.7197 34.6792C29.8745 27.9305 27.4136 20.4296 28.857 14.8525C29.5932 12.0082 31.3442 9.6928 34.226 8.32122C37.0706 6.96739 40.9262 6.5743 45.8404 7.33523L45.5344 9.31168ZM0.860909 59.851C0.568443 58.8947 0.568504 58.8947 0.56868 58.8947C0.568878 58.8946 0.569153 58.8945 0.569557 58.8944C0.570351 58.8942 0.571579 58.8938 0.573219 58.8933C0.576515 58.8923 0.581497 58.8907 0.588158 58.8887C0.601471 58.8846 0.621483 58.8785 0.648033 58.8703C0.701141 58.854 0.780411 58.8296 0.884628 58.7974C1.09309 58.733 1.40134 58.6373 1.79974 58.5128C2.59653 58.2638 3.75374 57.8992 5.19386 57.4375C8.07431 56.5139 12.0854 55.2018 16.6074 53.6482C25.6618 50.5375 36.7258 46.4714 44.8656 42.6237L45.7203 44.4319C37.4745 48.3297 26.3225 52.4252 17.2573 55.5397C12.7194 57.0988 8.69483 58.4152 5.80453 59.342C4.35926 59.8054 3.19733 60.1715 2.39632 60.4218C1.99582 60.547 1.68552 60.6432 1.47514 60.7082C1.36994 60.7407 1.28972 60.7654 1.23569 60.782C1.20868 60.7903 1.18821 60.7966 1.17444 60.8008C1.16755 60.803 1.16234 60.8045 1.15883 60.8056C1.15707 60.8062 1.15573 60.8066 1.15482 60.8069C1.15437 60.807 1.15401 60.8071 1.15378 60.8072C1.15352 60.8072 1.15337 60.8073 0.860909 59.851ZM44.8656 42.6237C51.2402 39.6104 55.1212 36.1118 57.2289 32.6032C59.3277 29.1094 59.7095 25.5398 58.9739 22.268C57.484 15.6409 51.4071 10.221 45.5344 9.31168L45.8404 7.33523C52.5373 8.37219 59.2576 14.412 60.9252 21.8293C61.7684 25.5797 61.319 29.6785 58.9434 33.6331C56.5766 37.5729 52.34 41.3028 45.7203 44.4319L44.8656 42.6237ZM85.2968 46.2484C95.5303 40.6767 100.131 31.3171 99.7934 22.5335C99.4559 13.7476 94.1831 5.48037 84.4855 2.01794L85.158 0.134392C95.6627 3.88499 101.425 12.8947 101.792 22.4567C102.159 32.0209 97.1355 42.08 86.2531 48.0049L85.2968 46.2484Z" fill="#FF9142"/>
<path fill-rule="evenodd" clip-rule="evenodd" d="M2.23972 59.4318C2.37742 59.5153 2.75213 59.6828 3.06171 59.7664C4.56688 60.2677 6.90256 60.7686 7.58789 60.9357C13.6502 62.774 12.6613 62.155 19.1549 62.155C19.6994 62.155 20.1402 62.5733 20.1392 63.0746C20.1381 63.6595 19.6962 64.0775 19.1517 64.0775C12.4703 64.0775 13.2617 64.613 7.0232 62.8582C6.32825 62.6075 3.95732 62.1062 2.42866 61.6048C1.8789 61.4377 1.42417 61.2701 1.13808 61.103C0.903227 60.9359 0.742031 60.7691 0.640619 60.6019C0.378013 60.2677 0.249908 59.7659 0.266987 59.2645C0.286203 58.6796 0.483688 58.0113 0.818882 57.3428C1.47433 55.9223 2.67312 54.2513 3.62106 52.9143C4.16549 52.1623 4.62986 51.4936 4.77183 51.0758C5.98985 47.4828 6.2317 46.7855 2.01721 43.7774C1.57954 43.4431 1.48454 42.8577 1.80693 42.4399C2.12931 42.0221 2.74738 41.9387 3.18612 42.1894C8.24073 45.866 8.1067 47.3158 6.64422 51.6609C6.29195 52.7472 4.34695 55.0865 3.10439 57.1755C2.74891 57.844 2.45642 58.4294 2.31337 58.9308C2.27174 59.0979 2.24291 59.1814 2.23864 59.3486C2.23864 59.3486 2.23331 59.4318 2.23972 59.4318Z" fill="#FF9142"/>
</svg>
