<svg width="122" height="137" viewBox="0 0 122 137" fill="none" xmlns="http://www.w3.org/2000/svg">
<path d="M103 129C101.5 72.5 74.8013 65.1501 35.8585 58.9258C-12.82 51.1453 11.6583 39.4435 64.5847 37.1256C117.511 34.8078 1.50382 7.00001 1.50382 7.00001" stroke="#FF9142" stroke-width="2.5" stroke-linecap="round"/>
<path fill-rule="evenodd" clip-rule="evenodd" d="M106.556 131.793C105.203 129.903 103.53 127.512 103.333 127.246C97.9794 120.047 91.8196 114.081 84.5931 108.829C84.0071 108.402 83.1906 108.543 82.7725 109.142C82.3544 109.74 82.4927 110.574 83.0787 111.001C90.0879 116.092 96.0634 121.876 101.255 128.86C101.558 129.267 105.315 134.644 106.154 135.673C106.496 136.097 106.819 136.228 106.898 136.251C107.313 136.393 107.639 136.309 107.876 136.194C108.143 136.063 108.531 135.737 108.729 135.105C108.933 134.442 109.025 132.969 109.078 132.6C109.888 127.021 110.316 120.723 111.869 114.989C113.351 109.521 115.86 104.562 120.887 101.381C121.499 100.994 121.687 100.17 121.308 99.5445C120.93 98.9191 120.123 98.7273 119.511 99.114C113.891 102.672 111.01 108.166 109.354 114.276C107.81 119.976 107.343 126.217 106.556 131.793Z" fill="#FF9142"/>
</svg>
