<svg width="113" height="142" viewBox="0 0 113 142" fill="none" xmlns="http://www.w3.org/2000/svg">
<path d="M111.349 50.2001C112.012 50.0071 112.393 49.3133 112.2 48.6505C112.007 47.9877 111.313 47.6068 110.65 47.7998L111.349 50.2001ZM63.9994 56.7089L62.76 56.5468L63.9994 56.7089ZM32.2373 6.00909C20.9702 14.6759 17.5291 32.6424 28.8923 44.9858C40.2166 57.287 65.7465 63.48 111.349 50.2001L110.65 47.7998C65.2524 61.02 41.0323 54.4819 30.7316 43.2926C20.4698 32.1455 23.5286 15.862 33.7616 7.99067L32.2373 6.00909ZM65.2389 56.871C68.2771 33.6425 65.9568 16.6876 59.873 7.58811C56.7927 2.98103 52.6954 0.323184 47.8412 0.0285463C43.0421 -0.262743 37.746 1.77176 32.2373 6.00909L33.7616 7.99067C39.0029 3.95895 43.714 2.28264 47.6897 2.52395C51.6102 2.76192 55.0551 4.88009 57.7947 8.97762C63.3505 17.2874 65.7802 33.456 62.76 56.5468L65.2389 56.871ZM13.7647 124.677C37.1425 117.08 49.5567 103.984 56.3459 90.7838C63.1045 77.6435 64.2459 64.4626 65.2389 56.871L62.76 56.5468C61.7529 64.2462 60.6444 76.9608 54.1228 89.6403C47.6318 102.26 35.7354 114.908 12.9921 122.299L13.7647 124.677Z" fill="#FF9142"/>
<path fill-rule="evenodd" clip-rule="evenodd" d="M8.66257 123.337C8.68945 123.148 8.81691 122.681 8.97184 122.337C9.63898 120.593 10.9253 118.1 11.2845 117.354C14.1355 110.468 17.8285 103.189 22.6663 97.3387C23.0719 96.8482 23.0214 96.1271 22.5663 95.7397C22.0356 95.2877 21.3277 95.3621 20.9221 95.8526C15.9443 101.872 12.1799 109.394 9.12195 116.373C8.83132 117.194 7.51918 119.718 6.83455 121.484C6.57638 122.108 6.38945 122.648 6.32772 123.035C6.30417 123.376 6.33519 123.65 6.41105 123.871C6.51822 124.367 6.87746 124.871 7.34442 125.244C7.88867 125.679 8.6413 126.019 9.49667 126.235C11.272 126.744 13.6791 126.959 15.5966 127.14C16.6835 127.232 17.6353 127.331 18.1196 127.527C22.2823 129.213 24.8731 133.423 24.4587 139.55C24.4354 140.203 24.895 140.742 25.5137 140.776C26.1324 140.809 26.6685 140.316 26.7682 139.727C27.2029 132.326 24.0107 127.435 18.9844 125.387C17.7378 124.863 14.1693 124.804 11.351 124.305C10.4805 124.108 9.73218 123.918 9.17138 123.658C8.98895 123.567 8.89177 123.528 8.73718 123.402C8.73558 123.404 8.65779 123.343 8.66257 123.337Z" fill="#FF9142"/>
</svg>
