<svg width="130" height="110" viewBox="0 0 130 110" fill="none" xmlns="http://www.w3.org/2000/svg">
<path d="M127.458 54.7037C127.838 55.2799 128.614 55.4389 129.19 55.0587C129.766 54.6785 129.925 53.9031 129.545 53.3269L127.458 54.7037ZM81.0015 2.01531L81.1059 3.26095L81.0015 2.01531ZM68.0015 87.5153L68.5128 88.6559L68.0015 87.5153ZM23.0015 84.5153L22.2936 83.485L23.0015 84.5153ZM81.1059 3.26095C82.251 3.16498 83.8736 3.69506 85.9673 5.00796C88.019 6.2945 90.3421 8.21645 92.8322 10.6012C97.8079 15.3664 103.312 21.8452 108.456 28.3946C113.594 34.9364 118.345 41.515 121.814 46.4608C123.548 48.9329 124.96 50.9954 125.938 52.4391C126.427 53.161 126.808 53.728 127.066 54.1142C127.195 54.3073 127.293 54.4551 127.359 54.5545C127.392 54.6041 127.417 54.6417 127.434 54.6667C127.442 54.6792 127.448 54.6886 127.452 54.6948C127.454 54.6978 127.456 54.7001 127.457 54.7016C127.457 54.7024 127.458 54.7029 127.458 54.7033C127.458 54.7036 127.458 54.7037 128.501 54.0153C129.545 53.3269 129.545 53.3266 129.544 53.3261C129.544 53.3257 129.544 53.325 129.543 53.3241C129.542 53.3224 129.54 53.3199 129.538 53.3165C129.534 53.3099 129.527 53.3 129.518 53.287C129.501 53.2611 129.476 53.2225 129.442 53.1719C129.375 53.0705 129.275 52.9206 129.145 52.7254C128.884 52.335 128.5 51.7634 128.008 51.0368C127.023 49.5836 125.603 47.5099 123.861 45.0252C120.376 40.0574 115.597 33.4396 110.422 26.8504C105.253 20.2689 99.6638 13.6822 94.5614 8.79563C92.0124 6.35445 89.5504 4.30392 87.2954 2.88993C85.0825 1.50228 82.8769 0.603769 80.8971 0.769677L81.1059 3.26095ZM68.5128 88.6559C70.807 87.6275 72.2589 85.2884 73.2118 82.4288C74.1761 79.535 74.7184 75.8437 75.0063 71.7007C75.5822 63.4111 75.1559 52.9807 74.8132 42.8199C74.4687 32.603 74.2092 22.6695 75.079 15.2063C75.5149 11.4665 76.2227 8.46859 77.2719 6.39618C78.306 4.35382 79.5652 3.39005 81.1059 3.26095L80.8971 0.769677C78.1877 0.996723 76.3063 2.76881 75.0415 5.26692C73.792 7.73497 73.0427 11.0821 72.5958 14.9169C71.7 22.6029 71.9717 32.7366 72.3147 42.9041C72.6595 53.1277 73.077 63.399 72.5123 71.5274C72.2298 75.5934 71.7058 79.0402 70.84 81.6385C69.9628 84.2711 68.8209 85.7781 67.4901 86.3747L68.5128 88.6559ZM7.50146 109.015C8.68874 109.406 8.68869 109.407 8.68866 109.407C8.68869 109.407 8.68868 109.407 8.68872 109.406C8.68881 109.406 8.68898 109.406 8.68924 109.405C8.68977 109.403 8.69065 109.401 8.69189 109.397C8.69436 109.389 8.69826 109.378 8.70358 109.362C8.71421 109.33 8.73051 109.282 8.7524 109.218C8.79618 109.091 8.86233 108.9 8.9503 108.655C9.12629 108.164 9.38943 107.451 9.73542 106.574C10.4279 104.819 11.4497 102.411 12.7656 99.8033C15.4244 94.534 19.1825 88.6559 23.7093 85.5455L22.2936 83.485C17.2154 86.9742 13.2235 93.3461 10.5336 98.677C9.17515 101.369 8.12281 103.849 7.40985 105.657C7.05311 106.561 6.78067 107.298 6.59675 107.812C6.50477 108.069 6.43489 108.269 6.38763 108.407C6.364 108.476 6.34602 108.529 6.33376 108.566C6.32763 108.584 6.32293 108.598 6.31966 108.608C6.31803 108.613 6.31676 108.617 6.31584 108.619C6.31539 108.621 6.31502 108.622 6.31475 108.623C6.31461 108.623 6.31447 108.624 6.3144 108.624C6.31428 108.624 6.31419 108.624 7.50146 109.015ZM23.7093 85.5455C30.3595 80.9762 36.9646 83.2155 44.4639 86.1413C51.7611 88.9882 59.9134 92.5109 68.5128 88.6559L67.4901 86.3747C60.0179 89.7243 52.9283 86.76 45.3725 83.8122C38.0188 80.9433 30.1597 78.0803 22.2936 83.485L23.7093 85.5455Z" fill="#FF9142"/>
<path fill-rule="evenodd" clip-rule="evenodd" d="M7.98673 107.447C7.88813 107.284 7.69056 106.842 7.59196 106.477C7.0004 104.701 6.40941 101.945 6.21222 101.136C4.04314 93.983 2.26844 85.9759 2.26844 78.3139C2.26844 77.6715 1.77489 77.1513 1.18333 77.1526C0.493165 77.1538 0 77.6753 0 78.3177C0 86.2014 1.87329 94.4415 3.94378 101.802C4.23956 102.622 4.83113 105.42 5.42269 107.224C5.61988 107.872 5.81765 108.409 6.01484 108.746C6.21203 109.024 6.40883 109.214 6.60602 109.333C7.0004 109.643 7.59254 109.794 8.18411 109.774C8.87427 109.752 9.66283 109.519 10.4516 109.123C12.1277 108.35 14.0994 106.935 15.6769 105.817C16.5642 105.174 17.3532 104.626 17.8462 104.459C22.0857 103.022 26.7193 104.553 30.2687 109.526C30.6631 110.043 31.3538 110.155 31.8468 109.774C32.3397 109.394 32.4381 108.665 32.1424 108.147C27.8042 102.183 22.2827 100.524 17.1558 102.25C15.8741 102.665 13.1138 104.96 10.649 106.426C9.86021 106.846 9.16947 107.191 8.57791 107.36C8.38072 107.409 8.28212 107.443 8.08493 107.448C8.08493 107.45 7.98673 107.454 7.98673 107.447Z" fill="#FF9142"/>
</svg>
