<svg width="160" height="130" viewBox="0 0 160 130" fill="none" xmlns="http://www.w3.org/2000/svg">
<path d="M28.555 2.18756C27.865 2.1681 27.2898 2.71175 27.2703 3.40184C27.2509 4.09192 27.7945 4.66711 28.4846 4.68656L28.555 2.18756ZM130.987 128.118C122.414 47.6569 71.0946 3.38672 28.555 2.18756L28.4846 4.68656C69.398 5.83989 120.016 48.7524 128.501 128.383L130.987 128.118Z" fill="#FF9142"/>
<path fill-rule="evenodd" clip-rule="evenodd" d="M129.531 125.444C128.166 123.544 126.479 121.141 126.28 120.874C120.88 113.637 114.667 107.641 107.378 102.361C106.787 101.932 105.963 102.074 105.542 102.676C105.12 103.277 105.259 104.115 105.851 104.545C112.92 109.662 118.947 115.476 124.184 122.496C124.49 122.905 128.279 128.31 129.125 129.344C129.471 129.77 129.796 129.902 129.876 129.925C130.294 130.067 130.623 129.983 130.862 129.868C131.131 129.736 131.523 129.408 131.722 128.773C131.928 128.107 132.021 126.627 132.074 126.255C132.891 120.647 133.323 114.316 134.89 108.553C136.385 103.057 138.915 98.0719 143.986 94.8743C144.603 94.4856 144.793 93.6575 144.411 93.0288C144.029 92.4001 143.215 92.2074 142.598 92.5961C136.929 96.1722 134.023 101.695 132.353 107.837C130.796 113.566 130.324 119.839 129.531 125.444Z" fill="#FF9142"/>
</svg>
