<svg width="25" height="24" viewBox="0 0 25 24" fill="none" xmlns="http://www.w3.org/2000/svg">
<path d="M22.4994 12.0627C22.5099 14.073 21.7376 15.7764 20.4045 17.2153C18.4154 19.3631 15.8973 20.6433 13.0089 20.8867C9.49622 21.1829 6.5337 19.8498 4.23778 17.1624C3.83573 16.6863 3.49716 16.1255 3.23265 15.5648C2.14288 13.2689 2.2064 11.0047 3.84634 9.0262C5.80369 6.65622 8.12077 4.7306 11.3054 4.23333C13.3369 3.91592 15.3683 3.83127 17.3468 4.57189C20.4997 5.75688 22.5417 8.71937 22.4994 12.0627ZM10.8928 14.3798C10.9457 13.8508 11.0303 13.5863 10.9774 13.3324C10.9563 13.1948 10.7341 13.0044 10.5859 12.9938C10.258 12.9621 10.0464 13.2265 10.1522 13.5016C10.258 13.7661 10.5331 13.9566 10.8928 14.3798ZM5.17946 11.5337C5.14772 11.8829 5.09482 12.0627 5.12656 12.2426C5.13714 12.3378 5.29584 12.4013 5.38048 12.4859C5.44396 12.3484 5.58152 12.2003 5.54977 12.0839C5.52861 11.9358 5.36991 11.7982 5.17946 11.5337ZM19.7274 10.2323C19.6427 9.92551 19.6427 9.7139 19.5369 9.58693C19.4417 9.47055 19.2512 9.43881 19.1031 9.37533C19.1137 9.55519 19.0608 9.7668 19.1454 9.90434C19.2195 10.0419 19.4311 10.0842 19.7274 10.2323ZM13.559 18.358C13.6542 18.3051 13.7495 18.2522 13.8447 18.1887C13.7177 18.157 13.5908 18.1252 13.4638 18.1146C13.4003 18.1146 13.3369 18.1675 13.2734 18.1887C13.3686 18.2416 13.4638 18.3051 13.559 18.358Z" fill="#FF9142"/>
</svg>
