<svg width="25" height="24" viewBox="0 0 25 24" fill="none" xmlns="http://www.w3.org/2000/svg">
<path d="M22.5 11.4389C22.2105 12.9115 22.0091 14.4093 21.619 15.8567C21.1029 17.7194 19.8947 19.1165 18.1955 20.0227C16.0937 21.1428 13.8659 21.7847 11.4494 21.7344C10.0649 21.7092 8.756 21.382 7.64843 20.6016C4.45156 18.3487 2.55105 15.2903 2.5007 11.3005C2.46294 8.27985 3.94812 6.21572 6.7674 5.1459C7.23309 4.9697 7.71134 4.76832 8.2022 4.70539C9.08323 4.6047 9.73772 4.21455 10.3544 3.58524C12.0787 1.8106 14.2435 1.67216 16.4083 2.45249C19.8695 3.69852 21.921 6.15279 22.2483 9.90345C22.286 10.4069 22.3112 10.9103 22.3364 11.4138C22.3867 11.4138 22.4371 11.4264 22.5 11.4389ZM16.9118 5.30953C16.66 5.85073 16.572 6.54296 16.2321 6.694C15.0364 7.24778 13.803 8.36794 12.4689 6.84502C12.2927 6.64365 11.8396 6.58074 11.5249 6.6185C10.4551 6.74436 9.36012 6.84504 8.32806 7.14711C5.24447 8.06589 4.74102 10.495 5.20671 12.6095C5.64722 14.6232 6.65412 16.3475 8.17704 17.7446C9.27202 18.7515 10.581 19.2675 12.0661 19.1794C13.8408 19.0787 15.5273 18.613 17.088 17.732C18.0068 17.216 18.6738 16.486 19.0388 15.5169C19.9073 13.2639 20.0205 10.9481 19.3786 8.61967C19.0136 7.31072 18.3214 6.20314 16.9118 5.30953ZM14.8225 4.59213C14.0673 4.18937 13.287 3.50974 12.1794 4.41593C13.2744 4.49145 14.0422 4.54178 14.8225 4.59213Z" fill="#B0B3C1"/>
</svg>
