<svg width="141" height="130" viewBox="0 0 141 130" fill="none" xmlns="http://www.w3.org/2000/svg">
<path d="M9.55623 2.18736C8.86615 2.1679 8.29096 2.71156 8.2715 3.40164C8.25205 4.09172 8.7957 4.66691 9.48578 4.68636L9.55623 2.18736ZM82.2551 120.5C82.2522 80.3721 74.7935 51.1228 61.9507 31.7196C49.0688 12.2573 30.8212 2.78681 9.55623 2.18736L9.48578 4.68636C29.9473 5.26316 47.4389 14.3242 59.866 33.0994C72.3322 51.9337 79.7522 80.6278 79.7551 120.5L82.2551 120.5Z" fill="#FF9142"/>
<path fill-rule="evenodd" clip-rule="evenodd" d="M81.5174 118.848C80.3059 116.847 78.8127 114.319 78.6351 114.037C73.8201 106.399 68.0967 99.9336 61.2445 94.0982C60.689 93.6239 59.8568 93.7009 59.3892 94.2676C58.9215 94.8343 58.9949 95.6808 59.5504 96.1552C66.1969 101.812 71.7492 108.08 76.4189 115.49C76.6914 115.922 80.0445 121.607 80.8075 122.705C81.1184 123.156 81.4325 123.313 81.5101 123.343C81.916 123.517 82.2504 123.459 82.4978 123.363C82.7763 123.253 83.1926 122.957 83.4411 122.339C83.6986 121.691 83.9075 120.223 83.9897 119.856C85.2441 114.33 86.1712 108.052 88.186 102.43C90.1069 97.0685 93.0207 92.2969 98.3267 89.5071C98.973 89.1681 99.2266 88.3574 98.8953 87.7007C98.5639 87.0439 97.768 86.7879 97.1217 87.127C91.1901 90.2473 87.86 95.5254 85.7129 101.517C83.7108 107.106 82.7484 113.323 81.5174 118.848Z" fill="#FF9142"/>
</svg>
