<svg width="24" height="25" viewBox="0 0 24 25" fill="none" xmlns="http://www.w3.org/2000/svg">
<path d="M9.53269 5.92647L9.53268 5.92642L9.52699 5.92775C8.08652 6.26592 6.74838 6.94772 5.62572 7.91537C4.50306 8.88302 3.62892 10.108 3.07705 11.4867L3.07684 11.4867L3.07295 11.4976C2.7808 12.318 2.65818 13.1897 2.71256 14.0593C2.76694 14.929 2.99718 15.7784 3.38926 16.5557C3.78135 17.333 4.32708 18.0218 4.99316 18.5802C5.659 19.1383 6.43111 19.5542 7.2624 19.8025C7.72949 19.9451 8.15286 19.8718 8.48517 19.6524C8.81007 19.4379 9.02687 19.0982 9.12554 18.7371C9.22429 18.3757 9.21095 17.9707 9.04782 17.6135C8.88149 17.2492 8.56642 16.9515 8.10022 16.81L8.10017 16.81C7.68629 16.6844 7.30136 16.4773 6.96792 16.2004C6.63446 15.9236 6.35916 15.5826 6.15817 15.1975C5.95719 14.8123 5.83459 14.3907 5.79755 13.9572C5.76052 13.5237 5.80981 13.0872 5.94255 12.6732L5.94255 12.6732L5.94323 12.671C6.49467 10.905 8.23057 9.52372 10.0022 9.01694C11.795 8.50871 13.8532 8.8877 15.4664 9.90003C17.077 10.9106 18.2092 12.5281 18.2162 14.4742H18.2161L18.2164 14.4826C18.2467 15.4404 17.9999 16.3865 17.5061 17.206C17.0124 18.0256 16.2928 18.6834 15.4349 19.1L15.4229 19.1058L15.4114 19.1127C15.0606 19.3237 14.8067 19.6644 14.704 20.0612C14.6013 20.4579 14.6577 20.8794 14.8614 21.2348L14.8612 21.2349L14.8663 21.2431C15.0795 21.589 15.4168 21.8398 15.809 21.9436C16.1974 22.0463 16.61 21.9969 16.9632 21.8058C19.5398 20.6292 21.0193 17.9322 21.2759 15.2289L21.276 15.2289L21.2764 15.2229C21.3841 13.7823 21.1213 12.338 20.5131 11.0289C19.9053 9.72063 18.973 8.59125 17.8055 7.74926C16.636 6.87094 15.2931 6.25382 13.8668 5.93933C12.4395 5.62462 10.9618 5.62024 9.53269 5.92647Z" fill="#373B50" stroke="#373B50" stroke-width="0.6"/>
</svg>
