<svg width="24" height="25" viewBox="0 0 24 25" fill="none" xmlns="http://www.w3.org/2000/svg">
<path d="M9.53269 4.92647L9.53268 4.92642L9.52699 4.92775C8.08652 5.26592 6.74838 5.94772 5.62572 6.91537C4.50306 7.88302 3.62892 9.10804 3.07705 10.4867L3.07684 10.4867L3.07295 10.4976C2.7808 11.318 2.65818 12.1897 2.71256 13.0593C2.76694 13.929 2.99718 14.7784 3.38926 15.5557C3.78135 16.333 4.32708 17.0218 4.99316 17.5802C5.659 18.1383 6.43111 18.5542 7.2624 18.8025C7.72949 18.9451 8.15286 18.8718 8.48517 18.6524C8.81007 18.4379 9.02687 18.0982 9.12554 17.7371C9.22429 17.3757 9.21095 16.9707 9.04782 16.6135C8.88149 16.2492 8.56642 15.9515 8.10022 15.81L8.10017 15.81C7.68629 15.6844 7.30136 15.4773 6.96792 15.2004C6.63446 14.9236 6.35916 14.5826 6.15817 14.1975C5.95719 13.8123 5.83459 13.3907 5.79755 12.9572C5.76052 12.5237 5.80981 12.0872 5.94255 11.6732L5.94255 11.6732L5.94323 11.671C6.49467 9.905 8.23057 8.52372 10.0022 8.01694C11.795 7.50871 13.8532 7.8877 15.4664 8.90003C17.077 9.91064 18.2092 11.5281 18.2162 13.4742H18.2161L18.2164 13.4826C18.2467 14.4404 17.9999 15.3865 17.5061 16.206C17.0124 17.0256 16.2928 17.6834 15.4349 18.1L15.4229 18.1058L15.4114 18.1127C15.0606 18.3237 14.8067 18.6644 14.704 19.0612C14.6013 19.4579 14.6577 19.8794 14.8614 20.2348L14.8612 20.2349L14.8663 20.2431C15.0795 20.589 15.4168 20.8398 15.809 20.9436C16.1974 21.0463 16.61 20.9969 16.9632 20.8058C19.5398 19.6292 21.0193 16.9322 21.2759 14.2289L21.276 14.2289L21.2764 14.2229C21.3841 12.7823 21.1213 11.338 20.5131 10.0289C19.9053 8.72063 18.973 7.59125 17.8055 6.74926C16.636 5.87094 15.2931 5.25382 13.8668 4.93933C12.4395 4.62462 10.9618 4.62024 9.53269 4.92647Z" fill="#373B50" stroke="#373B50" stroke-width="0.6"/>
</svg>
