<svg width="24" height="25" viewBox="0 0 24 25" fill="none" xmlns="http://www.w3.org/2000/svg">
<path d="M16.9625 20.5027L16.9625 20.5026L16.9575 20.5062C15.7718 21.365 14.3764 21.8891 12.9179 22.0234C11.4596 22.1577 9.99201 21.8974 8.66918 21.2698C7.36596 20.6422 6.21997 19.7312 5.31537 18.6035C4.41095 17.476 3.77074 16.1606 3.44171 14.7538C2.09766 8.61519 7.68691 2.86159 13.7863 3.2589L13.7863 3.25911L13.7963 3.25934C14.1813 3.26825 14.5479 3.42496 14.8201 3.69682C15.0914 3.96779 15.248 4.33238 15.2579 4.71524C15.2539 5.09899 15.0995 5.46602 14.8276 5.73755C14.5567 6.00809 14.1909 6.16226 13.8079 6.16736C12.6156 6.09448 11.4233 6.3104 10.3324 6.79682C9.23997 7.28392 8.28179 8.0278 7.53959 8.96497C6.8912 9.73409 6.44875 10.655 6.25368 11.6415C6.05844 12.6289 6.11741 13.6496 6.4251 14.608C6.71816 15.5498 7.21531 16.4155 7.88116 17.1436C8.54728 17.8721 9.36589 18.445 10.2788 18.8216L10.2787 18.8217L10.2852 18.8241C11.214 19.1765 12.2234 19.2609 13.198 19.0677C14.1697 18.8751 15.0679 18.4143 15.7906 17.7375C16.5472 17.1225 17.1321 16.3227 17.4884 15.4155C17.8459 14.5056 17.9613 13.5188 17.8234 12.5511L17.8218 12.5399L17.8191 12.5289C17.7309 12.1618 17.7892 11.7747 17.9816 11.4497C18.174 11.1247 18.4855 10.8871 18.8503 10.7873C19.2151 10.6875 19.6045 10.7334 19.936 10.9152C20.2634 11.0948 20.509 11.3931 20.6223 11.7481C20.92 13.4017 20.7345 15.1062 20.0876 16.6574C19.4387 18.2132 18.3535 19.5485 16.9625 20.5027Z" fill="#373B50" stroke="#373B50" stroke-width="0.478992"/>
</svg>
