<svg width="119" height="52" viewBox="0 0 119 52" fill="none" xmlns="http://www.w3.org/2000/svg">
<path d="M75.7655 6.47325C89.4226 8.36412 104.471 13.4678 113.18 21.3105C121.473 28.758 121.24 38.6064 110.301 44.9214C99.7103 51.0235 83.8686 51.6827 71.0618 51.6387C57.5889 51.585 43.8928 50.3878 31.1834 47.3539C20.1178 44.7178 7.41414 40.5243 1.97646 32.6708C-1.77059 27.229 0.141684 21.1242 4.93089 16.2184C17.3255 3.53177 43.0212 -1.63096 63.2509 0.446081C77.0751 1.86004 89.068 7.24161 97.3918 15.069C98.1809 15.8118 96.4402 16.5931 95.6974 15.861C79.4123 0.566477 50.5969 -1.98343 26.4866 5.8692C17.2582 8.88033 8.10048 13.7694 3.80026 20.5304C-0.554308 27.3794 3.74221 33.937 11.1628 38.3871C22.018 44.8937 37.1083 47.7305 50.9834 49.1222C65.4637 50.5872 80.9872 51.0164 95.3756 48.3387C101.849 47.1354 108.204 45.0267 112.68 41.3404C118.047 36.898 118.378 30.8562 114.915 25.8429C108.194 16.0591 90.264 10.1212 75.9441 7.98286L75.2749 7.88722C73.9948 7.71443 74.4852 6.29636 75.7655 6.47325Z" fill="#FF9142"/>
</svg>
