<svg width="666" height="624" viewBox="0 0 666 624" fill="none" xmlns="http://www.w3.org/2000/svg">
<path d="M625.633 606.954C625.633 606.954 641.102 611.41 665.267 614.596L636.216 621.758C636.216 621.758 626.197 619.345 611.831 613.856C611.831 613.856 588.931 612.288 575.173 606.954C575.173 606.954 510.125 591.482 481.832 586.139C481.832 586.139 355.117 562.5 329.002 551H373.5C382.484 553 407.131 556.597 442 563C442 563 586.869 591.839 625.633 606.954Z" fill="#EEE7E0"/>
<path d="M256 551C267.966 553.301 433.502 586.139 433.502 586.139C433.502 586.139 541.002 605 566.502 611V624L361.502 589.476C361.502 589.476 247.5 572 203.5 551H256Z" fill="#EEE7E0"/>
<path d="M321.606 216.565L314.849 215.735L311.421 254.92L306.253 253.27L306.715 247.995L300.546 246.222L299.513 258.028L317.365 265.044L321.606 216.565Z" fill="#F4EFE9"/>
<path d="M326.675 217.187L345.382 219.484L343.473 226.841L333.159 225.574L332.081 237.899L342.395 239.166L338.967 263.888L322.434 265.666L323.115 257.879L334.393 255.456L335.926 245.235L324.199 245.496L326.675 217.187Z" fill="#F4EFE9"/>
<path fill-rule="evenodd" clip-rule="evenodd" d="M373.39 551C370.602 524.604 372.42 484.19 372.42 484.19C372.727 482.822 373.09 481.238 373.45 479.666L373.453 479.653L373.686 478.637C374.591 476.068 375.076 473.714 375.295 471.675C375.318 471.589 375.332 471.529 375.332 471.529C375.332 471.456 375.332 471.383 375.336 471.31C375.652 468.023 375.318 465.61 375.108 464.536C374.724 460.166 373.96 456.24 373.407 453.777C371.671 439.507 371.524 433.021 371.524 433.021C371.525 426.131 371.571 421.262 371.605 417.516C371.701 407.163 371.718 405.376 370.51 393.17C369.431 381.858 366.871 365.79 364.111 358.26C364.111 358.26 357.913 341.554 355.806 322.366C355.806 322.366 361.4 301.208 365.354 277.376C367.607 273.175 371.099 268.585 374.541 264.519C376.429 266.044 378.462 267.541 380.693 268.99C380.693 268.99 394.058 281.443 405.283 284.845C405.283 284.845 414.699 288.19 422.314 289.065C435.432 295.042 447.781 288.739 447.781 288.739C465.744 280.601 476.696 264.055 476.696 264.055C488.392 243.902 494.055 225.21 494.805 222.637C502.255 215.795 505.948 208.856 505.948 208.856C513.846 203.285 510.313 198.769 510.313 198.769C513.257 194.843 510.313 189.938 510.313 189.938C506.88 187.977 500.504 175.527 500.504 175.527C496.578 170.435 491.34 173.26 491.34 173.26C487.085 174.732 484.32 181.601 484.32 181.601C478.922 180.13 475.489 184.051 475.489 184.051C473.528 189.449 470.091 192.393 470.091 192.393C464.474 201.219 471.659 212.015 474.456 215.648C463.427 229.941 449.317 234.183 449.317 234.183C440.176 235.371 433.955 238.867 429.714 243.059C428.85 240.865 428.205 239.59 428.205 239.59C419.923 222.034 404.648 219.442 404.648 219.442C405.562 184.097 385.57 177.309 385.57 177.309C385.57 177.309 384.674 176.468 383.079 175.49C380.912 173.776 378.353 172.081 375.382 170.659C375.354 168.986 374.934 166.509 373.343 163.314C373.343 163.314 370.345 157.098 360.367 158.871C360.367 158.871 363.818 154.863 352.839 151.156C352.839 151.156 348.255 141.146 340.087 144.423C340.732 142.7 341.403 140.803 341.86 139.204C341.86 139.204 344.15 135.049 347.368 133.262C349.082 134.053 353.694 135.908 359.234 135.862C359.234 135.862 365.971 134.025 366.894 129.742C366.894 129.742 367.347 125.889 363.923 120.414C365.939 119.463 366.894 117.319 366.894 117.319C366.725 116.222 366.044 115.797 365.34 115.642C365.162 115.189 364.965 114.824 364.773 114.536C364.481 114.101 364.202 113.845 364.024 113.704C368.398 112.73 366.912 108.219 366.912 108.219C364.979 107.652 363.818 105.07 363.818 105.07C363.8 104.919 363.804 104.768 363.813 104.626C363.817 104.577 363.827 104.529 363.836 104.481C363.84 104.463 363.843 104.444 363.845 104.425C366.821 104.722 371.739 102.871 371.739 102.871C374.742 102.19 373.718 98.4331 373.718 98.4331C371.739 97.0208 370.153 94.0726 370.153 94.0726C369.015 92.1027 366.894 89.0678 366.894 89.0678C365.441 87.5366 364.517 86.3939 363.928 85.5849C364.005 83.6378 365.02 81.3342 365.02 81.3342C365.779 79.771 365.719 79.3185 365.509 79.2225C365.628 78.3998 365.381 77.7782 365.189 77.4445C365.802 77.0149 365.555 76.0139 365.555 76.0139C365.02 69.7658 362.227 63.737 362.227 63.737C361.889 62.5761 360.847 60.7478 358.685 58.2568C359.677 56.8536 361.345 54.0746 361.661 50.6694C361.661 50.6694 360.294 43.7128 351.875 40.7556C351.875 40.7556 351.646 43.2604 350.965 44.1699C350.965 44.1699 347.327 40.7556 343.456 40.7556C343.456 40.7556 344.822 42.8032 344.822 45.308C344.822 45.308 341.636 43.0319 336.86 42.5794C336.86 42.5794 337.313 44.3985 337.313 45.989L334.812 44.627C334.812 44.627 324.574 39.3935 312.741 43.2603C312.741 43.2603 297.04 50.77 287.488 55.3178C287.488 55.3178 285.664 56.7073 286.121 59.8931C286.121 59.8931 286.432 62.5989 286.048 67.1513C286.048 67.1513 285.44 63.056 283.845 61.6893C283.845 61.6893 284.073 64.0661 283.845 66.1138C283.845 66.1138 284.53 73.9754 283.845 84.6708C283.845 84.6708 284.247 84.7393 284.905 84.9085C285.051 87.043 286.349 89.9042 286.349 89.9042C286.349 89.9042 287.712 96.9568 297.04 105.829C297.04 105.829 297.397 109.823 296.94 115.966C296.94 115.966 297.008 115.98 297.104 115.994C296.579 117.657 295.93 119.618 295.148 121.908C291.45 118.178 286.24 114.732 278.858 112.543C278.858 112.543 275.27 113.027 272.793 118.732C272.793 118.732 266.947 119.129 261.75 115.674C261.75 115.674 255.031 113.457 251.416 123.439H251.224C250.141 122.895 242.872 119.595 234.761 124.317C234.761 124.317 234.549 124.449 234.199 124.774C230.25 125.364 226.159 126.168 221.938 127.224C221.938 127.224 209.502 109.567 184.5 111.167C184.5 111.167 182.881 110.71 180.075 110.399C182.052 104.229 182.318 96.5866 178.688 87.4818C178.688 87.4818 174.785 68.9568 186.678 48.864L190.204 46.2359C190.204 46.2359 193.706 44.7641 197.832 41.8754C197.832 41.8754 202.498 41.7475 206.116 38.0315C206.116 38.0315 208.366 36.4912 210.126 33.2048C211.249 31.4406 209.433 27.3407 209.433 27.3407C210.858 25.7318 210.793 24.7764 210.591 23.3001C210.617 23.2636 210.609 22.3613 210.601 21.4571C210.593 20.549 210.585 19.6391 210.612 19.6025C210.612 19.6025 216.04 14.0308 208.567 10.4154C208.567 10.4154 208.639 9.04872 207.444 5.72584C207.444 5.72584 204.698 2.88289 200.474 2.22926C200.474 2.22926 199.168 3.25771 197.343 4.81172C196.181 4.72487 191.899 4.26326 188.884 1.86824C188.884 1.86824 187.688 -0.759995 184.472 0.218154C181.078 1.25111 176.362 4.48268 169.674 10.0132C169.674 10.0132 164.958 15.5391 165.718 37.0762L165.98 40.358L165.181 41.5372C160.801 46.0439 147.774 60.0668 136.054 78.9117C136.054 78.9117 125.809 97.711 127.207 118.297C127.207 118.297 127.435 129.733 136.173 138.321C140.569 143.267 146.191 146.462 146.191 146.462C156.474 152.504 171.565 167.396 171.565 167.396C177.62 171.953 183.516 175.49 189.092 178.251C94.7596 230.727 49.9893 294.275 49.9893 294.275C41.9124 308.776 47.954 323.882 47.954 323.882C17.8354 359.216 6.5897 375.897 6.5897 375.897C-21.7257 456.345 50.376 498.053 50.376 498.053C61.1692 463.722 79.8103 425.425 79.8103 425.425C97.8402 441.303 116.497 434.982 116.497 434.982L130.357 398.289C166.26 395.037 205.996 413.737 205.996 413.737C218.644 381.089 234.552 354.256 250.689 332.646C248.902 340.129 246.708 349.109 244.889 355.961C244.889 355.961 242.218 372.981 240.854 378.052C238.828 392.503 238.394 404.466 237.934 417.105C237.631 425.461 237.317 434.112 236.525 443.972C231.823 452.034 230.745 459.618 229.918 465.436C229.387 469.172 228.959 472.179 227.743 474.116C227.743 474.116 212.981 494.689 208.5 508.337C208.368 508.877 208.235 509.416 208.101 509.958C205.936 518.73 202.088 534.13 203.686 551H256.312C260.572 539.572 261.082 531.784 262.05 522.606C262.215 521.039 262.389 519.39 262.591 517.62C262.591 517.62 263.313 498.971 265.347 479.071C265.347 479.071 268.259 473.517 270.325 465.395C271.874 464.184 274.644 456.341 274.863 454.947C274.863 454.947 279.905 448.173 285.595 439.123C285.595 439.123 297.324 427.906 306.474 397.508C309.221 433.583 333.19 466.739 333.19 466.739C333.389 470.539 334.03 472.445 334.755 474.605C335.194 475.913 335.665 477.314 336.088 479.286C335.644 483.797 335.384 487.111 335.384 487.111C334.165 495.485 333.031 502.619 332.041 508.843C328.9 528.603 327.304 539.002 329 551H373.39ZM293.839 264.386L294.219 200L356.274 207.749L345.212 270.694L319.265 274.941L293.839 264.386Z" fill="#F4EFE9"/>
</svg>
