<svg width="219" height="107" viewBox="0 0 219 107" fill="none" xmlns="http://www.w3.org/2000/svg">
<path d="M203.305 2.26623C202.664 1.26516 201.632 0.634662 200.444 0.611493C155.642 -0.26178 35.8375 35.2387 1.23151 69.4921C0.153051 70.5596 -0.0423 72.1678 0.632282 73.527L7.56091 87.4878C8.33623 89.05 7.85033 90.9444 6.4188 91.9406C4.90977 92.9907 4.4634 95.0255 5.39426 96.6108L9.87429 104.241C11.1059 106.338 14.0036 106.679 15.7801 105.017C54.0056 69.2664 156.824 34.5857 214.653 30.3009C217.478 30.0916 219.106 26.9319 217.578 24.5468L203.305 2.26623Z" fill="#FFB580"/>
<path d="M17.6658 70.9606L19.8105 69.6837L24.4269 77.4375L28.1938 75.1948L29.307 77.0645L23.3954 80.5841L17.6658 70.9606Z" fill="#514F4C"/>
<path d="M28.2387 66.8403C27.8852 67.0386 27.5446 67.1072 27.2169 67.0464C26.8934 66.971 26.6403 66.7705 26.4577 66.4448C26.2804 66.1285 26.2439 65.8126 26.3483 65.4973C26.4568 65.1674 26.6879 64.9033 27.0414 64.7051C27.4043 64.5016 27.7547 64.4396 28.0928 64.5191C28.4349 64.5841 28.6947 64.7747 28.8721 65.091C29.0547 65.4167 29.0844 65.7424 28.9614 66.0682C28.8425 66.3795 28.6015 66.6369 28.2387 66.8403ZM27.7677 68.3885L29.8471 67.2225L33.9163 74.4795L31.8369 75.6455L27.7677 68.3885Z" fill="#514F4C"/>
<path d="M39.8284 71.397C39.4802 71.5828 39.133 71.7138 38.7866 71.7898C38.4353 71.8564 38.0987 71.8486 37.7767 71.7665C37.4643 71.6794 37.1665 71.5179 36.8834 71.2821C36.5954 71.0368 36.3383 70.7025 36.1123 70.279L34.2968 66.8771L33.3369 67.3894L32.5911 65.992C32.6978 65.8746 32.8282 65.7566 32.9826 65.638C33.1413 65.5049 33.2956 65.3863 33.4455 65.2821L32.5265 63.56L34.48 62.191L35.5196 64.1389L37.7216 62.9637L38.5879 64.587L36.3718 65.7697L37.9839 68.7905C38.1848 69.1669 38.4126 69.3899 38.6674 69.4595C38.9171 69.5196 39.202 69.4643 39.5219 69.2936C39.616 69.2433 39.717 69.1834 39.8249 69.1137C39.9423 69.039 40.0524 68.9621 40.1552 68.883C40.2675 68.7989 40.3704 68.7198 40.4639 68.6458C40.5668 68.5667 40.6486 68.5049 40.7095 68.4603L41.5607 70.0553C41.4685 70.1771 41.3525 70.2995 41.2126 70.4225C41.0727 70.5455 40.9209 70.6689 40.7572 70.7925C40.6029 70.9111 40.4435 71.0204 40.2792 71.1202C40.1198 71.2294 39.9696 71.3217 39.8284 71.397Z" fill="#514F4C"/>
<path d="M47.6311 67.4446C47.0491 67.7355 46.4695 67.912 45.8923 67.9741C45.3247 68.0313 44.7832 67.986 44.2681 67.8381C43.7576 67.6759 43.2925 67.4136 42.8727 67.051C42.453 66.6885 42.1047 66.2305 41.8281 65.6772L41.7064 65.4339C41.4345 64.8901 41.2795 64.3415 41.2413 63.7882C41.2127 63.23 41.2866 62.6981 41.4631 62.1925C41.6348 61.6773 41.9091 61.2122 42.286 60.7972C42.6676 60.3679 43.1351 60.0149 43.6884 59.7382L43.8172 59.6738C44.342 59.4114 44.8667 59.2564 45.3914 59.2087C45.9257 59.1562 46.4266 59.2039 46.8941 59.3518C47.3663 59.4853 47.798 59.7167 48.1892 60.0459C48.5756 60.3655 48.8904 60.7685 49.1337 61.2551L49.6632 62.3141L44.1249 65.0833C44.435 65.5365 44.8381 65.8179 45.3342 65.9276C45.8303 66.0373 46.3551 65.9538 46.9084 65.6772L46.9943 65.6342C47.4427 65.41 47.81 65.119 48.0962 64.7613C48.3824 64.4035 48.578 64.0433 48.6829 63.6808L50.3931 64.4894C50.3025 64.7613 50.1713 65.0356 49.9995 65.3122C49.8374 65.5841 49.6418 65.8489 49.4128 66.1065C49.1838 66.3641 48.931 66.5978 48.6543 66.8077C48.392 67.0224 48.1129 67.2037 47.8171 67.3515L47.6311 67.4446ZM46.9943 62.0208C46.7319 61.5676 46.3741 61.2694 45.9209 61.1263C45.4773 60.9784 45.017 61.0238 44.5399 61.2623L44.497 61.2837C44.0486 61.508 43.7385 61.8419 43.5668 62.2855C43.3903 62.7196 43.3784 63.2086 43.531 63.7524L46.9943 62.0208Z" fill="#514F4C"/>
<path d="M50.4848 56.3612L52.207 55.5493C52.3235 55.6713 52.451 55.8294 52.5897 56.0234C52.7238 56.2078 52.8392 56.3775 52.9358 56.5324C53.0661 56.0583 53.298 55.6247 53.6315 55.2316C53.9651 54.8385 54.3972 54.5169 54.9278 54.2667L55.116 54.178L56.0711 56.2041C55.9849 56.2212 55.8889 56.2429 55.7834 56.2691C55.6732 56.2856 55.5651 56.3189 55.459 56.3689C54.8318 56.6646 54.4247 57.0393 54.2377 57.493C54.0558 57.9325 54.0808 58.3984 54.3127 58.8904L56.189 62.8703L54.0326 63.8869L50.4848 56.3612Z" fill="#514F4C"/>
<path d="M63.1594 60.0466C62.7698 60.2207 62.3904 60.3259 62.0212 60.3624C61.6519 60.3989 61.3069 60.372 60.9862 60.2816C60.6611 60.1816 60.3694 60.0256 60.1112 59.8139C59.8584 59.588 59.6559 59.3047 59.5036 58.9638L59.4448 58.8324C58.7094 57.1865 59.856 55.6869 62.8848 54.3336L63.4545 54.079L63.3566 53.8599C63.2043 53.519 62.9655 53.2986 62.6404 53.1985C62.3153 53.0984 61.919 53.1528 61.4516 53.3617L61.3932 53.3878C61.0133 53.5575 60.6397 53.8063 60.2721 54.1341C59.9099 54.4478 59.5743 54.8081 59.2654 55.2148L57.7604 54.0823C58.1017 53.591 58.5275 53.132 59.0378 52.7053C59.5535 52.2646 60.1182 51.9071 60.7317 51.633L60.8632 51.5742C61.3501 51.3567 61.8215 51.222 62.2774 51.1702C62.7332 51.1183 63.1567 51.1511 63.548 51.2683C63.9489 51.3813 64.31 51.5879 64.6312 51.8884C64.9577 52.1747 65.2254 52.5516 65.4343 53.0191L66.8247 56.1306C66.9639 56.4422 67.121 56.7284 67.2959 56.989C67.4708 57.2497 67.6603 57.5038 67.8644 57.7514L65.8193 58.6653C65.7183 58.5702 65.6206 58.4561 65.5261 58.3231C65.4273 58.1803 65.3312 58.0305 65.2377 57.8737C65.0804 58.3061 64.8311 58.7154 64.4896 59.1017C64.1481 59.4879 63.7047 59.8029 63.1594 60.0466ZM62.9769 58.1479C63.3372 57.9868 63.6573 57.762 63.9373 57.4734C64.2128 57.175 64.4158 56.8448 64.5461 56.4828L64.037 55.3434L63.5111 55.5784C61.8263 56.3312 61.1449 57.0679 61.4669 57.7886L61.4865 57.8324C61.5953 58.0759 61.7868 58.2298 62.0609 58.2943C62.3307 58.349 62.636 58.3002 62.9769 58.1479Z" fill="#514F4C"/>
<path d="M67.8003 45.2346L69.994 44.3012L74.5041 54.9017L72.3104 55.835L67.8003 45.2346Z" fill="#514F4C"/>
<path d="M73.2192 42.954L75.4235 42.0459L79.8114 52.6975L77.6072 53.6056L73.2192 42.954Z" fill="#514F4C"/>
<path d="M85.6831 53.8448C85.4547 53.9345 85.1888 54.016 84.8853 54.0893C84.5917 54.1587 84.3093 54.1837 84.038 54.1641L83.307 52.3025C83.5148 52.3355 83.7178 52.3418 83.916 52.3212C84.1181 52.3106 84.3234 52.2644 84.5319 52.1825C85.078 51.9681 85.4236 51.5058 85.5688 50.7956L79.126 43.9745L81.4642 43.0564L85.7235 47.9502L85.8277 47.9093L85.2619 41.5652L87.4959 40.688L87.9298 50.0232C87.9436 50.3502 87.9295 50.6937 87.8876 51.054C87.8457 51.4142 87.7494 51.7672 87.5986 52.1129C87.4479 52.4585 87.22 52.7829 86.915 53.086C86.61 53.3891 86.1994 53.6421 85.6831 53.8448Z" fill="#514F4C"/>
<path d="M93.2317 44.7518L95.4336 43.925L95.507 48.8538L93.7994 49.495L93.2317 44.7518Z" fill="#514F4C"/>
<path d="M106.754 42.6131C106.382 42.7442 106.019 42.8212 105.665 42.844C105.308 42.8567 104.976 42.7982 104.67 42.6684C104.374 42.5351 104.104 42.3305 103.86 42.0546C103.613 41.7686 103.409 41.3992 103.25 40.9465L101.969 37.3094L100.943 37.6708L100.416 36.1767C100.54 36.0768 100.686 35.9799 100.857 35.8859C101.034 35.7783 101.204 35.6844 101.368 35.604L100.72 33.7629L102.858 32.7047L103.591 34.7873L105.946 33.9583L106.557 35.6939L104.187 36.5282L105.325 39.7578C105.466 40.1603 105.658 40.4151 105.899 40.5224C106.137 40.6196 106.427 40.608 106.769 40.4875C106.87 40.4521 106.978 40.4081 107.096 40.3555C107.223 40.2994 107.343 40.24 107.457 40.1774C107.581 40.1112 107.694 40.0486 107.798 39.9895C107.912 39.9268 108.002 39.8781 108.069 39.8432L108.669 41.5486C108.56 41.655 108.426 41.7584 108.27 41.8589C108.113 41.9594 107.944 42.0584 107.763 42.1559C107.593 42.2498 107.419 42.3337 107.241 42.4076C107.067 42.4915 106.905 42.56 106.754 42.6131Z" fill="#514F4C"/>
<path d="M115.686 39.6314C115.069 39.837 114.465 39.9313 113.874 39.9143C113.281 39.8872 112.733 39.7605 112.23 39.5344C111.738 39.3049 111.304 38.9827 110.93 38.5677C110.556 38.1527 110.274 37.6619 110.085 37.0951L109.984 36.7915C109.796 36.2248 109.727 35.6632 109.777 35.1066C109.828 34.5501 109.982 34.0323 110.238 33.5534C110.505 33.0711 110.869 32.6462 111.331 32.2787C111.79 31.901 112.328 31.6093 112.946 31.4037L113.082 31.3582C113.7 31.1526 114.305 31.0634 114.899 31.0905C115.489 31.1075 116.03 31.2308 116.523 31.4603C117.025 31.6864 117.464 32.0069 117.838 32.4219C118.212 32.8369 118.494 33.3278 118.683 33.8945L118.784 34.1981C118.972 34.7648 119.041 35.3265 118.991 35.883C118.94 36.4396 118.781 36.959 118.515 37.4413C118.258 37.9202 117.901 38.3485 117.442 38.7261C116.98 39.0937 116.44 39.3803 115.823 39.5859L115.686 39.6314ZM115.246 37.9059C115.529 37.8116 115.769 37.67 115.965 37.4811C116.167 37.2788 116.321 37.0478 116.425 36.7881C116.527 36.5182 116.576 36.2265 116.572 35.9128C116.576 35.5856 116.52 35.2499 116.406 34.9059L116.355 34.7541C116.24 34.41 116.085 34.1131 115.89 33.8634C115.701 33.6003 115.487 33.3962 115.247 33.2511C115.004 33.0958 114.743 33.003 114.463 32.9726C114.19 32.9287 113.912 32.9539 113.628 33.0483L113.522 33.0837C113.239 33.1781 112.996 33.3264 112.793 33.5288C112.598 33.7176 112.449 33.9469 112.348 34.2168C112.243 34.4765 112.189 34.7699 112.186 35.0971C112.179 35.4142 112.233 35.7447 112.347 36.0888L112.398 36.2406C112.513 36.5847 112.669 36.8866 112.868 37.1464C113.064 37.3961 113.283 37.5985 113.526 37.7537C113.765 37.8988 114.022 37.9933 114.295 38.0373C114.575 38.0677 114.856 38.0357 115.14 37.9413L115.246 37.9059Z" fill="#514F4C"/>
<path d="M121.009 28.9379L122.813 28.3839C122.908 28.511 123.01 28.6805 123.12 28.8923C123.24 29.101 123.332 29.2904 123.395 29.4607C123.589 28.9659 123.869 28.534 124.236 28.1649C124.599 27.7856 125.041 27.5161 125.561 27.3565L125.576 27.3518C126.147 27.1765 126.664 27.1518 127.127 27.2776C127.586 27.3932 127.987 27.644 128.328 28.0301C128.513 27.5048 128.791 27.0458 129.161 26.6532C129.542 26.2574 130.002 25.9766 130.543 25.8107L130.558 25.806C131.404 25.5463 132.133 25.6126 132.745 26.0052C133.353 26.3875 133.804 27.058 134.098 28.0165L135.666 33.1253L133.387 33.8248L131.946 29.129C131.771 28.5579 131.553 28.1951 131.294 28.0404C131.034 27.8857 130.699 27.8659 130.288 27.9809L130.273 27.9856C129.841 28.1406 129.532 28.4082 129.348 28.7884C129.163 29.1686 129.168 29.6748 129.362 30.3071L130.7 34.6663L128.421 35.3659L126.975 30.6548C126.8 30.0837 126.584 29.726 126.328 29.5815C126.068 29.4268 125.728 29.4086 125.306 29.5267L125.291 29.5314C124.866 29.673 124.563 29.9391 124.381 30.3295C124.197 30.7097 124.2 31.2108 124.391 31.8329L125.729 36.1921L123.45 36.8917L121.009 28.9379Z" fill="#514F4C"/>
<path d="M143.09 31.2322C142.464 31.4084 141.856 31.474 141.268 31.429C140.676 31.3738 140.134 31.2214 139.643 30.9717C139.162 30.7192 138.745 30.3768 138.39 29.9445C138.036 29.5123 137.778 29.0087 137.616 28.4336L137.53 28.1256C137.368 27.5506 137.326 26.9863 137.403 26.4328C137.48 25.8792 137.658 25.3694 137.937 24.9031C138.226 24.434 138.61 24.0268 139.089 23.6816C139.565 23.326 140.116 23.0602 140.743 22.884L140.881 22.8451C141.508 22.6689 142.117 22.6084 142.708 22.6637C143.297 22.7086 143.832 22.8573 144.313 23.1099C144.804 23.3596 145.227 23.7005 145.581 24.1327C145.936 24.565 146.194 25.0686 146.355 25.6437L146.442 25.9517C146.604 26.5267 146.646 27.091 146.569 27.6445C146.492 28.1981 146.309 28.7094 146.02 29.1785C145.741 29.6447 145.363 30.0556 144.887 30.4111C144.408 30.7564 143.855 31.0171 143.229 31.1932L143.09 31.2322ZM142.733 29.4879C143.02 29.407 143.266 29.2769 143.471 29.0976C143.682 28.905 143.847 28.6815 143.964 28.4271C144.077 28.1624 144.14 27.8732 144.152 27.5597C144.171 27.2331 144.131 26.8952 144.033 26.5461L143.99 26.392C143.891 26.0429 143.751 25.739 143.567 25.4804C143.391 25.2086 143.187 24.9946 142.954 24.8383C142.719 24.6717 142.462 24.5666 142.184 24.523C141.913 24.4662 141.634 24.4782 141.347 24.5591L141.239 24.5894C140.951 24.6702 140.702 24.8069 140.49 24.9995C140.286 25.1788 140.126 25.4009 140.012 25.6656C139.896 25.9201 139.828 26.2106 139.809 26.5373C139.787 26.8537 139.825 27.1864 139.923 27.5355L139.967 27.6896C140.065 28.0387 140.207 28.3477 140.394 28.6166C140.577 28.8753 140.786 29.0879 141.022 29.2544C141.254 29.4107 141.506 29.5172 141.776 29.574C142.055 29.6177 142.337 29.5991 142.625 29.5182L142.733 29.4879Z" fill="#514F4C"/>
<path d="M148.247 21.0117L150.088 20.5275C150.18 20.6687 150.277 20.8473 150.378 21.0634C150.476 21.2692 150.559 21.4571 150.625 21.627C150.84 21.1846 151.147 20.8005 151.547 20.4748C151.946 20.1492 152.43 19.9117 152.997 19.7625L153.198 19.7096L153.768 21.876C153.68 21.8771 153.582 21.8809 153.473 21.8874C153.362 21.8835 153.25 21.8965 153.136 21.9264C152.465 22.1027 151.997 22.3969 151.73 22.8089C151.471 23.2079 151.411 23.6704 151.549 24.1965L152.668 28.4519L150.362 29.0582L148.247 21.0117Z" fill="#514F4C"/>
<path d="M156.078 18.9842L157.926 18.5264C158.016 18.6689 158.11 18.8489 158.208 19.0664C158.303 19.2736 158.383 19.4626 158.447 19.6335C158.668 19.1942 158.981 18.8146 159.385 18.4946C159.789 18.1747 160.276 17.9442 160.845 17.8032L161.047 17.7532L161.586 19.9275C161.498 19.9273 161.4 19.9297 161.291 19.9346C161.18 19.9292 161.067 19.9406 160.953 19.9688C160.28 20.1355 159.808 20.4229 159.535 20.8311C159.27 21.2263 159.203 21.688 159.334 22.216L160.392 26.4869L158.078 27.0601L156.078 18.9842Z" fill="#514F4C"/>
<path d="M170.03 24.3831C169.396 24.5275 168.786 24.5624 168.2 24.4879C167.612 24.403 167.078 24.2235 166.6 23.9494C166.133 23.673 165.733 23.31 165.401 22.8605C165.069 22.411 164.836 21.895 164.704 21.3126L164.633 21.0005C164.5 20.4181 164.486 19.8524 164.591 19.3035C164.696 18.7545 164.899 18.2543 165.201 17.8026C165.514 17.3487 165.918 16.9613 166.414 16.6406C166.907 16.3095 167.471 16.0717 168.106 15.9273L168.246 15.8954C168.88 15.751 169.492 15.7212 170.08 15.8061C170.666 15.8807 171.192 16.0561 171.66 16.3326C172.138 16.6066 172.543 16.9684 172.875 17.418C173.207 17.8675 173.44 18.3834 173.572 18.9659L173.643 19.2779C173.776 19.8603 173.79 20.426 173.685 20.975C173.58 21.5239 173.372 22.0254 173.059 22.4794C172.757 22.931 172.359 23.3223 171.866 23.6534C171.37 23.9742 170.805 24.2067 170.171 24.3511L170.03 24.3831ZM169.761 22.623C170.052 22.5567 170.304 22.4391 170.517 22.2703C170.739 22.0886 170.914 21.8737 171.043 21.6254C171.17 21.3668 171.248 21.0812 171.275 20.7687C171.31 20.4434 171.288 20.1039 171.207 19.7503L171.172 19.5943C171.091 19.2407 170.966 18.9301 170.796 18.6625C170.633 18.3822 170.44 18.1582 170.216 17.9904C169.989 17.8122 169.738 17.6943 169.463 17.6368C169.195 17.5664 168.916 17.5644 168.624 17.6306L168.515 17.6555C168.224 17.7218 167.968 17.8457 167.747 18.0274C167.533 18.1962 167.363 18.41 167.236 18.6686C167.107 18.9169 167.024 19.2037 166.989 19.5289C166.951 19.8438 166.973 20.1781 167.053 20.5317L167.089 20.6877C167.169 21.0413 167.296 21.3571 167.468 21.6351C167.639 21.9026 167.837 22.1255 168.064 22.3037C168.288 22.4714 168.534 22.5905 168.801 22.6609C169.077 22.7184 169.36 22.7141 169.652 22.6478L169.761 22.623Z" fill="#514F4C"/>
<path d="M174.722 14.599L177.06 14.1353L179.207 19.6144L179.364 19.5833L179.76 13.6001L181.941 13.1675L184.578 18.5659L184.735 18.5348L184.625 12.6354L186.964 12.1717L186.714 20.7032L184.077 21.2259L181.447 16.2669L181.384 16.2793L180.844 21.867L178.208 22.3898L174.722 14.599Z" fill="#514F4C"/>
</svg>
