<svg width="143" height="89" viewBox="0 0 143 89" fill="none" xmlns="http://www.w3.org/2000/svg">
<path d="M1.59576 3.81627C0.942501 4.03953 0.593913 4.75008 0.817168 5.40334C1.04042 6.0566 1.75098 6.40519 2.40424 6.18194L1.59576 3.81627ZM141.618 85.9416C105.431 13.5673 41.8654 -9.94612 1.59576 3.81627L2.40424 6.18194C41.1346 -7.05437 103.569 15.4324 139.382 87.0596L141.618 85.9416Z" fill="#FF9142"/>
<path fill-rule="evenodd" clip-rule="evenodd" d="M139.1 83.992C137.184 82.6969 134.797 81.0443 134.521 80.8649C127.036 76.0026 119.218 72.594 110.644 70.2413C109.948 70.0494 109.231 70.4763 109.045 71.1911C108.858 71.9058 109.273 72.6423 109.969 72.8341C118.284 75.1129 125.867 78.4165 133.127 83.134C133.551 83.4086 138.915 87.127 140.054 87.7952C140.52 88.0715 140.868 88.079 140.95 88.0728C141.387 88.0567 141.664 87.8602 141.847 87.6672C142.052 87.4476 142.304 87.0004 142.272 86.3333C142.237 85.6353 141.818 84.2134 141.741 83.8457C140.588 78.2945 138.83 72.2021 138.321 66.2375C137.835 60.5493 138.486 54.9705 142.108 50.1627C142.549 49.5778 142.443 48.7336 141.874 48.2801C141.304 47.8265 140.483 47.9359 140.041 48.5208C135.993 53.8968 135.177 60.1138 135.719 66.4703C136.226 72.3997 137.927 78.4522 139.1 83.992Z" fill="#FF9142"/>
</svg>
