<svg width="175" height="190" viewBox="0 0 175 190" fill="none" xmlns="http://www.w3.org/2000/svg">
<path d="M18.9752 105.803L17.9457 106.512L18.9752 105.803ZM136.478 68.3027L136.055 67.1266L136.478 68.3027ZM120.755 176.824C121.319 177.222 122.099 177.087 122.497 176.523C122.895 175.959 122.76 175.179 122.196 174.781L120.755 176.824ZM158.536 14.1582C158.158 12.9668 158.157 12.9671 158.156 12.9675C158.154 12.9679 158.152 12.9686 158.15 12.9694C158.144 12.9711 158.137 12.9736 158.126 12.9768C158.106 12.9834 158.075 12.9931 158.035 13.006C157.954 13.0318 157.834 13.0702 157.677 13.1211C157.361 13.2227 156.894 13.3739 156.286 13.5726C155.071 13.9701 153.294 14.5576 151.042 15.3189C146.539 16.8414 140.137 19.0593 132.539 21.8422C117.346 27.4065 97.3557 35.2353 78.1924 44.2855C59.054 53.3239 40.6404 63.6263 28.6726 74.1597C22.6944 79.4213 18.2199 84.83 16.1267 90.2645C14.0032 95.7776 14.3492 101.289 17.9457 106.512L20.0047 105.094C16.9149 100.607 16.6074 95.9719 18.4596 91.1631C20.3421 86.2757 24.4722 81.187 30.3243 76.0364C42.0167 65.7453 60.1649 55.564 79.26 46.5461C98.3299 37.54 118.244 29.7401 133.399 24.1897C140.974 21.4151 147.356 19.2042 151.843 17.6872C154.086 16.9287 155.856 16.3438 157.063 15.9488C157.667 15.7513 158.131 15.6012 158.443 15.5007C158.599 15.4504 158.717 15.4125 158.796 15.3872C158.836 15.3746 158.866 15.3651 158.885 15.3588C158.895 15.3557 158.903 15.3534 158.907 15.3518C158.91 15.351 158.912 15.3505 158.913 15.3501C158.914 15.3497 158.914 15.3496 158.536 14.1582ZM17.9457 106.512C20.6912 110.499 23.9701 113.193 27.7142 114.768C31.449 116.34 35.5683 116.766 39.9544 116.345C48.6819 115.506 58.658 111.288 69.2248 105.702C79.7997 100.112 91.1719 93.0351 102.616 86.4029C114.101 79.747 125.705 73.5098 136.902 69.4788L136.055 67.1266C124.635 71.2381 112.868 77.5721 101.363 84.2399C89.8164 90.9312 78.5779 97.9301 68.0564 103.492C57.5269 109.058 47.921 113.068 39.7152 113.856C35.6346 114.249 31.9495 113.838 28.6839 112.464C25.4275 111.094 22.5099 108.732 20.0047 105.094L17.9457 106.512ZM136.902 69.4788C137.274 69.3446 137.402 69.3352 137.382 69.3357C137.374 69.3359 137.173 69.3452 136.933 69.202C136.62 69.0148 136.452 68.6987 136.419 68.4096C136.405 68.2919 136.416 68.2017 136.425 68.153C136.434 68.1031 136.445 68.0738 136.446 68.0697C136.448 68.0653 136.434 68.1023 136.381 68.1904C136.276 68.3663 136.09 68.6246 135.804 68.9779C134.647 70.4101 132.388 72.7558 129.42 75.9523C123.55 82.2764 115.167 91.663 108.411 102.648C101.666 113.617 96.4587 126.314 97.1177 139.241C97.7809 152.249 104.37 165.266 120.755 176.824L122.196 174.781C106.33 163.589 100.232 151.231 99.6145 139.114C98.9926 126.916 103.911 114.738 110.541 103.958C117.161 93.1924 125.404 83.9541 131.253 77.6531C134.145 74.5371 136.519 72.0704 137.749 70.5495C138.06 70.1645 138.33 69.8007 138.525 69.4764C138.622 69.3144 138.719 69.1317 138.791 68.9387C138.855 68.7638 138.942 68.4707 138.903 68.1275C138.856 67.7129 138.63 67.3032 138.214 67.055C137.872 66.8507 137.524 66.8315 137.321 66.8364C136.912 66.8464 136.463 66.9796 136.055 67.1266L136.902 69.4788Z" fill="#FF9142"/>
<path d="M121.864 175.187L121.863 175.187L121.863 175.187L121.863 175.188C119.808 174.292 116.937 173.049 116.408 172.854C108.501 169.907 100.648 168.329 92.5026 166.692C91.464 166.483 90.4207 166.274 89.372 166.06C88.7653 165.937 88.1732 166.336 88.052 166.952C87.9309 167.568 88.326 168.169 88.9329 168.295C90.0194 168.517 91.0999 168.734 92.1754 168.95C100.166 170.554 107.874 172.101 115.638 174.993C115.9 175.091 116.588 175.412 117.461 175.82C117.871 176.012 118.321 176.222 118.786 176.437C120.245 177.111 121.858 177.832 122.859 178.162C123.483 178.37 123.96 178.423 124.205 178.392C124.503 178.353 124.716 178.233 124.868 178.102C125.051 177.947 125.401 177.568 125.239 176.905C125.222 176.834 125.169 176.707 125.098 176.555C125.028 176.403 124.939 176.225 124.851 176.052C124.744 175.843 124.637 175.641 124.562 175.498C124.512 175.405 124.477 175.337 124.463 175.31C124.003 174.402 123.525 173.506 123.048 172.61C122.083 170.801 121.12 168.994 120.306 167.099C117.621 160.844 116.116 153.766 116.634 146.936C116.681 146.31 116.22 145.762 115.6 145.712L115.6 145.712C114.984 145.665 114.445 146.134 114.396 146.763C113.854 153.96 115.42 161.419 118.249 168.011C119.072 169.928 120.044 171.756 121.018 173.586C121.302 174.119 121.585 174.651 121.865 175.186L121.864 175.187Z" fill="#FF9142" stroke="#FF9142" stroke-width="0.00221344"/>
</svg>
