<svg width="131" height="112" viewBox="0 0 131 112" fill="none" xmlns="http://www.w3.org/2000/svg">
<path d="M128.458 54.1881C128.838 54.7643 129.614 54.9232 130.19 54.543C130.766 54.1629 130.925 53.3875 130.545 52.8113L128.458 54.1881ZM82.0015 1.49969L82.1059 2.74532L82.0015 1.49969ZM69.0015 86.9997L69.5128 88.1403L69.0015 86.9997ZM24.0015 83.9997L23.2936 82.9694L24.0015 83.9997ZM82.1059 2.74532C83.251 2.64936 84.8736 3.17944 86.9673 4.49233C89.019 5.77887 91.3421 7.70082 93.8322 10.0855C98.8079 14.8508 104.312 21.3296 109.456 27.8789C114.594 34.4207 119.345 40.9994 122.814 45.9451C124.548 48.4173 125.96 50.4798 126.938 51.9235C127.427 52.6454 127.808 53.2124 128.066 53.5986C128.195 53.7917 128.293 53.9395 128.359 54.0388C128.392 54.0885 128.417 54.1261 128.434 54.1511C128.442 54.1636 128.448 54.1729 128.452 54.1791C128.454 54.1822 128.456 54.1845 128.457 54.186C128.457 54.1868 128.458 54.1873 128.458 54.1877C128.458 54.188 128.458 54.1881 129.501 53.4997C130.545 52.8113 130.545 52.811 130.544 52.8105C130.544 52.8101 130.544 52.8094 130.543 52.8085C130.542 52.8068 130.54 52.8042 130.538 52.8009C130.534 52.7943 130.527 52.7844 130.518 52.7714C130.501 52.7454 130.476 52.7069 130.442 52.6562C130.375 52.5549 130.275 52.405 130.145 52.2098C129.884 51.8194 129.5 51.2478 129.008 50.5212C128.023 49.068 126.603 46.9943 124.861 44.5096C121.376 39.5417 116.597 32.9239 111.422 26.3348C106.253 19.7532 100.664 13.1666 95.5614 8.28C93.0124 5.83883 90.5504 3.7883 88.2954 2.3743C86.0825 0.986657 83.8769 0.0881439 81.8971 0.254052L82.1059 2.74532ZM69.5128 88.1403C71.807 87.1119 73.2589 84.7727 74.2118 81.9132C75.1761 79.0194 75.7184 75.3281 76.0063 71.185C76.5822 62.8955 76.1559 52.4651 75.8132 42.3042C75.4687 32.0874 75.2092 22.1539 76.079 14.6907C76.5149 10.9509 77.2227 7.95297 78.2719 5.88055C79.306 3.83819 80.5652 2.87442 82.1059 2.74532L81.8971 0.254052C79.1877 0.481098 77.3063 2.25319 76.0415 4.75129C74.792 7.21934 74.0427 10.5665 73.5958 14.4013C72.7 22.0873 72.9717 32.221 73.3147 42.3885C73.6595 52.6121 74.077 62.8833 73.5123 71.0118C73.2298 75.0777 72.7058 78.5246 71.84 81.1229C70.9628 83.7555 69.8209 85.2625 68.4901 85.859L69.5128 88.1403ZM8.50146 108.5C9.68874 108.891 9.68869 108.891 9.68866 108.891C9.68869 108.891 9.68868 108.891 9.68872 108.891C9.68881 108.891 9.68898 108.89 9.68924 108.889C9.68977 108.888 9.69065 108.885 9.69189 108.881C9.69436 108.874 9.69826 108.862 9.70358 108.846C9.71421 108.815 9.73051 108.766 9.7524 108.703C9.79618 108.575 9.86233 108.385 9.9503 108.139C10.1263 107.648 10.3894 106.935 10.7354 106.058C11.4279 104.303 12.4497 101.896 13.7656 99.2876C16.4244 94.0184 20.1825 88.1403 24.7093 85.0299L23.2936 82.9694C18.2154 86.4586 14.2235 92.8305 11.5336 98.1614C10.1752 100.854 9.12281 103.334 8.40985 105.141C8.05311 106.045 7.78067 106.783 7.59675 107.296C7.50477 107.553 7.43489 107.754 7.38763 107.892C7.364 107.96 7.34602 108.014 7.33376 108.05C7.32763 108.068 7.32293 108.082 7.31966 108.092C7.31803 108.097 7.31676 108.101 7.31584 108.104C7.31539 108.105 7.31502 108.106 7.31475 108.107C7.31461 108.107 7.31447 108.108 7.3144 108.108C7.31428 108.108 7.31419 108.109 8.50146 108.5ZM24.7093 85.0299C31.3595 80.4606 37.9646 82.6999 45.4639 85.6257C52.7611 88.4726 60.9134 91.9953 69.5128 88.1403L68.4901 85.859C61.0179 89.2087 53.9283 86.2444 46.3725 83.2966C39.0188 80.4277 31.1597 77.5647 23.2936 82.9694L24.7093 85.0299Z" fill="#FF9142"/>
<path fill-rule="evenodd" clip-rule="evenodd" d="M8.03594 108.92C7.93673 108.757 7.73794 108.313 7.63874 107.946C7.04353 106.162 6.4489 103.394 6.25049 102.582C4.06805 95.3971 2.28242 87.3548 2.28242 79.6591C2.28242 79.0139 1.78583 78.4914 1.19062 78.4927C0.496203 78.4939 0 79.0177 0 79.6629C0 87.5812 1.88484 95.8576 3.96808 103.251C4.26568 104.074 4.86089 106.884 5.4561 108.696C5.65451 109.347 5.85349 109.886 6.0519 110.225C6.2503 110.504 6.44832 110.695 6.64672 110.815C7.04353 111.126 7.63932 111.278 8.23453 111.258C8.92895 111.235 9.72237 111.001 10.516 110.604C12.2024 109.827 14.1863 108.406 15.7735 107.283C16.6663 106.638 17.4601 106.087 17.9561 105.919C22.2218 104.476 26.8839 106.014 30.4552 111.009C30.852 111.527 31.547 111.64 32.043 111.258C32.539 110.876 32.638 110.143 32.3404 109.623C27.9755 103.633 22.42 101.967 17.2615 103.7C15.9719 104.117 13.1946 106.423 10.7146 107.895C9.92097 108.316 9.22597 108.663 8.63076 108.833C8.43235 108.882 8.33315 108.916 8.13475 108.921C8.13475 108.924 8.03594 108.927 8.03594 108.92Z" fill="#FF9142"/>
</svg>
