<svg width="180" height="180" viewBox="0 0 180 180" fill="none" xmlns="http://www.w3.org/2000/svg">
<rect width="180" height="180" rx="90" fill="white"/>
<path d="M30.3587 75.9227L30.552 110.063L32.3556 113.784C34.6101 118.484 39.5057 123.902 44.6589 127.623C48.9747 130.756 58.6369 135.848 60.1829 135.848C61.0847 135.848 61.2135 132.257 61.0203 101.12C60.827 67.3713 60.7626 66.2616 59.4743 63.3894C57.4775 59.0811 52.7107 54.0547 46.6557 50.0075C41.6314 46.613 32.42 41.8478 30.874 41.8478C30.3587 41.8478 30.2299 51.5089 30.3587 75.9227Z" fill="#060A21"/>
<path d="M117.831 78.0113C117.831 115.872 117.767 114.958 122.082 120.899C123.306 122.661 126.591 125.795 129.361 127.883C134.321 131.67 145.658 137.806 147.72 137.806C148.686 137.806 148.75 134.933 148.75 105.95C148.75 71.4182 148.621 69.6557 145.143 63.7155C143.082 60.1252 137.22 54.1849 132.646 51.1169C128.653 48.4405 119.892 43.871 118.668 43.8058C118.024 43.8058 117.831 51.0516 117.831 78.0113Z" fill="#060A21"/>
<path d="M74.8649 21.4153C74.6073 22.7862 74.3496 28.5959 74.3496 34.3403C74.3496 46.1556 75.1226 49.8764 78.6654 55.2945C80.469 57.9709 82.5947 59.6028 91.7417 65.4778C97.7967 69.3292 102.885 72.4625 103.208 72.4625C103.465 72.5278 103.594 64.2375 103.53 54.1195L103.336 35.7111L89.9381 27.3556C82.5947 22.7862 76.2821 19 75.96 19C75.6379 19 75.1226 20.1098 74.8649 21.4153Z" fill="#FF9142"/>
<path d="M75.3138 125.925V144.073L89.0342 152.559C96.5064 157.259 102.883 160.98 103.141 160.718C103.399 160.523 103.914 156.867 104.365 152.689C105.718 138.85 103.528 127.819 98.2456 122.4C95.7978 119.92 77.3107 107.778 75.8936 107.778C75.5715 107.778 75.3138 115.089 75.3138 125.925Z" fill="#FF9142"/>
</svg>
