<svg width="32" height="32" viewBox="0 0 32 32" fill="none" xmlns="http://www.w3.org/2000/svg">
<rect width="32" height="32" rx="16" fill="white"/>
<path d="M5.46371 13.5195L5.49806 19.5889L5.8187 20.2504C6.21951 21.0859 7.08983 22.0491 8.00595 22.7106C8.77321 23.2677 10.4909 24.1729 10.7658 24.1729C10.9261 24.1729 10.949 23.5346 10.9146 17.999C10.8803 11.9993 10.8688 11.802 10.6398 11.2914C10.2848 10.5255 9.4374 9.63188 8.36095 8.91237C7.46773 8.30892 5.83016 7.46176 5.55532 7.46176C5.46371 7.46176 5.4408 9.17929 5.46371 13.5195Z" fill="#060A21"/>
<path d="M21.0144 13.8909C21.0144 20.6217 21.003 20.4593 21.7702 21.5153C21.9878 21.8287 22.5718 22.3857 23.0642 22.757C23.946 23.4301 25.9615 24.521 26.3279 24.521C26.4997 24.521 26.5112 24.0104 26.5112 18.8578C26.5112 12.7188 26.4883 12.4055 25.8699 11.3494C25.5034 10.7111 24.4613 9.65509 23.6483 9.10965C22.9383 8.63385 21.3809 7.82151 21.1633 7.8099C21.0488 7.8099 21.0144 9.09805 21.0144 13.8909Z" fill="#060A21"/>
<path d="M13.3758 3.82966C13.33 4.07337 13.2842 5.1062 13.2842 6.12744C13.2842 8.22793 13.4216 8.88941 14.0514 9.85262C14.3721 10.3284 14.75 10.6185 16.3761 11.663C17.4525 12.3477 18.3572 12.9047 18.4145 12.9047C18.4603 12.9163 18.4832 11.4425 18.4717 9.64373L18.4374 6.37114L16.0555 4.88571C14.75 4.07337 13.6277 3.40028 13.5705 3.40028C13.5132 3.40028 13.4216 3.59756 13.3758 3.82966Z" fill="#FF9142"/>
<path d="M13.4557 22.409V25.6351L15.8949 27.1438C17.2233 27.9793 18.357 28.6408 18.4028 28.5944C18.4486 28.5596 18.5402 27.9097 18.6203 27.167C18.8608 24.7067 18.4715 22.7455 17.5324 21.7823C17.0973 21.3413 13.8107 19.1828 13.5588 19.1828C13.5015 19.1828 13.4557 20.4825 13.4557 22.409Z" fill="#FF9142"/>
</svg>
