<svg width="16" height="16" viewBox="0 0 16 16" fill="none" xmlns="http://www.w3.org/2000/svg">
<rect width="16" height="16" rx="8" fill="white"/>
<path d="M2.53322 6.74987L2.55104 9.89896L2.71741 10.2422C2.92537 10.6757 3.37693 11.1755 3.85226 11.5187C4.25035 11.8077 5.1416 12.2773 5.2842 12.2773C5.36738 12.2773 5.37926 11.9462 5.36144 9.07406C5.34361 5.96109 5.33767 5.85873 5.21884 5.59379C5.03465 5.19639 4.59497 4.73276 4.03645 4.35944C3.573 4.04634 2.72335 3.60679 2.58075 3.60679C2.53322 3.60679 2.52133 4.49793 2.53322 6.74987Z" fill="#060A21"/>
<path d="M10.6016 6.94257C10.6016 10.4349 10.5956 10.3506 10.9937 10.8985C11.1066 11.0611 11.4096 11.3501 11.6651 11.5428C12.1226 11.892 13.1684 12.458 13.3585 12.458C13.4476 12.458 13.4536 12.1931 13.4536 9.51965C13.4536 6.33443 13.4417 6.17186 13.1208 5.62393C12.9307 5.29276 12.39 4.74483 11.9681 4.46183C11.5998 4.21496 10.7917 3.79348 10.6788 3.78745C10.6194 3.78745 10.6016 4.45581 10.6016 6.94257Z" fill="#060A21"/>
<path d="M6.63848 1.72252C6.61471 1.84897 6.59094 2.38486 6.59094 2.91472C6.59094 4.00457 6.66224 4.34777 6.98903 4.84754C7.1554 5.09441 7.35147 5.24494 8.19519 5.78685C8.7537 6.1421 9.22309 6.43112 9.2528 6.43112C9.27657 6.43714 9.28845 5.67244 9.28251 4.73915L9.26468 3.04117L8.02882 2.27045C7.35147 1.84897 6.76919 1.49974 6.73948 1.49974C6.70978 1.49974 6.66224 1.6021 6.63848 1.72252Z" fill="#FF9142"/>
<path d="M6.67993 11.3623V13.0361L7.9455 13.8189C8.63473 14.2524 9.22296 14.5956 9.24672 14.5716C9.27049 14.5535 9.31802 14.2163 9.35961 13.8309C9.48439 12.5545 9.28237 11.5369 8.79516 11.0371C8.56937 10.8083 6.86412 9.68835 6.73341 9.68835C6.7037 9.68835 6.67993 10.3627 6.67993 11.3623Z" fill="#FF9142"/>
</svg>
