<svg width="332" height="124" viewBox="0 0 332 124" fill="none" xmlns="http://www.w3.org/2000/svg">
<path d="M306.326 106.444C305.607 106.548 304.33 105.747 305.332 105.15C308.677 104.545 312.116 103.117 314.988 101.001C317.859 98.8823 320.161 96.08 321.231 92.7237C322.6 86.4152 322.91 78.741 317.938 73.8897C315.807 71.5801 313.248 69.4466 310.16 68.6715C308.678 67.9945 305.255 69.1668 305.385 66.705C305.913 65.2101 307.817 64.7555 308.881 63.6698C316.5 57.584 319.35 46.7775 316.956 37.4876C312.599 24.2019 297.341 12.7883 283.352 18.9826C280.933 20.023 278.775 21.6727 277.18 23.7773C276.758 24.4327 276.188 25.2888 275.279 25.0622C272.431 24.2817 276.781 19.5399 270.432 13.5008C266.197 9.33344 261.25 5.13702 255.228 4.1127C243.354 2.48922 236.267 9.80407 234.098 20.8083C233.319 21.56 232.167 21.1618 231.537 20.4246C225.619 16.5309 219.228 21.8865 217.937 27.9079C217.006 31.7324 217.559 35.477 217.778 39.3234C217.943 40.727 216.135 41.6572 215.092 40.7109C214.032 39.504 214.459 37.5932 214.208 36.0934C212.617 25.7359 219.956 11.7559 231.996 17.0419C238.149 -8.14893 270.783 -0.917101 277.116 19.7481C289.249 8.98794 307.785 16.1999 315.713 28.633C324.238 39.8201 321.532 57.724 310.254 66.0465C326.617 69.9262 330.847 94.4069 316.464 103.244C313.445 105.102 309.921 106.571 306.326 106.444Z" fill="#FF9142"/>
<path d="M52.1301 121.303C59.0107 121.055 65.3783 117.36 70.8132 113.384C79.4705 126.346 101.367 115.988 101.532 102.16C100.949 99.8213 97.3055 100.763 97.9221 103.099C96.6419 113.678 79.4493 121.826 73.1113 110.922C73.5471 109.42 71.4995 108.198 70.4038 109.357C69.9012 109.919 69.3407 110.421 68.7671 110.909C65.9857 113.245 62.8915 115.204 59.5537 116.644C49.3339 122.446 33.9319 112.759 35.639 100.968C42.644 96.1214 35.8186 91.0493 33.3325 99.0013C7.24142 110.737 4.45038 79.4258 22.6973 68.0936C24.8753 68.2755 25.9308 65.3371 23.4545 64.9591C22.085 65.1709 20.6947 65.3982 19.2839 65.2582C0.832361 64.526 -1.18785 48.2881 7.64655 35.1255C13.1712 27.0392 27.0582 19.7556 36.8641 20.6027C38.8589 22.743 42.6729 17.1942 32.0001 18.1011C25.5595 18.796 19.5495 21.7252 14.0754 25.0565C-3.21768 35.0563 -7.45188 66.7387 17.9357 68.0123C1.38786 83.3486 6.45349 110.963 32.6911 102.614C32.6665 112.54 42.5261 121.006 52.1301 121.303Z" fill="#FF9142"/>
<path d="M283.355 95.681C286.133 101.163 284.218 107.609 277.197 107.111C275.165 106.94 273.02 106.721 271.217 105.704C270.441 105.281 270.086 104.243 269.112 104.201C267.445 104.086 267.22 106.007 266.943 107.238C266.345 112.658 260.144 114.576 255.967 111.627C254.825 110.619 253.278 112.25 254.375 113.338C259.486 117.516 268.252 115.206 269.694 108.465C278.797 113.654 291.799 107.965 286.197 96.4225C284.621 92.5162 281.452 94.1518 283.355 95.681Z" fill="#FF9142"/>
<path d="M98.2873 102.976C100.794 107.471 106.609 112.325 111.952 109.742C112.828 122.608 132.71 119.625 133.491 111.114C133.583 109.741 131.419 109.625 131.368 111C131.523 112.146 130.483 112.872 129.628 113.419C124.735 116.461 115.787 116.479 115.23 109.199C114.696 107.83 115.917 106.488 115.225 105.246C114.554 104.22 112.949 104.469 112.468 105.548C109.367 110.823 102.567 105.599 100.697 101.734C99.93 100.161 97.4681 101.421 98.2873 102.976Z" fill="#FF9142"/>
<path d="M99.7209 32.0635C101.284 31.0703 99.4046 29.5328 99.743 28.1755C100.287 20.2412 109.152 19.9469 113.942 24.3278C115.056 24.5007 115.781 23.1508 115.137 22.2679C109.542 3.34999 134.07 1.7683 139.771 17.1734C140.72 18.5454 140.58 22.0546 142.07 22.5659C144.785 22.5475 141.548 15.1613 141.007 13.7231C133.823 -1.33994 109.318 0.28223 111.723 19.8402C97.2564 13.6495 93.8759 33.0346 99.7209 32.0635Z" fill="#FF9142"/>
<path d="M50.5374 23.6314C42.4345 20.9991 36.3061 31.8892 38.4214 38.7814C38.7459 39.9296 40.4179 40.1226 40.9689 39.05C41.4695 38.0596 40.5501 37.0603 40.5928 36.0223C40.6744 30.8719 45.2877 23.5579 51.1147 26.8509C53.5652 27.7377 53.4923 25.102 53.2774 23.464C53.4229 22.1308 54.2268 20.9851 54.8794 19.8482C58.8246 13.5954 65.7344 13.9531 71.0439 18.2466C74.7821 20.4177 74.9192 25.2995 74.7608 29.1477C73.5176 30.1982 75.9131 31.8531 76.3969 29.6591C77.5206 24.5544 76.9747 18.0797 71.8626 15.36C63.8902 8.17642 51.7779 13.2441 50.5374 23.6314Z" fill="#FF9142"/>
<path d="M182.205 24.2848C182.009 23.2333 181.781 22.1879 181.459 21.1668C179.545 15.0169 173.968 9.2241 167.169 12.2812C165.477 8.03178 161.41 4.01417 156.539 4.4534C148.544 5.40529 139.528 11.4947 141.335 20.5484C141.444 21.0343 141.552 22.0857 142.235 21.9706C142.898 21.2893 142.305 19.3473 142.729 18.3116C143.676 11.9014 149.717 8.95509 155.373 7.42838C159.246 6.26946 162.638 9.16548 164.387 12.3866C165.202 13.5039 164.653 16.2804 166.806 15.5585C173.034 10.745 178.847 18.8879 179.448 24.7249C179.792 26.5193 182.453 26.1161 182.205 24.2848Z" fill="#FF9142"/>
<path d="M210.682 113.201C213.561 117.998 217.068 121.454 223.026 121.2C233.848 120.002 241.433 108.934 235.224 99.0279C234.095 97.4111 231.807 99.0683 232.958 100.677C237.632 108.631 231.286 116.986 222.994 118.243C214.547 118.768 213.961 110.54 210.704 109.918C208.966 110.738 208.165 113.031 206.091 113.524C200.994 115.14 195.726 111.573 194.338 106.647C194.354 106.691 194.37 106.734 194.385 106.778C192.151 100.357 195.292 94.0136 202.016 92.4749C210.093 90.2406 195.305 91.4229 193.752 94.8538C184.627 106.022 199.178 123.527 210.682 113.201Z" fill="#FF9142"/>
<path d="M40.024 58.6H42.356V65.068H49.44V58.6H51.772V74H49.44V67.18H42.356V74H40.024V58.6ZM56.759 60.558C56.363 60.558 56.0403 60.4407 55.791 60.206C55.5416 59.9713 55.417 59.6633 55.417 59.282C55.417 58.9153 55.5416 58.6073 55.791 58.358C56.0403 58.1087 56.363 57.984 56.759 57.984C57.155 57.984 57.4776 58.1087 57.727 58.358C57.991 58.6073 58.123 58.9153 58.123 59.282C58.123 59.6633 57.991 59.9713 57.727 60.206C57.4776 60.4407 57.155 60.558 56.759 60.558ZM55.681 62.56H57.859V74H55.681V62.56ZM61.4377 62.56H63.1757C63.2491 62.7653 63.3151 63.0147 63.3737 63.308C63.4324 63.6013 63.4764 63.88 63.5057 64.144C63.9457 63.6453 64.4737 63.2567 65.0897 62.978C65.7204 62.6993 66.4317 62.56 67.2237 62.56H67.4217V64.738C67.2311 64.6647 67.0331 64.628 66.8277 64.628C65.8011 64.628 65.0091 64.9213 64.4517 65.508C63.8944 66.08 63.6157 66.872 63.6157 67.884V74H61.4377V62.56ZM70.8946 60.558C70.4986 60.558 70.176 60.4407 69.9266 60.206C69.6773 59.9713 69.5526 59.6633 69.5526 59.282C69.5526 58.9153 69.6773 58.6073 69.9266 58.358C70.176 58.1087 70.4986 57.984 70.8946 57.984C71.2906 57.984 71.6133 58.1087 71.8626 58.358C72.1266 58.6073 72.2586 58.9153 72.2586 59.282C72.2586 59.6633 72.1266 59.9713 71.8626 60.206C71.6133 60.4407 71.2906 60.558 70.8946 60.558ZM69.8166 62.56H71.9946V74H69.8166V62.56ZM75.5734 62.56H77.2894C77.3774 62.78 77.4508 63.0513 77.5094 63.374C77.5681 63.6967 77.6121 63.9827 77.6414 64.232C78.1548 63.616 78.7708 63.154 79.4894 62.846C80.2081 62.5233 80.9708 62.362 81.7774 62.362H81.8434C83.2221 62.362 84.2561 62.736 84.9454 63.484C85.6494 64.232 86.0014 65.3027 86.0014 66.696V74H83.8234V67.114C83.8234 66.234 83.6254 65.5593 83.2294 65.09C82.8334 64.606 82.1808 64.364 81.2714 64.364H81.1614C80.1494 64.364 79.3281 64.6647 78.6974 65.266C78.0668 65.8673 77.7514 66.674 77.7514 67.686V74H75.5734V62.56ZM88.6383 66.454C88.6383 65.8527 88.763 65.3027 89.0123 64.804C89.2617 64.3053 89.6063 63.88 90.0463 63.528C90.4863 63.1613 91.007 62.8827 91.6083 62.692C92.2243 62.4867 92.8917 62.384 93.6103 62.384H93.8303C94.813 62.384 95.693 62.5673 96.4703 62.934C96.6903 62.318 96.969 61.768 97.3063 61.284H99.3523L97.9443 64.056C98.5163 64.7453 98.8023 65.5447 98.8023 66.454V66.63C98.8023 67.2167 98.6777 67.7593 98.4283 68.258C98.179 68.742 97.8343 69.1673 97.3943 69.534C96.9543 69.886 96.4263 70.1647 95.8103 70.37C95.209 70.5607 94.549 70.656 93.8303 70.656H93.7423C93.3757 70.656 93.053 70.6267 92.7743 70.568V71.91C92.965 71.8807 93.1557 71.866 93.3463 71.866C93.537 71.866 93.735 71.866 93.9403 71.866H94.1383C94.8863 71.866 95.5757 71.9393 96.2063 72.086C96.8517 72.2327 97.4017 72.4453 97.8563 72.724C98.3257 73.0027 98.685 73.3473 98.9343 73.758C99.1983 74.154 99.3303 74.6013 99.3303 75.1V75.32C99.3303 75.8187 99.1983 76.266 98.9343 76.662C98.6703 77.058 98.3037 77.3953 97.8343 77.674C97.3797 77.9527 96.8297 78.1653 96.1843 78.312C95.539 78.4733 94.8423 78.554 94.0943 78.554H93.7423C92.9797 78.554 92.2757 78.4733 91.6303 78.312C90.9997 78.1653 90.4497 77.9527 89.9803 77.674C89.5257 77.3953 89.1663 77.058 88.9023 76.662C88.6383 76.266 88.5063 75.8187 88.5063 75.32V75.078C88.5063 74.4327 88.719 73.868 89.1443 73.384C89.5843 72.9 90.1563 72.5187 90.8603 72.24V70.04C90.171 69.7027 89.6283 69.2407 89.2323 68.654C88.8363 68.0527 88.6383 67.378 88.6383 66.63V66.454ZM90.8383 66.674C90.8383 66.9967 90.9117 67.2973 91.0583 67.576C91.205 67.8547 91.403 68.0967 91.6523 68.302C91.9017 68.4927 92.195 68.6467 92.5323 68.764C92.8843 68.8667 93.2583 68.918 93.6543 68.918H93.8303C94.2263 68.918 94.593 68.8667 94.9303 68.764C95.2823 68.6467 95.583 68.4927 95.8323 68.302C96.0817 68.0967 96.2797 67.8547 96.4263 67.576C96.573 67.2973 96.6463 66.9967 96.6463 66.674V66.476C96.6463 66.1387 96.573 65.838 96.4263 65.574C96.2797 65.2953 96.0817 65.0533 95.8323 64.848C95.583 64.6427 95.2823 64.4887 94.9303 64.386C94.5783 64.2687 94.2043 64.21 93.8083 64.21H93.6983C93.2877 64.21 92.9063 64.2687 92.5543 64.386C92.217 64.4887 91.9163 64.6427 91.6523 64.848C91.403 65.0387 91.205 65.2733 91.0583 65.552C90.9117 65.8307 90.8383 66.1387 90.8383 66.476V66.674ZM90.7063 75.232C90.7063 75.7013 90.985 76.0753 91.5423 76.354C92.1143 76.6473 92.855 76.794 93.7643 76.794H94.0723C94.9963 76.794 95.737 76.6473 96.2943 76.354C96.8663 76.0753 97.1523 75.7013 97.1523 75.232V75.078C97.1523 74.6087 96.8663 74.2347 96.2943 73.956C95.7223 73.6627 94.9817 73.516 94.0723 73.516H93.7643C92.855 73.516 92.1143 73.6627 91.5423 73.956C90.985 74.2347 90.7063 74.6087 90.7063 75.078V75.232ZM108.92 60.558C108.524 60.558 108.201 60.4407 107.952 60.206C107.703 59.9713 107.578 59.6633 107.578 59.282C107.578 58.9153 107.703 58.6073 107.952 58.358C108.201 58.1087 108.524 57.984 108.92 57.984C109.316 57.984 109.639 58.1087 109.888 58.358C110.152 58.6073 110.284 58.9153 110.284 59.282C110.284 59.6633 110.152 59.9713 109.888 60.206C109.639 60.4407 109.316 60.558 108.92 60.558ZM107.842 62.56H110.02V74H107.842V62.56ZM113.599 62.56H115.315C115.403 62.78 115.476 63.0513 115.535 63.374C115.593 63.6967 115.637 63.9827 115.667 64.232C116.18 63.616 116.796 63.154 117.515 62.846C118.233 62.5233 118.996 62.362 119.803 62.362H119.869C121.247 62.362 122.281 62.736 122.971 63.484C123.675 64.232 124.027 65.3027 124.027 66.696V74H121.849V67.114C121.849 66.234 121.651 65.5593 121.255 65.09C120.859 64.606 120.206 64.364 119.297 64.364H119.187C118.175 64.364 117.353 64.6647 116.723 65.266C116.092 65.8673 115.777 66.674 115.777 67.686V74H113.599V62.56ZM202.297 71.338H204.783L202.781 76.794H200.999L202.297 71.338ZM213.517 62.56H215.233C215.321 62.78 215.395 63.0513 215.453 63.374C215.512 63.6967 215.556 63.9827 215.585 64.232C216.099 63.616 216.715 63.154 217.433 62.846C218.152 62.5233 218.915 62.362 219.721 62.362H219.787C221.166 62.362 222.2 62.736 222.889 63.484C223.593 64.232 223.945 65.3027 223.945 66.696V74H221.767V67.114C221.767 66.234 221.569 65.5593 221.173 65.09C220.777 64.606 220.125 64.364 219.215 64.364H219.105C218.093 64.364 217.272 64.6647 216.641 65.266C216.011 65.8673 215.695 66.674 215.695 67.686V74H213.517V62.56ZM232.545 74.176C231.679 74.176 230.887 74.0367 230.169 73.758C229.45 73.4647 228.827 73.0613 228.299 72.548C227.785 72.0347 227.382 71.426 227.089 70.722C226.795 70.018 226.649 69.2407 226.649 68.39V68.17C226.649 67.3193 226.795 66.542 227.089 65.838C227.382 65.134 227.785 64.5253 228.299 64.012C228.827 63.4987 229.45 63.1027 230.169 62.824C230.887 62.5307 231.679 62.384 232.545 62.384H232.677C233.542 62.384 234.334 62.5307 235.053 62.824C235.771 63.1027 236.387 63.4987 236.901 64.012C237.414 64.5253 237.817 65.134 238.111 65.838C238.404 66.542 238.551 67.3193 238.551 68.17V68.39C238.551 69.2407 238.404 70.018 238.111 70.722C237.817 71.426 237.414 72.0347 236.901 72.548C236.387 73.0613 235.771 73.4647 235.053 73.758C234.334 74.0367 233.542 74.176 232.677 74.176H232.545ZM232.633 72.284C233.175 72.284 233.667 72.1887 234.107 71.998C234.561 71.8073 234.95 71.5433 235.273 71.206C235.595 70.854 235.845 70.436 236.021 69.952C236.197 69.468 236.285 68.94 236.285 68.368V68.192C236.285 67.62 236.197 67.092 236.021 66.608C235.845 66.124 235.595 65.7133 235.273 65.376C234.95 65.024 234.561 64.7527 234.107 64.562C233.667 64.3713 233.175 64.276 232.633 64.276H232.567C232.039 64.276 231.547 64.3713 231.093 64.562C230.653 64.7527 230.271 65.024 229.949 65.376C229.626 65.7133 229.377 66.124 229.201 66.608C229.025 67.092 228.937 67.62 228.937 68.192V68.368C228.937 68.94 229.025 69.468 229.201 69.952C229.377 70.436 229.626 70.854 229.949 71.206C230.271 71.5433 230.653 71.8073 231.093 71.998C231.547 72.1887 232.039 72.284 232.567 72.284H232.633ZM245.077 74.088C244.065 74.088 243.236 73.8387 242.591 73.34C241.96 72.8267 241.645 71.976 241.645 70.788V64.43H240.127V62.912C240.347 62.8387 240.589 62.7727 240.853 62.714C241.131 62.6553 241.395 62.6113 241.645 62.582V59.92L243.823 59.634V62.56H247.541V64.43H243.823V70.392C243.823 71.052 243.977 71.5067 244.285 71.756C244.593 72.0053 245.025 72.13 245.583 72.13C245.729 72.13 245.898 72.1227 246.089 72.108C246.279 72.0933 246.47 72.0787 246.661 72.064C246.866 72.0347 247.057 72.0053 247.233 71.976C247.423 71.9467 247.577 71.9173 247.695 71.888V73.692C247.548 73.7507 247.365 73.8093 247.145 73.868C246.939 73.912 246.712 73.956 246.463 74C246.228 74.0293 245.986 74.0513 245.737 74.066C245.502 74.0807 245.282 74.088 245.077 74.088ZM262.522 70.964H254.668V69.05L261.422 58.6H264.722V68.962H266.768V70.964H264.722V74H262.522V70.964ZM262.522 68.962V60.712H262.302L257.088 68.742V68.962H262.522ZM274.462 74.22C273.523 74.22 272.673 74.0367 271.91 73.67C271.162 73.2887 270.517 72.7607 269.974 72.086C269.446 71.3967 269.035 70.5607 268.742 69.578C268.463 68.5953 268.324 67.5027 268.324 66.3C268.324 65.0827 268.463 63.99 268.742 63.022C269.035 62.0393 269.446 61.2107 269.974 60.536C270.517 59.8467 271.162 59.3187 271.91 58.952C272.673 58.5707 273.523 58.38 274.462 58.38C275.401 58.38 276.244 58.5707 276.992 58.952C277.755 59.3187 278.4 59.8467 278.928 60.536C279.456 61.2107 279.859 62.0393 280.138 63.022C280.431 63.99 280.578 65.0827 280.578 66.3C280.578 67.5027 280.431 68.5953 280.138 69.578C279.859 70.5607 279.456 71.3967 278.928 72.086C278.4 72.7607 277.755 73.2887 276.992 73.67C276.244 74.0367 275.401 74.22 274.462 74.22ZM274.462 72.086C275.665 72.086 276.596 71.5873 277.256 70.59C277.916 69.578 278.246 68.148 278.246 66.3C278.246 64.452 277.916 63.0293 277.256 62.032C276.596 61.02 275.665 60.514 274.462 60.514C273.259 60.514 272.328 61.02 271.668 62.032C271.008 63.0293 270.678 64.452 270.678 66.3C270.678 68.148 271.008 69.578 271.668 70.59C272.328 71.5873 273.259 72.086 274.462 72.086Z" fill="#514F4C"/>
<path d="M132.218 71.58C132.614 71.3453 133.076 71.052 133.604 70.7C134.146 70.3333 134.704 69.93 135.276 69.49C135.862 69.0353 136.442 68.5513 137.014 68.038C137.586 67.51 138.092 66.9747 138.532 66.432C138.986 65.8893 139.353 65.3467 139.632 64.804C139.91 64.2613 140.05 63.7333 140.05 63.22C140.05 62.604 139.859 62.1273 139.478 61.79C139.096 61.438 138.59 61.262 137.96 61.262C137.3 61.262 136.72 61.4747 136.222 61.9C135.738 62.3107 135.422 62.978 135.276 63.902L132.064 63.308C132.166 62.516 132.379 61.812 132.702 61.196C133.039 60.58 133.457 60.0593 133.956 59.634C134.469 59.194 135.056 58.864 135.716 58.644C136.376 58.4093 137.102 58.292 137.894 58.292C138.686 58.292 139.419 58.4093 140.094 58.644C140.768 58.8787 141.348 59.2087 141.832 59.634C142.33 60.0447 142.712 60.5433 142.976 61.13C143.254 61.7167 143.394 62.362 143.394 63.066C143.394 63.902 143.196 64.7087 142.8 65.486C142.404 66.2633 141.905 67.004 141.304 67.708C140.702 68.3973 140.035 69.0353 139.302 69.622C138.583 70.194 137.901 70.6927 137.256 71.118H143.724V74H132.218V71.58ZM156.176 74.242C155.384 74.242 154.651 74.1027 153.976 73.824C153.316 73.5307 152.744 73.1347 152.26 72.636C151.776 72.1227 151.395 71.514 151.116 70.81C150.852 70.106 150.72 69.336 150.72 68.5V68.06C150.72 67.224 150.852 66.454 151.116 65.75C151.395 65.046 151.776 64.4447 152.26 63.946C152.744 63.4327 153.316 63.0367 153.976 62.758C154.651 62.4647 155.384 62.318 156.176 62.318H156.308C157.027 62.318 157.694 62.4427 158.31 62.692C158.926 62.9267 159.469 63.264 159.938 63.704V58.16H163.216V74H160.62C160.547 73.8093 160.481 73.582 160.422 73.318C160.364 73.0393 160.32 72.7753 160.29 72.526C159.806 73.0687 159.22 73.494 158.53 73.802C157.856 74.0953 157.115 74.242 156.308 74.242H156.176ZM157.122 71.8C157.533 71.8 157.907 71.7193 158.244 71.558C158.596 71.382 158.897 71.1473 159.146 70.854C159.396 70.546 159.586 70.1867 159.718 69.776C159.865 69.3507 159.938 68.8887 159.938 68.39V68.17C159.938 67.158 159.674 66.3367 159.146 65.706C158.633 65.0753 157.958 64.76 157.122 64.76H156.946C156.536 64.76 156.154 64.848 155.802 65.024C155.465 65.1853 155.172 65.42 154.922 65.728C154.673 66.0213 154.475 66.3807 154.328 66.806C154.196 67.2167 154.13 67.6713 154.13 68.17V68.39C154.13 68.8887 154.196 69.3507 154.328 69.776C154.475 70.1867 154.673 70.546 154.922 70.854C155.172 71.1473 155.465 71.382 155.802 71.558C156.154 71.7193 156.536 71.8 156.946 71.8H157.122ZM169.373 74.242C168.787 74.242 168.251 74.1613 167.767 74C167.283 73.8387 166.865 73.6113 166.513 73.318C166.161 73.01 165.883 72.6507 165.677 72.24C165.487 71.8147 165.391 71.3453 165.391 70.832V70.634C165.391 68.1553 167.672 66.916 172.233 66.916H173.091V66.586C173.091 66.0727 172.915 65.662 172.563 65.354C172.211 65.046 171.683 64.892 170.979 64.892H170.891C170.319 64.892 169.711 64.9947 169.065 65.2C168.435 65.3907 167.811 65.6547 167.195 65.992L165.941 63.726C166.645 63.3007 167.437 62.9633 168.317 62.714C169.212 62.45 170.121 62.318 171.045 62.318H171.243C171.977 62.318 172.644 62.4133 173.245 62.604C173.847 62.7947 174.36 63.0733 174.785 63.44C175.225 63.8067 175.563 64.2687 175.797 64.826C176.047 65.3687 176.171 65.992 176.171 66.696V71.382C176.171 71.8513 176.208 72.2987 176.281 72.724C176.355 73.1493 176.45 73.5747 176.567 74H173.487C173.414 73.824 173.355 73.626 173.311 73.406C173.267 73.1713 173.231 72.9293 173.201 72.68C172.761 73.1347 172.219 73.5087 171.573 73.802C170.928 74.0953 170.195 74.242 169.373 74.242ZM170.209 71.756C170.752 71.756 171.28 71.6533 171.793 71.448C172.307 71.228 172.747 70.9273 173.113 70.546V68.83H172.321C169.784 68.83 168.515 69.3727 168.515 70.458V70.524C168.515 70.8907 168.669 71.1913 168.977 71.426C169.285 71.646 169.696 71.756 170.209 71.756ZM180.798 78.488C180.461 78.488 180.079 78.4587 179.654 78.4C179.243 78.3413 178.869 78.2313 178.532 78.07V75.32C178.781 75.4667 179.038 75.5767 179.302 75.65C179.566 75.738 179.852 75.782 180.16 75.782C180.967 75.782 181.641 75.364 182.184 74.528L177.366 62.56H180.82L183.812 70.964H183.966L186.43 62.56H189.73L185.594 74.726C185.447 75.1513 185.257 75.584 185.022 76.024C184.787 76.464 184.487 76.8673 184.12 77.234C183.753 77.6007 183.299 77.9013 182.756 78.136C182.213 78.3707 181.561 78.488 180.798 78.488ZM195.572 74.264C193.416 74.264 191.546 73.7287 189.962 72.658L191.502 70.304C192 70.7147 192.616 71.052 193.35 71.316C194.098 71.5653 194.816 71.69 195.506 71.69C196.034 71.69 196.437 71.602 196.716 71.426C197.009 71.25 197.156 70.9933 197.156 70.656C197.156 70.4067 197.075 70.2233 196.914 70.106C196.752 69.974 196.51 69.8567 196.188 69.754C195.88 69.6513 195.491 69.5413 195.022 69.424C194.552 69.3067 194.01 69.138 193.394 68.918C193.027 68.8007 192.668 68.6687 192.316 68.522C191.964 68.3607 191.648 68.1627 191.37 67.928C191.106 67.6787 190.893 67.3853 190.732 67.048C190.57 66.7107 190.49 66.3073 190.49 65.838C190.49 64.7527 190.893 63.8947 191.7 63.264C192.521 62.6187 193.628 62.296 195.022 62.296C195.858 62.296 196.694 62.428 197.53 62.692C198.366 62.9413 199.099 63.3007 199.73 63.77L198.19 66.014C197.779 65.662 197.258 65.3833 196.628 65.178C196.012 64.958 195.41 64.848 194.824 64.848C194.325 64.848 193.958 64.936 193.724 65.112C193.504 65.2733 193.394 65.4933 193.394 65.772C193.394 66.1387 193.628 66.41 194.098 66.586C194.582 66.7473 195.249 66.9307 196.1 67.136C196.584 67.2533 197.068 67.3927 197.552 67.554C198.05 67.7007 198.498 67.906 198.894 68.17C199.29 68.434 199.612 68.7713 199.862 69.182C200.111 69.578 200.236 70.0767 200.236 70.678C200.236 71.2207 200.118 71.712 199.884 72.152C199.664 72.592 199.348 72.9733 198.938 73.296C198.527 73.604 198.036 73.8387 197.464 74C196.892 74.176 196.261 74.264 195.572 74.264Z" fill="#FF9142"/>
</svg>
