<svg width="25" height="24" viewBox="0 0 25 24" fill="none" xmlns="http://www.w3.org/2000/svg">
<path d="M12.5 9.55C13.417 8.613 14.611 8 16 8C17.4587 8 18.8576 8.57946 19.8891 9.61091C20.9205 10.6424 21.5 12.0413 21.5 13.5V21H19.5V13.5C19.5 12.5717 19.1313 11.6815 18.4749 11.0251C17.8185 10.3687 16.9283 10 16 10C15.0717 10 14.1815 10.3687 13.5251 11.0251C12.8687 11.6815 12.5 12.5717 12.5 13.5V21H10.5V8.5H12.5V9.55ZM5.5 6.5C5.10218 6.5 4.72064 6.34196 4.43934 6.06066C4.15804 5.77936 4 5.39782 4 5C4 4.60218 4.15804 4.22064 4.43934 3.93934C4.72064 3.65804 5.10218 3.5 5.5 3.5C5.89782 3.5 6.27936 3.65804 6.56066 3.93934C6.84196 4.22064 7 4.60218 7 5C7 5.39782 6.84196 5.77936 6.56066 6.06066C6.27936 6.34196 5.89782 6.5 5.5 6.5ZM4.5 8.5H6.5V21H4.5V8.5Z" fill="#D9CFC3"/>
</svg>
