<svg width="25" height="24" viewBox="0 0 25 24" fill="none" xmlns="http://www.w3.org/2000/svg">
<path d="M13.5042 18.4232C13.928 18.3577 14.3617 18.4303 14.7412 18.6302C15.3549 18.9528 16.0558 19.0707 16.7414 18.9666C17.4269 18.8625 18.0612 18.5419 18.5515 18.0515C19.0419 17.5612 19.3625 16.9269 19.4666 16.2414C19.5707 15.5558 19.4528 14.8549 19.1302 14.2412C18.9303 13.8617 18.8577 13.428 18.9232 13.0042C19.0815 11.9927 18.9986 10.9581 18.6814 9.98475C18.3642 9.01137 17.8215 8.12669 17.0975 7.40277C16.3736 6.67885 15.4889 6.13616 14.5156 5.81892C13.5422 5.50167 12.5076 5.41884 11.4962 5.57716C11.0723 5.64257 10.6386 5.57 10.2592 5.37016C9.64529 5.04725 8.94421 4.92921 8.25844 5.03329C7.57267 5.13738 6.9382 5.45814 6.44779 5.94866C5.95738 6.43918 5.63677 7.07373 5.53284 7.75952C5.42891 8.44531 5.54711 9.14636 5.87016 9.76016C6.07 10.1396 6.14257 10.5733 6.07716 10.9972C5.91884 12.0086 6.00167 13.0432 6.31892 14.0166C6.63616 14.9899 7.17885 15.8746 7.90277 16.5985C8.62669 17.3225 9.51137 17.8652 10.4848 18.1824C11.4581 18.4996 12.4927 18.5825 13.5042 18.4242V18.4232ZM12.5002 20.5002C11.273 20.5004 10.0604 20.2349 8.94558 19.7219C7.83079 19.209 6.84028 18.4608 6.04214 17.5286C5.24399 16.5965 4.65714 15.5026 4.32191 14.3222C3.98668 13.1417 3.91103 11.9026 4.10016 10.6902C3.57889 9.69867 3.38841 8.56644 3.55657 7.45897C3.72472 6.3515 4.24269 5.32684 5.03477 4.53477C5.82684 3.74269 6.8515 3.22472 7.95897 3.05657C9.06644 2.88841 10.1987 3.07889 11.1902 3.60016C12.5125 3.39361 13.8648 3.50221 15.1372 3.91713C16.4096 4.33205 17.5661 5.04156 18.5124 5.98791C19.4588 6.93425 20.1683 8.09069 20.5832 9.36308C20.9981 10.6355 21.1067 11.9879 20.9002 13.3102C21.4214 14.3016 21.6119 15.4339 21.4437 16.5413C21.2756 17.6488 20.7576 18.6735 19.9655 19.4655C19.1735 20.2576 18.1488 20.7756 17.0413 20.9437C15.9339 21.1119 14.8016 20.9214 13.8102 20.4002C13.3832 20.4662 12.9452 20.5002 12.5002 20.5002ZM12.5532 17.0002C9.75016 17.0002 8.50016 15.6202 8.50016 14.5862C8.50016 14.0542 8.89016 13.6842 9.42816 13.6842C10.6282 13.6842 10.3152 15.4092 12.5532 15.4092C13.6962 15.4092 14.3292 14.7852 14.3292 14.1482C14.3292 13.7642 14.1412 13.3402 13.3862 13.1522L10.8962 12.5292C8.89016 12.0252 8.52616 10.9372 8.52616 9.91716C8.52616 7.79716 10.5182 7.00016 12.3902 7.00016C14.1102 7.00016 16.1462 7.95616 16.1462 9.22816C16.1462 9.77316 15.6662 10.0912 15.1342 10.0912C14.1112 10.0912 14.2992 8.67316 12.2342 8.67316C11.2112 8.67316 10.6382 9.13516 10.6382 9.79916C10.6382 10.4622 11.4412 10.6752 12.1402 10.8342L13.9762 11.2432C15.9902 11.6952 16.5002 12.8762 16.5002 13.9892C16.5002 15.7132 15.1752 17.0002 12.5152 17.0002H12.5532Z" fill="#D9CFC3"/>
</svg>
