<svg width="25" height="24" viewBox="0 0 25 24" fill="none" xmlns="http://www.w3.org/2000/svg">
<path d="M12.5 20C14.6217 20 16.6566 19.1571 18.1569 17.6569C19.6571 16.1566 20.5 14.1217 20.5 12C20.5 9.87827 19.6571 7.84344 18.1569 6.34315C16.6566 4.84285 14.6217 4 12.5 4C10.3783 4 8.34344 4.84285 6.84315 6.34315C5.34285 7.84344 4.5 9.87827 4.5 12C4.5 14.1217 5.34285 16.1566 6.84315 17.6569C8.34344 19.1571 10.3783 20 12.5 20ZM12.5 22C6.977 22 2.5 17.523 2.5 12C2.5 6.477 6.977 2 12.5 2C18.023 2 22.5 6.477 22.5 12C22.5 17.523 18.023 22 12.5 22ZM9.39 13.17L6.892 12.391C6.352 12.226 6.349 11.854 7.013 11.587L16.746 7.827C17.311 7.597 17.631 7.888 17.448 8.617L15.791 16.437C15.675 16.994 15.34 17.127 14.875 16.87L12.324 14.982L11.135 16.13C11.013 16.248 10.914 16.349 10.726 16.374C10.539 16.4 10.385 16.344 10.272 16.034L9.402 13.163L9.39 13.171V13.17Z" fill="#D9CFC3"/>
</svg>
