<svg width="25" height="24" viewBox="0 0 25 24" fill="none" xmlns="http://www.w3.org/2000/svg">
<path d="M15.8 5.55011C15.04 5.54999 14.3103 5.84824 13.7679 6.38068C13.2256 6.91313 12.9139 7.63721 12.9 8.39711L12.872 9.97211C12.8704 10.0567 12.8509 10.1399 12.8148 10.2164C12.7787 10.2929 12.7269 10.3609 12.6627 10.416C12.5985 10.471 12.5233 10.5119 12.4422 10.5359C12.3611 10.5599 12.2758 10.5664 12.192 10.5551L10.631 10.3431C8.57702 10.0631 6.60902 9.11711 4.72102 7.54411C4.12302 10.8541 5.29102 13.1471 8.10402 14.9161L9.85102 16.0141C9.93403 16.0663 10.003 16.138 10.0519 16.223C10.1007 16.308 10.1281 16.4036 10.1314 16.5016C10.1348 16.5996 10.1141 16.6969 10.0711 16.785C10.0282 16.8731 9.96426 16.9494 9.88502 17.0071L8.29302 18.1701C9.24002 18.2291 10.139 18.1871 10.885 18.0391C15.603 17.0971 18.74 13.5471 18.74 7.69111C18.74 7.21311 17.728 5.55011 15.8 5.55011ZM10.9 8.36011C10.9175 7.39616 11.2189 6.45878 11.7666 5.66534C12.3142 4.87189 13.0838 4.25763 13.9789 3.89948C14.8741 3.54133 15.8549 3.45519 16.7988 3.65186C17.7426 3.84853 18.6074 4.31926 19.285 5.00511C19.996 5.00011 20.601 5.18011 21.954 4.36011C21.619 6.00011 21.454 6.71211 20.74 7.69111C20.74 15.3331 16.043 19.0491 11.277 20.0001C8.00902 20.6521 3.25702 19.5811 1.89502 18.1591C2.58902 18.1051 5.40902 17.8021 7.03902 16.6091C5.66002 15.7001 0.17102 12.4701 3.77802 3.78611C5.47102 5.76311 7.18802 7.10911 8.92802 7.82311C10.086 8.29811 10.37 8.28811 10.901 8.36111L10.9 8.36011Z" fill="#D9CFC3"/>
</svg>
