<svg width="25" height="24" viewBox="0 0 25 24" fill="none" xmlns="http://www.w3.org/2000/svg">
<path d="M7.75301 18.494L8.47701 18.917C9.69795 19.6291 11.0866 20.0029 12.5 20C14.0823 20 15.629 19.5308 16.9446 18.6518C18.2602 17.7727 19.2855 16.5233 19.8911 15.0615C20.4966 13.5997 20.655 11.9911 20.3463 10.4393C20.0376 8.88743 19.2757 7.46197 18.1569 6.34315C17.038 5.22433 15.6126 4.4624 14.0607 4.15372C12.5089 3.84504 10.9004 4.00346 9.43855 4.60896C7.97674 5.21447 6.72731 6.23984 5.84826 7.55544C4.96921 8.87103 4.50001 10.4177 4.50001 12C4.50001 13.436 4.87701 14.813 5.58401 16.024L6.00601 16.748L5.35301 19.149L7.75301 18.494ZM2.50401 22L3.85601 17.032C2.96515 15.5049 2.49711 13.768 2.50001 12C2.50001 6.477 6.97701 2 12.5 2C18.023 2 22.5 6.477 22.5 12C22.5 17.523 18.023 22 12.5 22C10.7328 22.0029 8.99667 21.5352 7.47001 20.645L2.50401 22ZM8.89101 7.308C9.02501 7.298 9.16001 7.298 9.29401 7.304C9.34801 7.308 9.40201 7.314 9.45601 7.32C9.61501 7.338 9.79001 7.435 9.84901 7.569C10.147 8.245 10.437 8.926 10.717 9.609C10.779 9.761 10.742 9.956 10.624 10.146C10.5429 10.2745 10.4551 10.3986 10.361 10.518C10.248 10.663 10.005 10.929 10.005 10.929C10.005 10.929 9.90601 11.047 9.94401 11.194C9.95801 11.25 10.004 11.331 10.046 11.399L10.105 11.494C10.361 11.921 10.705 12.354 11.125 12.762C11.245 12.878 11.362 12.997 11.488 13.108C11.956 13.521 12.486 13.858 13.058 14.108L13.063 14.11C13.148 14.147 13.191 14.167 13.315 14.22C13.377 14.246 13.441 14.269 13.506 14.286C13.5732 14.3031 13.6439 14.2999 13.7093 14.2767C13.7746 14.2536 13.8316 14.2116 13.873 14.156C14.597 13.279 14.663 13.222 14.669 13.222V13.224C14.7193 13.1771 14.7791 13.1415 14.8443 13.1196C14.9095 13.0977 14.9786 13.09 15.047 13.097C15.107 13.101 15.168 13.112 15.224 13.137C15.755 13.38 16.624 13.759 16.624 13.759L17.206 14.02C17.304 14.067 17.393 14.178 17.396 14.285C17.4 14.352 17.406 14.46 17.383 14.658C17.351 14.917 17.273 15.228 17.195 15.391C17.1416 15.5022 17.0707 15.6042 16.985 15.693C16.8841 15.7989 16.7736 15.8954 16.655 15.981C16.614 16.0119 16.5723 16.0419 16.53 16.071C16.4056 16.1499 16.2778 16.2233 16.147 16.291C15.8895 16.4278 15.6052 16.5063 15.314 16.521C15.129 16.531 14.944 16.545 14.758 16.535C14.75 16.535 14.19 16.448 14.19 16.448C12.7683 16.074 11.4534 15.3735 10.35 14.402C10.124 14.203 9.91501 13.989 9.70101 13.776C8.81101 12.891 8.13901 11.936 7.73101 11.034C7.52218 10.5913 7.40938 10.1094 7.40001 9.62C7.39589 9.01285 7.59436 8.42167 7.96401 7.94C8.03701 7.846 8.10601 7.748 8.22501 7.635C8.35201 7.515 8.43201 7.451 8.51901 7.407C8.63469 7.34903 8.76088 7.31502 8.89001 7.307L8.89101 7.308Z" fill="#D9CFC3"/>
</svg>
