<svg width="25" height="24" viewBox="0 0 25 24" fill="none" xmlns="http://www.w3.org/2000/svg">
<path d="M20.106 6.995C20.03 6.697 19.814 6.472 19.567 6.403C19.13 6.28 17 6 12.5 6C8 6 5.872 6.28 5.431 6.403C5.187 6.471 4.971 6.696 4.894 6.995C4.785 7.419 4.5 9.196 4.5 12C4.5 14.804 4.785 16.58 4.894 17.006C4.97 17.303 5.186 17.528 5.432 17.596C5.872 17.72 8 18 12.5 18C17 18 19.129 17.72 19.569 17.597C19.813 17.529 20.029 17.304 20.106 17.005C20.215 16.581 20.5 14.8 20.5 12C20.5 9.2 20.215 7.42 20.106 6.995ZM22.043 6.498C22.5 8.28 22.5 12 22.5 12C22.5 12 22.5 15.72 22.043 17.502C21.789 18.487 21.046 19.262 20.105 19.524C18.396 20 12.5 20 12.5 20C12.5 20 6.607 20 4.895 19.524C3.95 19.258 3.208 18.484 2.957 17.502C2.5 15.72 2.5 12 2.5 12C2.5 12 2.5 8.28 2.957 6.498C3.211 5.513 3.954 4.738 4.895 4.476C6.607 4 12.5 4 12.5 4C12.5 4 18.396 4 20.105 4.476C21.05 4.742 21.792 5.516 22.043 6.498ZM10.5 15.5V8.5L16.5 12L10.5 15.5Z" fill="#D9CFC3"/>
</svg>
