<svg width="24" height="28" viewBox="0 0 24 28" fill="none" xmlns="http://www.w3.org/2000/svg">
<path d="M21.98 6.46174C18.5844 0.105027 10.517 -2.13142 5.1779 2.34722C4.87775 2.66918 4.09467 3.21535 3.45076 3.81519C2.77834 4.44185 2.2585 5.12601 2.60058 5.67602C1.05116 8.16351 0.194299 11.0055 0.0299673 13.7958C-0.0555523 15.2331 0.0417069 16.657 0.325095 18.01C1.23395 22.3679 4.04939 25.9957 8.77309 27.0133C12.1167 27.9389 15.5744 26.7929 18.3496 24.5085C18.3513 24.5066 18.3546 24.5047 18.3563 24.5028C23.3601 20.3787 26.1352 12.5444 21.98 6.46174ZM21.3864 9.47625C21.5893 10.193 21.7234 10.9289 21.7939 11.6744C22.0588 14.3573 21.5071 17.14 20.3316 19.5048C19.7162 20.7485 18.9264 21.8773 17.9908 22.8144C16.1462 24.2422 13.8808 25.231 11.6757 25.5721C3.57651 25.6411 -0.20646 17.8222 2.74313 9.55482C5.91909 1.03832 18.747 0.0437037 21.3864 9.47625Z" fill="#28241F"/>
<path d="M18.3515 24.5034C18.3499 24.5053 18.3465 24.5072 18.3448 24.5092C16.2773 26.4888 13.6144 27.6329 10.6263 27.3991C7.35136 27.286 3.36045 26.4007 1.71377 22.7748C1.08495 21.5292 0.605383 19.858 0.320318 18.0106C0.112388 16.6672 0.00842131 15.2299 0.0251899 13.7965C0.0704649 9.73751 1.07826 5.69198 3.44598 3.81582C4.38669 3.07034 5.5454 2.66598 6.94222 2.74263C7.37317 2.82504 7.27592 3.55711 6.84664 3.49578C1.16881 3.43063 0.744565 14.7547 2.06257 19.2965C2.9664 25.1722 8.55199 26.3834 12.9957 25.866C13.6932 25.7069 14.369 25.4597 15.0414 25.2182C17.4024 24.3942 19.2201 22.0849 20.3269 19.5054C20.7042 18.6315 20.9976 17.727 21.2039 16.8378C21.499 15.3526 21.4738 13.8233 21.4587 12.3093C21.4671 11.9931 21.6063 11.7823 21.7891 11.675C22.1697 11.445 22.7482 11.6654 22.76 12.3323C23.0702 17.0524 21.3313 21.6461 18.3515 24.5034Z" fill="#28241F"/>
<path d="M15.0623 12.5211C14.6501 12.3059 14.2445 12.1437 13.7589 11.9088C13.5738 11.8192 13.2223 11.692 13.4949 11.2632C14.1415 10.2463 14.8565 9.2643 15.2739 8.05857C15.6481 7.14137 15.3775 5.74377 14.5568 5.71436C14.3113 5.72247 14.0623 5.79017 13.8221 5.91414C12.3443 6.63136 10.9214 7.61159 9.59636 8.82512C8.73495 9.58023 7.90777 10.4105 7.12146 11.3093C6.24051 12.3167 5.52362 13.6652 6.39589 14.8042C6.93387 15.4326 7.58465 15.8818 8.30523 16.1219C8.52423 16.2124 8.52587 16.3448 8.3231 16.587C7.33175 17.7706 5.77468 19.4247 6.13671 20.7403C6.28055 21.1235 6.52137 21.417 6.82385 21.5777C7.12633 21.7384 7.47458 21.7579 7.81752 21.6333C9.60115 20.7652 12.4392 18.8074 14.6815 17.0319C16.4932 15.5973 16.2571 13.1453 15.0623 12.5211ZM13.3584 15.9553C12.626 16.5265 11.8714 17.0343 11.1001 17.4747C10.7873 17.6641 8.60405 19.1306 8.41892 19.2301C8.67291 18.6326 9.82914 17.2726 10.145 16.8412C10.8878 15.827 10.8756 14.8797 9.528 14.4077C9.21561 14.2983 8.62288 14.06 8.40029 13.9649C7.87477 13.7409 7.51924 13.2982 7.96889 12.8144C9.69642 10.9971 11.5385 9.39897 13.4647 8.04637C13.7911 7.81674 13.3287 8.48756 13.222 8.65108C12.6783 9.38983 12.1925 10.1973 11.7741 11.0575C11.3834 11.9921 11.2009 13.0395 12.3167 13.6199C12.8145 13.8788 13.271 14.0409 13.7785 14.312C14.3616 14.6235 13.8213 15.575 13.3584 15.9553Z" fill="#FF9142"/>
</svg>
