<svg width="24" height="24" viewBox="0 0 24 24" fill="none" xmlns="http://www.w3.org/2000/svg">
<path d="M4.232 18.6964C4.07616 18.5503 3.96415 18.3701 3.82778 18.2045C3.70116 18.0341 3.55506 17.8782 3.44304 17.6981C3.22389 17.3377 2.96577 16.9919 2.79045 16.6023C2.69791 16.4123 2.59077 16.2273 2.50311 16.0325L2.26934 15.4383C1.54369 13.6364 1.45603 11.9464 0.973887 12.0925C0.774211 12.1607 0.618367 12.5747 0.525835 13.2711C0.516094 13.6169 0.516094 14.0308 0.555055 14.4984C0.594016 14.7273 0.637848 14.9757 0.691419 15.2289C0.72064 15.3555 0.74012 15.487 0.779081 15.6185C0.822912 15.75 0.866744 15.8815 0.910575 16.0179C1.20765 17.0016 1.69954 17.9123 2.24499 18.789C2.54694 19.2078 2.83428 19.6412 3.1898 20.0162L3.44791 20.3084C3.5307 20.4058 3.61837 20.5032 3.71577 20.5909L4.2807 21.1218C5.06967 21.7938 5.92681 22.4026 6.87161 22.8409C7.32941 23.0893 7.83103 23.25 8.31804 23.4351C8.56155 23.5227 8.81966 23.5714 9.07291 23.6445C9.32616 23.7078 9.56966 23.7857 9.84239 23.8149L10.4852 23.9075L10.8067 23.9513L11.0989 23.9659L11.6833 23.9903L11.8294 23.9951L11.9025 24H11.9414H11.9852H11.9901H11.9999H12.0193L12.331 23.9854C12.7499 23.9562 13.1687 23.961 13.5778 23.8782C13.9917 23.8101 14.4057 23.7614 14.8051 23.6347C16.4268 23.2257 17.9512 22.4659 19.2515 21.4334C20.5518 20.3961 21.6427 19.1006 22.3927 17.6201L22.6557 17.0601C22.7385 16.8701 22.8408 16.6899 22.8992 16.4903L23.1086 15.9058L23.2109 15.6136C23.2401 15.5162 23.2596 15.414 23.2888 15.3117L23.4349 14.7078C23.4593 14.6055 23.4885 14.5081 23.5031 14.4058L23.5469 14.0893C23.6005 13.6705 23.6833 13.237 23.6784 12.862C23.8489 11.4156 23.732 9.88149 23.3132 8.43507C22.8992 6.98377 22.1833 5.61039 21.2288 4.41721C20.2742 3.22403 19.081 2.21591 17.7369 1.47565L16.6995 0.969156C16.3391 0.827922 15.9788 0.696429 15.6184 0.564935C15.2482 0.457792 14.8732 0.36526 14.4982 0.267857C14.1135 0.189935 13.7093 0.141234 13.3148 0.0779221L13.1638 0.0584416L13.0323 0.0487013L12.7645 0.0340909L12.2336 0.00974026L12.1021 0.00487013L12.034 0H11.9658H11.9463H11.9122L11.6249 0.0146104L11.0453 0.0438312L10.758 0.0584416C10.6606 0.0681818 10.568 0.0876623 10.4706 0.0974026L9.90083 0.185065C9.51609 0.228896 9.14596 0.345779 8.77096 0.438312C7.2807 0.847403 5.87811 1.55357 4.6557 2.48864C3.45278 3.4237 2.41057 4.59253 1.62161 5.91234C1.52421 6.07792 1.4122 6.23864 1.32941 6.40909L1.07616 6.9302C0.993367 7.10552 0.900835 7.27597 0.832653 7.4513L0.632977 7.99188C0.569666 8.17208 0.496614 8.35227 0.438172 8.53734L0.287198 9.0974L0.141094 9.65747L0.0436917 10.2516C-0.0780616 10.8555 0.0826527 11.6153 0.184925 11.8782C0.404081 12.3799 0.618367 11.7516 0.847263 10.8019C1.27583 9.23377 2.01122 7.65584 3.07291 6.23864C3.19467 6.05357 3.35538 5.89773 3.49661 5.7224L3.7109 5.46429L3.81804 5.33766L3.9398 5.22078C4.10051 5.06494 4.25635 4.90422 4.41707 4.74351L4.53882 4.62175L4.67032 4.51461L4.9333 4.29545C5.26934 3.98864 5.65408 3.74026 6.02421 3.47727C6.20928 3.34091 6.41869 3.24351 6.6135 3.12662C6.81317 3.01461 7.00311 2.88799 7.21739 2.80032C8.19629 2.29383 9.27259 1.99188 10.3538 1.83604C10.6265 1.80682 10.8943 1.74351 11.1719 1.74838L11.581 1.73377L11.7856 1.7289L11.8878 1.72403H11.9414H11.9658H11.9755L12.8327 1.78247L13.0518 1.79708C13.1249 1.80195 13.1833 1.81656 13.2515 1.83117L13.6411 1.89935L14.0307 1.96266C14.1622 1.98701 14.2937 2.03084 14.4252 2.06494L14.8197 2.17208C14.9512 2.20617 15.0827 2.24026 15.2093 2.29383L15.969 2.58604C16.2125 2.70292 16.456 2.82955 16.6995 2.9513C17.6541 3.4724 18.5258 4.12987 19.2856 4.90422C20.0404 5.68344 20.6541 6.58929 21.1314 7.55844L21.3067 7.9237L21.3943 8.1039L21.4625 8.29383L21.7353 9.05357L21.9349 9.83766C21.9495 9.90097 21.969 9.96916 21.9836 10.0325L22.0128 10.2321L22.0713 10.6315L22.1346 11.0308L22.1541 11.4351L22.1736 11.8393L22.1833 12.0438V12.0633V12.1071L22.1784 12.2192L22.1395 13.1006C22.1103 13.3734 22.0615 13.6169 22.0275 13.875C21.8473 14.9172 21.5015 15.974 21.0096 16.9432C20.469 17.8782 19.7921 18.7208 19.008 19.4562C16.5291 21.7987 12.8619 22.7386 9.57941 21.9107L8.96577 21.7549L8.37161 21.5406L8.07454 21.4334C7.97713 21.3945 7.8846 21.3458 7.7872 21.3019L7.21252 21.0341C6.47713 20.6201 5.75635 20.1672 5.13785 19.5877C4.80181 19.3247 4.52421 19.0032 4.232 18.6964Z" fill="#28241F"/>
<path d="M12.5821 4.21299C12.3435 4.10098 12.1438 4.24708 11.9928 4.46137C11.6519 4.94351 11.4425 5.49871 11.3256 6.08312C11.1454 6.07338 10.9652 6.06364 10.785 6.05877L10.6925 6.0539H10.5659L10.3808 6.05877C10.2298 6.07338 10.035 6.08799 9.89378 6.12695C9.58696 6.18052 9.29476 6.29741 9.01716 6.43864C8.73956 6.58475 8.48631 6.76981 8.25255 6.97923C8.02852 7.19838 7.82398 7.44189 7.66326 7.71461C7.34183 8.26494 7.16164 8.89806 7.18112 9.55065C7.18599 9.61884 7.18112 9.6578 7.18599 9.75033L7.22008 10.0182C7.2493 10.1935 7.28339 10.3396 7.33209 10.5003C7.42463 10.812 7.57073 11.1091 7.74606 11.3818C7.92625 11.6546 8.14541 11.9029 8.38891 12.1172C8.64216 12.3266 8.91489 12.5117 9.21683 12.6481C9.51878 12.7796 9.83534 12.8867 10.1665 12.9305C10.3321 12.9597 10.4928 12.9597 10.6584 12.9695H10.9847C10.9798 13.0231 10.9701 13.0766 10.9652 13.1302C10.9116 13.7292 10.8824 14.3283 10.9311 14.9224C10.9116 15.4386 10.9019 15.9597 10.9068 16.476C10.5561 16.4955 10.2006 16.5101 9.84995 16.5344C8.97333 16.5929 8.24768 16.8169 8.31099 17.2552C8.36943 17.6594 8.99281 17.9565 9.88891 18.0003C10.2444 18.0198 10.6048 18.0393 10.9603 18.0588C10.9847 18.3997 11.0139 18.7406 11.0529 19.0815C11.1113 19.5539 11.3353 19.9484 11.7737 19.9143C12.1779 19.8802 12.475 19.549 12.5188 19.062C12.548 18.7552 12.5772 18.4435 12.6064 18.1318L12.9181 18.1416L13.0691 18.1464C13.1227 18.1464 13.1957 18.1464 13.259 18.1416C13.3905 18.1416 13.522 18.127 13.6535 18.1075C14.1746 18.0344 14.6811 17.8299 15.1048 17.5182C15.7915 17.0263 16.2883 16.2666 16.4538 15.4386C16.4782 15.3364 16.4879 15.2097 16.5025 15.0977L16.5123 15.0101V14.9468L16.5172 14.825V14.7617V14.6935V14.6546L16.5074 14.4987C16.5025 14.3964 16.4879 14.2893 16.4685 14.187C16.4003 13.7731 16.2542 13.3737 16.0399 13.0182C15.6162 12.3023 14.9246 11.7617 14.1405 11.5279C13.9457 11.4695 13.7509 11.4257 13.522 11.4013C13.4003 11.3818 13.3272 11.3867 13.2444 11.3818L13.0886 11.377L12.9668 11.3818L12.7331 11.3867C12.884 10.6562 12.8548 9.91591 12.8402 9.18052C12.85 8.8591 12.85 8.53767 12.85 8.21137C12.8548 8.15293 12.8548 8.09449 12.8597 8.03117C12.8597 8.02143 12.8548 8.01169 12.85 7.99708C12.85 7.88507 12.85 7.77793 12.85 7.66591C13.6146 7.66591 14.3792 7.67078 15.1438 7.69026C15.3532 7.69513 15.6844 7.52468 15.7866 7.4078C15.9912 7.16916 15.7233 6.96949 15.324 6.81851C14.574 6.53117 13.7266 6.34124 12.8353 6.21462C12.8305 5.65455 12.8353 5.09936 12.8646 4.54416C12.8694 4.44676 12.699 4.26656 12.5821 4.21299ZM10.9603 11.3136L10.6779 11.2893C10.5659 11.2698 10.4685 11.2601 10.3662 11.226C9.96683 11.1188 9.62105 10.8899 9.37755 10.5831C9.2558 10.4321 9.15352 10.2666 9.08534 10.0864C9.05612 9.99871 9.02203 9.90617 9.00742 9.81364L8.99281 9.74546C8.98794 9.72598 8.98794 9.71137 8.98794 9.69189L8.9782 9.64319L8.97333 9.61884V9.56526L8.96846 9.39481L8.9782 9.25358C8.99281 9.16104 9.00255 9.06364 9.03177 8.97598C9.08047 8.79578 9.15352 8.62046 9.26066 8.46462C9.47008 8.15293 9.78177 7.90455 10.1373 7.78767C10.2201 7.76332 10.3321 7.72923 10.3857 7.72436L10.4344 7.71461C10.449 7.70974 10.5025 7.70974 10.5318 7.70487L10.6438 7.70001L10.6974 7.69513H10.7071H11.1551C11.0675 8.89319 10.9798 10.101 10.9603 11.3136ZM12.8694 12.9549L13.0545 12.95H13.0788H13.0886H13.0935C13.074 12.95 13.0594 12.95 13.0545 12.95H13.0983H13.1909C13.3418 12.95 13.3711 12.9646 13.4392 12.9646C13.5123 12.9792 13.6 12.989 13.6779 13.0133C13.9847 13.1351 14.2379 13.3494 14.4376 13.5977C14.7444 14.0068 14.8564 14.5133 14.7542 15.0198C14.6665 15.4825 14.3402 15.9208 13.9262 16.1594C13.7168 16.286 13.4831 16.3591 13.2347 16.3834L13.1422 16.3883L13.0935 16.3932H13.0204L12.7331 16.3981H12.6892C12.6844 15.9403 12.6698 15.4825 12.6503 15.0247C12.6795 14.8104 12.699 14.5912 12.6892 14.377C12.6795 13.8997 12.6357 13.4224 12.587 12.9403L12.8694 12.9549Z" fill="#FF9142"/>
</svg>
