<svg width="24" height="28" viewBox="0 0 24 28" fill="none" xmlns="http://www.w3.org/2000/svg">
<path d="M21.98 6.46174C18.5844 0.105027 10.517 -2.13142 5.1779 2.34722C4.87775 2.66918 4.09467 3.21535 3.45076 3.81519C2.77834 4.44185 2.2585 5.12601 2.60058 5.67602C1.05116 8.16351 0.194299 11.0055 0.0299673 13.7958C-0.0555523 15.2331 0.0417069 16.657 0.325095 18.01C1.23395 22.3679 4.04939 25.9957 8.77309 27.0133C12.1167 27.9389 15.5744 26.7929 18.3496 24.5085C18.3513 24.5066 18.3546 24.5047 18.3563 24.5028C23.3601 20.3787 26.1352 12.5444 21.98 6.46174ZM21.3864 9.47625C21.5893 10.193 21.7234 10.9289 21.7939 11.6744C22.0588 14.3573 21.5071 17.14 20.3316 19.5048C19.7162 20.7485 18.9264 21.8773 17.9908 22.8144C16.1462 24.2422 13.8808 25.231 11.6757 25.5721C3.57651 25.6411 -0.20646 17.8222 2.74313 9.55482C5.91909 1.03832 18.747 0.0437037 21.3864 9.47625Z" fill="#28241F"/>
<path d="M18.3515 24.5034C18.3499 24.5053 18.3465 24.5072 18.3448 24.5092C16.2773 26.4888 13.6144 27.6329 10.6263 27.3991C7.35136 27.286 3.36045 26.4007 1.71377 22.7748C1.08495 21.5292 0.605383 19.858 0.320318 18.0106C0.112388 16.6672 0.00842131 15.2299 0.0251899 13.7965C0.0704649 9.73751 1.07826 5.69198 3.44598 3.81582C4.38669 3.07034 5.5454 2.66598 6.94222 2.74263C7.37317 2.82504 7.27592 3.55711 6.84664 3.49578C1.16881 3.43063 0.744565 14.7547 2.06257 19.2965C2.9664 25.1722 8.55199 26.3834 12.9957 25.866C13.6932 25.7069 14.369 25.4597 15.0414 25.2182C17.4024 24.3942 19.2201 22.0849 20.3269 19.5054C20.7042 18.6315 20.9976 17.727 21.2039 16.8378C21.499 15.3526 21.4738 13.8233 21.4587 12.3093C21.4671 11.9931 21.6063 11.7823 21.7891 11.675C22.1697 11.445 22.7482 11.6654 22.76 12.3323C23.0702 17.0524 21.3313 21.6461 18.3515 24.5034Z" fill="#28241F"/>
<path d="M10.6593 16.0005C8.67891 15.8108 8.37206 12.275 10.2786 11.6253C10.3491 1.96858 13.1075 5.51393 11.9387 12.5011C12.7436 13.835 12.472 16.4068 10.6593 16.0005Z" fill="#FF9142"/>
<path d="M11.4423 15.6176C11.2008 15.4604 11.2964 15.0925 11.501 14.9487C9.99686 14.0864 13.5468 11.298 14.1706 10.61C14.8245 9.99292 19.9121 6.69863 19.0284 9.48891C17.0162 11.963 14.6082 13.8487 12.0091 15.4259C11.9454 15.6923 11.6368 15.7153 11.4423 15.6176Z" fill="#FF9142"/>
</svg>
