<svg width="24" height="24" viewBox="0 0 24 24" fill="none" xmlns="http://www.w3.org/2000/svg">
<path d="M15.2405 1.91596C14.612 1.93291 13.9012 1.96421 12.7497 2.0255C11.0778 2.11418 10.5405 2.13114 10.1193 2.10766C9.95368 2.09984 9.63548 2.09462 9.37857 2.09853C8.5961 2.10766 6.86816 2.10114 5.77271 2.08549C5.19238 2.07636 4.38775 2.06854 3.98608 2.06723C3.34576 2.06463 3.24013 2.06723 3.13189 2.0868C2.74457 2.15722 2.47853 2.29024 2.23206 2.53932C1.98949 2.78449 1.81865 3.1027 1.62173 3.6752L1.55783 3.86429L1.5487 4.09903C1.52001 4.83846 1.45481 6.01868 1.31918 8.18741C1.12356 11.3199 1.07662 12.2419 1.01663 14.0494C0.994458 14.7158 0.994458 17.1714 1.01663 17.7204C1.05184 18.6059 1.08835 19.2176 1.14313 19.8592L1.17312 20.2178L1.28788 20.3274C1.7391 20.759 2.4368 20.952 3.67962 20.9938C5.97876 21.0694 10.0815 20.4565 15.4883 19.2319C16.9398 18.902 18.583 18.5016 19.8193 18.1743L20.067 18.1091L20.1727 17.9108C20.6017 17.1101 20.8586 16.1972 21.0034 14.9557C21.049 14.5671 21.0816 14.2046 21.1351 13.4756C21.1925 12.7035 21.2251 12.3423 21.2668 12.0032C21.289 11.8298 21.3033 11.6224 21.3112 11.389C21.3464 10.3288 21.4468 9.33894 21.7089 7.4832C21.8824 6.25603 21.975 5.54138 22.0336 4.95975C22.0532 4.77978 22.0767 4.55938 22.0884 4.46679C22.1171 4.2464 22.108 3.92428 22.0688 3.76909C21.8837 3.03488 21.2081 2.51846 20.0527 2.22894C19.3446 2.05289 18.5308 1.95638 17.3793 1.91465C16.9815 1.90031 15.77 1.90031 15.2405 1.91596ZM15.9904 4.8489C16.6894 4.86585 18.9938 4.94018 19.0003 4.9467C19.0042 4.94931 18.9872 5.1032 18.9651 5.28838C18.7382 7.15978 18.6573 8.37781 18.566 11.2912C18.5125 12.9996 18.4812 13.6777 18.416 14.5384C18.3769 15.0562 18.2595 16.1868 18.2439 16.2012C18.2413 16.2038 18.137 16.2207 18.0118 16.2403C16.7716 16.4281 15.6813 16.6289 13.0757 17.1466C9.82327 17.7935 8.28312 18.0517 6.60734 18.2343C5.74924 18.3282 4.56119 18.4116 4.08128 18.4116H3.9274V18.3425C3.9274 18.306 3.91175 18.0608 3.89219 17.7987C3.85828 17.324 3.85828 17.3201 3.87393 16.7293C3.8974 15.8086 3.91305 15.0914 3.9274 14.1341C3.96391 11.7059 3.97826 10.9873 4.00564 10.111C4.04868 8.76122 4.11258 7.59144 4.20256 6.5312C4.24951 5.96913 4.34732 5.03669 4.35906 5.02626C4.36167 5.02365 4.48816 5.02886 4.63814 5.03538C5.04241 5.05495 7.59846 5.05364 8.23095 5.03408C8.86214 5.01452 10.015 4.97409 10.7088 4.9467C13.3352 4.84498 14.7137 4.8189 15.9904 4.8489Z" fill="#373B50"/>
<path fill-rule="evenodd" clip-rule="evenodd" d="M19.0864 4.26649C19.4676 4.00247 19.9547 4.23472 20.1005 4.61315C20.1762 4.80667 20.1616 5.04053 19.9964 5.26332C19.0807 6.36203 18.1492 7.45145 17.2188 8.53889C16.6315 9.22278 16.0431 9.90866 15.4578 10.5937C15.4219 10.6366 15.3856 10.6793 15.3493 10.7219C15.313 10.7646 15.2767 10.8072 15.2409 10.8501C14.3771 11.8648 13.5202 12.886 12.6799 13.9197C12.2301 14.4642 11.8556 15.0729 11.4814 15.6813C10.9095 16.6108 10.3381 17.5395 9.4992 18.2375C8.56397 18.8589 6.80739 18.1326 8.13285 15.8199C9.31869 13.5877 10.7037 11.4882 12.1959 9.46495C12.6806 8.80615 13.1772 8.15432 13.6826 7.51028C15.0699 5.73927 16.5194 4.01246 17.9645 2.29085L18.0261 2.21736C18.1365 2.10484 18.2471 1.98893 18.3589 1.87187C19.0785 1.11794 19.8438 0.316278 20.868 0.0635598C21.3579 -0.0541812 21.7046 0.244939 21.7442 0.609084C21.7686 0.831112 21.6781 1.07639 21.4408 1.2676L21.4431 1.26363C21.2824 1.41978 21.019 1.44652 20.8377 1.29231C20.4619 1.58347 20.1309 1.93014 19.8197 2.28843C20.2782 2.76493 19.7811 3.51765 19.0864 4.26649ZM16.8088 6.90765C17.477 6.12678 18.1446 5.34668 18.8053 4.55984C18.585 4.7837 18.3557 5.00375 18.1382 5.21244C17.6929 5.63987 17.2972 6.01961 17.1299 6.28667C16.7079 6.7931 16.2898 7.30185 15.8746 7.8149C15.4006 8.40541 14.9326 8.99941 14.4733 9.6012C14.2929 9.83636 14.1113 10.0735 13.9348 10.311C14.1286 10.0757 14.3256 9.83957 14.5215 9.60543C15.0128 9.01711 15.5069 8.43309 16.003 7.85024C16.2715 7.53559 16.5402 7.22156 16.8088 6.90765Z" fill="#FF9142"/>
<path fill-rule="evenodd" clip-rule="evenodd" d="M19.2425 19.099C19.6296 19.3672 20.1243 19.1313 20.2724 18.747C20.3492 18.5504 20.3344 18.3129 20.1667 18.0867C19.2367 16.9708 18.2906 15.8644 17.3458 14.76C16.7493 14.0655 16.1517 13.3689 15.5572 12.6732C15.5208 12.6296 15.484 12.5862 15.4471 12.5429C15.4102 12.4996 15.3733 12.4563 15.3369 12.4127C14.4598 11.3823 13.5894 10.3451 12.7361 9.29528C12.2792 8.74227 11.8989 8.1241 11.5188 7.50625C10.9381 6.56225 10.3578 5.61901 9.50575 4.91016C8.55594 4.27908 6.77196 5.01669 8.1181 7.3655C9.32242 9.63249 10.7291 11.7647 12.2446 13.8195C12.7368 14.4886 13.2411 15.1506 13.7544 15.8047C15.1633 17.6033 16.6354 19.357 18.103 21.1055L18.1657 21.1801C18.2777 21.2944 18.3901 21.4121 18.5036 21.531C19.2345 22.2967 20.0117 23.1109 21.0519 23.3675C21.5494 23.4871 21.9015 23.1833 21.9417 22.8135C21.9665 22.588 21.8745 22.3389 21.6336 22.1447L21.6359 22.1487C21.4727 21.9901 21.2052 21.963 21.021 22.1196C20.6394 21.8239 20.3032 21.4718 19.9872 21.108C20.4528 20.624 19.9479 19.8596 19.2425 19.099ZM16.9294 16.4167C17.608 17.2097 18.286 18.002 18.957 18.8011C18.7332 18.5738 18.5003 18.3503 18.2795 18.1383C17.8272 17.7042 17.4253 17.3186 17.2555 17.0474C16.8269 16.533 16.4023 16.0164 15.9806 15.4953C15.4992 14.8956 15.0239 14.2923 14.5574 13.6811C14.3742 13.4423 14.1897 13.2015 14.0105 12.9603C14.2074 13.1993 14.4074 13.4391 14.6063 13.6768C15.1053 14.2743 15.6071 14.8675 16.111 15.4594C16.3836 15.779 16.6565 16.0979 16.9294 16.4167Z" fill="#FF9142"/>
</svg>
