<svg width="24" height="24" viewBox="0 0 24 24" fill="none" xmlns="http://www.w3.org/2000/svg">
<path d="M15.2405 1.91596C14.612 1.93291 13.9012 1.96421 12.7497 2.0255C11.0778 2.11418 10.5405 2.13114 10.1193 2.10766C9.95368 2.09984 9.63548 2.09462 9.37857 2.09853C8.5961 2.10766 6.86816 2.10114 5.77271 2.08549C5.19238 2.07636 4.38775 2.06854 3.98608 2.06723C3.34576 2.06463 3.24013 2.06723 3.13189 2.0868C2.74457 2.15722 2.47853 2.29024 2.23206 2.53932C1.98949 2.78449 1.81865 3.1027 1.62173 3.6752L1.55783 3.86429L1.5487 4.09903C1.52001 4.83846 1.45481 6.01868 1.31918 8.18741C1.12356 11.3199 1.07662 12.2419 1.01663 14.0494C0.994458 14.7158 0.994458 17.1714 1.01663 17.7204C1.05184 18.6059 1.08835 19.2176 1.14313 19.8592L1.17312 20.2178L1.28788 20.3274C1.7391 20.759 2.4368 20.952 3.67962 20.9938C5.97876 21.0694 10.0815 20.4565 15.4883 19.2319C16.9398 18.902 18.583 18.5016 19.8193 18.1743L20.067 18.1091L20.1727 17.9108C20.6017 17.1101 20.8586 16.1972 21.0034 14.9557C21.049 14.5671 21.0816 14.2046 21.1351 13.4756C21.1925 12.7035 21.2251 12.3423 21.2668 12.0032C21.289 11.8298 21.3033 11.6224 21.3112 11.389C21.3464 10.3288 21.4468 9.33894 21.7089 7.4832C21.8824 6.25603 21.975 5.54138 22.0336 4.95975C22.0532 4.77978 22.0767 4.55938 22.0884 4.46679C22.1171 4.2464 22.108 3.92428 22.0688 3.76909C21.8837 3.03488 21.2081 2.51846 20.0527 2.22894C19.3446 2.05289 18.5308 1.95638 17.3793 1.91465C16.9815 1.90031 15.77 1.90031 15.2405 1.91596ZM15.9904 4.8489C16.6894 4.86585 18.9938 4.94018 19.0003 4.9467C19.0042 4.94931 18.9872 5.1032 18.9651 5.28838C18.7382 7.15978 18.6573 8.37781 18.566 11.2912C18.5125 12.9996 18.4812 13.6777 18.416 14.5384C18.3769 15.0562 18.2595 16.1868 18.2439 16.2012C18.2413 16.2038 18.137 16.2207 18.0118 16.2403C16.7716 16.4281 15.6813 16.6289 13.0757 17.1466C9.82327 17.7935 8.28312 18.0517 6.60734 18.2343C5.74924 18.3282 4.56119 18.4116 4.08128 18.4116H3.9274V18.3425C3.9274 18.306 3.91175 18.0608 3.89219 17.7987C3.85828 17.324 3.85828 17.3201 3.87393 16.7293C3.8974 15.8086 3.91305 15.0914 3.9274 14.1341C3.96391 11.7059 3.97826 10.9873 4.00564 10.111C4.04868 8.76122 4.11258 7.59144 4.20256 6.5312C4.24951 5.96913 4.34732 5.03669 4.35906 5.02626C4.36167 5.02365 4.48816 5.02886 4.63814 5.03538C5.04241 5.05495 7.59846 5.05364 8.23095 5.03408C8.86214 5.01452 10.015 4.97409 10.7088 4.9467C13.3352 4.84498 14.7137 4.8189 15.9904 4.8489Z" fill="#F4EFE9"/>
<path d="M20.2072 4.89049C20.0592 4.50616 19.5645 4.27028 19.1774 4.53842C19.8828 3.77791 20.3877 3.01345 19.9221 2.52952C20.2381 2.16564 20.5743 1.81357 20.9559 1.51786C21.1401 1.67448 21.4076 1.64732 21.5708 1.48874C21.5697 1.49076 21.5697 1.49075 21.5685 1.49277C21.8094 1.29857 21.9013 1.04948 21.8766 0.823986C21.8364 0.454162 21.4843 0.150377 20.9868 0.269954C19.785 0.566465 18.9344 1.60705 18.1005 2.45734C16.6122 4.23053 15.1183 6.00858 13.6892 7.8328C13.176 8.48688 12.6717 9.14887 12.1794 9.81795C10.6639 11.8728 10.3533 12.0325 9.62472 13.0044C8.49107 11.5094 6.15455 7.39156 5.00072 11.2246C4.77251 13.5985 7.86958 15.3434 9.63699 16.3848C10.1006 16.7891 10.7595 16.5558 10.986 16.0908C11.0746 15.9074 11.0964 15.6902 11.0124 15.4597C12.422 14.2869 13.4851 13.3927 14.6399 11.9947C15.4932 10.9449 15.2217 11.2848 15.2718 11.2247C15.3446 11.1375 15.4194 11.0515 15.4921 10.9643C16.0866 10.2686 16.6842 9.572 17.2807 8.87744C18.2255 7.77305 19.1716 6.66665 20.1015 5.5508C20.2693 5.32454 20.2841 5.08703 20.2072 4.89049ZM18.8918 4.83635C17.9511 5.9567 16.9967 7.0636 16.0459 8.17806C15.542 8.77 15.0402 9.36312 14.5412 9.96062C14.3423 10.1984 14.1423 10.4382 13.9454 10.6772C14.1246 10.436 14.3091 10.1952 14.4923 9.95632C14.9588 9.34515 15.4341 8.74189 15.9154 8.14217C16.3372 7.62111 16.7617 7.10443 17.1903 6.59011C17.4432 6.18646 18.2097 5.52938 18.8918 4.83635Z" fill="#FFB580"/>
</svg>
