<svg width="217" height="231" viewBox="0 0 217 231" fill="none" xmlns="http://www.w3.org/2000/svg">
<path d="M5.42928 119.629C1.37968 127.615 -1.28846 136.841 0.647039 145.782C1.68587 152.171 6.14369 160.023 13.0801 161.014C13.9987 161.113 15.3327 161.346 16.0909 160.865C15.7665 160.045 15.4202 159.232 15.0375 158.43C14.3121 158.353 13.4993 158.39 12.9344 158.175C7.67463 156.491 4.05878 150.302 3.17669 145.118C1.75879 139.206 2.83039 133.09 4.65289 127.382C6.86541 121.903 9.62833 116.662 11.8664 111.187C16.0144 101.67 21.1611 92.1748 21.8828 81.6371C21.6787 76.1915 20.8039 70.1298 17.3266 65.7631C18.4383 64.5129 19.7906 61.626 17.1042 61.4657C14.6985 60.8715 12.2163 60.62 9.77048 60.281C8.42548 60.2555 7.62724 61.9905 8.37447 62.9893C11.5128 68.2818 10.1532 71.7373 15.6134 68.085C18.1759 71.6352 18.7189 76.2097 19.273 80.4452C19.3422 88.548 15.854 96.0604 12.7011 103.343C10.3027 108.781 7.92975 114.234 5.42928 119.629Z" fill="#FF9142"/>
<path d="M116.288 85.1947C115.989 86.0476 116.27 86.5762 116.736 86.7839C116.711 86.8422 116.685 86.9006 116.667 86.9589C116.751 87.0354 116.831 87.1229 116.915 87.2213C117.892 88.6684 122.036 89.8129 122.623 91.4641C125.849 93.7021 129.049 95.973 132.527 97.8465C133.576 98.3313 134.189 98.8635 134.356 99.6617C134.364 99.669 134.371 99.6763 134.382 99.6836C134.378 99.6982 134.375 99.7091 134.367 99.7237C134.444 100.146 134.393 100.646 134.225 101.251C133.635 104.823 132.261 108.198 131.207 111.654C135.275 110.826 138.956 108.971 142.729 107.353C142.733 107.349 142.736 107.342 142.74 107.338C143.13 106.828 144.016 106.405 144.588 106.897C144.705 107.006 144.818 107.119 144.931 107.232C147.252 105.858 148.911 104.305 148.692 102.596C146.866 99.3847 144.464 96.363 143.491 92.7107C146.822 95.7032 149.512 99.5779 153.664 101.524C155.147 101.896 155.986 100.376 156.806 99.2608C158.971 101.05 161.129 103.409 163.713 104.211C167.442 103.766 166.44 93.0278 166.852 89.9806C166.604 83.2228 165.7 76.1551 160.972 70.9501C160.863 68.5152 163.396 64.2578 162.372 62.4171C159.908 60.9555 157.247 64.8009 156.226 66.7C153.044 65.0962 149.913 63.3539 146.625 61.9761C146.713 59.02 147.529 55.9181 146.844 53.0167C144.982 50.1043 141.544 55.8816 140.338 59.2314C140.021 59.2095 139.645 59.2423 139.201 59.3407C134.039 59.5412 129.673 62.4062 125.882 65.6867C122.27 69.3135 119.868 74.0665 118.424 78.9435C117.874 81.0722 116.948 83.0879 116.288 85.1947Z" fill="#FF9142"/>
<path d="M92.7348 168.512C93.9012 172.314 95.9351 189.413 101.399 185.429C101.946 184.94 102.219 184.284 102.434 183.599C102.445 183.566 102.452 183.537 102.463 183.504C103.757 185.552 107.818 187.266 107.916 183.548C109.921 185.079 113.406 183.807 113.351 181.102C113.103 177.559 110.38 174.763 109.473 171.37C108.864 169.606 108.004 167.725 107.369 166.03C107.337 165.862 107.289 165.691 107.224 165.527C106.881 165.731 106.465 165.837 106.021 165.775C103.903 166.201 101.723 166.442 99.5874 166.828C97.364 167.772 95.1186 168.359 92.7348 168.512Z" fill="#FF9142"/>
<path d="M26.0397 25.4712C25.9304 25.956 26.1891 26.408 26.5792 26.6813C27.1004 27.1953 27.443 27.8477 27.7966 28.4783C31.6858 37.6564 32.9142 48.2816 29.9982 57.8716C29.5462 59.0307 29.0213 60.1753 28.2194 61.1375C27.4357 61.9394 26.0725 62.9783 26.776 64.2321C27.669 65.2017 29.2509 65.1252 30.4356 65.5808C34.9772 67.0206 39.1143 69.583 42.9817 72.3277C48.0883 75.5608 51.6531 80.7622 53.0819 86.6088C53.2059 88.3475 55.0175 87.6075 56.0745 87.2722C58.2141 86.8311 60.423 86.802 62.599 86.8494C65.4494 87.017 68.1321 88.0158 70.9388 88.4131C75.2326 88.752 79.089 90.2611 82.9819 91.9159C87.1882 93.1807 91.0009 95.313 94.511 97.9265C95.1161 98.6628 95.8597 99.2424 96.5632 99.8693C96.6579 100.019 96.7709 100.154 96.9022 100.27C99.3115 98.5717 101.254 96.1478 103.529 94.2524C103.678 94.1138 103.828 93.9753 103.984 93.8441C102.989 92.9766 101.786 92.3169 100.959 91.2489C99.1985 89.1894 97.6895 86.9405 96.0018 84.8227C90.6838 77.4781 85.774 69.8454 82.0889 61.5348C79.0417 56.2058 76.4464 50.5925 74.5765 44.7569C74.2704 44.2794 73.7418 44.2211 73.2242 44.1883C69.2074 43.6598 65.3729 42.1835 61.4436 41.2358C54.0005 38.2724 46.8308 34.6347 39.6319 31.1246C36.428 29.426 33.3334 27.5343 30.2023 25.7045C28.7006 25.0447 26.94 22.8286 26.0397 25.4712Z" fill="#FF9142"/>
<path d="M76.2515 32.7358C75.7631 34.2667 81.4128 37.0952 82.4662 39.0489C86.2971 43.9369 86.4028 52.3459 83.6399 57.7369C82.4662 59.9968 85.7139 60.8825 86.8912 62.2275C89.3042 64.4254 91.1231 67.1337 92.8654 69.8455C94.7243 72.4043 96.0402 75.2693 97.6877 77.9447C99.543 80.3869 100.79 83.1717 102.138 85.909C102.853 87.327 103.56 88.7594 104.045 90.2721C103.888 91.2162 104.788 91.9306 105.692 91.7447C106.086 91.69 106.552 91.6718 107.044 91.6463C108.67 90.6366 110.358 89.7144 111.889 88.5735C112.034 87.9758 111.972 87.2614 111.896 86.6782C111.71 84.2141 111.59 81.7501 111.663 79.2788C111.787 71.9669 114.251 64.8628 115.563 57.7551C116.059 54.4235 117.691 51.544 119.131 48.5587C120.739 44.5383 122.835 40.6819 125.277 37.1171C127.5 34.6093 121.125 31.1612 119.467 29.7323C111.254 23.7327 103.381 17.2336 95.3003 11.0408C93.4267 9.72856 91.7391 8.19402 89.9822 6.74331C87.9446 5.33634 85.7795 4.1189 83.7675 2.66819C82.4261 1.69862 81.0374 0.99514 79.5648 0.35362C79.2404 -0.094715 78.526 -0.0801359 78.0776 0.193239C76.9732 0.896724 77.2757 2.10322 78.0047 2.96709C78.9998 4.69846 80.0933 6.39338 80.7458 8.29607C82.889 14.2447 82.9218 20.9369 80.4979 26.809C79.6195 28.2707 78.7556 29.7943 77.5053 30.9753C76.9732 31.4528 76.3718 31.9959 76.2515 32.7358Z" fill="#FF9142"/>
<path d="M175.111 144.422C175.169 144.692 175.187 145.02 175.154 145.417C175.176 147.612 176.073 149.609 176.864 151.607C177.403 153.13 177.542 154.763 178.329 156.203C178.956 157.183 178.883 157.883 178.446 158.39C178.876 158.751 179.408 158.889 180.075 158.681C183.902 157.22 187.165 154.759 190.598 152.591C192.643 150.932 195.8 150.017 196.678 147.313C197.003 146.154 196.19 145.038 195.023 144.863C197.626 142.684 196.78 139.571 193.142 140.074C195.286 136.502 193.39 134.621 189.734 136.585C186.162 137.697 183.02 139.614 179.98 141.739C178.646 142.45 177.447 143.409 176.062 144.01C175.727 144.054 175.388 144.204 175.111 144.422Z" fill="#FF9142"/>
<path d="M101.399 185.429C95.9349 189.416 93.901 172.314 92.7346 168.512C95.1184 168.359 97.3637 167.772 99.5872 166.828C101.723 166.442 103.903 166.201 106.021 165.775C106.465 165.837 106.881 165.731 107.223 165.527C107.289 165.691 107.336 165.862 107.369 166.03C108.003 167.725 108.864 169.609 109.472 171.37C110.38 174.76 113.103 177.559 113.351 181.102C113.409 183.807 109.924 185.075 107.916 183.548C107.818 187.266 103.753 185.553 102.463 183.504C102.452 183.537 102.445 183.566 102.434 183.599C102.219 184.284 101.946 184.94 101.399 185.429ZM9.55934 144.251C8.41116 148.545 12.0744 152.955 14.05 156.557C14.4072 157.173 14.7352 157.796 15.0378 158.43C15.4205 159.232 15.7668 160.045 16.0912 160.865C17.1482 163.537 17.9829 166.285 19.1967 168.924C21.832 178.142 27.726 185.866 34.6661 192.318C40.9683 198.576 47.9995 204.033 55.0599 209.387C62.1567 213.736 69.9861 216.666 77.5167 220.063C82.4192 222.024 87.0812 224.671 92.2024 226.034C96.5035 227.204 100.812 228.338 105.193 229.165C107.143 229.5 109.079 230.448 111.069 230.273C112.603 229.741 112.334 227.82 112.516 226.544C113.263 216.801 116.587 207.652 118.72 198.197C120.531 190.05 122.686 181.955 123.961 173.703C124.555 165.891 127.548 158.539 130.041 151.198C137.266 156.294 141.333 157.271 149.87 158.857C156.343 160.056 163.021 161.649 169.622 160.971C171.295 160.701 172.976 160.212 174.612 159.841C175.811 159.596 177.681 159.279 178.447 158.397C178.884 157.887 178.961 157.191 178.33 156.21C177.543 154.77 177.404 153.138 176.865 151.614C176.074 149.616 175.177 147.619 175.155 145.425C175.188 145.027 175.17 144.699 175.112 144.43C174.689 142.538 172.152 143.555 170.461 143.752C167.173 143.835 163.932 143.172 160.688 142.746C155.447 142.498 150.42 140.821 145.944 138.135C143.444 136.68 141.804 134.311 140.171 132C137.346 129.004 136.573 125.013 137.211 121.032C139.744 120.03 142.372 119.246 144.628 117.657C146.294 116.626 151.918 114.905 149.972 112.273C148.157 110.732 146.611 108.895 144.931 107.236C144.818 107.123 144.705 107.014 144.588 106.901C144.016 106.405 143.13 106.831 142.74 107.342C142.737 107.345 142.733 107.353 142.729 107.356C138.96 108.975 135.275 110.83 131.208 111.657C132.257 108.206 133.635 104.83 134.226 101.255C134.397 100.65 134.444 100.154 134.368 99.7274C134.364 99.7055 134.361 99.6873 134.357 99.6654C134.193 98.8635 133.577 98.3313 132.527 97.8502C129.05 95.9766 125.849 93.7022 122.624 91.4678C122.037 89.8202 117.896 88.6757 116.915 87.225C116.832 87.1266 116.751 87.0391 116.668 86.9626C115.406 85.7779 114.113 86.7767 112.924 87.7572C112.589 88.0451 112.243 88.3221 111.889 88.5846C110.358 89.7218 108.671 90.6477 107.045 91.6573C105.977 92.3207 104.931 93.0242 103.979 93.8516C103.823 93.9865 103.673 94.1213 103.524 94.2599C101.246 96.1553 99.3065 98.5792 96.8972 100.278C96.5072 100.551 96.1025 100.81 95.6834 101.043C90.9886 103.839 85.368 104.455 80.3671 106.587C72.7891 109.893 64.6717 111.862 57.1594 115.299C53.0588 117.187 49.2825 119.735 45.1053 121.437C40.2247 122.957 35.9601 125.836 31.3273 127.936C26.7127 131.093 21.8867 133.958 17.469 137.395C14.8446 139.64 11.6662 141.51 9.55934 144.251Z" fill="#373B50"/>
<path d="M192.46 135.408C193.485 135.237 193.838 134.187 193.773 133.265C194.531 129.973 194.549 126.715 195.267 123.438C197.268 111.508 199.076 99.5412 200.538 87.5309C200.76 85.6902 201.048 83.8568 201.259 82.016C201.3 81.2105 201.598 80.2737 201.132 79.5484C200.253 78.3747 198.515 79.5957 198.664 80.8496C198.613 84.3926 197.884 87.91 197.545 91.4347C196.018 101.761 194.811 112.135 193.018 122.421C192.428 125.111 192.147 127.918 191.848 130.575C191.826 131.96 190.139 135.379 192.46 135.408Z" fill="#373B50"/>
<path d="M181.62 215.624C183.628 215.347 183.045 212.617 183.504 211.162C183.942 208.188 184.306 205.141 184.554 202.17C185.597 194.687 186.344 187.171 187.317 179.688C188.531 171.887 190.142 164.156 191.337 156.352C191.337 155.08 192.577 153.13 191.264 152.255C190.207 151.763 188.731 153.101 189.132 154.195C187.773 162.425 186.213 170.619 184.806 178.842C183.934 185.855 183.329 192.901 182.294 199.899C181.853 203.449 181.667 206.65 181.175 210.083C181.255 211.443 179.626 215.518 181.62 215.624Z" fill="#373B50"/>
<path d="M199.712 78.7577C201.805 78.2 200.759 75.2329 201.396 73.6401C202.446 67.7352 203.008 61.7574 203.926 55.8306C204.783 50.1918 205.574 44.5457 206.503 38.9178C206.627 37.9118 207.571 36.2242 206.051 35.8597C204.269 35.7284 204.199 37.9118 203.944 39.1803C203.532 41.3016 203.179 43.4303 202.924 45.5736C202.402 49.8492 201.619 54.0847 201.014 58.3493C200.42 63.0915 199.756 67.8336 199.115 72.5685C198.936 73.9463 197.383 78.9436 199.712 78.7577Z" fill="#373B50"/>
<path d="M207.499 41.0245C211.038 40.4085 207.583 35.1342 207.157 33.0712C207.069 31.5439 205.702 31.2487 204.999 32.5864C203.431 33.3409 203.194 35.9325 202.207 37.3358C199.272 41.6952 204.692 40.9407 207.499 41.0245ZM206.234 38.3929C205.717 38.3673 205.203 38.3564 204.685 38.3345C204.565 38.3236 204.445 38.3163 204.321 38.3017C204.452 38.0539 204.583 37.8097 204.711 37.5618C204.846 37.5946 204.991 37.6055 205.144 37.58C205.407 37.5363 205.655 37.4124 205.859 37.2374C205.983 37.6201 206.107 38.0065 206.234 38.3929Z" fill="#373B50"/>
<path d="M207.119 80.7367C211.351 80.6674 215.131 77.2193 215.896 73.1113C216.534 68.8285 216.356 64.4362 216.268 60.1169C215.71 57.9008 216.232 47.702 214.293 47.3485C212.9 47.2501 212.605 48.7664 212.878 49.8417C213.017 51.5329 213.174 53.2242 213.319 54.9155C213.381 59.88 215.299 72.4662 211.978 76.0091C209.703 78.9433 205.716 77.8608 202.596 77.3067C198.105 76.7928 193.676 75.8159 189.31 74.6495C182.731 73.9132 186.142 67.5819 187.768 63.7692C189.262 59.7998 190.943 55.9288 192.805 52.1198C193.647 52.539 194.737 52.2874 195.616 52.0651C197.456 51.5256 197.092 49.3897 197.012 47.9062C196.84 46.1201 197.227 44.1773 196.658 42.4715C195.455 41.1337 194.136 43.0583 193.891 44.2356C191.449 50.0312 188.154 55.4805 186.292 61.5129C185.231 64.1702 183.828 66.7289 183.339 69.583C181.954 74.8792 185.147 76.5777 189.74 77.5692C195.368 79.2969 201.258 80.3211 207.119 80.7367ZM194.537 49.0616C194.533 49.058 194.533 49.058 194.529 49.0543C194.482 49.0033 194.431 48.9596 194.376 48.9195C194.424 48.8247 194.471 48.7299 194.518 48.6352C194.526 48.7737 194.533 48.9158 194.537 49.0616Z" fill="#373B50"/>
<path d="M212.551 57.8389C214.735 58.167 216.072 51.708 213.32 52.4625C213.331 52.4261 213.346 52.3896 213.357 52.3532C213.594 51.6533 213.809 50.9462 214.031 50.2427C214.713 49.6887 214.694 48.7045 214.756 47.9063C214.654 46.7654 213.142 46.7399 212.609 47.5892C211.501 49.6559 211.104 51.8246 210.258 53.9788C209.194 56.2242 210.076 57.6822 212.551 57.8389Z" fill="#373B50"/>
<path d="M154.408 87.6587C155.421 87.4765 156.697 86.2153 156.671 85.1473C156.613 84.247 156.121 83.0806 155.06 83.1462C153.176 83.0806 152.348 87.553 154.408 87.6587Z" fill="#373B50"/>
<path d="M130.144 117.967C130.384 116.848 130.603 115.729 130.822 114.606C131.037 112.966 128.759 113.279 128.631 114.642C128.471 115.977 127.698 117.329 127.898 118.659C128.452 119.804 130.016 119.002 130.144 117.967Z" fill="white"/>
<path d="M106.529 161.295C109.179 160.245 105.727 156.662 105.563 154.73C102.198 147.546 102.158 139.035 106.434 132.204C108.18 128.833 111.151 126.328 112.791 122.895C113.702 121.335 111.603 120.336 110.768 121.86C109.146 125.104 106.459 127.622 104.695 130.779C101.236 136.389 99.7928 143.398 101.225 149.872C101.849 151.413 104.841 162.487 106.529 161.295Z" fill="white"/>
<path d="M107.097 164.419C107.71 164.138 108.213 163.358 108.009 162.673C107.469 161.568 107.462 159.483 105.989 159.276C104.214 159.462 104.604 161.39 105.216 162.52C105.453 163.46 105.77 165.038 107.097 164.419Z" fill="white"/>
<path d="M91.0472 167.007C92.5672 165.166 89.3268 161.546 89.0534 159.465C87.8068 155.977 87.2272 152.339 86.5055 148.72C85.4157 138.572 87.0559 128.246 91.0071 118.889C91.3534 117.209 92.3557 115.601 92.4141 113.906C92.0714 112.66 90.3947 113.104 90.0375 114.118C89.1664 116.06 88.8529 118.185 88.1129 120.176C87.3767 121.878 86.4326 123.496 86.1592 125.362C83.4874 135.317 82.7402 145.866 85.4485 155.889C86.265 159.487 87.5298 162.946 89.0133 166.314C89.057 167.418 90.3145 167.852 91.0472 167.007Z" fill="white"/>
<path d="M130.516 146.041C132.933 145.494 132.152 141.306 132.885 139.407C133.534 136.961 134.442 134.592 135.127 132.157C136.683 128.355 132.849 127.991 133.151 130.775C133.002 132.773 127.538 146.143 130.516 146.041Z" fill="white"/>
<path d="M81.5225 171.727C82.4556 170.612 81.5552 169.533 80.2358 169.897C78.3877 170.079 75.3879 167.976 74.2434 170.006C73.9773 170.553 74.1413 171.392 74.7901 171.567C76.886 171.865 79.7036 173.283 81.5225 171.727Z" fill="white"/>
<path d="M75.9303 164.867C77.279 165.031 79.681 163.296 77.895 162.206C75.9558 162.41 73.8818 162.742 71.9609 162.064C66.7486 159.436 63.6977 154.202 59.8814 150.028C58.3395 148.523 56.1781 148.115 54.2572 147.316C53.2402 146.868 52.1248 148.016 52.38 149.037C53.3678 150.571 55.8901 150.232 57.3007 151.381C62.9651 156.298 67.0183 166.088 75.9303 164.867Z" fill="white"/>
<path d="M54.465 155.219C55.092 153.739 53.2768 153.6 52.289 153.323C50.0182 152.627 47.7182 152.029 45.4583 151.3C44.5798 151.038 43.7013 151.978 43.7925 152.831C44.4012 154.431 47.576 154.417 49.0595 155.069C50.6779 155.201 53.4481 157.125 54.465 155.219Z" fill="white"/>
<path d="M54.8462 137.821C55.4841 136.341 53.6178 136.301 52.7795 135.663C51.2194 135.087 49.4808 131.665 47.8806 133.505C46.6668 135.208 49.3167 136.072 50.3118 137.008C51.5219 137.792 53.8147 139.779 54.8462 137.821Z" fill="white"/>
<path d="M91.3568 211.388C93.11 211.213 94.8596 211.017 96.602 210.787C97.495 210.674 98.1511 209.435 97.5278 208.709C96.9118 208.133 95.9677 208.614 95.2241 208.589C92.3446 208.811 89.4723 209.139 86.5819 209.183C85.8966 209.179 85.3061 209.81 85.2004 210.455C85.0582 212.839 89.866 211.239 91.3568 211.388Z" fill="white"/>
<path d="M86.9058 204.885C89.3006 204.754 91.6881 204.871 94.0792 204.988C94.7098 205.017 95.2638 204.386 95.355 203.81C95.4716 203.238 95.067 202.655 94.4619 202.669C88.5023 201.842 81.883 203.748 76.5577 200.315C73.3173 197.701 69.5921 195.875 66.0018 193.801C64.048 192.919 56.7763 187.568 55.3948 189.948C54.407 191.884 57.4068 192.237 58.6097 192.857C61.9412 194.392 65.003 196.455 68.2434 198.171C75.2965 202.119 77.899 206.026 86.9058 204.885Z" fill="white"/>
<path d="M59.4869 180.391C59.7129 179.87 59.5963 179.137 58.9839 178.955C56.5162 178.23 54.198 177.085 51.8397 176.072C50.0026 175.726 46.4196 172.07 45.1985 174.224C43.7842 176.323 50.1448 177.894 51.519 178.824C53.2977 179.276 58.459 182.629 59.4869 180.391Z" fill="white"/>
<path d="M60.2848 80.1717C62.5083 75.2619 64.4329 70.2318 66.146 65.1215C68.0997 60.4268 70.4981 55.9434 72.2623 51.1648C73.0132 48.8831 70.2393 49.2366 69.8785 51.0919C68.2674 55.5571 65.9929 59.716 64.1449 64.0754C62.8437 67.5345 61.7392 71.0629 60.2775 74.4637C59.6032 76.1695 58.8341 77.8317 57.9812 79.4573C57.2559 81.2361 59.6324 81.7901 60.2848 80.1717Z" fill="white"/>
<path d="M37.509 61.7792C43.2463 59.5412 48.1597 55.7686 53.5142 52.7433C57.2686 50.8479 61.4749 49.8892 65.0616 47.6512C66.5888 46.9295 66.0421 44.3014 64.2706 45.4861C61.2052 47.3158 57.706 48.2672 54.4473 49.6887C50.4852 51.7008 46.5924 53.9388 42.9437 56.4757C41.1285 57.839 38.9415 58.4623 36.8894 59.348C35.1325 59.8364 35.5407 62.8399 37.509 61.7792Z" fill="white"/>
<path d="M91.7171 57.3834C94.3926 55.5281 97.345 54.1065 99.995 52.1965C104.573 50.5891 108.579 48.0631 112.228 44.8956C114.44 43.1642 116.634 41.3964 119.011 39.8947C119.857 39.2932 121.147 38.8449 121.216 37.653C121.285 36.6032 119.962 36.3262 119.335 37.0333C113.974 40.1097 109.599 44.6186 104.292 47.7679C99.3461 49.5539 95.1252 52.623 90.6054 55.2583C89.0636 56.1222 90.0404 58.6336 91.7171 57.3834Z" fill="white"/>
<path d="M84.9756 34.9919C93.7382 34.7732 102.523 33.3297 111.274 34.5326C112.995 34.5144 114.963 34.9554 116.552 34.2045C118.12 32.9106 116.17 31.274 114.759 32.2071C106.529 31.4307 98.32 31.274 90.0932 32.3128C88.1723 32.845 84.7278 31.2084 83.9587 33.6942C83.853 34.3285 84.2758 35.0356 84.9756 34.9919Z" fill="white"/>
</svg>
