<svg width="330" height="417" viewBox="0 0 330 417" fill="none" xmlns="http://www.w3.org/2000/svg">
<g clip-path="url(#clip0_4517_5012)">
<path d="M109.944 88.7916C111.561 88.7084 115.986 86.1363 114.931 84.2353C114.529 83.7047 113.796 83.8998 113.441 84.3731C112.002 86.7137 109.166 87.0674 106.654 86.9061C102.79 87.0232 99.9539 85.0415 102.362 81.1093C103.954 78.272 106.973 76.6128 108.995 74.098C113.832 68.4103 117.777 61.3002 118.031 53.7037C117.448 52.5412 116.227 53.7219 116.362 54.6685C115.96 56.9051 115.437 59.1286 114.752 61.2976C113.897 63.4925 112.777 65.586 111.592 67.6197C109.936 69.9135 108.394 72.3009 106.341 74.267C104.682 76.1421 102.46 77.5152 101.208 79.7284C96.7449 87.2884 103.272 89.9567 109.944 88.7916Z" fill="#373B50"/>
<path d="M143.261 87.9386C145.34 87.057 143.012 84.6696 142.18 83.6215C141.413 82.7581 140.243 84.1963 140.873 84.9687C141.415 85.6812 141.993 86.3678 142.501 87.1064C142.46 87.5485 142.768 88.0296 143.261 87.9386Z" fill="#373B50"/>
<path d="M138.894 86.9581C139.286 86.5628 139.309 85.8971 138.884 85.52C137.992 84.8516 136.631 81.554 135.423 82.7399C134.503 83.6917 135.727 84.6202 136.326 85.3405C137.051 85.9153 137.824 87.8762 138.894 86.9581Z" fill="#373B50"/>
<path d="M131.396 85.9335C133.074 85.4498 131.617 83.762 131.267 82.7841C130.611 81.6945 129.162 83.1118 129.735 84.0116C130.225 84.6384 130.484 85.8737 131.396 85.9335Z" fill="#373B50"/>
<path d="M97.3286 81.0883C98.3939 80.7476 98.0958 79.4395 97.904 78.6073C97.7589 77.9597 97.6111 76.6958 96.6624 77.0521C96.1103 77.2758 95.7915 78.069 96.1414 78.5813C96.3358 79.3953 96.0558 81.2652 97.3286 81.0883Z" fill="#373B50"/>
<path d="M93.9554 80.9667C94.4582 80.7509 94.7823 80.1137 94.6501 79.578C94.2638 78.7822 94.1316 77.0111 93.0067 77.084C91.905 77.4559 92.4545 78.6287 92.6412 79.4245C92.7397 80.1449 92.9548 81.3776 93.9554 80.9667Z" fill="#373B50"/>
<path d="M90.698 79.9443C91.6701 79.445 91.048 77.3879 90.1045 77.263C89.3009 77.25 88.8447 78.3995 89.4383 78.9405C89.5705 79.5672 89.9437 80.3864 90.698 79.9443Z" fill="#373B50"/>
<path d="M103.851 67.815C105.306 67.1649 107.193 66.3951 107.877 64.8659C110.332 63.1729 108.567 58.4163 106.273 57.2148C103.24 54.9782 99.2687 55.4906 95.8989 56.5906C92.8506 57.7869 90.4322 62.0962 92.2596 65.1286C94.9243 67.919 100.23 68.6628 103.851 67.815ZM100.272 66.0674C98.0193 65.8593 93.3094 65.49 93.3613 62.4837C93.522 60.7907 94.6495 59.0742 96.2463 58.4397C100.251 56.7779 107.628 57.3968 107.34 63.0844C107.097 63.1703 106.889 63.3835 106.786 63.6254C106.752 63.7008 106.729 63.784 106.716 63.8698C105.041 65.6201 102.675 66.4393 100.272 66.0674Z" fill="#373B50"/>
<path d="M101.215 60.8398C102.28 60.3899 103.957 58.1819 102.213 57.615C101.448 56.1847 99.6542 57.0949 98.931 58.0987C97.3317 60.2703 98.7211 62.3664 101.215 60.8398Z" fill="#373B50"/>
<path d="M148.805 72.6727C155.98 72.085 157.312 67.4246 153.004 62.0881C148.336 57.9713 140.456 57.1885 135.386 60.9958C134.613 60.6733 133.9 61.5055 133.382 61.9815C132.231 63.1361 132.2 64.8968 132.68 66.3688C133.481 68.7795 136.005 69.8536 138.105 70.8965C141.358 72.6259 145.176 73.0576 148.805 72.6727ZM144.253 70.691C141.088 70.3165 138.107 68.972 135.474 67.2036C134.453 66.3974 133.589 64.7043 134.364 63.5002C135.259 62.668 136.62 62.3299 137.719 61.7526C140.093 60.4627 142.815 60.5693 145.417 60.9126C149.406 61.5029 153.751 64.1244 153.707 68.6131C151.726 71.1982 147.208 70.8263 144.253 70.691Z" fill="#373B50"/>
<path d="M145.876 65.1675C148.45 64.3015 148.557 59.7244 145.327 60.2055C143.741 59.1314 141.434 60.6138 141.047 62.3224C140.596 64.78 143.945 66.1974 145.876 65.1675ZM144.936 63.5473C145.262 63.3653 145.521 63.0818 145.705 62.7385C145.799 62.5669 145.866 62.377 145.908 62.1846C146.53 62.8711 145.581 63.4797 144.936 63.5473ZM143.033 62.8893C142.955 62.7905 142.854 62.6553 142.818 62.5383C142.857 62.468 142.911 62.4056 142.971 62.3536C142.96 62.5356 142.978 62.7177 143.033 62.8893Z" fill="#373B50"/>
<path d="M159.87 59.8857C160.101 60.5801 161.109 60.32 161.293 59.7141C161.801 57.5919 158.336 55.3892 156.879 54.1903C152.307 51.4856 147.363 49.4259 142.475 47.3584C139.188 45.7486 135.803 44.2532 132.163 43.6785C130.183 43.0101 127.788 44.2818 129.54 46.4039C132.612 48.8668 136.811 49.7224 140.209 51.5688C144.948 53.756 149.271 56.7155 154.087 58.731C155.386 59.0639 159.513 62.2003 159.87 59.8857ZM158.375 57.9612C158.369 57.9586 158.364 57.9534 158.359 57.9508C158.227 57.8494 158.092 57.7532 157.957 57.6569C157.952 57.6283 157.947 57.5971 157.942 57.5685C158.087 57.6985 158.232 57.8286 158.375 57.9612Z" fill="#373B50"/>
<path d="M166.532 282.124C166.33 282.225 166.128 282.324 165.923 282.42C166.138 282.555 166.327 282.774 166.46 283.089C166.657 283.401 166.848 283.713 167.033 284.03C167.123 283.983 167.214 283.936 167.305 283.887C167.056 283.297 166.802 282.706 166.532 282.124Z" fill="#373B50"/>
<path d="M165.937 282.423C166.142 282.326 166.344 282.228 166.546 282.126C166.815 282.709 167.07 283.299 167.318 283.892C167.228 283.941 167.137 283.988 167.046 284.035C166.862 283.718 166.67 283.403 166.473 283.094C166.341 282.776 166.152 282.558 165.937 282.423ZM20.5404 418.319C20.4471 419.224 19.9235 420.897 21.3051 420.964C27.044 421.443 32.5315 423.411 38.2808 423.939C48.4625 425.229 58.7221 425.788 68.9454 426.678C84.2258 428.095 99.5244 429.289 114.797 430.779C130.285 433.203 145.949 434.066 161.616 433.996C170.649 433.819 179.623 432.454 188.67 432.727C198.867 432.293 209.1 433.785 219.251 432.597C225.573 431.939 231.924 431.713 238.199 430.623C240.538 430.272 242.624 430.912 242.326 427.643C242.984 419.001 245.094 410.536 246.201 401.946C247.267 394.734 247.785 387.447 248.7 380.225C249.348 375.151 249.467 370.038 249.587 364.931C249.965 356.38 250.888 347.86 251.577 339.333C252.726 326.771 256.031 314.577 258.387 302.216C260.406 292.474 261.002 282.423 260.821 272.488C260.886 265.043 260.37 257.493 258.498 250.271C256.93 245.527 254.398 241.174 251.894 236.88C241.354 219.386 222.305 210.104 204.484 201.745C198.823 199.329 193.405 196.411 187.801 193.881C183.996 192.139 180.178 189.845 176.038 189.039C175.45 188.922 174.854 188.838 174.25 188.789C174.208 188.784 174.169 188.781 174.128 188.779C173.402 188.89 173.049 189.6 173.138 190.199C170.4 191.712 167.972 193.863 165.517 195.79C155.252 204.213 145.83 213.669 134.93 221.3C131.2 218.27 127.519 215.199 124.948 211.095C124.823 210.923 124.657 210.835 124.479 210.809C124.077 210.341 123.647 209.854 123.092 209.792C123.074 209.797 123.058 209.802 123.04 209.81C121.604 210.315 122.239 211.43 123.037 212.239C123.079 222.743 123.836 233.216 123.976 243.72C124.199 262.036 125.593 280.425 126.907 298.703C133.411 294.843 140.713 293.14 147.634 290.05C150.871 288.773 153.953 287.143 157.173 285.829C159.498 284.896 161.896 284.142 164.21 283.187C164.169 283.372 164.161 283.58 164.203 283.806C164.337 284.274 164.698 284.612 164.993 284.995C165.092 285.125 165.182 285.257 165.255 285.4C171.492 298.565 177.047 312.067 182.783 325.463C185.033 330.488 187 335.723 189.559 340.555C190.144 341.619 190.709 342.687 191.21 343.793C191.262 343.931 191.313 344.084 191.376 344.243C191.635 344.911 192.021 345.618 192.817 345.158C192.851 345.135 192.884 345.111 192.915 345.083C192.459 346.396 189.356 347.387 188.309 348.253C188.224 348.294 188.138 348.339 188.053 348.383C190.624 348.791 193.084 349.121 195.686 349.712C200.544 351.543 205.63 354.362 208.258 359.022C211.037 364.45 212.831 370.624 212.265 376.761C211.335 380.633 207.895 382.004 205.23 378.67C204.072 384.716 199.069 381.255 197.314 377.583C195.956 386.11 189.206 382.956 187.42 376.402C168.332 384.618 147.302 385.921 126.882 388.004C113.496 389.652 100.105 391.262 86.6598 392.31C72.6495 392.55 58.6754 393.881 44.6651 394.076C37.9516 394.435 30.507 393.546 23.7546 391.156C23.8142 390.617 23.5472 390.006 22.9381 389.97C22.5959 389.879 22.3134 390.095 22.0801 390.526C20.8877 392.708 20.9214 400.404 20.81 401.732C20.6778 407.256 20.7944 412.798 20.5404 418.319Z" fill="#FF9142"/>
<path d="M3.90987 308.931C3.90987 308.923 3.90987 308.918 3.90987 308.91C3.93838 308.913 3.96429 308.918 3.9928 308.923C3.96429 308.926 3.93579 308.929 3.90987 308.931ZM2.80822 280.012C2.29239 287.957 1.62881 295.923 1.80248 303.891C1.83618 306.109 1.97874 308.562 2.0565 310.707C1.98652 311.113 2.06685 311.636 2.32866 311.932C2.50233 312.127 2.75379 312.229 3.09854 312.135C3.48994 312.026 3.74914 311.724 3.88911 311.371C3.91762 311.293 3.95391 311.212 3.98502 311.134C4.14573 311.129 4.30643 311.123 4.46714 311.118C14.9418 310.798 25.4243 312.031 35.912 311.394C37.3584 311.342 38.7892 311.061 40.2382 311.157C40.4922 311.147 40.767 311.142 41.0366 311.121C41.7442 311.064 42.4337 310.897 42.7266 310.255C43.1621 314.169 42.7733 318.156 42.8433 322.088C42.8303 327.276 42.9418 332.243 42.8822 337.52C42.9107 340.552 44.23 343.509 46.887 345.096C51.6175 347.012 56.7966 347.249 61.8253 347.858C66.1904 348.073 70.5114 348.945 74.8921 348.843C80.1203 348.739 85.3538 348.742 90.5821 348.812C92.5573 349.062 94.4754 349.473 96.4688 349.345C86.8754 333.783 89.2186 305.506 88.7832 289.811C89.2575 262.27 89.6515 234.729 91.1446 207.222C91.1368 200.242 92.3058 193.364 93.016 186.446C93.3504 186.155 93.6252 185.848 93.8248 185.52C93.8196 184.883 93.563 184.581 93.2027 184.493C92.7076 184.373 92.0129 184.657 91.4945 185.039C90.0973 185.749 88.6821 186.422 87.2409 187.044C80.1074 189.824 72.9636 192.599 65.6357 194.833C50.4978 200 33.872 203.647 21.7124 214.728C16.7511 219.352 13.9517 225.786 11.2377 231.89C6.59526 247.577 4.88968 263.841 2.80822 280.012Z" fill="#FF9142"/>
<path d="M176.357 93.036V93.0334C176.871 86.4382 177.083 79.8221 176.998 73.2009C178.304 73.1307 179.942 73.2087 181.116 72.5403C189.302 78.2097 187.102 85.0338 180.002 90.555C178.905 91.5432 177.695 92.4067 176.357 93.036ZM110.956 46.5313C111.018 46.4688 111.08 46.4064 111.14 46.3414C111.404 46.0683 111.661 45.7927 111.92 45.5196C111.842 45.8161 111.728 46.1022 111.57 46.3648C111.539 46.3596 111.505 46.3596 111.474 46.3596C111.288 46.3596 111.117 46.4298 110.956 46.5313ZM86.0199 97.582C86.3517 93.8318 86.7172 90.0843 86.9401 86.3263C88.1013 73.4896 89.8044 60.6918 91.09 47.8706C91.427 48.7548 92.4379 49.6312 93.2622 49.9095C95.0586 50.8067 97.0182 51.2514 99.0089 51.4179C101.064 51.7534 103.143 52.1955 105.233 51.899C108.27 51.5037 111.594 50.1462 113.022 47.249C113.631 45.9955 114.129 44.1595 113.188 42.9658C112.934 42.0321 111.925 42.5289 111.568 43.1166C109.683 45.5638 106.625 46.0813 103.719 45.9981C99.7814 46.3544 95.8103 45.8967 91.8936 46.0917C91.5851 46.2322 91.3648 46.4038 91.2171 46.5911C91.3518 45.2127 91.4814 43.8344 91.6059 42.456C91.8988 39.0908 92.2798 35.6814 92.4068 32.3057C96.6553 31.8142 99.9991 28.1499 104.38 28.0459C109.227 28.1395 113.323 31.3877 118.115 31.9C123.217 32.6906 128.178 30.0614 133.292 30.4619C140.045 30.3422 139.855 35.0676 147.906 37.0909C151.688 38.3782 155.807 38.1078 159.724 38.8047C162.28 39.031 164.218 40.6382 166.056 42.274C166.992 42.9996 167.811 43.8656 168.451 44.8668C168.547 44.9787 168.651 45.0541 168.757 45.0983C168.965 45.3064 169.224 45.4988 169.32 45.7953C170.346 49.7249 170.038 53.9639 169.618 57.9663C169.185 62.0207 168.127 65.9815 167.969 70.0697C167.77 74.1111 167.871 78.1655 167.604 82.2095C167.334 85.5722 166.686 88.8854 166.279 92.2298C166.02 95.1711 165.89 98.1515 164.898 100.963C163.918 103.405 161.982 105.779 159.576 106.892C156.403 107.792 152.901 108.328 149.687 107.358C144.493 104.973 139.062 103.285 133.463 102.169C129.044 101.379 124.583 101.038 120.114 100.692C117.335 100.136 114.517 99.9251 111.705 99.6391C104.403 98.3725 96.9482 98.6248 89.5866 98.1541C88.3942 97.9851 87.2226 97.6886 86.0199 97.582ZM0.0216287 338.074C-0.167595 348.877 0.918488 359.717 3.02587 370.301C5.37691 380.368 12.9614 386.888 22.0778 390.524C22.3111 390.092 22.5962 389.876 22.9358 389.967C23.545 390.004 23.8119 390.612 23.7523 391.153C30.5048 393.546 37.9493 394.433 44.6629 394.074C58.6732 393.879 72.6472 392.545 86.6575 392.308C100.105 391.257 113.496 389.65 126.879 388.001C147.3 385.918 168.33 384.618 187.418 376.4C189.204 382.953 195.954 386.111 197.312 377.581C199.067 381.253 204.067 384.717 205.228 378.668C207.893 382.002 211.333 380.629 212.263 376.759C212.828 370.619 211.035 364.447 208.256 359.02C205.627 354.357 200.542 351.538 195.684 349.709C193.082 349.122 190.619 348.791 188.05 348.38C188.136 348.339 188.221 348.295 188.307 348.25C189.357 347.382 192.457 346.394 192.913 345.08C192.882 345.106 192.848 345.132 192.815 345.156C192.019 345.619 191.633 344.909 191.373 344.24C187.503 346.388 183.742 348.768 179.455 350.068C171.23 353.686 162.513 355.618 153.65 356.835C145.851 358.146 137.769 358.864 129.863 358.887C123.818 358.775 117.701 359.137 111.7 358.338C107.952 357.267 104.349 355.225 101.456 352.604C89.8925 340.149 91.3026 319.961 90.5405 304.021C90.4498 288.082 90.7712 272.143 91.2482 256.211C91.8754 244.693 91.3311 233.148 92.2669 221.643C92.9641 212.918 92.8501 204.136 93.7936 195.431C94.5634 189.785 95.2063 184.139 95.5303 178.449C96.1265 175.097 96.2354 171.698 95.9528 168.301C95.5718 162.01 93.8506 165.123 89.5607 161.488C87.5777 159.641 85.8203 157.043 86.0717 154.221C86.642 149.925 88.2854 149.033 92.1217 151.571C95.3592 150.768 89.3948 147.426 93.2881 145.239L93.2778 145.257C95.4033 145.257 97.2903 146.648 98.8197 148.008C99.5118 148.984 100.782 147.78 100.292 146.877C99.9032 145.504 99.5144 143.751 100.339 142.503C103.475 141.678 106.163 144.989 108.53 146.669C108.465 147.782 109.909 147.595 110.196 146.758C110.22 146.674 110.235 146.596 110.243 146.513C110.383 146.471 110.515 146.388 110.627 146.25C112.081 143.964 105.445 136.49 105.388 133.367C106.632 132.956 107.877 134.16 108.869 134.797C112.721 137.621 114.608 141.944 115.692 146.469C118.229 153.774 119.546 161.36 119.735 169.089C120.119 183.109 120.93 197.116 121.314 211.134C121.27 219.375 121.604 227.591 122.143 235.811C122.115 247.78 122.867 259.61 123.315 271.547C123.631 278.982 124.406 286.389 124.87 293.814C124.995 295.86 125.119 297.907 125.267 299.951C125.174 300.583 125.448 301.509 126.117 301.509C126.231 301.509 126.358 301.483 126.493 301.423C131.397 297.551 137.836 296.251 143.513 293.827C148.37 292.004 153.039 289.741 157.803 287.705C160.185 286.763 162.645 285.996 165.001 284.992C164.708 284.61 164.346 284.272 164.211 283.804C164.169 283.575 164.177 283.37 164.219 283.185C161.904 284.139 159.506 284.894 157.181 285.827C153.962 287.14 150.877 288.771 147.642 290.048C140.721 293.138 133.422 294.841 126.916 298.7C125.601 280.423 124.207 262.031 123.984 243.717C123.841 233.213 123.087 222.741 123.046 212.237C122.25 211.43 121.615 210.315 123.048 209.808C123.048 209.802 123.048 209.797 123.048 209.792C122.755 199.988 122.475 190.186 121.918 180.394C121.581 171.687 121.825 162.83 119.956 154.281C119.178 150.838 118.043 147.491 117.063 144.102C116.85 143.317 116.614 142.534 116.347 141.764C120.726 142.638 125.132 143.819 129.655 143.543C132.631 143.078 135.622 143.085 138.611 142.958C141.411 142.62 144.213 142.245 146.999 141.816C151.924 140.831 156.507 138.537 161.206 136.893C165.349 134.753 169.88 132.056 171.912 127.664C172.179 127.011 172.433 126.353 172.671 125.687C172.443 130.176 172.083 134.662 171.837 139.145C172.099 148.399 172.194 157.709 172.495 166.941C173.091 173.016 173.216 179.133 173.98 185.19C174.094 186.384 174.19 187.583 174.255 188.781C174.859 188.831 175.453 188.914 176.044 189.031C175.997 188.178 175.738 187.211 175.818 186.568C175.608 183.557 175.072 180.574 175.002 177.552C174.214 166.939 173.726 156.258 173.781 145.637C173.281 136.662 174.584 127.734 174.608 118.751C174.621 118.577 174.628 118.411 174.631 118.252C174.994 116.023 175.155 113.761 175.061 111.493C174.965 105.948 175.515 100.461 176.142 94.9683C176.295 95.0229 176.484 95.0203 176.705 94.9371C186.804 89.6032 193.683 78.4776 182.203 70.7225C182.584 67.8071 182.991 64.8424 182.908 61.8933C182.449 56.2239 179.198 54.9652 179.883 48.3647C180.287 42.8123 180.73 36.2587 175.945 32.3837C173.672 30.917 171.274 29.6427 169.221 27.8456C163.485 22.6131 158.612 15.5706 150.6 13.7709C147.782 12.8399 144.843 13.0974 141.929 13.1156C139.249 12.9855 136.589 12.4238 134.028 11.6306C126.786 9.60989 119.23 5.2512 111.57 7.32652C100.266 13.7423 96.212 3.67261 86.7457 16.2857C84.7705 18.8786 83.2023 22.5351 85.0504 25.6013C86.2843 28.1369 87.5933 31.6322 90.639 32.3083C89.2185 52.4685 86.2661 72.4493 84.6564 92.5809C84.0887 101.766 82.3624 111.064 84.2624 120.205C85.0608 125.614 87.22 130.995 91.904 134.142C93.9543 135.884 96.4661 136.953 99.066 137.562C99.6129 137.819 100.24 138.11 100.73 137.915C101.109 137.934 101.495 137.934 101.775 138.009C102.858 138.032 103.978 138.937 105.01 138.597C105.098 138.547 105.176 138.485 105.243 138.409C105.989 139.645 106.824 140.851 107.405 142.134C107.716 142.737 108.029 143.34 108.341 143.946C107.379 143.244 106.301 142.615 105.759 142.079C102.296 139.276 97.8477 139.775 98.1794 145.036C94.4675 142.134 89.7992 143.166 90.3046 148.435C85.6985 146.82 83.9436 152.755 84.4102 156.302C85.193 161.209 89.2004 164.452 93.6588 166.015C94.6153 170.808 94.0787 175.612 93.4748 180.397C93.4151 181.767 93.3167 183.138 93.1974 184.503C93.5577 184.592 93.8144 184.893 93.8195 185.531C93.6199 185.858 93.3426 186.165 93.0108 186.456C92.3006 193.377 91.1315 200.253 91.1393 207.233C89.6488 234.74 89.2548 262.281 88.7779 289.822C89.2133 305.514 86.8701 333.793 96.4635 349.356C94.4727 349.481 92.552 349.07 90.5768 348.823C85.3511 348.752 80.1151 348.75 74.8868 348.854C70.5061 348.955 66.1851 348.084 61.82 347.868C56.7913 347.257 51.6123 347.02 46.8817 345.106C44.2248 343.52 42.9054 340.563 42.8769 337.531C42.9365 332.254 42.825 327.284 42.838 322.098C42.768 318.166 43.1543 314.179 42.7214 310.265C42.4285 310.908 41.739 311.074 41.0313 311.131C41.1402 318.083 40.785 325.172 40.9795 332.1C41.0857 336.857 40.3392 342.526 44.4088 345.928C49.199 349.52 55.8452 349.09 61.5297 350.019C65.9051 350.232 70.2262 351.119 74.6198 351.031C81.7377 350.893 88.8686 350.734 95.9191 351.53C96.492 351.431 97.2204 351.486 97.718 351.228C99.7217 353.961 102.176 356.203 105.176 357.782C108.838 360.177 113.102 360.929 117.415 360.767C121.923 360.949 126.439 360.929 130.949 360.918C139.884 360.812 148.803 359.782 157.596 358.2C167.021 356.892 176.22 353.941 184.854 349.93C188.242 350.947 192.117 350.776 195.539 351.91C201.711 354.146 207.107 358.588 208.782 365.168C210.143 368.975 211.195 373.516 210.241 377.435C209.08 380.192 206.488 377.547 205.521 376.005C204.606 374.712 204.684 373.024 204.095 371.576C203.696 369.898 201.921 370.71 201.965 372.117C201.98 374.73 204.985 377.562 202.877 380.004C200.003 379.991 198.517 375.695 197.309 373.518C197.068 373.076 197.032 372.548 196.832 372.101C196.332 371.232 195.194 371.987 195.21 372.801C195.461 375.321 196.586 379.427 193.753 380.818C189.333 381.11 189.51 372.449 187.418 374.332C177.197 378.948 166.144 381.12 155.133 382.813C144.283 384.493 133.292 385.104 122.408 386.537C109.862 387.91 97.3396 389.593 84.7342 390.295C68.4065 390.48 52.0789 392.753 35.7486 391.689C21.2432 390.246 5.26286 381.377 4.00569 365.394C2.29231 352.898 0.98846 340.084 2.75109 327.536C3.32135 322.608 3.59093 317.633 4.21045 312.731C4.14824 312.263 4.31415 311.696 4.45931 311.134C4.2986 311.139 4.13786 311.144 3.97715 311.15C3.94605 311.23 3.91235 311.308 3.88125 311.386C3.74127 311.74 3.48208 312.042 3.09067 312.151C2.74851 312.244 2.4945 312.143 2.32082 311.948C2.11864 313.823 2.16528 316.015 1.87755 316.785C1.35913 323.997 0.143458 330.889 0.0216287 338.074Z" fill="#373B50"/>
<path d="M243.372 60.1247C244.924 59.9843 246.643 58.7048 246.508 57.0092C246.539 56.6061 246.233 56.1769 245.798 56.2342C245.186 56.2992 245.01 56.9441 244.968 57.4513C244.32 58.5227 242.864 58.5747 242.086 57.6203C241.746 57.2926 241.238 57.4773 240.984 57.8128C240.098 59.1183 242.273 60.2262 243.372 60.1247Z" fill="#373B50"/>
<path d="M240.906 50.0002C242.578 49.0744 241.66 46.0108 239.786 46.1825C239.138 46.3333 238.669 47.0953 238.988 47.7247C238.42 48.8845 239.561 50.8064 240.906 50.0002Z" fill="#373B50"/>
<path d="M296.47 57.446C298.015 56.9778 299.114 55.4617 300.014 54.1873C300.983 52.4137 300.237 49.7818 298 49.6206C296.74 49.2825 293.37 50.3046 293.803 51.9794C294.228 52.9624 295.141 52.1432 295.721 51.787C296.628 51.2746 298.324 51.1056 298.795 52.2577C298.79 52.2395 298.785 52.2187 298.78 52.2005C298.775 52.1848 298.767 52.1718 298.764 52.1432C299.195 53.597 297.424 55.03 296.323 55.7009C295.257 55.8179 295.244 57.719 296.47 57.446Z" fill="#373B50"/>
<path d="M295.279 48.8871C297.032 47.4827 299.085 44.83 298.063 42.5025C297.283 41.2724 295.603 40.6066 294.282 41.3738C293.424 41.8575 291.705 42.6689 292.4 43.8782C293.584 45.0927 294.943 41.0461 296.817 43.7898C296.607 45.3528 295.585 46.7753 294.292 47.6413C293.903 47.6986 293.615 48.0783 293.558 48.4501C293.413 49.6048 294.676 49.4956 295.279 48.8871Z" fill="#373B50"/>
<path d="M293.896 40.1542C296.317 39.0906 297.426 32.602 293.448 33.8425C292.683 34.0635 291.607 34.4562 291.822 35.4523C292.097 36.5081 293.129 35.8086 293.766 35.5537C295.107 35.0128 294.446 37.499 293.938 38.0113C293.58 38.5705 292.743 38.997 293.028 39.7771C293.157 40.149 293.554 40.2999 293.896 40.1542Z" fill="#373B50"/>
<path d="M283.736 33.8765C287.205 31.5905 285.432 24.2203 280.784 27.5153C278.775 28.982 279.923 30.9247 281.095 29.5074C281.567 28.6804 282.694 28.2045 283.547 28.748C283.516 28.722 283.493 28.7064 283.462 28.6804C284.268 29.6166 284.123 31.4501 283.272 32.3187C281.862 32.5059 282.295 34.7139 283.736 33.8765Z" fill="#373B50"/>
<path d="M278.864 28.1185C279.797 27.5723 279.893 26.3058 280.134 25.3462C280.823 23.2605 280.245 19.7808 277.459 19.9966C276.37 20.0539 275.434 20.7274 274.776 21.5622C273.97 22.6129 275.271 23.8196 276.067 22.5973C276.411 22.0564 277.153 21.7183 277.767 21.8223C279.587 22.7507 278.565 25.1329 278.265 26.6803C277.674 27.177 277.954 28.4878 278.864 28.1185Z" fill="#373B50"/>
<path d="M259.255 96.7575C260.398 96.5937 265.194 94.8096 262.845 93.4573C261.575 93.8188 260.466 94.7212 259.105 94.9214C258.125 95.1269 258.097 96.989 259.255 96.7575Z" fill="#373B50"/>
<path d="M263.956 101.428C265.205 101.01 268.72 99.6834 268.953 98.3518C268.707 96.5288 266.794 98.4663 265.926 98.7705C262.641 100.921 258.484 98.8537 258.276 100.734C257.747 102.482 263.007 101.634 263.956 101.428Z" fill="#373B50"/>
<path d="M266.153 110.013C267.056 109.794 268.188 110.145 268.948 109.573C269.482 109.087 269.352 107.917 268.489 107.966C263.792 108.642 262.418 108.031 258.491 105.498C257.416 104.796 254.274 102.442 253.605 104.497C253.437 105.685 255.01 105.386 255.679 105.93C258.893 107.831 262.164 110.785 266.153 110.013Z" fill="#373B50"/>
<path d="M282.307 129.164C283.901 129.068 290.076 127.203 289.402 125.12C289.21 124.764 288.806 124.709 288.474 124.894C286.618 126.085 284.617 127.115 282.388 127.312C281.405 127.38 281.177 129.213 282.307 129.164Z" fill="#373B50"/>
<path d="M270.79 125.755C273.807 125.942 276.415 124.377 278.978 122.998C279.748 122.639 279.515 121.074 278.54 121.461C276.223 122.655 273.874 124.036 271.179 123.911C268.568 124.527 257.104 119.334 256.673 121.713C256.546 122.143 256.694 122.684 257.171 122.808C259.009 123.279 260.898 123.526 262.726 124.051C265.385 124.73 268.009 125.789 270.79 125.755Z" fill="#373B50"/>
<path d="M262.555 128.314C263.28 126.907 261.16 126.314 260.237 125.783C259.047 125.26 257.744 125.469 256.486 125.326C255.709 125.214 254.597 124.67 254.299 125.762C253.944 127.494 257.474 127.12 258.565 127.372C259.177 127.461 259.898 127.77 260.372 128.054C261.056 128.462 261.969 129.343 262.555 128.314Z" fill="#373B50"/>
<path d="M312.7 138.423C315.36 136.573 318.584 135.094 320.606 132.529C321.321 131.141 319.533 130.335 319.217 131.937C317.047 133.812 314.413 135.091 312.119 136.813C311.223 137.281 311.619 139.002 312.7 138.423Z" fill="#373B50"/>
<path d="M297.583 136.35C300.929 135.497 303.806 133.375 307.083 132.264C309.664 131.476 317.505 130.21 318.402 127.495C318.475 126.74 317.518 126.434 317.119 127.063C312.518 129.614 307.14 129.903 302.469 132.311C300.823 133.102 299.254 134.098 297.424 134.397C296.39 134.602 296.336 136.602 297.583 136.35Z" fill="#373B50"/>
<path d="M279.007 152.458C280.298 152.713 288.414 149.179 285.13 147.941C283.505 148.981 281.783 150.086 279.785 150.349C278.123 150.273 277.53 152.307 279.007 152.458Z" fill="#373B50"/>
<path d="M274.144 72.369C275.098 72.1505 276.879 70.5745 275.261 70.0076C274.624 70.2702 273.781 70.2754 273.304 70.8112C272.731 71.4457 273.193 72.7695 274.144 72.369Z" fill="#373B50"/>
<path d="M272.167 31.1718C271.436 27.0315 271.338 22.7509 271.387 18.5534C272.007 13.9373 271.582 4.09903 276.33 1.99251C279.272 3.30324 278.223 9.41476 278.365 12.1272C278.407 13.1571 277.429 17.1231 279.563 15.7915C280.752 13.9087 281.499 11.243 283.881 10.5408C284.584 10.5304 285.04 11.1676 285.405 11.6877C286.914 14.1063 285.833 17.006 285.506 19.6093C285.436 20.6209 283.443 24.5037 285.582 24.111C287.173 22.8575 287.927 19.8902 290.372 20.028C292.839 21.1957 290.983 26.0719 290.455 28.1108C290.25 28.6855 290.009 29.2447 289.724 29.783C289.558 30.0795 289.599 30.4592 289.768 30.7323C284.177 37.4939 281.714 42.7654 282.787 52.1044C282.821 57.6281 281.787 63.2663 279.386 68.2492C279.316 68.3792 279.244 68.5066 279.174 68.6367C278.067 67.2999 276.1 65.8046 274.949 64.9412C275.319 62.8216 275.641 60.5201 275.431 58.3537C277.536 57.2666 279.171 55.3864 279.869 53.0276C280.838 49.6858 279.49 45.041 275.384 45.1658C275.884 43.1243 275.672 41.5483 274.607 40.7213C274.301 37.4159 273.505 34.2171 272.167 31.1718ZM269.171 59.1365C269.171 59.1339 269.168 59.1313 269.166 59.1287C270.397 59.4304 271.672 59.4798 272.828 59.2379C273.116 59.1859 273.399 59.1209 273.676 59.0429C273.723 59.6332 273.782 60.2236 273.694 60.6761C273.653 61.6903 273.572 62.702 273.419 63.7058C272.385 62.8034 271.403 61.8438 270.459 60.8503C270.454 60.8425 270.449 60.8373 270.444 60.8295C270.392 60.4498 270.081 60.104 269.689 60.156C269.49 59.7997 269.288 59.4538 269.171 59.1365ZM238.34 113.032C238.281 112.676 238.146 112.434 237.972 112.286C240.72 111.069 243.411 109.69 245.909 108.018C245.969 108.034 246.029 108.042 246.088 108.042C246.459 111.69 246.671 115.373 246.648 119.024C246.661 119.674 246.671 120.325 246.679 120.975C244.453 121.451 242.205 121.607 239.95 121.674C239.833 121.089 239.644 120.491 239.618 120.023C239.1 117.708 238.859 115.339 238.34 113.032ZM235.836 52.2266C235.59 47.7405 235.751 42.8357 238.141 38.9165C238.359 38.4978 238.729 38.1727 239.03 37.8164C240.829 41.4625 246.679 40.9346 249.541 38.8801C250.085 41.8682 252.947 43.8551 255.868 43.9747C255.062 48.4661 258.696 52.9522 263.308 52.7389C263.274 55.1757 264.801 57.0872 266.843 58.2237C266.784 58.9389 267.219 59.7971 267.52 60.4186C267.662 60.6267 267.779 60.9258 267.901 61.2456C266.164 62.2547 264.324 63.1103 262.654 64.226C259.756 66.3949 256.389 67.6666 253.064 68.993C251.711 69.6041 250.308 70.1321 248.997 70.8212C248.551 68.7771 247.449 66.1114 247.296 65.3C246.959 63.3314 246.078 63.6174 244.491 63.1051C239.927 61.3601 236.469 57.0846 235.836 52.2266ZM226.777 126.483C224.475 126.8 224.597 117.277 226.336 116.606C229.475 114.853 233.076 114.221 236.414 112.939C236.37 113.209 236.451 113.516 236.728 113.82C237.265 116.434 237.666 119.084 238.162 121.711C237.55 121.721 236.938 121.729 236.326 121.739C234.061 122.005 235.606 125.039 234.253 126.106C233.379 126.348 232.892 125.092 232.638 124.431C232.602 123.679 232.975 122.634 232.327 122.075C230.059 121.622 231.502 125.266 230.699 126.413C228.278 126.514 229.678 122.491 228.267 121.747C226.189 121.825 227.754 125.292 226.777 126.483ZM226.689 63.7605C227.101 60.8789 226.158 58.0104 226.235 55.1549C227.091 56.2368 227.788 57.5137 228.032 58.879C228.169 59.3082 228.693 59.4746 229.063 59.2249C230.341 58.0676 228.801 55.8753 228.89 54.3851C229.818 55.6464 229.685 57.3915 230.507 58.6632C230.701 58.8608 230.987 58.8686 231.233 58.775C232.887 57.5995 231.015 55.2772 231.334 53.6804C232.555 56.1796 232.822 58.9831 233.032 61.7164C233.226 63.9061 233.338 66.088 233.364 68.2726C233.086 68.2206 232.78 68.2258 232.524 68.2492C230.873 68.3012 229.214 68.1243 227.568 68.2804C227.052 68.4572 226.318 68.5118 225.694 68.6939C225.968 66.9697 226.44 65.4691 226.689 63.7605ZM235.639 102.357C223.97 102.697 223.799 96.3908 224.416 86.693C224.558 81.3746 224.758 76.0303 225.411 70.7458C227.254 70.2855 229.278 70.2361 231.155 70.2387C231.782 70.1659 232.713 70.3479 233.366 70.1555C233.361 70.7224 233.353 71.2893 233.338 71.8563C233.273 74.5896 233.019 77.3098 233.138 80.0483C233.239 82.2277 232.858 84.5344 233.672 86.6097C235.017 89.6967 238.048 86.3081 239.675 85.2262C241.477 83.9259 243.418 82.8674 245.373 81.8219C247.384 80.6439 249.334 79.3696 251.399 78.2773C252.765 77.4867 254.134 76.7039 255.513 75.9315C255.938 75.7677 256.179 75.2189 256.086 74.7872C255.648 73.4219 253.683 75.0889 252.874 75.3697C251.228 76.3294 249.543 77.2162 247.887 78.155C247.916 77.9262 247.944 77.7103 248.004 77.5205C248.209 76.1239 248.346 74.717 248.628 73.3308C248.872 73.2788 249.025 73.1072 249.108 72.8497C251.882 71.37 254.86 70.2959 257.776 69.1308C260.892 67.8071 263.505 65.5965 266.53 64.1193C267.224 63.6512 268.106 63.2845 268.873 62.8086C269.067 62.897 269.295 62.8996 269.575 62.7774C271.926 65.4093 275.032 67.1673 277.463 69.7003C277.676 69.8954 277.896 70.2101 278.132 70.5013C277.409 71.7809 276.688 73.063 276.069 74.3035C276.009 74.6676 276.183 75.1539 276.579 75.2241C277.911 75.4894 278.28 73.6533 278.806 72.7691C282.308 67.2947 284.195 60.9258 284.485 54.4371C284.625 48.8119 283.417 44.0294 286.359 38.8099C288.397 34.6436 291.655 31.2654 294.558 27.7051C296.344 25.0446 298.187 22.3972 300.554 20.21C301.733 18.8083 304.037 19.5209 304.649 21.1281C305.385 22.8315 304.771 24.678 304.229 26.3424C303.096 29.1329 301.733 31.8271 300.458 34.5552C300.087 35.1221 299.885 36.1702 300.732 36.4043C301.344 36.5057 301.847 35.996 302.365 35.7489C303.221 35.2938 304.185 35.0389 305.121 34.8751C307.423 35.5539 305.976 38.9607 305.51 40.5809C304.672 42.703 303.13 44.4585 301.699 46.1931C301.375 46.6924 301.487 47.5402 302.145 47.6703C306.269 46.5754 308.332 46.7028 306.904 51.6753C306.145 53.9092 304.18 55.4956 302.202 56.6373C301.37 57.0014 300.183 57.4019 300.447 58.5566C301.401 61.5655 301.326 64.7201 301.082 67.7967C300.789 70.8056 300.178 73.7677 299.333 76.6701C298.656 80.0067 297.298 83.1509 295.139 85.7983C293.71 87.3899 292 88.8411 289.923 89.4652C288.822 89.6889 288.899 91.837 290.201 91.3637C291.32 90.9372 292.355 90.3703 293.301 89.6967C293.335 89.7071 293.371 89.7149 293.407 89.7201C299.618 98.0266 306.435 105.857 312.954 113.922C318.04 119.799 322.568 126.173 328.038 131.713C323.258 136.274 317.529 139.593 312.405 143.73C308.913 145.938 305.396 148.107 301.847 150.219C299.299 151.511 296.709 152.721 294.198 154.081C291.266 155.483 288.018 156.039 285.035 157.332C281.898 158.515 278.531 158.707 275.252 159.251C271.084 160.06 266.856 160.237 262.631 160.442C258.175 160.908 253.727 161.625 249.238 161.612C248.569 157.025 249.139 152.38 248.538 147.787C248.014 136.36 248.768 124.912 248.292 113.477C248.297 110.635 247.729 107.847 247.594 105.017C247.54 103.81 247.294 102.622 247.177 101.426C247.177 101.4 247.172 101.374 247.169 101.348C248.514 100.971 249.849 100.56 251.169 100.091C252.701 99.704 254.139 99.0642 255.612 98.4973C256.345 98.2893 257.281 97.9772 257.185 97.0331C256.944 95.1581 253.714 97.5429 252.667 97.7171C251.48 98.0942 250.277 98.4245 249.108 98.864C246.363 99.8522 243.478 100.352 240.653 101.046C239.007 101.545 237.366 102.19 235.639 102.357ZM222.689 88.9555C221.73 99.6312 225.258 105.043 236.503 104.104C239.481 103.262 242.511 102.586 245.51 101.8C245.357 103.059 245.969 105.02 245.855 105.935C245.86 105.99 245.868 106.044 245.873 106.096C244.608 106.525 242.965 107.979 241.949 108.33C237.532 110.817 232.607 112.026 227.928 113.841C224.48 114.66 223.273 117.833 223.451 121.1C223.511 123.607 223.107 128.371 226.663 128.327C227.093 128.29 227.456 128.025 227.749 127.723C227.915 127.552 228.086 127.328 228.21 127.102C228.996 128.472 231.365 128.686 232.039 127.104C234.398 129.731 236.78 126.259 236.617 123.755C237.063 123.705 237.869 123.713 238.856 123.724C238.973 123.768 239.113 123.776 239.281 123.734C239.287 123.731 239.289 123.731 239.292 123.729C241.702 123.755 244.943 123.76 246.69 123.089C246.731 132.94 246.29 142.81 247.115 152.622C247.117 155.68 247.084 158.746 247.415 161.794C247.423 163.425 247.934 163.766 249.559 163.625C253.771 163.607 257.929 163.012 262.1 162.497C266.286 162.231 270.488 162.12 274.62 161.321C277.699 160.798 280.848 160.609 283.845 159.678C286.8 158.681 289.721 157.667 292.699 156.775C296.059 155.342 299.221 153.465 302.521 151.889C306.082 149.722 309.686 147.608 313.177 145.33C316.425 142.875 319.634 140.389 323.035 138.149C332.812 129.921 331.26 133.315 324.748 125.183C316.746 115.469 308.664 105.842 300.836 95.9877C299.413 94.1386 297.834 92.417 296.442 90.5445C295.883 89.9698 295.481 89.0179 294.908 88.3782C298.094 85.3822 300.077 81.0496 300.96 76.7949C302.591 70.9357 303.646 64.5979 302.28 58.5852C304.74 57.3759 307.003 55.3864 308.141 52.8533C309.714 49.5947 309.297 44.2374 304.47 45.2959C307.656 42.0815 310.893 30.4332 302.679 33.645C304.032 30.5398 305.769 27.5517 306.419 24.1916C307.529 20.3583 303.996 15.5471 300.115 18.3662C296.881 20.9356 294.83 24.5375 292.303 27.7415C292.904 25.7104 293.21 23.336 293.169 21.9785C293.109 17.9657 289.654 16.9592 287.075 19.8069C287.069 19.8303 287.064 19.8563 287.059 19.8824C287.448 17.3181 288.22 14.6629 287.479 12.0908C286.105 7.43566 282.588 7.85957 280.12 11.4329C280.053 8.25227 280.426 5.09508 279.195 2.13555C277.339 -1.00863 275.281 -0.394883 273.168 2.12254C270.501 5.47478 270.441 10.0623 269.907 14.1401C269.407 20.119 269.355 26.2539 270.565 32.1496C271.4 34.3654 272.424 36.4797 272.668 38.8619C272.743 39.2676 272.792 39.6811 272.839 40.092C272.416 40.053 271.942 40.0634 271.416 40.1232C272.237 35.9075 270.19 30.0171 265.184 30.1289C264.816 27.3228 263.144 24.4907 260.526 23.2736C257.779 22.0487 254.176 22.0201 251.954 24.2827C250.925 23.0161 249.673 21.7002 248.056 21.2607C245.111 20.5273 241.669 22.0643 240.855 25.1331C237.374 22.6442 231.362 25.4035 231.909 29.9417C229.146 33.5696 232.918 37.9777 236.798 38.0583C233.864 42.6692 233.555 48.864 234.351 54.1069C235.601 59.5552 240.018 64.1974 245.482 65.4613C246.06 67.4924 246.876 69.4507 247.319 71.5208C247.348 71.6196 247.371 71.734 247.397 71.8563C247.052 72.3348 247.032 72.9772 246.889 73.5363C246.576 75.0525 246.459 76.5999 246.2 78.1238C246.132 78.4385 246.065 78.8676 246.117 79.2265C242.703 81.32 239.17 83.2211 236.093 85.8217C233.509 88.0115 235.391 70.4623 235.061 68.8629C235.126 66.7564 234.504 46.8172 230.012 52.9288C229.102 51.7429 227.573 52.2682 227.373 53.6986C226.339 52.5361 224.812 53.5971 224.667 54.9209C224.283 57.8362 225.437 60.7645 225.038 63.7136C224.6 66.1713 223.933 68.4312 223.703 70.907C222.951 76.8937 222.899 82.9402 222.689 88.9555Z" fill="#373B50"/>
<path d="M272.203 52.0029C273.313 51.8183 274.754 49.3893 273.206 48.8822C272.543 48.8223 271.845 49.4907 272.037 50.1721C271.358 50.6168 271.112 51.9925 272.203 52.0029Z" fill="white"/>
<path d="M268.045 47.5739C268.297 46.6116 268.434 45.587 268.968 44.7418C269.344 43.3322 267.693 43.5637 267.314 44.5779C266.957 45.5271 265.549 47.9301 266.985 48.4165C267.478 48.4633 267.939 48.0368 268.045 47.5739Z" fill="white"/>
<path d="M261.584 40.2869C262.348 40.0373 262.641 39.1166 263.37 38.7629C263.862 38.4951 264.606 38.4873 264.718 37.7903C264.821 34.6721 258.416 39.9488 261.584 40.2869Z" fill="white"/>
<path d="M256.727 34.3473C256.968 33.2992 259.954 31.4658 257.881 30.8442C256.61 31.4034 255.34 32.9065 255.149 34.3135C255.273 35.1977 256.432 35.0339 256.727 34.3473Z" fill="white"/>
<path d="M248.676 32.3888C248.73 31.5176 248.23 29.4527 247.022 30.2017C246.047 30.844 246.799 31.8271 247.141 32.602C247.294 33.5305 248.572 33.1508 248.676 32.3888Z" fill="white"/>
<path d="M242.751 32.5448C242.774 32.3419 242.738 32.1261 242.622 31.9544C242.474 31.7464 242.251 31.6658 242.005 31.6658C241.504 31.6658 241.087 32.1859 241.033 32.6488C241.009 32.8517 241.046 33.0675 241.162 33.2392C241.31 33.4472 241.533 33.5278 241.779 33.5278C242.277 33.5278 242.697 33.0077 242.751 32.5448Z" fill="white"/>
<path d="M116.532 123.219C118.266 120.062 111.062 112.304 107.55 113.482C106.529 113.649 104.032 114.523 105.435 115.786C106.295 115.95 107.109 115.188 108.004 115.183C110.806 115.394 112.848 118.104 114.297 120.296C114.709 121.027 115.101 121.778 115.313 122.595C115.127 123.344 116.016 123.742 116.532 123.219Z" fill="white"/>
<path d="M169.288 37.4132C171.006 36.7344 169.376 34.6747 168.606 33.8217C167.292 32.342 165.257 31.5982 163.303 31.7178C161.913 31.7854 160.61 32.2873 159.249 32.5214C158.194 32.5578 156.2 32.5344 156.88 34.1572C160.008 35.3327 163.578 31.7646 166.989 34.836C167.611 35.3821 168.186 36.0141 168.495 36.7943C168.531 37.1974 168.884 37.5016 169.288 37.4132Z" fill="white"/>
<path d="M152.586 33.3847C156.077 32.8724 159.183 28.9636 162.848 30.6905C163.309 30.9843 163.906 30.6411 164.079 30.1599C164.463 28.1158 159.771 28.2459 158.576 28.961C155.893 29.9779 153.47 32.1312 150.424 31.6449C149.934 31.6111 149.504 32.0064 149.392 32.4667C149.19 34.0791 151.616 33.3691 152.586 33.3847Z" fill="white"/>
<path d="M145.897 27.1799C148.09 26.059 149.984 24.2386 152.514 23.9317C152.927 23.8745 153.292 23.8511 153.642 24.1033C154.451 24.34 155.163 23.0111 154.425 22.5404C154.438 22.5456 154.448 22.5508 154.458 22.556C154.484 22.5768 154.513 22.6002 154.539 22.6236C151.983 21.0788 148.875 23.4974 146.674 24.8133C145.949 25.3048 144.557 25.6481 144.826 26.782C144.966 27.2449 145.505 27.4036 145.897 27.1799Z" fill="white"/>
<path d="M129.322 23.5699C134.317 23.2032 133.952 17.7601 140.183 18.444C140.645 18.6131 141.13 18.2802 141.293 17.8433C141.78 15.729 137.078 17.0943 135.989 17.3076C133.612 18.0019 132.775 20.847 130.455 21.622C129.636 21.8171 128.783 21.7365 127.956 21.6454C127.454 21.5856 126.997 22.0407 126.883 22.4984C126.614 23.8898 128.462 23.5309 129.322 23.5699Z" fill="white"/>
<path d="M122.789 22.3266C125.044 21.276 126.54 19.2422 128.38 17.6585C129.238 16.8835 131.677 16.6234 131.078 15.0344C130.653 14.4597 130.078 14.9902 129.635 15.2243C127.219 16.0018 125.783 18.3216 123.852 19.7728C123.362 20.1473 122.841 20.4854 122.276 20.7324C121.327 21.1511 121.672 22.8676 122.789 22.3266Z" fill="white"/>
<path d="M116.275 18.8548C117.734 17.1592 119.168 15.3648 121.039 14.1061C121.734 13.4715 122.955 14.1841 123.326 13.1516C123.704 12.1556 122.522 11.9345 121.791 12.1244C119.951 12.4677 118.634 13.9838 117.338 15.2269C116.638 16.2334 114.186 17.6924 115.02 19.0135C115.388 19.3802 115.964 19.1981 116.275 18.8548Z" fill="white"/>
<path d="M107.811 23.7078C110.237 22.6467 110.478 19.4219 110.709 17.0917C111.054 15.677 112.528 14.9904 113.581 14.1478C114.125 13.7603 114.877 13.313 114.732 12.5302C114.224 11.0036 112.534 13.1986 111.715 13.508C110.343 14.4729 109.06 15.8278 108.91 17.5781C108.765 18.9486 108.76 20.4518 107.873 21.5857C107.15 22.0798 106.463 23.6012 107.811 23.7078Z" fill="white"/>
<path d="M103.42 19.2401C104.412 18.5405 107.728 14.871 105.613 14.1663C105.032 14.2001 104.773 14.7722 104.703 15.2767C104.392 16.0309 103.77 16.5927 103.225 17.183C101.535 18.1791 101.784 20.1633 103.42 19.2401Z" fill="white"/>
<path d="M169.525 108.978C170.653 108.382 169.756 107.178 169.603 106.283C169.546 105.776 169.595 105.035 168.877 105.064C167.247 104.965 168.165 109.857 169.525 108.978Z" fill="white"/>
<path d="M166.834 110.543C167.868 110.013 167.316 108.9 166.852 108.164C166.497 107.54 165.994 106.302 165.134 107.035C164.263 107.792 165.341 108.707 165.546 109.532C165.691 110.161 166.085 110.944 166.834 110.543Z" fill="white"/>
<path d="M166.421 122.127C167.82 121.9 167.4 120.044 167.465 119.014C167.24 118.096 167.683 116.889 167.131 116.143C165.039 115.672 165.954 118.886 165.778 120.077C165.767 120.78 165.319 122.111 166.421 122.127Z" fill="white"/>
<path d="M163.613 123.172C163.699 122.114 164.806 116.959 162.836 117.573C162.268 117.846 162.216 118.494 162.4 119.027C162.442 120.179 162.309 121.331 162.133 122.465C161.436 123.926 163.072 124.675 163.613 123.172Z" fill="white"/>
<path d="M174.238 232.605C176.579 229.414 177.719 225.456 179.389 221.885C182.528 216.465 184.334 210.447 186.128 204.471C187.118 201.47 188.179 198.479 189.314 195.543C189.438 194.251 187.725 194.412 187.471 195.468C187.256 195.58 187.082 195.777 186.994 196.009C186.911 196.222 186.911 196.505 187.02 196.716C184.938 202.032 183.502 207.563 181.543 212.918C180.584 216.101 178.878 218.923 177.468 221.903C176.273 224.826 175.104 227.752 173.637 230.553C169.689 224.416 165.762 218.223 160.764 212.882C159.58 211.628 158.255 210.52 156.995 209.347C156.474 208.723 155.661 208.081 154.981 208.892C153.618 210.528 157.558 212.208 158.359 213.527C160.793 216.164 163.211 218.822 165.311 221.737C167.294 224.785 169.248 227.851 171.345 230.824C172.017 231.731 172.914 233.77 174.238 232.605Z" fill="white"/>
<path d="M166.156 282.313C168.821 281.237 171.268 279.674 173.893 278.506C176.734 277.432 179.656 276.501 182.03 274.522C186.439 271.887 190.48 268.767 194.501 265.576C198.467 262.954 202.772 260.832 206.743 258.239C207.557 257.651 207.065 256.076 205.981 256.64C202.132 258.687 198.435 261.001 194.661 263.18C189.539 267.04 184.459 270.92 178.948 274.22C174.303 276.319 169.417 278.007 165.065 280.737C164.033 281.486 165.021 283.088 166.156 282.313Z" fill="white"/>
<path d="M197.582 343.921C201.338 341.666 205.415 340.056 209.519 338.581C212.033 337.354 214.449 335.97 217.098 335.034C221.007 332.748 224.306 329.36 228.306 327.183C232.08 324.834 236.114 322.816 239.6 320.052C240.409 319.045 246.487 315.144 243.848 314.333C242.506 314.58 241.715 316.094 240.665 316.892C239.219 318.2 237.715 319.459 236.059 320.494C229.685 324.197 223.379 327.994 217.64 332.631C214.793 334.02 211.932 335.182 209.189 336.743C205.021 338.314 200.731 339.783 196.999 342.269C195.057 342.178 195.586 344.701 197.582 343.921Z" fill="white"/>
<path d="M234.268 332.098C237.197 330.701 240.478 329.942 243.07 327.926C243.923 327.411 245.753 325.338 244.048 324.886C243.607 324.912 243.218 325.328 243.179 325.762C242.552 326.758 241.24 327.276 240.211 327.817C238.125 328.61 236.108 329.585 234.014 330.358C233.008 330.62 233.068 332.475 234.268 332.098Z" fill="white"/>
<path d="M225.711 339.954C227.741 338.438 230.03 337.736 232.557 337.843C235.821 337.694 238.973 336.727 241.85 335.195C242.791 335.502 243.916 333.723 242.757 333.289C240.81 333.575 239.081 334.948 237.122 335.375C233.838 336.462 230.281 335.481 227.204 337.133C226.321 337.788 224.434 338.181 224.646 339.556C224.783 340.022 225.317 340.175 225.711 339.954Z" fill="white"/>
<path d="M225.396 334.802C226.487 334.204 229.03 333.926 228.678 332.251C228.05 331.25 226.135 333.003 225.139 333.057C224.129 333.322 224.196 335.179 225.396 334.802Z" fill="white"/>
<path d="M186.019 262.889C187.032 260.736 188.538 258.879 190.114 257.116C190.687 256.388 191.415 255.678 191.62 254.747C191.773 253.795 190.495 253.675 190.163 254.458C188.481 257.131 185.912 259.261 184.577 262.226C183.958 263.321 185.536 263.974 186.019 262.889Z" fill="white"/>
<path d="M175.03 271.354C178.758 269.396 180.152 265.227 181.456 261.487C182.086 259.004 184.305 256.884 184.32 254.312C183.328 253.132 182.726 255.079 182.498 255.831C180.321 259.423 179.312 263.516 177.298 267.165C176.601 268.353 175.461 269.149 174.323 269.877C173.387 270.413 173.965 272.059 175.03 271.354Z" fill="white"/>
<path d="M168.062 272.137C168.536 270.894 171.834 266.397 169.993 265.716C168.334 265.513 168.417 267.791 167.837 268.845C167.676 269.989 165.882 271.711 166.947 272.631C167.38 272.834 167.844 272.512 168.062 272.137Z" fill="white"/>
<path d="M42.8343 308.549C44.3351 306.125 42.868 302.359 43.3916 299.553C44.4232 288.051 44.0733 276.475 45.2734 264.98C45.8644 259.893 45.9137 254.778 46.1444 249.668C45.8541 248.32 47.7411 244.061 45.9318 243.959C45.3849 243.99 44.9287 244.5 44.8691 245.031C43.5056 261.464 42.5802 277.921 42.0359 294.407C41.5667 298.789 41.3723 303.155 41.7819 307.548C41.3697 308.237 42.1266 309.092 42.8343 308.549Z" fill="white"/>
<path d="M39.1052 262.471C41.3422 261.181 37.5292 258.323 37.1793 256.648C36.8241 256.112 36.8267 255.29 36.2798 254.918C35.5929 254.622 34.8179 255.477 35.0486 256.154C35.7095 258.2 36.9589 259.956 38.1461 261.716C38.172 262.213 38.5816 262.692 39.1052 262.471Z" fill="white"/>
<path d="M39.1485 271.009C40.1516 269.656 37.1448 267.909 36.5304 266.697C35.5351 265.441 34.4386 264.231 33.6739 262.814C32.7719 260.715 32.917 258.388 32.1964 256.234C31.4629 253.907 29.765 252.058 28.8682 249.803C28.3238 248.825 26.9137 249.972 27.3622 250.83C28.412 253.264 30.3197 255.337 30.8511 257.982C31.297 262.395 32.5153 265.386 35.6906 268.546C36.6367 269.219 37.9016 272.184 39.1485 271.009Z" fill="white"/>
<path d="M32.9547 273.385C33.1828 272.085 30.5648 270.462 29.8805 269.242C29.1184 268.553 27.9934 269.895 28.657 270.61C29.7172 271.344 31.7727 275.57 32.9547 273.385Z" fill="white"/>
<path d="M215.677 414.967C217.447 414.161 219.264 413.321 221.167 412.97C223.87 409.436 216.226 412.809 215.189 413.336C214.202 413.724 214.515 415.531 215.677 414.967Z" fill="white"/>
<path d="M187.846 416.691C193.984 415.976 200.322 415.31 206.209 413.409C210.118 411.794 213.472 409.121 217.282 407.347C218.513 406.681 220.152 407.157 221.258 406.341C222.067 405.563 220.898 404.265 220.087 405.092C213.086 405.836 208.158 412.455 201.001 412.912C197.395 413.433 193.837 414.275 190.21 414.639C189.158 414.871 187.346 414.369 187.094 415.81C187.035 416.286 187.356 416.712 187.846 416.691Z" fill="white"/>
<path d="M181.764 408.715C182.979 408.424 196.692 406.414 192.324 404.305C189.086 405.875 185.276 406.089 181.746 406.749C180.652 406.877 180.429 408.929 181.764 408.715Z" fill="white"/>
<path d="M71.8984 318.978C71.7351 316.871 68.3032 314.78 66.989 313.058C66.6261 312.692 66.0481 312.871 65.7422 313.214C64.6043 314.77 67.5955 315.904 68.3317 317.066C69.0134 317.825 69.9881 318.457 70.3873 319.407C70.7476 320.132 71.7973 319.649 71.8984 318.978Z" fill="white"/>
<path d="M72.4464 302.88C72.4698 302.679 72.4335 302.466 72.3168 302.297C72.1717 302.089 71.9487 302.008 71.7051 302.008C71.21 302.008 70.7953 302.523 70.7408 302.984C70.7175 303.184 70.7538 303.397 70.8704 303.566C71.0156 303.774 71.2385 303.855 71.4822 303.855C71.9773 303.855 72.392 303.34 72.4464 302.88Z" fill="white"/>
</g>
<defs>
<clipPath id="clip0_4517_5012">
<rect width="330" height="417" fill="white"/>
</clipPath>
</defs>
</svg>
