<svg width="44" height="28" viewBox="0 0 44 28" fill="none" xmlns="http://www.w3.org/2000/svg">
<path d="M3.1331 4.85576C5.39805 4.28969 7.75956 4.22422 10.0536 4.66386C12.3476 5.10351 14.519 6.03774 16.417 7.40164C21.0421 10.7325 22.3114 16.2883 25.3326 20.7887C27.788 24.4298 32.075 27.9435 36.7699 26.9086C40.6636 26.0585 44.248 22.0493 42.9259 17.9135C42.8053 17.3764 42.4857 16.9049 42.0315 16.5941C41.5774 16.2833 41.0226 16.1563 40.4791 16.239C39.9383 16.3417 39.4602 16.6542 39.1488 17.1083C38.8375 17.5625 38.7181 18.1215 38.8167 18.6638C39.0268 19.3378 38.9937 20.064 38.7231 20.7154C38.4525 21.3668 37.9616 21.902 37.3363 22.2274C36.5791 22.6764 35.7091 22.8987 34.8291 22.8682C33.9492 22.8377 33.096 22.5555 32.3706 22.0552C28.1546 19.5667 26.7624 14.3309 24.4527 10.3401C22.2934 6.57331 18.9782 3.60308 14.9999 1.87106C11.0215 0.139044 6.59247 -0.262302 2.37125 0.7267C-0.220603 1.39071 0.533933 5.50472 3.1331 4.85576Z" fill="#FFB580"/>
</svg>
