<svg width="319" height="58" viewBox="0 0 319 58" fill="none" xmlns="http://www.w3.org/2000/svg">
<path d="M42.6463 22.3322C39.4919 20.9152 33.113 2.98988 30.94 5.18626C28.7669 7.38264 25.5424 22.3322 23.5096 22.3322C21.4768 22.3322 1.98957 17.0184 3.04103 18.8605C4.0925 20.7026 19.4439 32.6056 19.3738 35.3687C19.3037 38.1319 12.7846 52.8689 14.8175 52.8689C16.8503 52.8689 30.3792 40.1157 33.113 40.2575C35.8468 40.3992 52.6703 54.4985 54.0022 52.8689C55.334 51.2393 46.5718 37.3526 47.413 35.3687C48.2541 33.3849 66.3394 18.8605 63.7458 18.8605C61.1521 18.8605 45.8007 23.7492 42.6463 22.3322Z" stroke="#FF9142" stroke-width="5" stroke-linecap="round"/>
<path d="M111.316 24.2501C108.703 23.0825 101.163 5.31952 99.3633 7.12933C97.5632 8.93915 92.1071 23.1851 90.4232 23.1851C88.7393 23.1851 75.1691 22.7322 76.0402 24.2501C76.9112 25.768 89.4127 35.2017 89.3547 37.4786C89.2966 39.7555 86.4074 50.891 88.0914 50.891C89.7753 50.891 99.4312 40.4946 101.696 40.6114C103.96 40.7282 112.545 52.2338 113.648 50.891C114.752 49.5482 111.105 39.1133 111.802 37.4786C112.499 35.8439 127.944 25.1431 125.795 25.1431C123.647 25.1431 113.929 25.4177 111.316 24.2501Z" stroke="#FF9142" stroke-width="5" stroke-linecap="round"/>
<path d="M163.015 3.00243C160.577 2.75243 154.827 21.8772 153.139 21.8772C151.451 21.8772 138.512 20.1272 138.012 21.8772C137.512 23.6272 153.139 34.877 153.139 36.502C153.139 38.127 149.513 53.7518 150.576 54.9393C151.639 56.1268 161.827 39.502 163.015 39.8145C164.203 40.127 179.58 55.8142 180.517 54.9393C181.455 54.0643 172.016 38.252 172.016 36.502C172.016 34.752 188.956 23.2522 189.956 21.8772C190.956 20.5022 174.517 21.8772 172.016 21.8772C169.516 21.8772 165.453 3.25243 163.015 3.00243Z" stroke="#FF9142" stroke-width="5" stroke-linecap="round"/>
<path d="M237.316 24.2501C234.703 23.0825 227.163 5.31952 225.363 7.12933C223.563 8.93915 218.107 23.1851 216.423 23.1851C214.739 23.1851 201.169 22.7322 202.04 24.2501C202.911 25.768 215.413 35.2017 215.355 37.4786C215.297 39.7555 212.407 50.891 214.091 50.891C215.775 50.891 225.431 40.4946 227.696 40.6114C229.96 40.7282 238.545 52.2338 239.648 50.891C240.752 49.5482 237.105 39.1133 237.802 37.4786C238.499 35.8439 253.944 25.1431 251.795 25.1431C249.647 25.1431 239.929 25.4177 237.316 24.2501Z" stroke="#FF9142" stroke-width="5" stroke-linecap="round"/>
<path d="M289.015 3.00243C286.577 2.75243 280.827 21.8772 279.139 21.8772C277.451 21.8772 264.512 20.1272 264.012 21.8772C263.512 23.6272 279.139 34.877 279.139 36.502C279.139 38.127 275.513 53.7518 276.576 54.9393C277.639 56.1268 287.827 39.502 289.015 39.8145C290.203 40.127 305.58 55.8142 306.517 54.9393C307.455 54.0643 298.016 38.252 298.016 36.502C298.016 34.752 314.956 23.2522 315.956 21.8772C316.956 20.5022 300.517 21.8772 298.016 21.8772C295.516 21.8772 291.453 3.25243 289.015 3.00243Z" stroke="#FF9142" stroke-width="5" stroke-linecap="round"/>
</svg>
