<svg width="420" height="420" viewBox="0 0 420 420" fill="none" xmlns="http://www.w3.org/2000/svg">
<path d="M387.966 48.0323C370.18 62.7096 341.739 60.6176 327.147 64.2693C328.12 56.1876 327.976 57.1325 328.909 49.0713C330.08 37.6425 318.564 29.2369 308.198 33.8217C271.487 49.9655 232.248 58.9479 191.566 60.5174C189.997 60.5776 188.586 61.5127 187.924 62.9401C187.186 64.5206 186.311 66.2077 185.288 68.026L183.921 63.6346C183.38 61.8737 181.575 60.7034 179.902 60.6815C159.952 60.6213 140.127 58.9151 120.948 55.2674C109.693 53.1372 100.185 62.9306 101.906 73.8995C105.067 93.4229 105.827 113.463 104.165 133.468C103.965 135.84 105.501 136.924 106.708 137.908C106.489 138.007 106.265 138.1 106.041 138.187C104.586 138.751 103.563 140.074 103.388 141.627C98.7956 181.897 85.0209 212.809 85.2375 212.24C84.4117 214.411 85.5055 216.833 87.6711 217.659L97.1833 221.284C93.2034 222.252 88.931 222.383 84.707 221.586C82.8554 221.245 80.8468 222.391 80.1242 223.943C66.9281 252.249 49.3242 277.214 27.8047 298.132C19.6131 306.087 24.0258 319.896 35.3188 321.598L41.467 322.514L41.0555 323.25C37.3918 329.882 42.5946 346.134 47.2758 355.109C50.1678 363.199 56.0135 376.182 64.1172 375.362C158.051 366.223 214.806 378.699 220.215 377.529C221.269 377.297 222.26 376.801 222.975 375.566C224.686 372.599 224.183 357.179 223.762 352.919C232.517 359.462 240.487 367.96 243.153 378.605C243.574 380.291 245.123 381.494 246.538 381.733C267.23 385.165 274.516 387.453 278.662 387.453C289.16 387.453 297.884 379.735 299.323 369.515C309.048 296.533 325.904 224.14 349.397 154.298C363.019 146.947 367.897 131.954 362.793 118.453C378.309 117.661 393.512 104.641 395.994 80.101C397.033 70.3639 395.934 60.6952 394.813 50.7995C394.434 47.4834 390.529 45.9159 387.966 48.0323ZM238.666 63.7898C237.494 64.9171 237.848 65.0272 234.605 69.0077L234.001 64.5414C235.554 64.2827 237.118 64.0708 238.666 63.7898ZM33.6563 304.158C55.186 283.225 72.9161 258.404 86.39 230.332C95.3551 231.221 104.461 228.588 110.547 224.419C113.352 222.513 112.838 218.217 109.661 217.019C103.79 214.809 98.2079 212.67 94.6766 211.321C103.027 189.933 108.666 167.626 111.455 144.914C113.423 143.848 115.195 142.464 116.666 140.834C117.438 139.987 117.826 138.865 117.744 137.723C117.58 135.295 115.716 134.35 112.707 131.953C114.2 112.003 113.352 92.0338 110.202 72.576C109.335 67.0428 114.192 62.4959 119.373 63.5198C138.082 67.0799 157.387 68.9475 176.817 69.076L177.949 72.7127C178.436 74.1674 179.573 77.5745 182.696 78.2635C184.233 78.794 188.198 79.4311 191.605 73.8913C192.666 72.0756 193.595 70.394 194.405 68.8053C204.941 68.3207 215.378 67.3298 225.706 65.8775C226.677 73.0092 226.61 76.9594 230.438 78.7421C232.967 80.0638 236.549 79.6779 239.823 75.8682C241.791 73.5522 243.492 71.3401 245.007 69.1061C246.309 67.1866 245.805 64.5752 243.886 63.2737C243.626 63.0966 243.333 63.0348 243.053 62.9233C266.628 58.3115 289.56 51.1949 311.595 41.5053C316.173 39.473 321.056 43.3489 320.558 48.1608C319.483 57.399 319.336 59.2058 318.247 67.8104C317.81 68.0667 317.366 68.2602 316.927 68.5456C312.005 71.794 308.1 77.5499 307.466 83.6038C289.804 79.6936 273.886 91.8918 272.373 109.271C250.899 107.142 231.924 124.875 235.382 148.19C222.765 146.776 212.412 158.164 213.753 174.04C215.104 190.471 223.532 183.439 216.876 201.018C214.331 207.782 211.884 216.009 205.178 229.248C197.117 245.14 186.978 259.785 175.034 272.768C172.561 275.454 174.472 279.812 178.124 279.812C179.35 279.324 185.591 281.385 197.516 268.42C208.766 256.094 219.134 242.865 228.322 229.105C230.001 226.597 235.626 213.692 237.154 211.862C245.235 202.358 259.433 208.788 270.453 212.699C276.681 214.928 284.649 217.123 292.422 215.577C287.539 238.223 283.045 264.547 268.96 279.806C261.078 288.614 246.263 294.704 234.228 290.968C228.25 289.155 220.925 291.605 217.423 297.946C210.962 310.12 195.873 318.238 182.521 322.724C150.422 333.457 130.507 327.211 36.5602 313.291C32.158 312.627 30.4214 307.288 33.6563 304.158ZM311.972 194.149C315.455 194.138 318.972 193.651 322.291 192.498C307.385 244.455 294.951 302.338 287.248 359.83C286.294 366.924 279.447 371.733 272.411 370.287C264.158 368.514 254.9 366.754 246.675 365.332C240.627 354.771 230.693 347.014 220.43 340.427C217.453 338.522 213.246 340.906 214.084 345.059C215.495 352.01 215.577 356.444 215.647 360.747C164.041 354.201 111.028 353.446 59.9828 358.523C59.4469 358.321 57.4781 356.664 54.8641 351.48C54.8562 351.464 54.8415 351.456 54.8336 351.44C54.833 351.439 54.8343 351.442 54.8336 351.44C49.4579 341.23 47.432 329.501 48.4 327.324C48.5889 326.987 50.0447 324.389 50.3688 323.813C102.578 331.616 123.333 334.834 133.543 335.795C148.686 337.221 164.267 336.904 178.895 332.687C214.976 332.961 251.716 322.882 268.598 291.33C280.475 282.594 286.655 268.054 286.301 268.614C292.884 254.664 296.824 235.839 301.953 211.419C307.055 207.626 311.157 201.169 311.972 194.149ZM387.638 79.2424C385.273 102.617 369.646 112.95 356.318 109.427C352.451 108.409 349.469 112.908 351.943 116.077C356.797 122.274 357.714 131.262 354.251 138.122C350.261 145.935 341.359 149.974 335.302 149.557C332.14 149.341 329.852 152.759 331.359 155.687C339.238 170.869 325.546 188.768 308.641 185.366C305.894 184.799 303.327 187.094 303.643 189.949C304.761 200.01 295.263 206.089 295.941 205.362C282.748 213.16 267.156 199.302 250.492 198.557C242.524 198.163 235.377 200.985 230.745 206.432C227.874 209.834 223.04 221.897 221.333 224.44C216.302 231.976 210.909 239.348 205.205 246.49C216.436 227.966 220.637 214.9 224.734 203.993C227.266 197.299 230.137 189.708 224.778 181.582C220.636 175.48 220.968 163.959 227.009 158.777C230.559 155.714 236.449 155.79 238.953 158.684C242.167 162.404 248.079 158.466 245.893 154.069C241.584 145.401 242.891 134.097 249.054 126.594C255.283 119.121 266.16 115.727 275.484 118.371C278.361 119.193 281.156 116.799 280.795 113.827C279.92 106.556 283.43 98.8534 289.501 94.6862C295.615 90.5682 304.086 90.1335 310.594 93.6171C314.154 95.507 318.086 91.7843 316.385 88.1456C314.539 84.1626 317.098 77.2883 323.998 74.1975C335.486 68.5799 365.161 72.1662 387.238 58.8085C388.664 72.9278 387.66 78.1786 387.638 79.2424Z" fill="#F4EFE9"/>
<path d="M337.39 104.123C296.927 116.548 261.817 146.741 243.475 184.891C242.469 186.98 243.349 189.49 245.438 190.496C247.53 191.503 250.043 190.617 251.044 188.533C268.391 152.455 301.591 123.903 339.851 112.151C342.071 111.47 343.318 109.121 342.634 106.903C341.962 104.689 339.621 103.442 337.39 104.123Z" fill="#F4EFE9"/>
<path d="M148.734 142.087C221.382 145.388 199.541 144.58 203.679 144.58C205.91 144.58 207.764 142.825 207.868 140.572C207.977 138.253 206.184 136.29 203.865 136.186L149.117 133.698C146.788 133.561 144.841 135.382 144.731 137.701C144.622 140.02 146.416 141.983 148.734 142.087Z" fill="#F4EFE9"/>
<path d="M135.992 193.799C187.001 198.994 180.371 198.371 181.022 198.371C183.149 198.371 184.976 196.757 185.195 194.597C185.43 192.29 183.751 190.228 181.443 189.993L136.845 185.443C134.516 185.186 132.476 186.892 132.241 189.194C132.006 191.502 133.684 193.564 135.992 193.799Z" fill="#F4EFE9"/>
<path d="M88.2504 284.225C182.357 293.345 170.008 292.215 170.829 292.215C172.967 292.215 174.793 290.591 175.001 288.42C175.225 286.112 173.536 284.061 171.228 283.837L89.0598 275.869C86.7739 275.579 84.6957 277.334 84.477 279.642C84.2528 281.95 85.9426 284.006 88.2504 284.225Z" fill="#F4EFE9"/>
<path d="M117.229 239.315C178.189 245.221 170.186 244.494 170.828 244.494C172.966 244.494 174.793 242.87 175.001 240.699C175.225 238.391 173.535 236.34 171.227 236.116L118.038 230.959C115.758 230.669 113.674 232.425 113.456 234.733C113.231 237.04 114.921 239.097 117.229 239.315Z" fill="#F4EFE9"/>
</svg>
