<svg width="400" height="400" viewBox="0 0 400 400" fill="none" xmlns="http://www.w3.org/2000/svg">
<path d="M327.333 153.156L246.736 154.414L245.007 95.5304C244.884 69.1954 229.52 48.0545 202.542 48.0293C76.3432 50.8272 73.5518 45.8972 56.5971 54.0994C49.0525 56.0291 39.7614 63.1225 36.3863 66.8034C18.8829 85.8882 22.744 106.283 23.499 131.757C24.3349 159.973 19.1415 199.413 64.8561 204.928C64.922 204.946 64.9852 204.97 65.0511 204.988C66.9865 216.805 68.9222 230.659 70.8576 242.098C72.7131 243.799 74.5679 245.5 76.4234 247.2C77.6482 249.898 80.9994 250.368 82.9727 248.49C98.8389 233.347 116.512 221.581 135.092 208.1L149.461 208.032C149.263 212.349 149.173 216.679 149.245 221.031C149.651 245.744 143.448 284.175 167.711 304.962C176.894 312.829 193.845 316.403 207.7 314.715L266.796 313.545L312.539 351.563C317.365 352.131 322.247 352.081 327.079 351.569C329.885 352.201 331.975 350.111 332.069 347.789C332.626 334.184 333.75 323.305 334.551 310.16C358.789 307.655 378.066 286.828 377.37 261.305L375.899 199.688C375.184 173.376 353.006 152.609 327.333 153.156ZM131.319 200.678C115.531 212.195 98.8385 223.377 83.7004 236.685C83.02 225.282 82.5345 214.277 81.5333 202.139C81.362 200.009 79.5802 198.366 77.4397 198.366C77.4023 198.366 77.3755 198.366 77.3381 198.366C66.8019 198.366 56.8918 194.268 49.4324 186.824C41.9196 179.327 37.7832 169.342 37.7832 158.705L37.6655 97.0715C37.6655 75.4801 55.2597 57.7468 76.8939 57.5327C247.909 55.7895 191.202 56.2485 203.007 56.2485C224.829 56.2485 236.687 73.9263 236.788 95.6695L238.513 154.543C203.67 155.424 200.117 154.321 191.133 156.462C177.621 157.531 158.411 165.086 153.257 182.825C151.633 188.415 150.68 194.09 150.071 199.809C133.765 200.13 133.188 199.309 131.319 200.678ZM330.554 302.187C328.414 302.241 326.675 303.932 326.557 306.072C325.897 318.102 324.913 328.428 324.283 339.013C309.073 326.457 293.273 317.292 276.75 305.901C275.229 304.844 281.141 305.013 204.356 306.559C182.654 306.946 164.402 289.828 163.966 267.732L162.703 203.734C162.26 181.784 179.731 163.682 201.691 163.339L327.461 161.375C349.304 160.936 367.096 178.321 367.68 199.897L369.151 261.514C369.749 283.417 352.479 301.633 330.554 302.187Z" fill="#F4EFE9"/>
<path d="M296.544 177.813C266.214 177.813 241.535 202.492 241.535 232.822C241.535 263.151 266.214 287.83 296.544 287.83C326.873 287.83 351.552 263.151 351.552 232.822C351.552 202.492 326.873 177.813 296.544 177.813ZM296.544 279.611C270.746 279.611 249.754 258.619 249.754 232.822C249.754 207.024 270.746 186.032 296.544 186.032C322.341 186.032 343.333 207.024 343.333 232.822C343.333 258.619 322.341 279.611 296.544 279.611Z" fill="#F4EFE9"/>
<path d="M286.766 216.228C287.906 218.197 290.426 218.871 292.379 217.721C294.343 216.581 295.012 214.066 293.872 212.108C287.299 200.766 269.852 203.669 267.491 216.731C267.09 218.962 268.572 221.097 270.809 221.504C273.095 221.902 275.186 220.383 275.582 218.187C276.567 212.747 283.948 211.387 286.766 216.228Z" fill="#F4EFE9"/>
<path d="M319.487 207.907C312.97 207.158 306.431 210.989 303.948 217.084C303.092 219.187 304.098 221.584 306.201 222.441C308.293 223.302 310.701 222.291 311.557 220.188C312.633 217.539 315.752 215.725 318.524 216.073C321.355 216.405 323.907 218.877 324.341 221.697C324.684 223.947 326.787 225.481 329.023 225.137C331.265 224.795 332.806 222.697 332.463 220.455C331.474 213.954 326.015 208.672 319.487 207.907Z" fill="#F4EFE9"/>
<path d="M311.648 234.47C309.406 234.85 307.902 236.969 308.282 239.206C310.776 253.988 285.373 256.398 284.593 238.05C284.502 235.786 282.517 233.945 280.312 234.122C278.049 234.218 276.288 236.134 276.385 238.403C277.608 267.498 320.953 264.7 316.384 237.836C316.004 235.594 313.831 234.047 311.648 234.47Z" fill="#F4EFE9"/>
<path d="M102.349 75.6514C74.7753 75.6514 52.3438 98.0829 52.3438 125.657C52.3438 153.225 74.7753 175.657 102.349 175.657C129.923 175.657 152.354 153.225 152.354 125.657C152.354 98.0829 129.923 75.6514 102.349 75.6514ZM102.349 167.438C79.3076 167.438 60.5629 148.693 60.5629 125.657C60.5629 102.615 79.3076 83.8705 102.349 83.8705C125.391 83.8705 144.135 102.615 144.135 125.657C144.135 148.693 125.391 167.438 102.349 167.438Z" fill="#F4EFE9"/>
<path d="M85.6436 120.664C90.4425 117.632 90.4054 111.12 85.5686 108.143C83.2929 106.747 80.8325 106.66 78.7944 107.496C75.9731 108.654 73.9612 111.579 74.369 115.249C74.9988 120.917 80.9116 123.668 85.6436 120.664Z" fill="#F4EFE9"/>
<path d="M116.021 107.233C112.668 108.137 110.785 110.746 110.331 113.56C109.643 117.823 112.235 122.559 117.969 122.559C122.372 122.559 124.92 119.217 125.239 115.715C125.835 109.162 118.557 106.569 116.021 107.233Z" fill="#F4EFE9"/>
<path d="M80.758 140.634C79.5647 142.566 80.1587 145.097 82.0904 146.29C84.0221 147.484 86.5585 146.89 87.7464 144.958C93.9975 134.861 108.677 135.136 114.635 145.225C115.789 147.178 118.319 147.825 120.265 146.67C122.218 145.52 122.865 142.999 121.709 141.041C112.663 125.724 90.2807 125.259 80.758 140.634Z" fill="#F4EFE9"/>
<path d="M162.522 108.405H206.62C208.888 108.405 210.729 106.564 210.729 104.295C210.729 102.026 208.888 100.186 206.62 100.186H162.522C160.253 100.186 158.412 102.026 158.412 104.295C158.412 106.564 160.253 108.405 162.522 108.405Z" fill="#F4EFE9"/>
<path d="M199.219 130.58H168.75C166.481 130.58 164.641 132.42 164.641 134.689C164.641 136.958 166.481 138.799 168.75 138.799H199.219C204.655 138.799 204.658 130.58 199.219 130.58Z" fill="#F4EFE9"/>
<path d="M223.165 211.219C223.165 208.951 221.324 207.11 219.055 207.11H180.469C178.2 207.11 176.359 208.951 176.359 211.219C176.359 213.488 178.2 215.329 180.469 215.329H219.055C221.324 215.329 223.165 213.488 223.165 211.219Z" fill="#F4EFE9"/>
<path d="M219.772 238.354H191.385C185.949 238.354 185.946 246.574 191.385 246.574H219.772C222.041 246.574 223.881 244.733 223.881 242.464C223.881 240.195 222.041 238.354 219.772 238.354Z" fill="#F4EFE9"/>
<path d="M275.438 96.7613C275.775 89.0612 276.953 81.3664 278.943 73.8964C280.34 68.6435 272.406 66.5238 271.002 71.7774C268.857 79.8253 267.588 88.1141 267.23 96.4082C266.987 101.827 275.201 102.207 275.438 96.7613Z" fill="#F4EFE9"/>
<path d="M294.054 109.117L319.172 82.6345C322.915 78.6862 316.952 73.027 313.211 76.9731L288.093 103.455C286.531 105.103 286.6 107.704 288.243 109.267C289.895 110.83 292.493 110.76 294.054 109.117Z" fill="#F4EFE9"/>
<path d="M313.724 128.327L340.239 122.526C342.454 122.045 343.861 119.851 343.374 117.635C342.887 115.409 340.667 114.013 338.483 114.5L311.969 120.3C306.722 121.441 308.336 129.502 313.724 128.327Z" fill="#F4EFE9"/>
</svg>
