<svg width="653" height="565" viewBox="0 0 653 565" fill="none" xmlns="http://www.w3.org/2000/svg">
<path d="M413.5 2C666.497 2 881.589 139.202 151.496 207C-39.6474 224.75 -29.4949 275 77.5027 317C184.5 359 595.499 406 595.499 506.5C595.499 515.5 585.5 536.5 532 558" stroke="#FF9142" stroke-width="2.5" stroke-linecap="round"/>
<path d="M533.043 557.593L533.042 557.592L533.041 557.592C533.456 557.149 533.874 556.711 534.292 556.272C535.728 554.765 537.162 553.259 538.475 551.625C542.989 546.006 546.51 539.196 547.917 532.057C548.038 531.432 547.641 530.828 547.03 530.702M533.043 557.593L547.03 530.702C547.03 530.702 547.03 530.702 547.03 530.702M533.043 557.593L533.043 557.593M533.043 557.593L533.043 557.593M547.03 530.702C546.416 530.579 545.822 530.984 545.699 531.605C544.368 538.382 541.008 544.839 536.724 550.169C535.426 551.784 534.006 553.272 532.585 554.762C531.882 555.499 531.177 556.237 530.487 556.992C530.467 557.014 530.414 557.07 530.341 557.147C530.23 557.265 530.072 557.432 529.912 557.605C529.78 557.749 529.646 557.897 529.537 558.025C529.428 558.153 529.342 558.262 529.307 558.326C528.972 558.925 529.209 559.39 529.346 559.591C529.458 559.761 529.632 559.936 529.91 560.057C530.139 560.154 530.617 560.236 531.278 560.206C532.338 560.163 534.096 559.91 535.692 559.659C536.201 559.58 536.694 559.5 537.143 559.428C538.099 559.273 538.853 559.151 539.133 559.129C547.441 558.472 555.335 559.104 563.517 559.76C564.618 559.849 565.724 559.937 566.838 560.023C567.46 560.069 568.005 559.595 568.053 558.963C568.101 558.331 567.633 557.779 567.012 557.731C565.937 557.648 564.869 557.562 563.805 557.477C555.464 556.81 547.422 556.167 538.96 556.839C538.395 556.881 535.278 557.293 533.043 557.593M547.03 530.702L533.042 557.593C533.042 557.593 533.043 557.593 533.043 557.593" fill="#FF9142" stroke="#FF9142" stroke-width="0.00221344"/>
</svg>
