<svg width="64" height="64" viewBox="0 0 64 64" fill="none" xmlns="http://www.w3.org/2000/svg">
<path fill-rule="evenodd" clip-rule="evenodd" d="M64 0C64 8.83656 56.8366 16 48 16H32C23.1634 16 16 23.1634 16 32V48C16 56.8366 8.83656 64 0 64H16H48C56.8366 64 64 56.8366 64 48V16V0Z" fill="#fff"/>
<rect x="24" y="24" width="32" height="32" rx="16" fill="#03040D"/>
<path d="M32.9998 35.9957L36.9955 39.9914M32.9998 35.9957L36.9955 32M32.9998 35.9957L42.9978 35.9957C45.4843 35.9957 47.5 38.0114 47.5 40.4978V40.4978C47.5 42.9843 45.4843 45 42.9978 45L32.9998 45" stroke="#fff" stroke-width="1.8"/>
</svg>
