<svg width="32" height="32" viewBox="0 0 32 32" fill="none" xmlns="http://www.w3.org/2000/svg">
<path d="M20.6885 19.8828C19.6819 20.6876 18.2728 21.2912 16.8637 21.2912C13.6429 21.2912 11.4286 18.8768 11.4286 15.6576C11.4286 12.4384 13.6429 10.2252 16.8637 10.2252C18.2728 10.2252 19.6819 10.6276 20.6885 11.6336L21.2924 12.2372L24.5132 9.2192L23.708 8.6156C21.8963 7.006 19.4806 6 16.8637 6C11.2273 6 7 10.2252 7 15.8588C7 21.4924 11.2273 25.7176 16.8637 25.7176C19.4806 25.7176 21.8963 24.7116 23.708 23.102L24.5132 22.4984L21.2924 19.2792L20.6885 19.8828Z" fill="#17313B"/>
<path d="M16.6642 19.0732C18.443 19.0732 19.885 17.6319 19.885 15.854C19.885 14.0761 18.443 12.6348 16.6642 12.6348C14.8854 12.6348 13.4434 14.0761 13.4434 15.854C13.4434 17.6319 14.8854 19.0732 16.6642 19.0732Z" fill="#EF4335"/>
</svg>
