<svg width="206" height="44" viewBox="0 0 206 44" fill="none" xmlns="http://www.w3.org/2000/svg">
<path d="M198.721 9.50195C198.562 8.88244 198.174 8.39445 197.572 8.17824C168.261 -2.34904 38.8597 -1.02523 4.38177 9.13407C3.45421 9.40738 2.95081 10.3075 3.08623 11.2649L5.25001 26.5634C5.39035 27.5557 4.77466 28.4987 3.80974 28.7692L1.8033 29.3319C0.78561 29.6173 0.16567 30.6453 0.388119 31.6785L2.58324 41.8748C2.87475 43.2289 4.42158 43.9046 5.67453 43.3142C35.4575 29.2804 157.283 29.5062 203.092 38.0059C204.551 38.2765 205.772 36.9379 205.403 35.5015L198.721 9.50195Z" fill="#FFB580"/>
</svg>
