<svg width="146" height="41" viewBox="0 0 146 41" fill="none" xmlns="http://www.w3.org/2000/svg">
<path d="M141.182 6.37878C141.065 5.73823 140.689 5.20722 140.083 4.96742C119.065 -3.35853 28.4706 0.848728 3.62906 10.4544C2.82819 10.7641 2.39245 11.559 2.46748 12.4144L3.63623 25.74C3.71464 26.6341 3.18786 27.471 2.34778 27.7868L1.34333 28.1645C0.461662 28.496 -0.0691905 29.3978 0.0688169 30.3296L1.23427 38.1983C1.45927 39.7174 3.25139 40.4959 4.60305 39.767C27.5111 27.4135 110.477 24.8285 142.797 30.8756C144.208 31.1397 145.473 29.9163 145.216 28.504L141.182 6.37878Z" fill="#FFB580"/>
</svg>
