<svg width="282" height="55" viewBox="0 0 282 55" fill="none" xmlns="http://www.w3.org/2000/svg">
<path d="M2.45999 17.0434C2.30384 15.3734 3.43834 13.8741 5.09554 13.6158C22.6321 10.8815 115.513 -2.94896 178.542 0.569205C214.001 2.54846 263.74 11.3054 276.086 13.5514C277.715 13.8476 278.818 15.342 278.653 16.9891L277.389 29.6436C277.272 30.8218 277.816 31.9682 278.803 32.6217L280.57 33.7911C281.463 34.382 282 35.3813 282 36.452V47.1644C282 48.2376 281.204 49.1441 280.139 49.2825C279.398 49.379 278.76 49.8564 278.459 50.5412L278.203 51.1239C277.613 52.4672 276.195 53.2377 274.748 52.9946C263.322 51.0757 214.331 43.092 178.542 41.0943C116.264 37.618 23.1044 51.3956 3.64248 54.4229C1.69765 54.7254 0 53.212 0 51.2438V36.6997C0 35.4962 0.677147 34.3951 1.75119 33.8521L1.9891 33.7318C3.15938 33.1401 3.84852 31.8927 3.72643 30.587L2.45999 17.0434Z" fill="#FFB580"/>
</svg>
