<svg width="275" height="24" viewBox="0 0 275 24" fill="none" xmlns="http://www.w3.org/2000/svg">
<path d="M0.000770265 8.72486C-0.00812098 8.56465 0.0602365 8.40785 0.191605 8.28715C0.322974 8.16646 0.507216 8.09118 0.70593 8.077C54.8083 4.13931 109.055 -0.765068 163.46 0.100414C169.8 0.145966 186.598 1.28474 178.142 9.09939C174.365 12.2121 166.91 13.4774 162.459 15.9979C161.124 16.7571 160.923 17.7542 163.24 18.5995C175.989 23.2508 254.533 16.3573 274.492 13.4875C274.549 13.4796 274.608 13.4812 274.665 13.492C274.722 13.5029 274.775 13.5229 274.822 13.5507C274.869 13.5786 274.909 13.6138 274.939 13.6543C274.968 13.6947 274.988 13.7396 274.995 13.7862C275.014 13.9128 274.978 14.0408 274.893 14.1486C274.808 14.2563 274.68 14.3374 274.529 14.3783C257.681 18.7007 162.522 30.2455 155.628 19.6472C151.913 13.9532 167.351 11.6047 173.653 7.89986C175.284 6.93822 176.014 4.25574 172.482 3.38519C163.221 1.10255 136.739 3.02583 122.498 2.8335C81.7178 3.84576 40.9821 6.43714 0.290404 8.90706C0.254145 8.90985 0.21754 8.90659 0.18292 8.89748C0.148301 8.88838 0.116424 8.87362 0.0892322 8.85414C0.0620403 8.83466 0.0401218 8.81087 0.0249032 8.78426C0.00968465 8.75766 0.00147132 8.72884 0.000770265 8.69956V8.72486Z" fill="#FF9142"/>
<path d="M96.9208 8.86644C96.8762 8.8691 96.8313 8.86469 96.7888 8.85341C96.7462 8.84213 96.7069 8.82424 96.673 8.80074C96.6045 8.75328 96.5623 8.68587 96.5556 8.61338C96.5489 8.54089 96.5784 8.46924 96.6374 8.41419C96.6964 8.35914 96.7803 8.32522 96.8704 8.31985C107.013 7.30759 117.207 6.69515 127.413 6.23963C137.889 6.1384 148.82 5.07554 159.214 6.53319C159.298 6.54617 159.373 6.58415 159.424 6.63955C159.475 6.69495 159.498 6.7637 159.488 6.83207C159.479 6.90044 159.437 6.96338 159.373 7.00837C159.308 7.05336 159.224 7.07706 159.139 7.07476C138.771 6.09792 117.415 8.45142 96.9208 8.86644Z" fill="#FF9142"/>
<path d="M87.0316 8.72984C88.986 8.39567 90.9848 8.25965 92.9813 8.32494C93.0734 8.29372 93.1735 8.28056 93.2731 8.28657C93.3728 8.29258 93.4692 8.31756 93.5545 8.35948C93.6398 8.4014 93.7114 8.45904 93.7635 8.52762C93.8155 8.5962 93.8465 8.67375 93.8539 8.75387C93.8613 8.834 93.8449 8.9144 93.8059 8.9884C93.767 9.0624 93.7067 9.12788 93.63 9.17944C93.5534 9.231 93.4626 9.26715 93.3651 9.2849C93.2676 9.30265 93.1663 9.30148 93.0695 9.2815C91.1266 9.53193 89.1629 9.66391 87.1952 9.6763C86.3578 9.68136 86.2257 8.86649 87.0316 8.72984Z" fill="#FF9142"/>
</svg>
