<svg width="212" height="18" viewBox="0 0 212 18" fill="none" xmlns="http://www.w3.org/2000/svg">
<path d="M0.495242 1.04646C69.9123 -3.50481 141.459 8.62037 211.431 2.77792C212.144 2.71856 212.209 3.93553 211.5 4.02952C141.905 13.1667 70.4026 0.799109 0.574494 2.28322C-0.133843 2.3129 -0.218049 1.09593 0.495242 1.04646Z" fill="#FFB580"/>
<path d="M108.197 15.4571C130.809 15.3334 154.105 15.6401 176.742 15.8825C177.5 15.8825 177.584 16.6344 176.836 16.6988C154.159 18.6479 130.948 18.3263 108.152 16.2733C107.399 16.209 107.439 15.462 108.197 15.4571Z" fill="#FFB580"/>
<path d="M102.305 15.4919C99.0986 15.5521 95.8926 15.3453 92.7204 14.8735C91.5266 14.6955 91.6752 13.8347 92.9036 13.8099C96.1086 13.7499 99.313 13.9567 102.484 14.4283C103.677 14.6064 103.534 15.4672 102.305 15.4919Z" fill="#FFB580"/>
</svg>
