<?xml version="1.0" encoding="utf-8"?>
<!-- Generator: Adobe Illustrator 21.0.0, SVG Export Plug-In . SVG Version: 6.00 Build 0)  -->
<svg version="1.1" id="Layer_1" xmlns="http://www.w3.org/2000/svg" xmlns:xlink="http://www.w3.org/1999/xlink" x="0px" y="0px"
	 viewBox="0 0 255.1 141.7" style="enable-background:new 0 0 255.1 141.7;" xml:space="preserve">
<style type="text/css">
	.st0{fill: #fff;}
	.st1{fill: #faa41c;}
</style>
<path class="st0" d="M63.2,64.4v22.7c0,0-11.1-4-11.2-10.3s0-24.2,0-24.2S63.2,56.6,63.2,64.4z"/>
<path class="st1" d="M36.2,43.5l10.2,6.2v13.2c-2.9-1.8-5.6-3.4-7.3-4.5C33.8,55,36.2,43.5,36.2,43.5z"/>
<path class="st0" d="M19.3,74.6V51.9c0,0,11.1,4,11.2,10.3c0.1,6.3,0,24.2,0,24.2S19.3,82.4,19.3,74.6z"/>
<path class="st1" d="M46.3,95.5l-10.2-6.2V76.1c2.9,1.8,5.6,3.4,7.3,4.5C48.8,84,46.3,95.5,46.3,95.5z"/>
<path class="st0" d="M87.2,80.4c-0.3-0.2-0.3-0.6-0.3-1.1V54.9h-7.4v27.7c0,1.9,1,2.9,1.4,3.2c1.1,0.9,2.8,1,3.5,1h17.1v-6.1H88.5
	C87.6,80.6,87.3,80.4,87.2,80.4z"/>
<path class="st0" d="M130.5,74.7c1.2-1.2,1.4-2.8,1.4-4.2c0-2.9-0.4-6.6-3.9-8.8c-2.5-1.6-5.7-1.7-8.7-1.7c-2.4,0-7,0-9.9,2.5
	c-3,2.6-3.2,6.2-3.2,11.1c0,3.5,0.1,7.1,1.9,9.6c2.2,3,5.2,3.5,8.3,3.5H131v-5.4H118c-2.4,0-4.1-0.5-4.7-2.7
	c-0.1-0.6-0.3-1.9-0.3-2.9h14.4C128.2,75.8,129.5,75.7,130.5,74.7z M124.2,70.4H113c0-1.4,0.1-2.5,1-3.6c1.3-1.5,3.3-1.5,4.9-1.5
	c1.6,0,3.4,0.1,4.7,1.1c0.7,0.5,1.5,1.6,1.5,3C125,70.3,124.7,70.4,124.2,70.4z"/>
<path class="st0" d="M151.6,60h-9.2c-1.2,0-3,0-4.2,1.3c-0.8,0.9-1,2.1-1,3.1v22.3h6.7V66.3c0-0.3,0-0.6,0.1-0.7
	c0.1-0.1,0.3-0.1,0.6-0.1h5.8c1.9,0,2.9,0.4,3.7,1.4c0.8,1.1,1,2.7,1,4.3v15.7h6.7V69.3c0-3.1-0.9-5.4-2.7-7.1
	C156.8,60.2,154,60,151.6,60z"/>
<path class="st0" d="M187.4,60h-8.3c-2.8,0-5.8,0.2-8.3,3c-2.4,2.6-2.8,5.9-2.8,10c0,4.7,0.7,8,2.1,10.2c2.3,3.5,6.1,3.5,8.2,3.5
	h9.1c0,0.9,0.2,5-6.2,5h-11.3v5.4h12.6c11.2,0,11.2-7.6,11.2-10.6V65.3c0-1.8-0.6-3.2-1.7-4.1C190.6,60.1,189,60,187.4,60z
	 M186.9,81.4h-6.2c-1.7,0-3.4-0.1-4.5-1.3c-0.6-0.7-1.3-2.4-1.3-6.6c0-3.3,0.5-5.5,1.4-6.6c0.8-0.9,2.3-1.4,4-1.4h4.8
	c0.4,0,0.8,0,1.2,0.3c0.4,0.3,0.5,0.6,0.5,1.2V81.4z"/>
<rect x="199.9" y="63.5" class="st0" width="6.7" height="23.2"/>
<path class="st0" d="M234.3,62.3c-2.3-2-5.1-2.2-7.5-2.2h-9.2c-1.2,0-3,0-4.2,1.3c-0.8,0.9-1,2.1-1,3.1v22.3h6.7V66.3
	c0-0.3,0-0.6,0.1-0.7c0.1-0.1,0.3-0.1,0.6-0.1h5.8c1.9,0,2.9,0.4,3.7,1.4c0.8,1.1,1,2.7,1,4.3v15.7h6.7V69.3
	C237,66.2,236.1,63.9,234.3,62.3z"/>
<path class="st0" d="M204.1,52.1c-2.5-0.5-4.6,1.7-4.1,4.1c0.3,1.4,1.4,2.5,2.8,2.8c2.5,0.5,4.6-1.7,4.1-4.1
	C206.6,53.5,205.5,52.4,204.1,52.1z"/>
</svg>
