<svg width="1220" height="496" viewBox="0 0 1220 496" fill="none" xmlns="http://www.w3.org/2000/svg">
<path d="M894.375 398.959C896.618 397.664 899.382 397.664 901.625 398.959L917.874 408.34C920.117 409.635 921.499 412.029 921.499 414.619V433.381C921.499 435.971 920.117 438.365 917.874 439.66L901.625 449.041C899.382 450.336 896.618 450.336 894.375 449.041L878.126 439.66C875.883 438.365 874.501 435.971 874.501 433.381V414.619C874.501 412.029 875.883 409.635 878.126 408.34L894.375 398.959Z" stroke="#1F212F" stroke-width="1.5"/>
<path d="M688.013 156.198C690.171 154.952 692.829 154.952 694.987 156.198L727.257 174.829C729.415 176.075 730.744 178.377 730.744 180.869V218.131C730.744 220.623 729.415 222.925 727.257 224.171L694.987 242.802C692.829 244.048 690.171 244.048 688.013 242.802L655.743 224.171C653.585 222.925 652.256 220.623 652.256 218.131V180.869C652.256 178.377 653.585 176.075 655.743 174.829L688.013 156.198Z" stroke="#1F212F" stroke-width="2.05147"/>
<path d="M840.375 290.959C842.618 289.664 845.382 289.664 847.625 290.959L878.596 308.84C880.839 310.135 882.221 312.529 882.221 315.119V350.881C882.221 353.471 880.839 355.865 878.596 357.16L847.625 375.041C845.382 376.336 842.618 376.336 840.375 375.041L809.404 357.16C807.161 355.865 805.779 353.471 805.779 350.881V315.119C805.779 312.529 807.161 310.135 809.404 308.84L840.375 290.959Z" stroke="#1F212F" stroke-width="1.5"/>
<path d="M503.375 299.959C505.618 298.664 508.382 298.664 510.625 299.959L578.835 339.34C581.078 340.635 582.46 343.029 582.46 345.619V424.381C582.46 426.971 581.078 429.365 578.835 430.66L510.625 470.041C508.382 471.336 505.618 471.336 503.375 470.041L435.165 430.66C432.922 429.365 431.54 426.971 431.54 424.381V345.619C431.54 343.029 432.922 340.635 435.165 339.34L503.375 299.959Z" stroke="#1F212F" stroke-width="1.5"/>
<path d="M410.375 226.959C412.618 225.664 415.382 225.664 417.625 226.959L450.328 245.84C452.571 247.135 453.953 249.529 453.953 252.119V289.881C453.953 292.471 452.571 294.865 450.328 296.16L417.625 315.041C415.382 316.336 412.618 316.336 410.375 315.041L377.672 296.16C375.429 294.865 374.047 292.471 374.047 289.881V252.119C374.047 249.529 375.429 247.135 377.672 245.84L410.375 226.959Z" stroke="#1F212F" stroke-width="1.5"/>
<path d="M322.875 411.959C325.118 410.664 327.882 410.664 330.125 411.959L345.941 421.09C348.184 422.385 349.566 424.779 349.566 427.369V445.631C349.566 448.221 348.184 450.615 345.941 451.91L330.125 461.041C327.882 462.336 325.118 462.336 322.875 461.041L307.059 451.91C304.816 450.615 303.434 448.221 303.434 445.631V427.369C303.434 424.779 304.816 422.385 307.059 421.09L322.875 411.959Z" stroke="#1F212F" stroke-width="1.5"/>
<path d="M1098.87 92.9589C1101.12 91.6638 1103.88 91.6638 1106.12 92.9589L1156.58 122.09C1158.82 123.385 1160.21 125.779 1160.21 128.369L1160.21 186.631C1160.21 189.221 1158.82 191.615 1156.58 192.91L1106.12 222.041C1103.88 223.336 1101.12 223.336 1098.87 222.041L1048.42 192.91C1046.18 191.615 1044.79 189.221 1044.79 186.631L1044.79 128.369C1044.79 125.779 1046.18 123.385 1048.42 122.09L1098.87 92.9589Z" stroke="#1F212F" stroke-width="1.5"/>
<path d="M991.362 95.9365C993.613 94.6368 996.387 94.6368 998.638 95.9365L1017.48 106.818C1019.74 108.117 1021.12 110.519 1021.12 113.119V134.881C1021.12 137.481 1019.74 139.883 1017.48 141.182L998.638 152.063C996.387 153.363 993.613 153.363 991.362 152.063L972.515 141.182C970.264 139.883 968.877 137.481 968.877 134.881V113.119C968.877 110.519 970.264 108.117 972.515 106.818L991.362 95.9365Z" stroke="#1F212F" stroke-width="1.44828"/>
<path d="M645.362 86.9365C647.613 85.6368 650.387 85.6368 652.638 86.9365L662.824 92.8177C665.076 94.1174 666.462 96.5194 666.462 99.1188V110.881C666.462 113.481 665.076 115.883 662.824 117.182L652.638 123.063C650.387 124.363 647.613 124.363 645.362 123.063L635.176 117.182C632.924 115.883 631.538 113.481 631.538 110.881V99.1188C631.538 96.5194 632.924 94.1174 635.176 92.8177L645.362 86.9365Z" stroke="#1F212F" stroke-width="1.44828"/>
<path d="M662.362 250.937C664.613 249.637 667.387 249.637 669.638 250.937L679.824 256.818C682.076 258.117 683.462 260.519 683.462 263.119V274.881C683.462 277.481 682.076 279.883 679.824 281.182L669.638 287.063C667.387 288.363 664.613 288.363 662.362 287.063L652.176 281.182C649.924 279.883 648.538 277.481 648.538 274.881V263.119C648.538 260.519 649.924 258.117 652.176 256.818L662.362 250.937Z" stroke="#1F212F" stroke-width="1.44828"/>
<path d="M755.362 253.937C757.613 252.637 760.387 252.637 762.638 253.937L772.824 259.818C775.076 261.117 776.462 263.519 776.462 266.119V277.881C776.462 280.481 775.076 282.883 772.824 284.182L762.638 290.063C760.387 291.363 757.613 291.363 755.362 290.063L745.176 284.182C742.924 282.883 741.538 280.481 741.538 277.881V266.119C741.538 263.519 742.924 261.117 745.176 259.818L755.362 253.937Z" stroke="#1F212F" stroke-width="1.44828"/>
<path d="M160.5 244.175L233.906 286.557C236.072 287.807 237.406 290.118 237.406 292.619L237.406 377.381C237.406 379.882 236.072 382.193 233.906 383.443L160.5 425.825C158.334 427.075 155.666 427.075 153.5 425.825L80.0936 383.443C77.9278 382.193 76.5936 379.882 76.5936 377.381L76.5936 292.619C76.5936 290.118 77.9278 287.807 80.0936 286.557L153.5 244.175C155.666 242.925 158.334 242.925 160.5 244.175Z" stroke="#1F212F" stroke-width="2"/>
<path d="M579.625 173.959L633.113 204.84C635.356 206.135 636.738 208.529 636.738 211.119V272.881C636.738 275.471 635.356 277.865 633.113 279.16L579.625 310.041C577.382 311.336 574.618 311.336 572.375 310.041L518.887 279.16C516.644 277.865 515.262 275.471 515.262 272.881V211.119C515.262 208.529 516.644 206.135 518.887 204.84L572.375 173.959C574.618 172.664 577.382 172.664 579.625 173.959Z" stroke="#1F212F" stroke-width="1.5"/>
<path d="M709.5 280.175L776.844 319.057C779.01 320.307 780.344 322.618 780.344 325.119V402.881C780.344 405.382 779.01 407.693 776.844 408.943L709.5 447.825C707.334 449.075 704.666 449.075 702.5 447.825L635.156 408.943C632.99 407.693 631.656 405.382 631.656 402.881V325.119C631.656 322.618 632.99 320.307 635.156 319.057L702.5 280.175C704.666 278.925 707.334 278.925 709.5 280.175Z" stroke="#1F212F" stroke-width="2"/>
<path d="M849.5 45.1754L937.629 96.0566C939.795 97.3071 941.129 99.6179 941.129 102.119V203.881C941.129 206.382 939.795 208.693 937.629 209.943L849.5 260.825C847.334 262.075 844.666 262.075 842.5 260.825L754.371 209.943C752.205 208.693 750.871 206.382 750.871 203.881V102.119C750.871 99.6179 752.205 97.3071 754.371 96.0566L842.5 45.1754C844.666 43.925 847.334 43.925 849.5 45.1754Z" stroke="#1F212F" stroke-width="2"/>
<path d="M1016 213.175L1107.16 265.807C1109.33 267.057 1110.66 269.368 1110.66 271.869V377.131C1110.66 379.632 1109.33 381.943 1107.16 383.193L1016 435.825C1013.83 437.075 1011.17 437.075 1009 435.825L917.84 383.193C915.674 381.943 914.34 379.632 914.34 377.131V271.869C914.34 269.368 915.674 267.057 917.84 265.807L1009 213.175C1011.17 211.925 1013.83 211.925 1016 213.175Z" stroke="#1F212F" stroke-width="2"/>
</svg>
