<svg width="688" height="640" viewBox="0 0 688 640" fill="none" xmlns="http://www.w3.org/2000/svg">
<path d="M349.081 566.399C350.415 565.629 352.057 565.629 353.39 566.399L366.472 573.951C367.805 574.721 368.627 576.144 368.627 577.683V592.789C368.627 594.328 367.805 595.751 366.472 596.52L353.39 604.073C352.057 604.843 350.415 604.843 349.081 604.073L336 596.52C334.666 595.751 333.845 594.328 333.845 592.789V577.683C333.845 576.144 334.666 574.721 336 573.951L349.081 566.399Z" stroke="#1F212F" stroke-width="2"/>
<path d="M278.008 482.399C279.341 481.629 280.984 481.629 282.317 482.399L309.192 497.915C310.525 498.685 311.347 500.107 311.347 501.646V532.679C311.347 534.218 310.525 535.641 309.192 536.411L282.317 551.927C280.984 552.697 279.341 552.697 278.008 551.927L251.133 536.411C249.8 535.641 248.979 534.218 248.979 532.679V501.646C248.979 500.107 249.8 498.685 251.133 497.915L278.008 482.399Z" stroke="#1F212F" stroke-width="2"/>
<path d="M187.008 390.654C188.342 389.885 189.984 389.885 191.317 390.654L208.997 400.862C210.33 401.631 211.151 403.054 211.151 404.593V425.008C211.151 426.547 210.33 427.97 208.997 428.74L191.317 438.947C189.984 439.717 188.342 439.717 187.008 438.947L169.329 428.74C167.996 427.97 167.174 426.547 167.174 425.008V404.593C167.174 403.054 167.996 401.631 169.329 400.862L187.008 390.654Z" stroke="#1F212F" stroke-width="2"/>
<path d="M583.986 238.618C587.697 236.475 592.27 236.475 595.981 238.618L628.005 257.106C631.716 259.249 634.003 263.209 634.003 267.495V304.472C634.003 308.758 631.716 312.718 628.005 314.861L595.981 333.349C592.27 335.492 587.697 335.492 583.986 333.349L551.962 314.861C548.251 312.718 545.964 308.758 545.964 304.472V267.495C545.964 263.209 548.251 259.249 551.962 257.106L583.986 238.618Z" stroke="#1F212F" stroke-width="2"/>
<g clip-path="url(#clip0_948_14903)">
<path d="M473.002 449.618C476.714 447.475 481.286 447.475 484.998 449.618L548.212 486.114C551.924 488.257 554.21 492.217 554.21 496.503V569.497C554.21 573.783 551.924 577.743 548.212 579.886L484.998 616.382C481.286 618.525 476.714 618.525 473.002 616.382L409.788 579.886C406.076 577.743 403.79 573.783 403.79 569.497V496.503C403.79 492.217 406.076 488.257 409.788 486.114L473.002 449.618Z" stroke="#1F212F" stroke-width="2"/>
</g>
<g clip-path="url(#clip1_948_14903)">
<path d="M130.275 443.618C133.986 441.475 138.559 441.475 142.27 443.618L208.949 482.114C212.66 484.257 214.947 488.217 214.947 492.503V569.497C214.947 573.783 212.66 577.743 208.949 579.886L142.27 618.382C138.559 620.525 133.986 620.525 130.275 618.382L63.5961 579.886C59.8845 577.743 57.5981 573.783 57.5981 569.497V492.503C57.5981 488.217 59.8845 484.257 63.5961 482.114L130.275 443.618Z" stroke="#1F212F" stroke-width="2"/>
</g>
<path d="M471.4 384.787C472.372 384.226 473.57 384.226 474.542 384.787L490.131 393.788C491.104 394.349 491.703 395.387 491.703 396.51V414.51C491.703 415.633 491.104 416.671 490.131 417.232L474.542 426.232C473.57 426.794 472.372 426.794 471.4 426.232L455.81 417.232C454.838 416.671 454.239 415.633 454.239 414.51V396.51C454.239 395.387 454.838 394.349 455.81 393.788L471.4 384.787Z" stroke="#1F212F" stroke-width="2"/>
<path d="M454.179 267.149C456.316 265.915 458.949 265.915 461.087 267.149L480.573 278.399C482.711 279.633 484.027 281.914 484.027 284.382V306.883C484.027 309.351 482.711 311.632 480.573 312.866L461.087 324.116C458.949 325.35 456.316 325.35 454.179 324.116L434.692 312.866C432.555 311.632 431.238 309.351 431.238 306.883V284.382C431.238 281.914 432.555 279.633 434.692 278.399L454.179 267.149Z" stroke="#1F212F" stroke-width="2"/>
<path d="M578.179 377.139C581.377 375.292 585.318 375.292 588.516 377.139L616.451 393.267C619.649 395.114 621.619 398.526 621.619 402.219V434.476C621.619 438.169 619.649 441.581 616.451 443.428L588.516 459.556C585.318 461.403 581.377 461.403 578.179 459.556L550.244 443.428C547.046 441.581 545.075 438.169 545.075 434.476V402.219C545.075 398.526 547.046 395.114 550.244 393.267L578.179 377.139Z" stroke="#1F212F" stroke-width="2"/>
<path d="M136.354 305.399C137.687 304.629 139.33 304.629 140.663 305.399L165.239 319.588C166.572 320.357 167.393 321.78 167.393 323.319V351.697C167.393 353.237 166.572 354.659 165.239 355.429L140.663 369.618C139.33 370.388 137.687 370.388 136.354 369.618L111.778 355.429C110.445 354.659 109.623 353.237 109.623 351.697V323.319C109.623 321.78 110.445 320.357 111.778 319.588L136.354 305.399Z" stroke="#1F212F" stroke-width="2"/>
<g clip-path="url(#clip2_948_14903)">
<path d="M323.213 264.618C326.925 262.475 331.497 262.475 335.209 264.618L410.548 308.114C414.259 310.257 416.546 314.217 416.546 318.503V405.497C416.546 409.783 414.259 413.743 410.548 415.886L335.209 459.382C331.497 461.525 326.925 461.525 323.213 459.382L247.874 415.886C244.163 413.743 241.876 409.783 241.876 405.497V318.503C241.876 314.217 244.163 310.257 247.874 308.114L323.213 264.618Z" stroke="#1F212F" stroke-width="2"/>
</g>
<g clip-path="url(#clip3_948_14903)">
<path d="M186.166 156.182C189.878 154.039 194.45 154.039 198.162 156.182L250.984 186.679C254.696 188.822 256.982 192.782 256.982 197.068V258.061C256.982 262.347 254.696 266.307 250.984 268.45L198.162 298.947C194.45 301.09 189.878 301.09 186.166 298.947L133.344 268.45C129.633 266.307 127.346 262.347 127.346 258.061V197.068C127.346 192.782 129.633 188.822 133.344 186.679L186.166 156.182Z" stroke="#1F212F" stroke-width="2"/>
</g>
<path d="M482.969 44.6176C486.681 42.4748 491.254 42.4748 494.965 44.6176L572.007 89.098C575.719 91.2408 578.005 95.201 578.005 99.4867V188.447C578.005 192.733 575.719 196.693 572.007 198.836L494.965 243.317C491.254 245.459 486.681 245.459 482.969 243.317L405.927 198.836C402.215 196.693 399.929 192.733 399.929 188.447V99.4867C399.929 95.201 402.215 91.2408 405.927 89.098L482.969 44.6176Z" stroke="#1F212F" stroke-width="2"/>
<path d="M68.3172 358.399C69.6504 357.629 71.2929 357.629 72.6261 358.399L104.099 376.569C105.432 377.339 106.253 378.762 106.253 380.301V416.642C106.253 418.182 105.432 419.604 104.099 420.374L72.6261 438.545C71.2929 439.314 69.6504 439.314 68.3172 438.545L36.8446 420.374C35.5114 419.604 34.6901 418.182 34.6901 416.642V380.301C34.6901 378.762 35.5114 377.339 36.8446 376.569L68.3172 358.399Z" stroke="#1F212F" stroke-width="2"/>
<path d="M64.3903 239.399C65.7235 238.629 67.3661 238.629 68.6993 239.399L86.3788 249.606C87.712 250.376 88.5333 251.798 88.5333 253.338V273.752C88.5333 275.292 87.712 276.714 86.3788 277.484L68.6993 287.691C67.3661 288.461 65.7235 288.461 64.3903 287.691L46.7108 277.484C45.3776 276.714 44.5563 275.292 44.5563 273.752V253.338C44.5563 251.798 45.3776 250.376 46.7108 249.606L64.3903 239.399Z" stroke="#1F212F" stroke-width="2"/>
<path d="M304.469 197.099C305.802 196.329 307.445 196.329 308.778 197.099L321.86 204.652C323.193 205.421 324.014 206.844 324.014 208.383V223.489C324.014 225.028 323.193 226.451 321.86 227.22L308.778 234.773C307.445 235.543 305.802 235.543 304.469 234.773L291.387 227.22C290.054 226.451 289.233 225.028 289.233 223.489V208.383C289.233 206.844 290.054 205.421 291.387 204.652L304.469 197.099Z" stroke="#1F212F" stroke-width="2"/>
<defs>
<clipPath id="clip0_948_14903">
<rect width="176" height="176" fill="white" transform="translate(391 445)"/>
</clipPath>
<clipPath id="clip1_948_14903">
<rect width="184" height="184" fill="white" transform="translate(44.2725 439)"/>
</clipPath>
<clipPath id="clip2_948_14903">
<rect width="204" height="204" fill="white" transform="translate(227.211 260)"/>
</clipPath>
<clipPath id="clip3_948_14903">
<rect width="152" height="152" fill="white" transform="translate(116.164 151.564)"/>
</clipPath>
</defs>
</svg>
