<svg width="335" height="640" viewBox="0 0 335 640" fill="none" xmlns="http://www.w3.org/2000/svg">
<path d="M29.25 588.588C30.3329 587.962 31.6671 587.962 32.75 588.588L42.6064 594.278C43.6893 594.904 44.3564 596.059 44.3564 597.309V608.691C44.3564 609.941 43.6893 611.096 42.6064 611.722L32.75 617.412C31.6671 618.038 30.3329 618.038 29.25 617.412L19.3936 611.722C18.3107 611.096 17.6436 609.941 17.6436 608.691V597.309C17.6436 596.059 18.3107 594.904 19.3936 594.278L29.25 588.588Z" stroke="#1F212F"/>
<path d="M146.25 569.588C147.333 568.962 148.667 568.962 149.75 569.588L169.999 581.278C171.082 581.904 171.749 583.059 171.749 584.309V607.691C171.749 608.941 171.082 610.096 169.999 610.722L149.75 622.412C148.667 623.038 147.333 623.038 146.25 622.412L126.001 610.722C124.918 610.096 124.251 608.941 124.251 607.691V584.309C124.251 583.059 124.918 581.904 126.001 581.278L146.25 569.588Z" stroke="#1F212F"/>
<path d="M46.25 395.588C47.3329 394.962 48.6671 394.962 49.75 395.588L63.0705 403.278C64.1534 403.904 64.8205 405.059 64.8205 406.309V421.691C64.8205 422.941 64.1534 424.096 63.0705 424.722L49.75 432.412C48.6671 433.038 47.3329 433.038 46.25 432.412L32.9295 424.722C31.8466 424.096 31.1795 422.941 31.1795 421.691V406.309C31.1795 405.059 31.8466 403.904 32.9295 403.278L46.25 395.588Z" stroke="#1F212F"/>
<!-- <path d="M274.25 268.588C275.333 267.962 276.667 267.962 277.75 268.588L287.606 274.278C288.689 274.904 289.356 276.059 289.356 277.309V288.691C289.356 289.941 288.689 291.096 287.606 291.722L277.75 297.412C276.667 298.038 275.333 298.038 274.25 297.412L264.394 291.722C263.311 291.096 262.644 289.941 262.644 288.691V277.309C262.644 276.059 263.311 274.904 264.394 274.278L274.25 268.588Z" stroke="#1F212F"/> -->
<path d="M259.25 494.742C261.571 493.403 264.429 493.403 266.75 494.742L314.176 522.124C316.496 523.463 317.926 525.939 317.926 528.619V583.381C317.926 586.061 316.496 588.537 314.176 589.876L266.75 617.258C264.429 618.597 261.571 618.597 259.25 617.258L211.824 589.876C209.504 588.537 208.074 586.061 208.074 583.381V528.619C208.074 525.939 209.504 523.463 211.824 522.124L259.25 494.742Z" stroke="#1F212F"/>
<path d="M73.25 443.742C75.5705 442.403 78.4295 442.403 80.75 443.742L133.372 474.124C135.692 475.463 137.122 477.939 137.122 480.619V541.381C137.122 544.061 135.692 546.537 133.372 547.876L80.75 578.258C78.4295 579.597 75.5705 579.597 73.25 578.258L20.6282 547.876C18.3077 546.537 16.8782 544.061 16.8782 541.381V480.619C16.8782 477.939 18.3077 475.463 20.6282 474.124L73.25 443.742Z" stroke="#1F212F"/>
<path d="M261.25 424.588C262.333 423.962 263.667 423.962 264.75 424.588L279.803 433.278C280.885 433.904 281.553 435.059 281.553 436.309V453.691C281.553 454.941 280.885 456.096 279.803 456.722L264.75 465.412C263.667 466.038 262.333 466.038 261.25 465.412L246.197 456.722C245.115 456.096 244.447 454.941 244.447 453.691V436.309C244.447 435.059 245.115 433.904 246.197 433.278L261.25 424.588Z" stroke="#1F212F"/>
<path d="M253.25 339.588C254.333 338.962 255.667 338.962 256.75 339.588L266.606 345.278C267.689 345.904 268.356 347.059 268.356 348.309V359.691C268.356 360.941 267.689 362.096 266.606 362.722L256.75 368.412C255.667 369.038 254.333 369.038 253.25 368.412L243.394 362.722C242.311 362.096 241.644 360.941 241.644 359.691V348.309C241.644 347.059 242.311 345.904 243.394 345.278L253.25 339.588Z" stroke="#1F212F"/>
<path d="M289.25 383.588C290.333 382.962 291.667 382.962 292.75 383.588L302.606 389.278C303.689 389.904 304.356 391.059 304.356 392.309V403.691C304.356 404.941 303.689 406.096 302.606 406.722L292.75 412.412C291.667 413.038 290.333 413.038 289.25 412.412L279.394 406.722C278.311 406.096 277.644 404.941 277.644 403.691V392.309C277.644 391.059 278.311 389.904 279.394 389.278L289.25 383.588Z" stroke="#1F212F"/>
<path d="M37.25 310.588C38.3329 309.962 39.6671 309.962 40.75 310.588L59.2667 321.278C60.3496 321.904 61.0167 323.059 61.0167 324.309V345.691C61.0167 346.941 60.3496 348.096 59.2667 348.722L40.75 359.412C39.6671 360.038 38.3329 360.038 37.25 359.412L18.7333 348.722C17.6504 348.096 16.9833 346.941 16.9833 345.691V324.309C16.9833 323.059 17.6504 321.904 18.7333 321.278L37.25 310.588Z" stroke="#1F212F"/>
<path d="M144.25 297.742C146.571 296.403 149.429 296.403 151.75 297.742L207.836 330.124C210.156 331.463 211.586 333.939 211.586 336.619V401.381C211.586 404.061 210.156 406.537 207.836 407.876L151.75 440.258C149.429 441.597 146.571 441.597 144.25 440.258L88.1641 407.876C85.8436 406.537 84.4141 404.061 84.4141 401.381V336.619C84.4141 333.939 85.8436 331.463 88.1641 330.124L144.25 297.742Z" stroke="#1F212F"/>
<path d="M77.25 188.742C79.5705 187.403 82.4295 187.403 84.75 188.742L130.444 215.124C132.764 216.463 134.194 218.939 134.194 221.619V274.381C134.194 277.061 132.764 279.537 130.444 280.876L84.75 307.258C82.4295 308.597 79.5705 308.597 77.25 307.258L31.5564 280.876C29.2359 279.537 27.8064 277.061 27.8064 274.381V221.619C27.8064 218.939 29.2359 216.463 31.5564 215.124L77.25 188.742Z" stroke="#1F212F"/>
<path d="M231.25 158.742C233.571 157.403 236.429 157.403 238.75 158.742L301.764 195.124C304.085 196.463 305.514 198.939 305.514 201.619V274.381C305.514 277.061 304.085 279.537 301.764 280.876L238.75 317.258C236.429 318.597 233.571 318.597 231.25 317.258L168.236 280.876C165.915 279.537 164.486 277.061 164.486 274.381V201.619C164.486 198.939 165.915 196.463 168.236 195.124L231.25 158.742Z" stroke="#1F212F"/>
<path d="M185.25 449.588C186.333 448.962 187.667 448.962 188.75 449.588L212.463 463.278C213.546 463.904 214.213 465.059 214.213 466.309V493.691C214.213 494.941 213.546 496.096 212.463 496.722L188.75 510.412C187.667 511.038 186.333 511.038 185.25 510.412L161.537 496.722C160.454 496.096 159.787 494.941 159.787 493.691V466.309C159.787 465.059 160.454 463.904 161.537 463.278L185.25 449.588Z" stroke="#1F212F"/>
<path d="M133.25 157.588C134.333 156.962 135.667 156.962 136.75 157.588L150.071 165.278C151.153 165.904 151.821 167.059 151.821 168.309V183.691C151.821 184.941 151.153 186.096 150.071 186.722L136.75 194.412C135.667 195.038 134.333 195.038 133.25 194.412L119.929 186.722C118.847 186.096 118.179 184.941 118.179 183.691V168.309C118.179 167.059 118.847 165.904 119.929 165.278L133.25 157.588Z" stroke="#1F212F"/>
<path d="M37.25 161.588C38.3329 160.962 39.6671 160.962 40.75 161.588L50.6064 167.278C51.6893 167.904 52.3564 169.059 52.3564 170.309V181.691C52.3564 182.941 51.6893 184.096 50.6064 184.722L40.75 190.412C39.6671 191.038 38.3329 191.038 37.25 190.412L27.3936 184.722C26.3107 184.096 25.6436 182.941 25.6436 181.691V170.309C25.6436 169.059 26.3107 167.904 27.3936 167.278L37.25 161.588Z" stroke="#1F212F"/>
</svg>
