<svg width="390" height="256" viewBox="0 0 390 256" fill="none" xmlns="http://www.w3.org/2000/svg">
<mask id="path-1-inside-1_800_1414775786" fill="white">
<path fill-rule="evenodd" clip-rule="evenodd" d="M120 16C120 7.16344 112.837 0 104 0H16C7.16345 0 0 7.16345 0 16V93V120V240C0 248.837 7.16344 256 16 256H374C382.837 256 390 248.837 390 240V109C390 100.163 382.837 93 374 93H136C127.163 93 120 85.8366 120 77V16Z"/>
</mask>
<path fill-rule="evenodd" clip-rule="evenodd" d="M120 16C120 7.16344 112.837 0 104 0H16C7.16345 0 0 7.16345 0 16V93V120V240C0 248.837 7.16344 256 16 256H374C382.837 256 390 248.837 390 240V109C390 100.163 382.837 93 374 93H136C127.163 93 120 85.8366 120 77V16Z" fill="white"/>
<path d="M16 1H104V-1H16V1ZM1 93V16H-1V93H1ZM1 120V93H-1V120H1ZM1 240V120H-1V240H1ZM374 255H16V257H374V255ZM389 109V240H391V109H389ZM136 94H374V92H136V94ZM119 16V77H121V16H119ZM136 92C127.716 92 121 85.2843 121 77H119C119 86.3888 126.611 94 136 94V92ZM-1 240C-1 249.389 6.61116 257 16 257V255C7.71573 255 1 248.284 1 240H-1ZM391 109C391 99.6112 383.389 92 374 92V94C382.284 94 389 100.716 389 109H391ZM104 1C112.284 1 119 7.71573 119 16H121C121 6.61116 113.389 -1 104 -1V1ZM374 257C383.389 257 391 249.389 391 240H389C389 248.284 382.284 255 374 255V257ZM16 -1C6.61116 -1 -1 6.61116 -1 16H1C1 7.71573 7.71573 1 16 1V-1Z" fill="#C7C9D6" mask="url(#path-1-inside-1_800_1467177)"/>
</svg>
