<svg width="770" height="96" viewBox="0 0 770 96" fill="none" xmlns="http://www.w3.org/2000/svg">
<path d="M385 4.99998L385 47.0001M385 47.0001L273 47.0001C264.163 47.0001 257 54.1636 257 63.0001L257 79M385 47.0001L497 47.0001C505.837 47.0001 513 54.1636 513 63.0001L513 79M257 95L257 79M513 95L513 79M257 79L17 79C8.16345 79 1 86.1635 1 95V95M513 79L753 79C761.837 79 769 86.1634 769 95V95" stroke="#C7C9D6" stroke-width="1.5" stroke-linecap="square"/>
<circle cx="385" cy="6" r="5" transform="rotate(-90 385 6)" fill="#D9CFC3" stroke="#C7C9D6" stroke-width="2"/>
</svg>
