<svg width="591" height="68" viewBox="0 0 591 68" fill="none" xmlns="http://www.w3.org/2000/svg">
<path d="M296 2.99999L296 35.0001M296 35.0001L213.5 35.0001C204.663 35.0001 197.5 42.1635 197.5 51V51M296 35.0001L377.5 35.0001C386.337 35.0001 393.5 42.1635 393.5 51V51M197.5 67L197.5 51M393.5 67L393.5 51M197.5 51L17.5 51C8.66345 51 1.5 58.1635 1.5 67V67M393.5 51L573.5 51C582.337 51 589.5 58.1634 589.5 67V67" stroke="#C7C9D6" stroke-width="1.5" stroke-linecap="square"/>
<circle cx="296" cy="6" r="5" transform="rotate(-90 296 6)" fill="#D9CFC3" stroke="#C7C9D6" stroke-width="2"/>
</svg>
