<svg width="26" height="398" viewBox="0 0 26 398" fill="none" xmlns="http://www.w3.org/2000/svg">
<path d="M6 85H14M6 85V6.00024M6 85V226M24.5 117H22C17.5817 117 14 113.418 14 109V85M14 85V61C14 56.5817 17.5817 53 22 53H24.5M6 226V352.5C6 356.918 9.58172 360.5 14 360.5V360.5M6 226H14M14 226V200.5C14 196.082 17.5817 192.5 22 192.5H24.5M14 226V247C14 251.418 17.5817 255 22 255H24.5M14 360.5V341C14 336.582 17.5817 333 22 333H24.5M14 360.5V389C14 393.418 17.5817 397 22 397H24.5" stroke="#C7C9D6" stroke-width="1.5" stroke-linecap="square"/>
<circle cx="6" cy="6" r="5" fill="#D9CFC3" stroke="#C7C9D6" stroke-width="2"/>
</svg>
